<svg width="400" height="400" viewBox="0 0 400 400" fill="none" xmlns="http://www.w3.org/2000/svg">
<path d="M199.922 369.298L200.054 337.821L227.185 322.28C242.067 313.719 254.447 307.002 254.842 307.266C255.106 307.661 252.472 311.349 248.916 315.563C232.584 335.319 216.912 361.396 207.034 385.498C204.005 393.137 201.107 399.59 200.712 399.986C200.317 400.512 199.922 386.683 199.922 369.298Z" fill="black"/>
<path d="M76.7788 328.075C63.6084 322.017 58.0769 307.134 64.267 294.227C66.5059 289.749 75.0667 282.11 107.202 255.506C129.197 237.331 148.821 221.921 150.665 221.263C154.616 219.683 186.752 219.419 186.752 221C186.62 221.526 177.796 226.926 166.996 233.116L147.241 244.311V254.848L147.109 265.384L125.773 294.886C107.861 319.646 103.383 324.914 98.6417 327.548C91.6614 331.236 84.0226 331.368 76.7788 328.075Z" fill="black"/>
<path d="M303.31 328.207C296.593 325.046 297.12 325.704 273.677 293.042L253.921 265.647V254.979L253.789 244.311L234.165 233.116C223.366 226.926 214.41 221.526 214.41 221C214.41 219.683 245.36 219.814 249.706 221.131C251.419 221.526 270.779 236.804 292.774 254.848C320.431 277.632 333.734 289.354 335.709 293.042C339.924 300.417 339.924 310.954 335.709 317.802C328.992 328.734 314.241 333.343 303.31 328.207Z" fill="black"/>
<path d="M178.455 313.719L156.46 300.944V275.788V250.501L178.455 237.858L200.317 225.082L220.205 236.541C231.136 242.862 241.146 248.921 242.463 249.974C244.57 251.818 244.702 254.452 244.438 276.447L244.043 300.944L224.288 312.534C213.488 318.856 203.61 324.651 202.556 325.177C201.108 326.099 194.259 322.807 178.455 313.719ZM199.396 242.731C198.605 241.94 174.899 254.057 174.899 255.243C174.899 255.769 180.43 259.72 187.147 264.198L199.264 272.232L199.659 257.745C199.791 249.843 199.791 242.994 199.396 242.731Z" fill="black"/>
<path d="M290.798 240.36C274.467 226.926 258.926 214.678 256.292 213.229C251.945 210.99 248.521 210.727 225.21 210.727H199L193.996 203.483C186.489 192.552 170.816 178.591 160.674 173.586C155.801 171.347 151.587 169.24 151.324 169.108C151.06 168.845 152.509 163.182 154.353 156.465C161.465 131.968 171.738 116.427 183.064 113.002C187.542 111.685 189.386 111.817 194.127 113.529L199.922 115.636V98.6465C199.922 79.6811 199.659 80.2079 209.273 83.1054C220.863 86.6614 226.527 95.0905 240.092 128.412C244.175 138.553 250.497 152.909 254.184 160.284L260.77 173.718L252.604 183.991L244.438 194.264L248.916 195.054C251.287 195.581 261.955 197.029 272.755 198.347C283.423 199.664 292.115 201.244 292.115 201.903C292.115 202.561 290.798 205.195 289.349 207.698C286.979 211.517 286.715 212.571 288.296 213.888C289.349 214.941 301.993 225.873 316.481 238.385C330.968 251.028 343.085 261.696 343.216 262.355C343.48 262.882 341.373 263.408 338.607 263.408C335.841 263.408 330.705 263.803 327.017 264.199L320.432 264.989L290.798 240.36ZM219.415 191.63C222.839 189.259 230.873 184.649 237.063 181.752C247.994 176.484 248.389 176.089 247.072 173.191C245.755 170.162 245.492 170.03 241.541 172.137C234.824 175.562 222.049 185.044 216.385 190.839C210.064 197.425 210.985 197.688 219.415 191.63ZM205.849 172.269C207.825 171.347 209.142 169.635 209.142 168.055C209.273 164.499 213.751 154.621 217.702 149.353C219.81 146.719 221.258 142.504 221.785 138.026L222.575 131.046H200.317H178.059L178.981 137.763C179.508 142.109 181.484 146.982 184.513 151.592C187.147 155.543 189.913 161.601 190.835 165.025C192.81 173.323 198.078 175.825 205.849 172.269Z" fill="black"/>
<path d="M53.9939 242.467C31.2091 208.093 15.7997 165.025 9.74135 118.534C7.63408 102.202 5 64.535 5 49.1256V39.5112H31.7359L58.3402 39.3795L69.4033 19.7556C75.5934 8.82418 80.9933 0 81.3884 0C81.9152 0 90.0809 8.95588 99.6953 19.7556C112.207 33.9797 117.87 39.5112 119.978 39.5112C122.085 39.5112 124.982 36.6138 130.514 29.2383C134.597 23.7067 140.524 16.3313 143.684 12.7753L149.216 6.58521L159.094 14.3558L168.972 22.1263L174.24 19.3605C190.308 11.1949 211.644 11.3266 225.736 19.6239L230.478 22.3897L239.17 15.6728C244.043 11.8534 248.653 8.29736 249.443 7.63884C251.023 6.4535 263.404 20.4141 272.096 33.3211C278.813 43.0673 279.867 42.5404 300.149 19.7556C309.763 8.82418 317.929 0 318.456 0C318.983 0 324.251 8.82418 330.441 19.7556L341.504 39.5112H368.372H395.239L394.317 62.2961C391.288 141.055 378.776 189.522 349.275 237.199C345.192 243.653 341.241 248.921 340.45 248.921C339.529 248.921 336.631 246.814 333.997 244.311L329.124 239.702L335.841 228.902C345.587 213.361 356.913 188.732 362.445 171.61C371.533 143.294 377.723 102.202 377.723 70.4617V55.3157H355.07H332.285L324.646 41.4868C320.431 33.848 316.48 27.3945 315.953 27.1311C315.427 26.7359 309.5 32.926 302.651 40.96L290.271 55.3157H278.286H266.301L263.535 49.6525C260.506 43.4624 250.101 28.9749 248.653 28.9749C248.126 28.9749 243.78 32.0041 239.038 35.6918L230.214 42.4087L226 38.721C210.458 25.6823 189.386 25.6823 173.845 38.8527L169.498 42.5404L161.596 36.3503C157.25 32.926 152.904 29.8968 152.114 29.5017C150.138 28.8432 140.524 40.96 136.572 49.1256L133.543 55.3157H121.558H109.441L97.0612 40.8283C90.3443 32.926 84.2859 26.8676 83.6274 27.5262C83.1006 28.053 79.1494 34.5065 75.0666 41.6185L67.5595 54.6572L44.6429 55.0523L21.7264 55.3157L22.5167 79.4176C24.4922 140.528 38.848 190.312 67.0327 233.907C71.3789 240.492 74.8032 246.155 74.8032 246.418C74.8032 246.814 72.1691 249.184 69.0082 251.818L63.3449 256.691L53.9939 242.467Z" fill="black"/>
<path d="M80.0712 226.795C70.4568 212.307 58.0766 186.493 52.545 169.372C47.8037 154.884 42.6672 133.021 44.116 133.021C44.3794 133.021 48.1988 136.841 52.6767 141.582C57.023 146.323 60.8424 150.011 61.1058 149.879C61.2375 149.616 59.9205 145.138 58.2083 139.87C56.3644 134.47 53.7304 124.592 52.2816 117.612C49.5158 104.046 46.75 74.9397 48.1988 73.4909C48.7256 72.9641 54.5206 72.4373 60.9741 72.1739L72.8275 71.7788L78.7541 61.2424L84.5491 50.8378L85.4711 55.9743C85.9979 58.8718 87.4466 67.4325 88.632 75.0714C92.4514 98.383 102.197 123.67 110.231 130.914C112.866 133.285 112.866 133.285 111.548 128.938C108.651 119.061 105.095 93.9051 105.095 83.5004V72.4373H124.719H144.211L145.001 65.5887C146.055 57.2913 151.06 46.755 153.957 46.8867C155.143 47.0184 159.884 50.0476 164.625 53.867C173.845 60.979 174.898 61.5058 174.898 58.8718C174.898 55.9743 182.932 47.4135 188.2 44.7794C194.785 41.3551 205.058 41.3551 211.644 44.7794C216.253 47.0184 223.629 54.2621 223.629 56.3694C223.629 56.8962 224.155 58.0815 224.814 59.1352C225.736 60.5839 228.107 59.3986 235.482 53.4719C240.75 49.3891 245.755 46.2282 246.545 46.4916C249.048 47.1501 253.921 58.6083 254.843 65.5887L255.633 72.4373H275.388H295.144L294.354 88.6369C293.827 98.1196 292.247 110.368 290.271 118.534C288.559 126.173 287.373 132.626 287.505 132.758C288.427 133.811 296.593 121.3 300.28 113.266C305.154 102.598 311.08 79.5493 313.056 64.0082C313.846 57.5547 314.636 52.0231 315.031 51.7597C315.295 51.4963 318.061 55.8426 321.221 61.5058L327.016 71.7788L339.397 72.4373L351.777 73.0958L351.513 83.6321C350.987 101.939 345.455 131.836 340.187 144.348C339.133 146.982 338.343 149.484 338.606 149.748C339.001 150.011 342.821 146.323 347.299 141.45C351.777 136.709 355.728 133.021 355.86 133.153C356.782 134.338 351.118 157.782 346.772 170.952C339.528 192.42 320.299 230.087 317.139 228.902C316.48 228.638 311.607 224.687 306.075 220.078L296.198 211.517L300.807 203.351L305.417 195.186L301.729 194.395C299.754 194 290.008 192.815 280.261 191.63C270.515 190.444 261.691 189.127 260.638 188.864C259.452 188.469 260.242 186.756 263.403 182.674C265.906 179.644 268.408 176.484 268.935 175.562C269.33 174.64 266.301 167.001 262.086 158.44C257.74 149.879 251.155 135.26 247.335 125.777C238.116 103.124 232.453 91.9295 226.79 85.6077C216.517 74.2811 199.79 70.9885 187.805 78.1006C176.742 84.5541 170.025 95.7489 155.011 132.231C151.191 141.582 145.265 154.752 141.972 161.601L135.782 173.849L142.104 182.674C145.66 187.547 148.557 191.893 148.557 192.42C148.557 193.605 143.948 194.395 122.875 196.898C113.524 198.083 104.963 199.268 104.041 199.532C102.724 200.059 103.251 201.639 105.753 205.854C107.597 209.014 109.046 212.175 109.046 212.966C109.046 213.756 103.778 219.156 97.4561 224.951L85.8662 235.619L80.0712 226.795Z" fill="black"/>
</svg>
