<svg width="400" height="400" viewBox="0 0 400 400" fill="none" xmlns="http://www.w3.org/2000/svg">
<path d="M34.4886 244.921C53.4235 208.065 70.3297 178.311 72.0203 179.325C76.4159 182.03 101.775 220.576 101.775 224.295C101.775 226.324 98.3939 234.777 94.3364 243.23C90.279 251.345 87.9121 259.122 88.9265 260.136C89.9408 261.151 105.495 261.489 123.415 261.151L156.213 260.136L120.71 207.727C101.099 178.987 85.8833 154.98 86.5596 154.304C87.574 152.951 281.657 299.359 292.815 309.502C294.505 311.193 232.629 312.545 147.76 312.545H0L34.4886 244.921Z" fill="black"/>
<path d="M171.767 188.454C99.7466 133.34 41.5894 87.6935 42.2656 87.0173C42.9419 86.341 83.5167 105.614 132.545 130.297C181.572 154.642 237.363 182.03 256.636 191.159L291.124 207.389L301.268 187.44C307.016 176.282 311.412 165.8 311.412 163.771C311.412 161.404 299.916 160.39 278.276 160.728L245.14 161.066L194.759 135.707L144.041 110.01H271.851L400 109.672L354.353 198.26C329.67 246.95 307.692 287.186 306.002 287.863C304.311 288.201 244.125 243.568 171.767 188.454Z" fill="black"/>
</svg>
