<svg width="24" height="24" viewBox="0 0 24 24" fill="none" xmlns="http://www.w3.org/2000/svg">
<path d="M7.48873 4C7.18874 3.6 7.18859 3.60011 7.18842 3.60024L7.18801 3.60055L7.18691 3.60137L7.18363 3.60385L7.17281 3.61211C7.16374 3.61908 7.15098 3.62895 7.13481 3.64168C7.10247 3.66712 7.05642 3.70397 6.99877 3.75175C6.88352 3.84727 6.72157 3.98673 6.52982 4.16624C6.14706 4.52456 5.64159 5.04614 5.15119 5.7C4.17743 6.99831 3.21953 8.87815 3.49255 11.062C3.57708 11.7382 3.92546 12.2271 4.36046 12.5969C4.78032 12.9539 5.30288 13.2179 5.7664 13.4479C6.6718 13.8971 6.99552 14.5574 7.36807 15.3395C7.37341 15.3507 7.37876 15.3619 7.38413 15.3732C7.66395 15.961 7.99278 16.6517 8.68228 17.1681C9.39213 17.6996 10.4121 18 11.9887 18C13.5624 18 14.5758 17.7186 15.2796 17.2066C15.9657 16.7075 16.2876 16.0328 16.5653 15.4507C16.5708 15.4391 16.5763 15.4275 16.5819 15.416C16.9478 14.6496 17.2831 13.961 18.2304 13.4377C18.6205 13.2221 19.1307 12.9185 19.5622 12.5444C19.9805 12.1818 20.4072 11.683 20.4848 11.062C20.7577 8.87815 19.7998 6.99832 18.8261 5.7C18.3357 5.04615 17.8303 4.52457 17.4476 4.16624C17.2558 3.98674 17.0939 3.84728 16.9786 3.75176C16.921 3.70398 16.8749 3.66712 16.8426 3.64168C16.8264 3.62896 16.8137 3.61909 16.8046 3.61212L16.7938 3.60386L16.7905 3.60138L16.7894 3.60055L16.789 3.60024C16.7888 3.60012 16.7887 3.6 16.4887 4L16.7887 3.6L15.9887 2.99999V4V6.21363C15.7062 6.08666 15.359 5.93627 14.9818 5.78565C14.5032 5.59457 13.9702 5.40056 13.4567 5.25366C12.951 5.10899 12.4306 5 11.9887 5C11.5467 5 11.0264 5.10899 10.5207 5.25366C10.0072 5.40056 9.47414 5.59457 8.99561 5.78565C8.6184 5.93627 8.27113 6.08665 7.98868 6.21363L7.98873 4.00001L7.98876 3L7.18874 3.6L7.48873 4ZM6.48864 20H6.98864V19.5C6.98864 18.9275 6.80744 18.2169 6.59051 17.5581C6.36924 16.8862 6.09255 16.2155 5.8673 15.7045C5.52382 14.9254 4.60777 14.6314 3.8706 15L3.60839 15.1311C2.90665 15.482 2.56373 16.3491 2.97781 17.0855L3.41364 16.8404L2.97781 17.0855C3.2787 17.6206 3.732 18.3284 4.30181 18.9088C4.86179 19.4792 5.60698 20 6.48864 20ZM16.9886 19.5V20H17.4886C18.3703 20 19.1155 19.4792 19.6755 18.9088C20.2453 18.3284 20.6986 17.6206 20.9995 17.0855C21.4135 16.3491 21.0706 15.482 20.3689 15.1311L20.1067 15C19.3695 14.6314 18.4535 14.9254 18.11 15.7045C17.8847 16.2155 17.608 16.8862 17.3868 17.5581C17.1698 18.2169 16.9886 18.9275 16.9886 19.5ZM11.9886 8C13.2168 8 14.0778 8.37568 14.632 8.9397C15.1887 9.50643 15.4886 10.3172 15.4886 11.2857C15.4886 12.2151 15.0474 13.285 14.3527 14.1286C13.6521 14.9792 12.7799 15.5 11.9886 15.5C11.1973 15.5 10.3251 14.9792 9.62459 14.1286C8.92986 13.285 8.48862 12.2151 8.48862 11.2857C8.48862 10.3172 8.7885 9.50643 9.34529 8.9397C9.89941 8.37568 10.7604 8 11.9886 8Z" fill="#F3F3F3" stroke="#F3F3F3"/>
<path d="M11.9886 9L10.4886 12L11.9886 14.5L13.4886 12L11.9886 9Z" fill="#F3F3F3" stroke="#F3F3F3" stroke-width="0.25"/>
</svg>
