<svg width="24" height="24" viewBox="0 0 24 24" fill="none" xmlns="http://www.w3.org/2000/svg">
<path d="M2 8V19C2 19.5523 2.44772 20 3 20H21C21.5523 20 22 19.5523 22 19V8M2 8V5C2 4.44772 2.44772 4 3 4H21C21.5523 4 22 4.44772 22 5V8M2 8H22" stroke="#F3F3F3" stroke-width="1.5"/>
<path d="M6 2V5" stroke="#F3F3F3" stroke-width="1.5" stroke-linecap="round"/>
<path d="M18 2V5" stroke="#F3F3F3" stroke-width="1.5" stroke-linecap="round"/>
<rect x="5" y="13" width="2" height="2" rx="0.25" fill="#C4C4C4" stroke="#F3F3F3" stroke-width="0.75"/>
<rect x="5" y="16" width="2" height="2" rx="0.25" fill="#C4C4C4" stroke="#F3F3F3" stroke-width="0.75"/>
<rect x="9" y="10" width="2" height="2" rx="0.25" fill="#C4C4C4" stroke="#F3F3F3" stroke-width="0.75"/>
<rect x="9" y="13" width="2" height="2" rx="0.25" fill="#C4C4C4" stroke="#F3F3F3" stroke-width="0.75"/>
<rect x="9" y="16" width="2" height="2" rx="0.25" fill="#C4C4C4" stroke="#F3F3F3" stroke-width="0.75"/>
<rect x="13" y="10" width="2" height="2" rx="0.25" fill="#C4C4C4" stroke="#F3F3F3" stroke-width="0.75"/>
<rect x="13" y="13" width="2" height="2" rx="0.25" fill="#C4C4C4" stroke="#F3F3F3" stroke-width="0.75"/>
<rect x="13" y="16" width="2" height="2" rx="0.25" fill="#C4C4C4" stroke="#F3F3F3" stroke-width="0.75"/>
<rect x="17" y="10" width="2" height="2" rx="0.25" fill="#C4C4C4" stroke="#F3F3F3" stroke-width="0.75"/>
<rect x="17" y="13" width="2" height="2" rx="0.25" fill="#C4C4C4" stroke="#F3F3F3" stroke-width="0.75"/>
</svg>
