<svg width="24" height="24" viewBox="0 0 24 24" fill="none" xmlns="http://www.w3.org/2000/svg">
<path d="M8 10C5 10 4 8 4 5V3C4 2.44772 4.44772 2 5 2H19C19.5523 2 20 2.44742 20 2.9997V5C20 8 19 10 16 10C14.5 10 14 11.3333 14 12V14C14 14.8 14.6667 15 15 15L15.5 16L15 17C15 17.8 15 21 16.5 21C16.7761 21 17 21.2239 17 21.5C17 21.7761 16.7761 22 16.5 22H7.5C7.22386 22 7 21.7761 7 21.5C7 21.2239 7.22386 21 7.5 21C9 21 9 19 9 17L8.5 16L9 15C9.8 15 10 14.3333 10 14V12C10 10.5 8.5 10 8 10Z" fill="#C4C4C4"/>
<path d="M9 15C9.8 15 10 14.3333 10 14V12C10 10.5 8.5 10 8 10C5 10 4 8 4 5V3C4 2.44772 4.44772 2 5 2H19C19.5523 2 20 2.44742 20 2.9997C20 3.58512 20 4.30913 20 5C20 8 19 10 16 10C14.5 10 14 11.3333 14 12C14 12.3333 14 13.2 14 14C14 14.8 14.6667 15 15 15M9 15L8.5 16L9 17M9 15H15M9 17C9 19 9 21 7.5 21V21C7.22386 21 7 21.2239 7 21.5V21.5C7 21.7761 7.22386 22 7.5 22H16.5C16.7761 22 17 21.7761 17 21.5V21.5C17 21.2239 16.7761 21 16.5 21V21C15 21 15 17.8 15 17M9 17H15M15 17L15.5 16L15 15" stroke="#F3F3F3" stroke-width="1.5"/>
</svg>
