<svg width="26" height="31" viewBox="0 0 26 31" fill="none" xmlns="http://www.w3.org/2000/svg">
<g filter="url(#filter0_d_2_796)">
<path d="M9 10C6 10 5 8 5 5V3C5 2.44772 5.44772 2 6 2H20C20.5523 2 21 2.44742 21 2.9997V5C21 8 20 10 17 10C15.5 10 15 11.3333 15 12V14C15 14.8 15.6667 15 16 15L16.5 16L16 17C16 17.8 16 21 17.5 21C17.7761 21 18 21.2239 18 21.5C18 21.7761 17.7761 22 17.5 22H8.5C8.22386 22 8 21.7761 8 21.5C8 21.2239 8.22386 21 8.5 21C10 21 10 19 10 17L9.5 16L10 15C10.8 15 11 14.3333 11 14V12C11 10.5 9.5 10 9 10Z" fill="#F3F3F3"/>
<path d="M10 15C10.8 15 11 14.3333 11 14V12C11 10.5 9.5 10 9 10C6 10 5 8 5 5V3C5 2.44772 5.44772 2 6 2H20C20.5523 2 21 2.44742 21 2.9997C21 3.58512 21 4.30913 21 5C21 8 20 10 17 10C15.5 10 15 11.3333 15 12C15 12.3333 15 13.2 15 14C15 14.8 15.6667 15 16 15M10 15L9.5 16L10 17M10 15H16M10 17C10 19 10 21 8.5 21V21C8.22386 21 8 21.2239 8 21.5V21.5C8 21.7761 8.22386 22 8.5 22H17.5C17.7761 22 18 21.7761 18 21.5V21.5C18 21.2239 17.7761 21 17.5 21V21C16 21 16 17.8 16 17M10 17H16M16 17L16.5 16L16 15" stroke="#F3F3F3" stroke-width="1.5"/>
</g>
<defs>
<filter id="filter0_d_2_796" x="-3" y="0" width="32" height="32" filterUnits="userSpaceOnUse" color-interpolation-filters="sRGB">
<feFlood flood-opacity="0" result="BackgroundImageFix"/>
<feColorMatrix in="SourceAlpha" type="matrix" values="0 0 0 0 0 0 0 0 0 0 0 0 0 0 0 0 0 0 127 0" result="hardAlpha"/>
<feOffset dy="4"/>
<feGaussianBlur stdDeviation="2"/>
<feComposite in2="hardAlpha" operator="out"/>
<feColorMatrix type="matrix" values="0 0 0 0 0 0 0 0 0 0 0 0 0 0 0 0 0 0 0.25 0"/>
<feBlend mode="normal" in2="BackgroundImageFix" result="effect1_dropShadow_2_796"/>
<feBlend mode="normal" in="SourceGraphic" in2="effect1_dropShadow_2_796" result="shape"/>
</filter>
</defs>
</svg>
