<svg width="24" height="24" viewBox="0 0 24 24" fill="none" xmlns="http://www.w3.org/2000/svg">
<path d="M6.50007 9V5C6.50007 5 6.50007 4.5 7.50007 4.5C8.50007 4.5 8.50007 5 8.50007 5C8.50007 5.55228 8.94779 6 9.50007 6H10.0001C10.5524 6 11.0001 5.55228 11.0001 5C11.0001 5 11.0001 4.5 12.2501 4.5C13.5001 4.5 13.5001 5 13.5001 5C13.5001 5.55228 13.9478 6 14.5001 6C15.0524 6 15.5001 5.55228 15.5001 5C15.5001 5 15.5001 4.5 16.5001 4.5C17.5001 4.5 17.5001 5 17.5001 5V9C17.5001 9 16 10.5 16 11C16 11.5 17.0001 19 17.0001 19H17.5001C17.5001 19 18.0001 19 18.0001 20.25C18.0001 21.5 17.5001 21.5 17.5001 21.5H6.50007C6.50007 21.5 5.79102 21.5 5.79102 20.25C5.79102 19 6.50007 19 6.50007 19H7.00007C7.00007 19 7.99993 11.5 8 11C8.00007 10.5 6.50007 9 6.50007 9Z" fill="#F3F3F3"/>
<path d="M6.50007 9V5C6.50007 5 6.50007 4.5 7.50007 4.5C8.50007 4.5 8.50007 5 8.50007 5C8.50007 5 8.50007 5 8.50007 5C8.50007 5.55228 8.94779 6 9.50007 6H10.0001C10.5524 6 11.0001 5.55228 11.0001 5C11.0001 5 11.0001 5 11.0001 5C11.0001 5 11.0001 4.5 12.2501 4.5C13.5001 4.5 13.5001 5 13.5001 5C13.5001 5 13.5001 5 13.5001 5C13.5001 5.55228 13.9478 6 14.5001 6C15.0524 6 15.5001 5.55228 15.5001 5C15.5001 5 15.5001 5 15.5001 5C15.5001 5 15.5001 4.5 16.5001 4.5C17.5001 4.5 17.5001 5 17.5001 5V9M6.50007 9H17.5001M6.50007 9C6.50007 9 8.00007 10.5 8 11C7.99993 11.5 7.00007 19 7.00007 19M17.5001 9C17.5001 9 16 10.5 16 11C16 11.5 17.0001 19 17.0001 19M7.00007 19H17.0001M7.00007 19H6.50007C6.50007 19 5.79102 19 5.79102 20.25C5.79102 21.5 6.50007 21.5 6.50007 21.5H17.5001C17.5001 21.5 18.0001 21.5 18.0001 20.25C18.0001 19 17.5001 19 17.5001 19H17.0001" stroke="#F3F3F3" stroke-width="1.5"/>
</svg>
