<svg width="26" height="31" viewBox="0 0 26 31" fill="none" xmlns="http://www.w3.org/2000/svg">
<g filter="url(#filter0_d_2_798)">
<path d="M9 8.5C9 4 12.5 4 13 4C13.5 4 17 4 17 8.5C17 11.28 16.2367 12.5334 15.6532 13.0854C15.3198 13.4008 14.9861 13.827 15.0921 14.2735C15.2953 15.1301 15.8577 16 17 16C20 16 21 17 21 18V21C21 21.5523 20.5523 22 20 22H6C5.44772 22 5 21.5523 5 21V18C5 17 6 16 9 16C10.1156 16 10.6482 15.0256 10.8682 14.2671C10.996 13.8263 10.6802 13.4008 10.3468 13.0854C9.76332 12.5334 9 11.28 9 8.5Z" fill="#F3F3F3" stroke="#F3F3F3" stroke-width="1.5"/>
<path d="M7.5 7.5C7.5 4.46243 10.2386 2.5 13 2.5C15.7614 2.5 18.5 4.46243 18.5 7.5C18.5 12.5 19 12 13 12" stroke="#F3F3F3" stroke-width="0.75" stroke-linecap="round"/>
<rect x="18" y="7" width="1" height="3" rx="0.5" stroke="#F3F3F3"/>
<rect x="18" y="7" width="1" height="3" rx="0.25" stroke="#F3F3F3"/>
<rect x="19" y="7.75" width="0.75" height="1.5" rx="0.25" stroke="#F3F3F3" stroke-width="0.75"/>
<rect x="6.25" y="7.75" width="0.75" height="1.5" rx="0.25" stroke="#F3F3F3" stroke-width="0.75"/>
<rect x="7" y="7" width="1" height="3" rx="0.25" stroke="#F3F3F3"/>
</g>
<defs>
<filter id="filter0_d_2_798" x="-3" y="0" width="32" height="32" filterUnits="userSpaceOnUse" color-interpolation-filters="sRGB">
<feFlood flood-opacity="0" result="BackgroundImageFix"/>
<feColorMatrix in="SourceAlpha" type="matrix" values="0 0 0 0 0 0 0 0 0 0 0 0 0 0 0 0 0 0 127 0" result="hardAlpha"/>
<feOffset dy="4"/>
<feGaussianBlur stdDeviation="2"/>
<feComposite in2="hardAlpha" operator="out"/>
<feColorMatrix type="matrix" values="0 0 0 0 0 0 0 0 0 0 0 0 0 0 0 0 0 0 0.25 0"/>
<feBlend mode="normal" in2="BackgroundImageFix" result="effect1_dropShadow_2_798"/>
<feBlend mode="normal" in="SourceGraphic" in2="effect1_dropShadow_2_798" result="shape"/>
</filter>
</defs>
</svg>
