<svg width="24" height="24" viewBox="0 0 24 24" fill="none" xmlns="http://www.w3.org/2000/svg">
<path d="M8.5 10C8.5 6 11.5625 6 12 6C12.4375 6 15.5 6 15.5 10C15.5 12.3676 14.8869 13.4895 14.3865 14.0109C14.0697 14.341 13.7343 14.7711 13.8508 15.2135C14.0441 15.9476 14.5361 16.6667 15.5 16.6667C18.125 16.6667 19 17.5556 19 18.4444V21C19 21.5523 18.5523 22 18 22H6C5.44772 22 5 21.5523 5 21V18.4444C5 17.5556 5.875 16.6667 8.5 16.6667C9.43766 16.6667 9.90465 15.8675 10.1106 15.2069C10.2468 14.7701 9.9303 14.341 9.61353 14.0109C9.11311 13.4895 8.5 12.3676 8.5 10Z" fill="#F3F3F3" stroke="#F3F3F3" stroke-width="1.5"/>
<path fill-rule="evenodd" clip-rule="evenodd" d="M6.05296 2.90735C5.673 2.90735 3.01324 2.90735 3.01324 6.45369C3.01324 8.4528 3.4962 9.4502 3.91763 9.93999C4.2148 10.2854 4.53122 10.7189 4.38615 11.1508C4.19535 11.7189 3.79048 12.3643 3.01324 12.3643C2 12.3643 2 12.7583 2 13.5464L2.00002 16.0927C2.00002 16.645 2.44773 17.0927 3.00002 17.0927H3.46375C3.77958 16.0237 4.87168 15.0672 8.08061 15.0672C8.23248 15.0672 8.33141 14.8223 8.24056 14.7006C7.7919 14.0996 7.06715 12.6416 7.06715 9.49332C7.06715 7.36131 7.95308 6.11546 9.00002 5.39319C8.52698 2.90735 6.39049 2.90735 6.05296 2.90735Z" fill="#C4C4C4"/>
<path d="M3.01324 6.45369L2.51324 6.45369L3.01324 6.45369ZM3.91763 9.93999L3.53861 10.2661H3.53861L3.91763 9.93999ZM4.38615 11.1508L3.91217 10.9916L4.38615 11.1508ZM2 13.5464H1.5V13.5464L2 13.5464ZM2.00002 16.0927L2.50002 16.0927L2.00002 16.0927ZM3.46375 17.0927V17.5927H3.8374L3.94326 17.2344L3.46375 17.0927ZM8.24056 14.7006L8.64123 14.4015L8.64123 14.4015L8.24056 14.7006ZM9.00002 5.39319L9.28396 5.80475L9.55211 5.61975L9.49121 5.29972L9.00002 5.39319ZM3.51324 6.45369C3.51324 4.82657 4.11033 4.11393 4.65477 3.77517C5.24048 3.41072 5.87752 3.40735 6.05296 3.40735V2.40735C5.84844 2.40735 4.96562 2.40397 4.12646 2.92611C3.24603 3.47394 2.51324 4.53446 2.51324 6.45369L3.51324 6.45369ZM4.29664 9.61387C3.97695 9.24232 3.51324 8.37525 3.51324 6.45369L2.51324 6.45369C2.51324 8.53034 3.01545 9.65807 3.53861 10.2661L4.29664 9.61387ZM4.86013 11.31C4.98842 10.9281 4.89988 10.5718 4.76895 10.2975C4.64061 10.0287 4.45 9.79212 4.29664 9.61387L3.53861 10.2661C3.68242 10.4332 3.79862 10.5861 3.8665 10.7283C3.93182 10.8652 3.92895 10.9416 3.91217 10.9916L4.86013 11.31ZM3.01324 12.8643C4.13641 12.8643 4.65501 11.9207 4.86013 11.31L3.91217 10.9916C3.73569 11.517 3.44454 11.8643 3.01324 11.8643V12.8643ZM2.5 13.5464C2.5 13.3411 2.5006 13.1981 2.51299 13.0825C2.52523 12.9682 2.54466 12.9342 2.54724 12.9302C2.54758 12.9296 2.5473 12.9301 2.5465 12.931C2.54569 12.9319 2.54546 12.9319 2.54652 12.9311C2.54841 12.9297 2.56024 12.9213 2.59082 12.9107C2.6582 12.8874 2.78519 12.8643 3.01324 12.8643V11.8643C2.48201 11.8643 1.9825 11.9594 1.70607 12.3894C1.58199 12.5824 1.5381 12.7947 1.51868 12.9759C1.4994 13.1558 1.5 13.3576 1.5 13.5464H2.5ZM2.50002 16.0927L2.5 13.5464L1.5 13.5464L1.50002 16.0927L2.50002 16.0927ZM3.00002 16.5927C2.72388 16.5927 2.50002 16.3689 2.50002 16.0927L1.50002 16.0927C1.50002 16.9211 2.17159 17.5927 3.00002 17.5927V16.5927ZM3.46375 16.5927H3.00002V17.5927H3.46375V16.5927ZM3.94326 17.2344C4.06302 16.829 4.32602 16.4319 4.91876 16.1223C5.53242 15.8017 6.5169 15.5672 8.08061 15.5672V14.5672C6.43539 14.5672 5.26935 14.8109 4.45577 15.2359C3.62127 15.6718 3.18031 16.2874 2.98424 16.951L3.94326 17.2344ZM8.08061 15.5672C8.44436 15.5672 8.64207 15.2897 8.71204 15.1245C8.78385 14.9549 8.83188 14.6569 8.64123 14.4015L7.8399 14.9997C7.78762 14.9297 7.77652 14.8613 7.77545 14.8233C7.77438 14.7851 7.78209 14.7561 7.79117 14.7346C7.79997 14.7138 7.8186 14.6801 7.85841 14.6462C7.90071 14.6102 7.97715 14.5672 8.08061 14.5672V15.5672ZM8.64123 14.4015C8.27403 13.9096 7.56715 12.5661 7.56715 9.49332H6.56715C6.56715 12.7171 7.30978 14.2896 7.8399 14.9997L8.64123 14.4015ZM7.56715 9.49332C7.56715 7.52701 8.3712 6.43445 9.28396 5.80475L8.71609 4.98163C7.53497 5.79646 6.56715 7.1956 6.56715 9.49332H7.56715ZM6.05296 3.40735C6.20639 3.40735 6.72812 3.40911 7.25603 3.66725C7.75634 3.9119 8.30306 4.40526 8.50884 5.48666L9.49121 5.29972C9.22395 3.89527 8.4659 3.14572 7.69532 2.76891C6.95234 2.40559 6.23706 2.40735 6.05296 2.40735V3.40735Z" fill="#F3F3F3"/>
<path fill-rule="evenodd" clip-rule="evenodd" d="M17.9861 2.81335C18.3711 2.81335 21.0661 2.81335 21.0661 6.40667C21.0661 8.4432 20.5715 9.45376 20.1428 9.94715C19.844 10.2911 19.5281 10.7239 19.6718 11.1563C19.8637 11.7342 20.2741 12.3955 21.0661 12.3955C22.0928 12.3955 22.0928 12.7948 22.0928 13.5933L22.0928 16.1866C22.0928 16.7389 21.645 17.1866 21.0928 17.1866H20.6097C20.2896 16.1035 19.1831 15.1343 15.9316 15.1343C15.7778 15.1343 15.6775 14.8861 15.7696 14.7628C16.2242 14.1539 16.9585 12.6765 16.9585 9.48656C16.9585 7.3263 16.0608 6.06394 15 5.33211C15.4793 2.81335 17.6441 2.81335 17.9861 2.81335Z" fill="#C4C4C4"/>
<path d="M21.0661 6.40667L21.5661 6.40667V6.40667L21.0661 6.40667ZM20.1428 9.94715L19.7654 9.61924H19.7654L20.1428 9.94715ZM19.6718 11.1563L19.1973 11.3139L19.1973 11.3139L19.6718 11.1563ZM22.0928 13.5933H22.5928V13.5933L22.0928 13.5933ZM22.0928 16.1866L21.5928 16.1866L22.0928 16.1866ZM20.6097 17.1866V17.6866H20.236L20.1301 17.3283L20.6097 17.1866ZM15.7696 14.7628L16.1702 15.0619L16.1702 15.0619L15.7696 14.7628ZM15 5.33211L14.7161 5.74367L14.4479 5.55867L14.5088 5.23863L15 5.33211ZM20.5661 6.40667C20.5661 4.75607 19.9602 4.03168 19.4063 3.68705C18.8112 3.31673 18.1641 3.31335 17.9861 3.31335V2.31335C18.1932 2.31335 19.0861 2.30998 19.9346 2.83799C20.8245 3.39169 21.5661 4.46396 21.5661 6.40667L20.5661 6.40667ZM19.7654 9.61924C20.091 9.24445 20.5661 8.36519 20.5661 6.40667L21.5661 6.40667C21.5661 8.5212 21.0519 9.66307 20.5203 10.2751L19.7654 9.61924ZM19.1973 11.3139C19.0705 10.9323 19.1591 10.5767 19.2905 10.3025C19.4194 10.0336 19.6105 9.79752 19.7654 9.61924L20.5203 10.2751C20.3764 10.4407 20.2601 10.5931 20.1923 10.7347C20.127 10.8709 20.1294 10.9479 20.1463 10.9987L19.1973 11.3139ZM21.0661 12.8955C19.9262 12.8955 19.4029 11.9331 19.1973 11.3139L20.1463 10.9987C20.3245 11.5353 20.6221 11.8955 21.0661 11.8955V12.8955ZM21.5928 13.5933C21.5928 13.3854 21.5922 13.2401 21.5796 13.1226C21.5671 13.0063 21.5473 12.9707 21.5439 12.9654C21.5436 12.965 21.5444 12.9657 21.543 12.9646C21.5404 12.9627 21.5278 12.9539 21.4963 12.943C21.427 12.919 21.2975 12.8955 21.0661 12.8955V11.8955C21.6041 11.8955 22.1069 11.992 22.385 12.4246C22.5099 12.6189 22.5543 12.8328 22.5739 13.016C22.5934 13.1979 22.5928 13.402 22.5928 13.5933H21.5928ZM21.5928 16.1866L21.5928 13.5933L22.5928 13.5933L22.5928 16.1866L21.5928 16.1866ZM21.0928 16.6866C21.3689 16.6866 21.5928 16.4628 21.5928 16.1866L22.5928 16.1866C22.5928 17.0151 21.9212 17.6866 21.0928 17.6866V16.6866ZM20.6097 16.6866H21.0928V17.6866H20.6097V16.6866ZM20.1301 17.3283C20.0083 16.9159 19.7406 16.512 19.1384 16.1975C18.5153 15.872 17.5166 15.6343 15.9316 15.6343V14.6343C17.5981 14.6343 18.7784 14.8812 19.6014 15.3111C20.4454 15.7519 20.891 16.3743 21.0892 17.045L20.1301 17.3283ZM15.9316 15.6343C15.5669 15.6343 15.3683 15.356 15.2979 15.1897C15.2257 15.0191 15.1776 14.7199 15.3689 14.4637L16.1702 15.0619C16.2222 14.9923 16.2332 14.9245 16.2342 14.887C16.2353 14.8493 16.2277 14.8208 16.2188 14.7999C16.2102 14.7796 16.1919 14.7463 16.1525 14.7128C16.1106 14.6771 16.0346 14.6343 15.9316 14.6343V15.6343ZM15.3689 14.4637C15.742 13.9639 16.4585 12.601 16.4585 9.48656H17.4585C17.4585 12.752 16.7063 14.3439 16.1702 15.0619L15.3689 14.4637ZM16.4585 9.48656C16.4585 7.492 15.6427 6.38293 14.7161 5.74367L15.284 4.92054C16.479 5.74495 17.4585 7.16059 17.4585 9.48656H16.4585ZM17.9861 3.31335C17.8305 3.31335 17.3005 3.31511 16.7642 3.57737C16.2555 3.82613 15.7001 4.32773 15.4912 5.42558L14.5088 5.23863C14.7792 3.81773 15.5459 3.05995 16.3249 2.67902C17.0763 2.3116 17.7998 2.31335 17.9861 2.31335V3.31335Z" fill="#F3F3F3"/>
</svg>
