<svg width="24" height="24" viewBox="0 0 24 24" fill="none" xmlns="http://www.w3.org/2000/svg">
<path d="M8.5 10C8.5 6 11.5625 6 12 6C12.4375 6 15.5 6 15.5 10C15.5 12.3676 14.8869 13.4895 14.3865 14.0109C14.0697 14.341 13.7343 14.7711 13.8508 15.2135C14.0441 15.9476 14.5361 16.6667 15.5 16.6667C18.125 16.6667 19 17.5556 19 18.4444V21C19 21.5523 18.5523 22 18 22H6C5.44772 22 5 21.5523 5 21V18.4444C5 17.5556 5.875 16.6667 8.5 16.6667C9.43766 16.6667 9.90465 15.8675 10.1106 15.2069C10.2468 14.7701 9.9303 14.341 9.61353 14.0109C9.11311 13.4895 8.5 12.3676 8.5 10Z" stroke="#F3F3F3" stroke-width="1.5"/>
<path d="M2.99981 6.49934L3.49981 6.49934L2.99981 6.49934ZM3.88558 9.93169L4.26612 9.60735L3.88558 9.93169ZM4.35123 11.1439L4.82466 11.3048L4.35123 11.1439ZM2 13.498H1.5V13.498L2 13.498ZM2.00002 15.9974L1.50002 15.9974L2.00002 15.9974ZM3.44435 16.9974V17.4974H3.81799L3.92386 17.139L3.44435 16.9974ZM8.15784 14.637L7.75718 14.9361L8.15784 14.637ZM8.90725 5.45289L9.19118 5.86445L9.45934 5.67945L9.39843 5.35942L8.90725 5.45289ZM3.49981 6.49934C3.49981 4.89572 4.08809 4.19483 4.62308 3.86195C5.19936 3.50338 5.82632 3.5 5.99925 3.5V2.5C5.79724 2.5 4.92449 2.49662 4.09478 3.01289C3.22379 3.55484 2.49981 4.60361 2.49981 6.49934L3.49981 6.49934ZM4.26612 9.60735C3.95232 9.23919 3.49981 8.38438 3.49981 6.49934L2.49981 6.49934C2.49981 8.53858 2.99033 9.65213 3.50505 10.256L4.26612 9.60735ZM4.82466 11.3048C4.9545 10.9226 4.86617 10.5658 4.73581 10.2915C4.60805 10.0226 4.41801 9.78556 4.26612 9.60735L3.50505 10.256C3.64871 10.4246 3.76478 10.5779 3.8326 10.7207C3.89782 10.8579 3.89454 10.9339 3.87781 10.9831L4.82466 11.3048ZM2.99981 12.8316C4.10621 12.8316 4.6201 11.9069 4.82466 11.3048L3.87781 10.9831C3.70314 11.4973 3.41841 11.8316 2.99981 11.8316V12.8316ZM2.5 13.498C2.5 13.2953 2.5006 13.1546 2.51278 13.041C2.52481 12.9286 2.54382 12.8963 2.54557 12.8936C2.54569 12.8934 2.54518 12.8942 2.54411 12.8953C2.54304 12.8965 2.54251 12.8968 2.54324 12.8962C2.54447 12.8953 2.55552 12.8873 2.58515 12.877C2.65064 12.8544 2.77512 12.8316 2.99981 12.8316V11.8316C2.4753 11.8316 1.97915 11.9254 1.70439 12.3528C1.58115 12.5445 1.53768 12.7551 1.51847 12.9344C1.4994 13.1124 1.5 13.3119 1.5 13.498H2.5ZM2.50002 15.9974L2.5 13.498L1.5 13.498L1.50002 15.9974L2.50002 15.9974ZM3.00002 16.4974C2.72388 16.4974 2.50002 16.2735 2.50002 15.9974L1.50002 15.9974C1.50002 16.8258 2.17159 17.4974 3.00002 17.4974V16.4974ZM3.44435 16.4974H3.00002V17.4974H3.44435V16.4974ZM3.92386 17.139C4.04152 16.7408 4.29986 16.3503 4.88314 16.0456C5.48734 15.73 6.45756 15.4987 8.00001 15.4987V14.4987C6.37606 14.4987 5.22427 14.7393 4.42015 15.1593C3.59511 15.5902 3.15881 16.1992 2.96484 16.8557L3.92386 17.139ZM8.00001 15.4987C8.36276 15.4987 8.55963 15.222 8.62918 15.0578C8.70055 14.8892 8.74856 14.5924 8.55851 14.3378L7.75718 14.9361C7.7046 14.8656 7.69336 14.7968 7.69227 14.7582C7.69118 14.7195 7.69901 14.6899 7.70831 14.6679C7.71732 14.6466 7.73627 14.6125 7.77646 14.5783C7.81915 14.5419 7.89605 14.4987 8.00001 14.4987V15.4987ZM8.55851 14.3378C8.19726 13.8539 7.49999 12.5297 7.49999 9.49868H6.49999C6.49999 12.6807 7.23301 14.2339 7.75718 14.9361L8.55851 14.3378ZM7.49999 9.49868C7.49999 7.56063 8.29229 6.48457 9.19118 5.86445L8.62332 5.04133C7.45606 5.84659 6.49999 7.22922 6.49999 9.49868H7.49999ZM5.99925 3.5C6.15044 3.5 6.66397 3.50176 7.18346 3.75578C7.67534 3.99631 8.21341 4.48144 8.41606 5.54636L9.39843 5.35942C9.13431 3.97145 8.3849 3.23013 7.62274 2.85744C6.88819 2.49824 6.18111 2.5 5.99925 2.5V3.5Z" fill="#F3F3F3"/>
<path d="M21.0661 6.40667L21.5661 6.40667V6.40667L21.0661 6.40667ZM20.1428 9.94715L19.7654 9.61924H19.7654L20.1428 9.94715ZM19.6718 11.1563L19.1973 11.3139L19.1973 11.3139L19.6718 11.1563ZM22.0928 13.5933H22.5928V13.5933L22.0928 13.5933ZM22.0928 16.1866L21.5928 16.1866L22.0928 16.1866ZM20.6097 17.1866V17.6866H20.236L20.1301 17.3283L20.6097 17.1866ZM15.7696 14.7628L16.1702 15.0619L16.1702 15.0619L15.7696 14.7628ZM15 5.33211L14.7161 5.74367L14.4479 5.55867L14.5088 5.23863L15 5.33211ZM20.5661 6.40667C20.5661 4.75607 19.9602 4.03168 19.4063 3.68705C18.8112 3.31673 18.1641 3.31335 17.9861 3.31335V2.31335C18.1932 2.31335 19.0861 2.30998 19.9346 2.83799C20.8245 3.39169 21.5661 4.46396 21.5661 6.40667L20.5661 6.40667ZM19.7654 9.61924C20.091 9.24445 20.5661 8.36519 20.5661 6.40667L21.5661 6.40667C21.5661 8.5212 21.0519 9.66307 20.5203 10.2751L19.7654 9.61924ZM19.1973 11.3139C19.0705 10.9323 19.1591 10.5767 19.2905 10.3025C19.4194 10.0336 19.6105 9.79752 19.7654 9.61924L20.5203 10.2751C20.3764 10.4407 20.2601 10.5931 20.1923 10.7347C20.127 10.8709 20.1294 10.9479 20.1463 10.9987L19.1973 11.3139ZM21.0661 12.8955C19.9262 12.8955 19.4029 11.9331 19.1973 11.3139L20.1463 10.9987C20.3245 11.5353 20.6221 11.8955 21.0661 11.8955V12.8955ZM21.5928 13.5933C21.5928 13.3854 21.5922 13.2401 21.5796 13.1226C21.5671 13.0063 21.5473 12.9707 21.5439 12.9654C21.5436 12.965 21.5444 12.9657 21.543 12.9646C21.5404 12.9627 21.5278 12.9539 21.4963 12.943C21.427 12.919 21.2975 12.8955 21.0661 12.8955V11.8955C21.6041 11.8955 22.1069 11.992 22.385 12.4246C22.5099 12.6189 22.5543 12.8328 22.5739 13.016C22.5934 13.1979 22.5928 13.402 22.5928 13.5933H21.5928ZM21.5928 16.1866L21.5928 13.5933L22.5928 13.5933L22.5928 16.1866L21.5928 16.1866ZM21.0928 16.6866C21.3689 16.6866 21.5928 16.4628 21.5928 16.1866L22.5928 16.1866C22.5928 17.0151 21.9212 17.6866 21.0928 17.6866V16.6866ZM20.6097 16.6866H21.0928V17.6866H20.6097V16.6866ZM20.1301 17.3283C20.0083 16.9159 19.7406 16.512 19.1384 16.1975C18.5153 15.872 17.5166 15.6343 15.9316 15.6343V14.6343C17.5981 14.6343 18.7784 14.8812 19.6014 15.3111C20.4454 15.7519 20.891 16.3743 21.0892 17.045L20.1301 17.3283ZM15.9316 15.6343C15.5669 15.6343 15.3683 15.356 15.2979 15.1897C15.2257 15.0191 15.1776 14.7199 15.3689 14.4637L16.1702 15.0619C16.2222 14.9923 16.2332 14.9245 16.2342 14.887C16.2353 14.8493 16.2277 14.8208 16.2188 14.7999C16.2102 14.7796 16.1919 14.7463 16.1525 14.7128C16.1106 14.6771 16.0346 14.6343 15.9316 14.6343V15.6343ZM15.3689 14.4637C15.742 13.9639 16.4585 12.601 16.4585 9.48656H17.4585C17.4585 12.752 16.7063 14.3439 16.1702 15.0619L15.3689 14.4637ZM16.4585 9.48656C16.4585 7.492 15.6427 6.38293 14.7161 5.74367L15.284 4.92054C16.479 5.74495 17.4585 7.16059 17.4585 9.48656H16.4585ZM17.9861 3.31335C17.8305 3.31335 17.3005 3.31511 16.7642 3.57737C16.2555 3.82613 15.7001 4.32773 15.4912 5.42558L14.5088 5.23863C14.7792 3.81773 15.5459 3.05995 16.3249 2.67902C17.0763 2.3116 17.7998 2.31335 17.9861 2.31335V3.31335Z" fill="#F3F3F3"/>
</svg>
