<svg width="24" height="24" viewBox="0 0 24 24" fill="none" xmlns="http://www.w3.org/2000/svg">
<path d="M15.9997 4H19.9997V8L11.9997 16L13 17C13 17 13.5 17.5 12.75 18.25C12 19 10.9999 19 10.9999 19L6.99995 15L8.99969 17L5.99978 19.9999C5.99978 19.9999 4.50006 21.5 3.49995 20.5C2.49984 19.5 3.99977 18 3.99977 18L6.99995 15L4.99995 13C4.99995 13 4.99995 12 5.74995 11.25C6.49995 10.5 6.99995 11 6.99995 11L8.14789 12.1479L15.9997 4Z" fill="#F3F3F3"/>
<path d="M8.14789 12.1479L15.9997 4H19.9997V8L11.9997 16M8.14789 12.1479L11.9997 16M8.14789 12.1479L6.99995 11C6.99995 11 6.49995 10.5 5.74995 11.25C4.99995 12 4.99995 13 4.99995 13L6.99995 15M11.9997 16L13 17C13 17 13.5 17.5 12.75 18.25C12 19 10.9999 19 10.9999 19L6.99995 15M10.4999 13.5L14 10M6.99995 15L3.99977 18C3.99977 18 2.49984 19.5 3.49995 20.5C4.50006 21.5 5.99978 19.9999 5.99978 19.9999L8.99969 17L6.99995 15Z" stroke="#F3F3F3" stroke-width="1.5"/>
</svg>
