<svg width="24" height="24" viewBox="0 0 24 24" fill="none" xmlns="http://www.w3.org/2000/svg">
<path d="M16.0082 12.8521L8.15645 21L4.15644 21L4.15644 17L12.1564 9M16.0082 12.8521L12.1564 9M16.0082 12.8521L17.1562 14C17.1562 14 17.6562 14.5 18.4062 13.75C19.1562 13 19.1562 12 19.1562 12L17.1562 10M12.1564 9L11.1562 8C11.1562 8 10.6562 7.5 11.4062 6.75C12.1562 6 13.1562 6 13.1562 6L17.1562 10M13.6562 11.5L10.1562 15M17.1562 10L20.1564 7C20.1564 7 21.6563 5.5 20.6562 4.5C19.6561 3.5 18.1563 5.00009 18.1563 5.00009L15.1564 8L17.1562 10Z" stroke="#F3F3F3" stroke-width="1.5"/>
</svg>
