<svg width="400" height="400" viewBox="0 0 400 400" fill="none" xmlns="http://www.w3.org/2000/svg">
<g clip-path="url(#clip0_6_4713)">
<path d="M193.535 395.981C190.598 393.816 182.249 388.869 174.983 385.004C167.717 380.985 161.534 377.584 161.224 377.274C160.915 377.12 165.244 372.018 170.809 366.143L181.013 355.631L188.588 363.515C192.762 367.844 196.936 372.791 197.864 374.492C199.719 377.584 199.873 377.429 202.502 373.719C203.893 371.554 208.222 366.453 212.087 362.433L219.198 354.858L228.938 365.989C234.348 372.018 238.523 377.12 238.213 377.429C237.904 377.584 232.802 380.521 226.773 383.767C220.899 387.014 212.705 391.961 208.531 394.744C204.511 397.681 200.801 400 200.028 400C199.41 399.845 196.472 398.145 193.535 395.981Z" fill="black"/>
<path d="M137.88 370.781C109.898 360.269 86.5544 345.582 66.7661 325.794C8.79243 267.82 -5.58503 178.463 31.2089 104.876C77.897 11.9631 190.752 -26.5314 282.428 19.3838C319.686 37.9353 353.542 72.7195 370.548 109.823C394.047 160.994 394.047 220.05 370.548 271.221C358.335 297.966 334.991 326.412 310.41 344.655C297.269 354.394 269.133 368.926 255.992 372.636L248.108 374.955L239.759 366.607C234.194 360.887 232.339 358.104 233.885 357.641C235.121 357.331 241.305 355.476 247.644 353.621C301.289 337.852 345.349 293.328 361.272 238.447C387.708 146.926 333.136 49.3754 242.233 26.0314C143.755 0.677595 46.3593 66.5356 32.7549 167.796C21.6239 250.351 73.2591 331.205 151.794 353.621C158.132 355.476 164.316 357.331 165.553 357.641C167.099 358.104 165.244 361.042 159.524 366.762C154.886 371.4 150.712 375.265 150.248 375.265C149.784 375.11 144.219 373.1 137.88 370.781Z" fill="black"/>
<path d="M192.144 362.433C184.723 354.549 183.95 353.003 185.496 350.375C187.197 347.746 186.887 347.437 182.868 347.437C180.549 347.437 171.582 345.737 163.234 343.572C117.319 331.978 79.1338 300.285 58.8817 257.153C30.4359 196.242 44.195 122.963 92.7383 76.5844C126.286 44.7376 167.408 30.2055 213.942 33.9158C265.732 37.9353 313.811 70.246 337.928 117.089C351.533 143.525 356.789 167.951 355.397 198.716C353.697 237.519 338.392 272.922 311.337 300.595C287.375 325.175 255.992 341.563 224.145 346.355C213.169 347.901 212.396 348.21 214.406 350.529C216.415 352.848 216.261 353.466 212.705 356.868C210.386 358.877 206.83 363.051 204.511 366.143L200.492 371.554L192.144 362.433ZM191.989 330.741C191.989 324.866 177.612 279.415 175.757 279.415C175.602 279.415 171.428 281.115 166.481 283.28L157.669 287.145L164.471 295.029C175.911 308.324 182.404 317.909 185.96 326.567C189.206 334.451 191.989 336.461 191.989 330.741ZM219.662 313.89C222.445 308.788 228.165 300.595 232.339 295.957L239.914 287.454L224.918 279.415C181.013 256.38 146.229 225.461 130.924 195.624C119.947 174.599 117.474 162.849 117.319 132.703L117.164 107.349L112.217 113.224C101.396 126.21 90.1101 149.09 89.9555 158.211C89.8009 176.299 111.599 209.228 140.663 235.046C153.649 246.64 186.887 269.521 205.13 279.569C211.468 282.971 217.034 286.372 217.498 286.99C217.807 287.608 215.797 296.73 212.86 307.242C206.83 328.422 206.676 330.586 209.304 333.214C210.85 334.76 211.623 333.833 212.86 329.195C213.942 325.948 216.879 319.146 219.662 313.89ZM204.202 294.72C204.357 292.865 195.699 287.145 192.762 287.145C192.144 287.145 196.782 301.677 199.255 307.242C199.874 308.788 200.801 307.551 202.192 303.377C203.275 299.976 204.202 296.111 204.202 294.72ZM154.731 276.478L160.142 273.54L147.002 269.675C122.421 262.255 117.319 260.863 118.401 262.1C121.339 264.883 145.146 279.106 147.156 279.26C148.393 279.26 151.949 278.023 154.731 276.478ZM268.978 270.757C276.863 265.965 283.201 261.945 282.892 261.482C282.583 261.172 277.79 262.255 272.379 263.955C266.814 265.501 257.074 268.284 250.736 270.139L239.296 273.54L244.552 276.478C247.489 278.023 251.045 279.26 252.282 279.415C253.518 279.415 260.939 275.55 268.978 270.757ZM223.681 242.93C232.803 208.146 239.914 191.45 252.591 175.681C256.92 170.424 260.012 165.014 260.012 162.849C260.012 153.264 236.667 105.494 223.063 87.097C214.251 75.1931 202.811 62.98 200.492 62.98C198.173 62.98 179.467 84.778 170.809 97.7641C161.224 111.987 151.176 131.775 144.992 148.317C141.9 156.511 139.426 164.241 139.426 165.477C139.426 166.714 143.291 172.743 147.929 179.082C158.596 193.459 165.244 206.909 168.027 220.05C170.5 232.108 174.365 236.746 191.216 248.341C202.656 256.225 216.879 264.264 217.807 263.337C218.116 263.028 220.744 253.752 223.681 242.93ZM262.33 252.36C270.06 247.877 285.365 237.519 296.342 229.48C319.067 212.938 318.449 214.021 318.604 189.749C318.604 180.164 318.294 178.618 316.748 181.092C296.496 213.248 279.491 232.572 254.601 252.051C238.832 264.264 241.769 264.419 262.33 252.36ZM147.929 255.762C121.493 234.582 101.859 213.093 89.4917 191.759C85.936 185.729 82.5349 181.092 81.9165 181.401C80.5252 182.328 80.216 208.455 81.6073 212.011C82.5349 214.175 95.9848 224.379 124.74 244.631C143.755 258.081 161.07 266.429 147.929 255.762ZM244.243 245.867C279.954 218.04 300.825 191.913 307.163 167.178C309.328 158.521 309.328 156.975 307.009 150.172C303.144 138.732 294.332 122.345 287.839 115.079L281.964 108.586L281.191 134.094C279.954 177.227 271.761 198.87 245.943 226.079C240.378 231.954 234.658 239.065 233.421 241.539C230.947 246.64 228.628 256.225 230.02 256.225C230.484 256.225 236.822 251.588 244.243 245.867Z" fill="black"/>
<path d="M198.637 237.983C195.081 236.437 191.371 234.582 190.598 233.809C189.67 232.881 188.279 224.842 187.506 215.721C184.878 187.585 179.467 171.197 164.935 147.08L161.997 142.288L172.664 125.591L183.177 109.05L185.496 113.378C186.733 115.852 190.598 122.654 193.999 128.529L200.028 139.196L206.366 124.818L212.705 110.441L218.889 117.243C227.237 126.519 233.73 137.031 233.73 141.206C233.73 143.061 230.947 150.018 227.546 156.82C217.961 175.217 212.241 195.16 209.304 219.431C207.912 231.181 206.366 240.766 205.903 240.611C205.439 240.611 202.192 239.374 198.637 237.983Z" fill="black"/>
<path d="M217.188 217.576C217.807 206.909 219.507 196.551 222.135 187.43C226.155 173.825 236.049 152.646 238.522 152.646C240.841 152.646 246.098 160.839 246.098 164.395C246.098 166.25 241.924 175.681 236.977 185.42C231.875 195.005 225.846 209.228 223.527 216.803C217.497 236.592 216.106 236.901 217.188 217.576Z" fill="black"/>
<path d="M177.302 228.398C176.684 227.471 174.983 222.06 173.283 216.03C169.573 202.581 164.162 190.367 156.123 176.918L149.784 166.25L153.185 159.294L156.586 152.182L160.451 155.892C168.336 163.313 177.766 187.276 181.167 208.764C183.332 222.987 181.167 234.582 177.302 228.398Z" fill="black"/>
</g>
<defs>
<clipPath id="clip0_6_4713">
<rect width="400" height="400" fill="white"/>
</clipPath>
</defs>
</svg>
