<svg width="400" height="400" viewBox="0 0 400 400" fill="none" xmlns="http://www.w3.org/2000/svg">
<path d="M194.482 385.983C190.091 378.215 185.616 370.531 184.687 368.842C183.674 367.153 178.692 358.625 173.626 349.759C162.818 331.098 150.912 310.41 140.188 291.918C136.05 284.741 129.127 272.751 124.82 265.32C120.514 257.89 112.577 244.042 107.088 234.5C96.0265 215.417 94 210.013 94 200.049C94 191.69 95.7732 185.441 100.417 177.166C102.528 173.366 104.386 170.327 104.555 170.327C104.808 170.327 109.115 177.673 121.443 199.036C124.736 204.862 132.588 218.372 138.753 229.012C144.917 239.735 152.685 253.161 156.062 258.987C159.44 264.814 166.448 276.973 171.684 286.008C176.919 295.043 181.816 303.655 182.661 305.006C190.851 319.277 200.477 335.995 201.828 338.191L203.601 341.062L205.966 336.924C208.161 333.04 212.552 325.441 215.592 320.205C223.445 306.695 233.408 289.47 236.448 284.15C238.475 280.519 240.332 277.564 240.501 277.564C240.67 277.564 242.443 280.35 244.385 283.643C249.367 292.087 251.225 298.505 251.225 306.695C251.225 318.179 251.309 318.094 224.88 363.691C219.645 372.726 212.89 384.632 209.765 390.036C206.726 395.525 203.855 400 203.348 400C202.926 400 198.873 393.667 194.482 385.983Z" fill="black"/>
<path d="M201.744 312.859C201.153 311.762 196.086 303.149 190.682 293.607C185.194 284.066 178.185 271.907 175.061 266.587C171.937 261.267 163.409 246.406 156.062 233.656C148.716 220.906 141.708 208.746 140.441 206.635C127.522 185.864 122.878 164.838 126.509 142.715C129.042 127.01 127.775 129.627 176.919 44.5131C186.46 28.0476 196.086 11.3287 198.366 7.4445C200.646 3.56032 202.926 0.182774 203.432 0.0138965C204.699 -0.408297 209.85 8.87996 212.13 15.5506C214.325 22.0524 214.578 33.7049 212.636 39.9534C210.948 45.1886 206.557 53.3792 193.215 75.9243C192.793 76.6843 189.753 81.835 186.629 87.3235C183.505 92.8121 180.043 98.8072 178.945 100.665C177.848 102.523 174.217 108.771 170.839 114.597C156.991 138.662 156.062 141.364 156.147 157.239C156.231 174.211 154.965 171.509 189.838 231.798C200.646 250.628 203.348 254.681 204.192 253.752C204.784 253.161 209.005 246.237 213.481 238.3C218.04 230.447 226.062 216.515 231.213 207.48C236.448 198.445 243.203 186.623 246.327 181.304C249.367 175.984 252.323 171.593 252.914 171.593C254.265 171.593 259.415 180.628 261.78 187.215C264.482 194.898 264.397 203.849 261.611 212.208C259.753 217.781 258.74 219.892 254.687 226.479C254.096 227.407 251.225 232.558 248.101 237.878C245.061 243.197 241.683 249.108 240.586 250.966C239.488 252.823 235.688 259.325 232.226 265.405C228.68 271.484 225.133 277.648 224.289 279.084C223.444 280.519 219.729 286.937 216.098 293.354C208.245 307.033 203.601 314.717 203.264 314.717C203.095 314.717 202.419 313.873 201.744 312.859Z" fill="black"/>
<path d="M263.975 291.75C261.526 288.541 257.726 280.604 256.122 275.115C254.518 270.049 254.264 267.685 254.687 262.027C255.278 253.583 257.135 248.179 262.877 238.3C273.179 220.737 275.796 213.137 275.881 200.725C275.965 191.183 274.023 182.486 269.97 174.549C267.521 169.651 255.7 149.048 253.589 145.839C252.66 144.404 252.66 144.488 248.438 151.75C247.172 153.861 242.696 161.629 238.39 169.06C234.084 176.491 229.777 184.006 228.764 185.695C220.827 199.542 215.169 209.422 213.058 212.968C211.623 215.333 209.09 219.723 207.401 222.848C205.628 226.056 203.855 228.589 203.348 228.589C202.926 228.589 199.295 223.016 195.411 216.092C191.442 209.253 185.025 198.191 181.141 191.436C168.897 170.496 168.728 170.073 168.728 157.239C168.728 144.488 168.644 144.742 179.874 125.152C215.085 63.5961 227.329 42.8242 228.257 42.8242C229.862 42.8242 236.026 54.899 237.546 61.1474C239.657 69.1691 239.657 72.9688 237.63 80.9061C236.279 86.0568 227.666 103.451 224.035 108.264C223.698 108.771 222.431 110.797 221.333 112.908C220.151 115.019 215.676 122.788 211.37 130.218C207.063 137.649 201.828 146.684 199.801 150.23L196.002 156.816L198.282 160.785C199.548 163.065 201.153 165.936 201.912 167.202C202.588 168.553 203.432 169.313 203.855 168.891C204.192 168.553 206.557 164.585 209.09 160.194C211.623 155.803 217.703 145.164 222.684 136.551C227.666 127.938 236.363 112.824 242.021 103.029C247.678 93.1497 252.66 85.2125 253.082 85.2969C253.842 85.5502 259.415 95.0073 277.654 126.841C281.876 134.271 288.209 145.333 291.755 151.328C298.848 163.572 301.635 170.073 304.083 180.037C308.39 197.432 306.785 216.346 299.439 233.234C297.244 238.384 291.08 249.361 274.699 277.564C271.321 283.39 268.028 289.132 267.352 290.483C266.001 293.016 265.157 293.269 263.975 291.75Z" fill="black"/>
</svg>
