<svg width="400" height="400" viewBox="0 0 400 400" fill="none" xmlns="http://www.w3.org/2000/svg">
<path d="M0.31132 111.392C0.15566 111.599 0 111.911 0 112.118C0 112.274 40.5235 142.42 90.0753 179.052C139.627 215.632 180.254 245.882 180.41 246.245C180.514 246.557 175.792 256.104 169.929 267.415C164.066 278.726 159.396 288.222 159.551 288.481C159.707 288.792 160.07 289 160.33 289C160.537 289 169.41 282.566 180.047 274.731C190.684 266.896 199.556 260.462 199.816 260.462C200.075 260.462 208.792 266.793 219.273 274.524C229.702 282.203 238.523 288.637 238.938 288.792C239.301 288.948 239.768 288.792 239.976 288.533C240.132 288.222 235.514 278.675 229.65 267.311C223.735 256 219.066 246.453 219.169 246.194C219.273 245.882 260.004 215.684 309.66 179C359.367 142.316 399.994 112.17 399.994 112.015C400.046 111.807 399.735 111.548 399.424 111.444C398.645 111.133 230.896 150.774 230.325 151.345C230.065 151.604 223.165 164.783 214.915 180.713L199.867 209.665L197.792 205.878C196.65 203.802 189.853 190.623 182.641 176.665C175.429 162.656 169.462 151.189 169.462 151.137C169.41 151.085 131.688 142.161 85.613 131.265C39.5376 120.42 1.5566 111.392 1.19339 111.288C0.882073 111.184 0.46698 111.236 0.31132 111.392Z" fill="black"/>
</svg>
