<svg width="400" height="400" viewBox="0 0 400 400" fill="none" xmlns="http://www.w3.org/2000/svg">
<path d="M182.351 399.755C180.785 399.59 175.924 399.013 171.639 398.519C149.64 396.13 125.992 389.538 109.43 381.298C92.9511 373.141 82.6516 363.83 76.7191 351.801L74 346.28L74.0824 206.866C74.1648 130.155 74.4944 66.1336 74.7416 64.4857C75.0711 62.9201 75.6479 61.6018 75.9775 61.6018C77.543 61.6018 79.7677 73.2196 90.8912 139.878C108.194 243.697 115.775 279.951 120.224 279.951C122.696 279.951 126.981 264.131 135.303 224.334C149.145 158.17 153.1 142.35 155.902 142.35C159.362 142.35 165.624 168.222 178.643 235.869C189.437 292.146 196.688 327.329 200.148 339.853C204.845 357.239 206.41 360.37 208.965 357.568C210.53 355.838 214.815 345.456 219.429 332.273C224.29 318.348 229.234 307.224 231.047 306.318C232.86 305.329 233.766 306.565 237.391 314.558C243.077 327.082 261.121 387.396 260.297 390.856C260.05 391.845 259.144 392.916 258.32 393.163C254.942 394.152 238.957 397.201 230.964 398.272C222.725 399.425 188.448 400.497 182.351 399.755Z" fill="#050019"/>
<path d="M304.874 370.834C304.544 370.587 304.297 355.591 304.297 337.546V304.835L297.623 300.88C275.541 287.943 246.043 280.528 208.965 278.633C200.396 278.221 198.006 277.809 198.006 276.902C198.006 270.97 208.965 203.817 212.508 187.667C214.815 177.368 217.616 169.458 219.182 168.964C221.077 168.304 222.725 172.754 227.998 192.282C233.848 213.952 235.579 218.978 237.062 218.978C240.11 218.978 243.983 202.004 251.481 156.275C260.874 99.1741 264.335 84.4252 267.878 86.6499C269.361 87.5563 271.915 96.4551 279.166 126.2C287.406 159.818 290.125 167.068 292.679 162.289C295.481 157.099 301.66 125.376 312.537 60.3656C320.694 11.6696 322.177 3.51235 323.413 1.12287C324.237 -0.360262 324.319 -0.360262 325.143 1.04047C325.638 2.02922 326.05 59.7064 326.379 171.518C326.791 357.733 327.121 344.632 321.847 355.591C317.81 363.748 307.263 373.306 304.874 370.834Z" fill="#050019"/>
</svg>
