<svg width="400" height="400" viewBox="0 0 400 400" fill="none" xmlns="http://www.w3.org/2000/svg">
<path d="M99.7722 149.934C110.28 143.864 111.728 143.519 125.869 143.243C119.178 152.946 111.498 155.843 99.7722 149.934Z" fill="black"/>
<path d="M175.256 21.8658C180.246 22.2567 185.787 20.0264 192.524 26.6712H147.39C155.989 21.107 166.818 28.3497 175.256 21.8658Z" fill="black"/>
<path d="M218.414 316.147C229.358 313.112 241.061 318.446 251.845 313.25L260.007 313.089C261.731 316.354 259.11 316.951 256.995 317.871C244.142 317.457 231.128 320.101 218.414 316.147Z" fill="black"/>
<path d="M256.994 317.871L260.006 313.089C263.332 312.255 266.848 312.69 269.87 314.307C266.444 319.365 261.823 318.929 256.994 317.871Z" fill="black"/>
<path d="M398.306 154.05C394.926 147.29 388.948 143.082 383.522 138.254C377.429 132.805 371.175 127.493 365.45 121.676C353.034 109.053 347.7 94.4301 354.391 77.0938C355.77 73.5069 356.69 70.6329 353.701 67.23C318.867 28.9475 276.147 6.00103 220.713 0L238.233 11.0824C239.084 17.5203 235.497 14.8761 232.669 13.7495C226.231 11.8641 219.494 10.4846 213.217 8.02437C183.442 -3.60982 155.299 1.60947 125.294 15.7498C143.688 18.0491 159.783 17.1984 175.256 21.8658C179.855 24.303 177.556 25.2227 174.36 25.6366C165.393 26.7402 156.311 24.9238 147.39 26.6713C111.268 29.5913 75.4001 32.9252 52.7985 67.4369L82.045 62.4705C90.2993 58.5848 99.2433 64.057 106.992 61.3439C106.189 61.7908 105.331 62.1309 104.44 62.3556C102.233 62.6556 100.183 63.6642 98.5995 65.2296C95.6105 66.1953 92.6215 67.184 89.6095 68.1037C55.3277 78.4733 22.6554 90.7743 12.5847 130.574C12.4008 131.241 12.1708 131.862 11.9409 132.529C16.0106 135.058 18.6547 130.919 22.0346 130.597C22.4433 130.563 22.8547 130.612 23.2436 130.742C23.6326 130.872 23.9909 131.08 24.2966 131.353C24.6023 131.627 24.8489 131.96 25.0214 132.332C25.1938 132.704 25.2885 133.107 25.2995 133.517C19.5284 142.553 7.91724 146.738 5.50303 158.648C0.333078 181.682 -0.392675 205.492 3.36473 228.798C21.4138 331.092 98.9444 384.434 171.049 395.287C175.256 395.93 181.303 393.723 183.672 400H186.408C196.203 396.206 206.71 400.805 216.551 397.448C276.009 393.861 339.124 355.74 352.206 327.045C351.839 327.045 351.333 326.861 351.08 327.045C346.113 330.218 341.216 333.506 336.227 336.633C292.541 364.063 244.901 373.766 193.834 366.224C190.615 365.764 183.511 367.581 184.637 361.626C185.557 356.889 187.419 349.555 195.835 350.566C199.445 351.003 203.1 351.256 206.733 351.417C247.085 353.325 285.459 347.117 322.408 324.378C319.826 323.946 317.209 323.753 314.591 323.803C311.981 324.366 309.402 325.064 306.865 325.895C276.015 334.281 243.697 335.772 212.205 330.264C201.767 328.493 197.513 324.976 201.261 314.537L218.643 316.055C225.19 317.393 231.919 317.587 238.532 316.629C243.13 316.192 249.315 320.699 252.074 313.157C227.771 309.479 204.089 305.179 183.396 289.751C163.852 275.197 136.675 284.785 127.777 308.559C124.903 316.192 122.765 316.721 116.948 312.33C104.463 302.903 97.0131 290.211 92.5065 275.542C91.3339 271.748 90.3682 267.839 96.6452 266.506C123.224 260.873 132.169 232.017 114.119 211.83C104.601 201.138 93.4262 200.609 80.5734 203.736C68.3874 206.679 80.5734 216.589 74.1356 221.624C66.3871 216.474 67.3528 206.082 61.1908 200.287C51.1431 190.861 55.2817 176.375 48.7059 165.638C47.2804 163.339 49.6256 159.959 52.3157 159.154C78.872 151.313 100.623 130.804 129.662 128.321C142.817 127.271 156.021 126.979 169.209 127.447C192.915 128.16 215.792 136.138 239.727 134.575C244.855 134.23 251.982 132.667 254.397 138.254C256.811 143.841 250.235 147.773 245.406 151.865C268.048 164.455 288.506 180.62 305.992 199.736C319.511 214.29 325.213 215.301 343.262 206.265C347.677 203.966 351.77 201.207 356.023 198.655C356.736 192.861 352.161 193.941 348.965 193.321L347.608 192.999C352.401 193.728 357.302 192.923 361.61 190.7C373.107 186.952 383.614 182.077 388.374 169.592C390.466 163.867 403.802 165.132 398.306 154.05ZM342.711 101.512C326.179 100.868 322.362 93.2805 321.213 80.8185C329.835 86.0608 334.479 92.7516 342.711 101.512ZM345.286 184.744C341.055 188.101 341.078 191.113 346.205 192.7C320.5 186.768 304.405 169.064 291.966 147.152C289.805 143.312 287.736 138.254 291.23 134.391C294.725 130.528 299.83 133.241 303.738 135.196C321.144 143.933 334.249 157.682 346.757 172.122C350.758 176.72 350.252 180.79 345.286 184.744Z" fill="black"/>
<path d="M188.753 31.9594H146.079V30.9478H188.73L188.753 31.9594Z" fill="black"/>
<path d="M139.963 120.388H172.152C161.574 122.933 150.542 122.933 139.963 120.388Z" fill="black"/>
<path d="M277.067 337.989C267.41 341.208 261.202 344.059 253.776 337.989H277.067Z" fill="black"/>
<path d="M229.427 347.784H211.355V346.428H229.749L229.427 347.784Z" fill="black"/>
<path d="M243.268 338.748C237.601 340.516 231.53 340.516 225.863 338.748C231.527 336.958 237.605 336.958 243.268 338.748Z" fill="black"/>
<path d="M153.069 290.234C160.702 287.935 164.979 288.119 169.37 290.234H153.069Z" fill="black"/>
</svg>
