<svg width="400" height="400" viewBox="0 0 400 400" fill="none" xmlns="http://www.w3.org/2000/svg">
<path d="M0 341.074C6.3638 320.46 23.7026 309.585 39.174 296.987C50.6662 287.635 61.9285 277.996 73.392 268.616C93.374 252.282 113.485 236.136 133.324 219.788C150.318 205.811 167.039 191.517 184.033 177.54C200.812 163.749 217.849 150.246 234.656 136.484C246.464 126.802 258.014 116.804 269.822 107.107C284.001 95.4426 298.38 84.0223 312.573 72.3721C324.381 62.6899 336.017 52.7922 347.782 43.0526C364.877 28.9316 381.9 14.8967 399.971 0C399.655 6.22015 395.087 8.20255 392.789 11.2623C384.169 22.7545 374.617 33.471 365.495 44.561C351.244 61.7992 337.109 79.1955 322.83 96.4626C313.248 108.041 303.451 119.447 293.87 131.054C281.903 145.549 270.124 160.215 258.129 174.696C248.404 186.461 238.463 198.01 228.666 209.732C216.973 223.882 205.466 238.176 193.787 252.34C184.062 264.105 174.15 275.712 164.424 287.477C150.318 304.543 136.355 321.781 122.219 338.89C112.336 350.828 102.266 362.593 92.311 374.473C85.1284 383.092 78.3336 392.185 67.373 396.595C64.6148 397.702 61.8711 398.865 59.1129 400H37.1198C16.7355 396.481 4.39576 384.5 0 364.374V341.074Z" fill="black"/>
<path d="M15.5002 252.627C-0.746921 179.135 16.046 114.922 71.8262 65.5773C132.591 11.7077 202.981 4.30961 278.944 36.0568C266.949 45.9113 255.069 54.3294 244.899 64.4568C237.098 72.2284 229.901 70.7345 220.621 68.9388C201.507 65.3241 181.826 66.0259 163.017 70.993C137.296 77.3616 113.991 91.0956 95.9598 110.512C78.4569 128.987 66.5952 152.078 61.7706 177.066C59.9175 186.432 58.3517 195.741 59.3572 205.164C60.2766 213.783 57.2886 219.357 50.5944 224.414C38.9011 233.191 27.8112 242.643 15.5002 252.627Z" fill="black"/>
<path d="M365.021 123.053C393.995 194.462 388.752 260.269 341.648 320.086C307.416 363.67 261.117 386.425 205.423 389.485C188.498 390.318 171.538 388.868 155.001 385.175C150.691 384.27 149.255 383.595 152.702 379.544C162.471 368.052 171.966 356.359 181.433 344.665C182.217 343.58 183.284 342.731 184.518 342.212C185.752 341.692 187.105 341.522 188.429 341.72C263.444 346.576 329.61 288.425 334.351 213.87C335.307 199.291 334.062 184.652 330.659 170.444C330.113 168.203 329.294 166.134 331.047 163.979C341.979 150.907 352.853 137.748 365.021 123.053Z" fill="black"/>
</svg>
