<svg width="400" height="400" viewBox="0 0 400 400" fill="none" xmlns="http://www.w3.org/2000/svg">
<path d="M171.104 0H174.807L250.365 24.0284L232.162 52.3029C244.144 62.3751 261.523 67.5099 261.21 87.7036L195.56 66.687C195.56 81.6471 195.56 95.34 195.659 109.033C195.975 110.631 196.734 112.107 197.848 113.295C206.817 125.54 215.721 137.834 225.02 149.832C226.934 152.016 229.628 153.363 232.524 153.584C244.851 153.979 257.211 153.765 269.538 153.765H280.894L281.47 155.411C280.542 156.484 279.493 157.445 278.343 158.275C264.502 165.878 250.562 173.317 236.77 181.003C233.676 182.731 232.113 182.073 230.303 179.357C227.324 174.782 223.95 170.47 220.428 165.681C219.144 167.145 218.272 167.968 217.614 168.972C199.79 195.305 181.933 221.637 164.34 247.97C163.303 249.615 163.698 253.022 164.735 254.849C177.703 277.643 190.903 300.305 204.085 322.984C205.023 324.63 206.241 326.078 207.377 327.625L209.368 327.115V240.926C212.66 242.094 214.536 242.72 216.379 243.46C244.709 254.915 273.038 266.358 301.367 277.791C303.013 278.499 306.124 279.256 306.93 278.433C311.242 274.022 315.027 269.118 318.911 264.493C313.892 262.535 308.839 262.123 306.568 259.408C297.944 248.99 290.11 237.914 282.194 226.953C278.656 222.016 279.561 218.379 284.844 215.219C290.653 211.746 296.94 208.981 302.421 205.081C313.661 197.082 325.857 194.515 339.533 195.387C352.93 196.243 353.094 195.617 356.6 182.402C356.813 181.294 356.796 180.153 356.549 179.052C356.303 177.951 355.833 176.912 355.168 176C346.182 165.533 346.083 165.615 354.872 154.901C355.793 153.798 356.715 152.695 357.669 151.609C361.224 147.594 382.652 145.668 386.668 149.157C387.921 150.504 388.984 152.015 389.828 153.65C392.247 157.369 394.634 161.138 397.036 164.874V169.812C390.602 177.481 383.87 184.936 377.764 192.852C367.445 206.249 356.616 218.971 341.228 226.904C339.582 227.776 337.821 228.549 335.583 229.751C335.024 225.093 334.596 221.522 334.069 217.062L316.788 226.788C321.298 238.227 324.573 240.564 335.353 240.564C338.019 240.564 340.701 240.646 343.368 240.564C347.499 240.448 349.424 242.44 349.424 246.505C349.424 252.446 349.77 258.42 349.276 264.312C348.98 267.312 347.839 270.165 345.984 272.541C328.868 293.788 311.555 314.854 294.258 335.937C290.011 341.121 287.855 341.022 283.741 335.706C280.186 331.114 276.697 326.49 272.846 321.437C270.739 323.873 269.39 325.371 268.106 326.934C249.673 349.47 231.246 372.012 212.824 394.559C206.702 402.048 204.99 401.883 200.185 393.588C141.968 293.152 83.7569 192.71 25.5511 92.2624C17.8818 78.9974 9.86683 66.0287 2 52.9118V49.2253C3.5478 47.634 5.24531 46.1955 7.069 44.9298C27.334 33.3106 47.632 21.7901 67.9629 10.3684C70.442 8.8974 73.199 7.95598 76.0601 7.6035C93.8839 6.1223 111.691 4.93734 129.499 3.60426C143.372 2.51804 157.23 1.20142 171.104 0ZM142.319 183.093C135.456 174.584 129.811 166.141 122.718 159.163C115.164 151.741 114.489 144.582 119.426 135.876C121.002 132.608 122.339 129.231 123.426 125.77L121.352 124.421L99.101 141.685C113.913 167.063 128.248 191.931 143.422 218.115L187.446 153.058L154.35 142.475L153.017 144.121C156.308 148.614 159.929 152.959 162.891 157.666C163.797 159.065 163.945 162.307 162.99 163.278C156.605 169.91 149.775 176.098 142.319 183.093ZM134.88 81.713C135.851 74.0765 136.839 68.4315 137.234 62.7371C138.517 44.9462 139.818 48.8797 124.825 43.8271C123.459 43.3663 122.093 42.9384 120.694 42.5928C90.6088 35.1703 66.4816 54.7057 68.8187 84.5766C69.7238 96.0971 79.6314 106.531 90.9215 107.618C91.8267 107.618 93.3572 107.519 93.5712 107.025C93.8047 106.508 93.9255 105.947 93.9255 105.379C93.9255 104.812 93.8047 104.251 93.5712 103.733C91.7773 100.755 89.4403 98.0885 87.811 95.0438C81.2278 82.6346 87.416 68.7113 101.158 66.0945C112.234 63.955 120.908 69.6 129.136 76.1996C130.618 77.615 132.099 79.1455 134.88 81.713Z" fill="black"/>
<path d="M260.091 27.1553C272.254 36.0754 283.297 44.1397 294.324 52.237C307.391 61.8483 320.36 71.5749 333.559 81.0052C336.768 83.2928 338.332 85.6792 337.97 89.6126C337.805 92.6825 337.805 95.7591 337.97 98.829C338.085 107.19 334.283 110.613 326.054 108.325C313.826 104.935 301.762 100.886 289.666 96.9692C277.092 92.9206 276.928 92.8383 277.207 79.5734C277.323 74.1423 276.302 69.567 272.451 65.5678C270.196 63.2308 268.797 60.0215 266.444 57.7997C257.59 49.472 259.137 39.1036 260.091 27.1553Z" fill="black"/>
<path d="M232.854 110.086C249.887 103.964 271.348 111.518 279.067 127.136H259.318C243.568 127.136 240.424 125.079 232.854 110.086Z" fill="black"/>
</svg>
