<svg width="400" height="400" viewBox="0 0 400 400" fill="none" xmlns="http://www.w3.org/2000/svg">
<path d="M336.136 0C323.032 24.9439 317.012 52.033 311.757 80.8349C306.935 73.4847 302.528 67.149 298.653 60.4973C297.822 59.0838 298.653 56.473 299.136 54.5107C302.179 42.5044 305.338 30.5313 308.564 18.1425H90.854C93.9637 29.9327 96.7907 41.0743 99.917 52.1993C101.347 57.2878 101.181 61.5948 97.539 65.9849C93.8972 70.3751 91.4859 75.1809 87.894 80.785C82.107 52.3157 76.9852 24.761 63 0H336.136Z" fill="black"/>
<path d="M305.787 204.44C308.066 214.7 309.861 224.395 312.439 233.957C315.915 246.961 321.552 258.768 331.529 268.38C333.276 270.043 333.542 275.447 332.195 277.792C327.747 285.984 322.5 293.715 316.53 300.873C291.802 329.143 262.651 352.607 233.284 375.705C223.506 383.404 213.329 390.671 203.534 398.337C201.139 400.2 199.227 400.749 196.467 398.67C156.939 368.904 117.561 338.971 84.1857 302.121C77.8499 295.103 72.8944 286.788 67.7227 278.84C64.6962 274.15 65.4778 270.176 70.0675 265.835C81.5084 254.977 86.0315 240.343 89.4572 225.46C91.0203 218.625 92.0181 211.674 93.4149 203.975C98.1044 209.313 102.578 213.952 106.353 218.941C107.47 221.067 107.76 223.531 107.167 225.859C103.509 243.702 97.7718 260.78 84.9506 276.312C94.446 286.639 103.077 297.93 113.603 307.109C140.509 330.557 168.247 353.073 195.685 375.921C197.697 377.584 199.51 379.247 202.653 376.869C238.189 349.78 273.427 322.358 303.542 289.033C304.091 288.418 304.623 287.786 305.205 287.154C313.836 277.027 313.836 277.027 306.968 265.669C299.119 252.682 294.745 238.447 292.101 223.614C291.8 222.067 292.11 220.463 292.966 219.14C296.924 214.285 301.248 209.529 305.787 204.44Z" fill="black"/>
<path d="M296.442 75.0479C323.398 112.647 327.622 158.327 300 196.442C287.367 213.633 271.789 228.451 253.987 240.21C248.583 233.259 244.093 225.825 238.007 220.105C231.588 214.085 223.572 209.795 216.388 204.523C214.825 203.376 212.946 201.347 212.896 199.684C212.564 189.939 212.73 180.178 212.73 169.752C227.48 172.213 239.437 178.765 248.084 190.222C252.042 195.494 254.902 195.211 259.525 191.735C277.634 178.133 287.961 159.591 293.814 138.222C299.402 117.901 299.884 97.2646 296.442 75.0479Z" fill="black"/>
<path d="M101.414 76.2952C97.6888 123.206 104.058 165.794 146.146 196.508C156.59 182.124 169.078 172.845 186.689 169.735C186.689 180.511 186.689 190.971 186.589 201.414C186.589 202.312 185.308 203.576 184.327 204.008C167.332 211.574 155.326 224.395 146.08 240.958C117.295 219.506 91.2699 196.625 82.9552 160.09C77.1849 134.697 82.0905 110.668 94.5957 88.1352C96.8074 84.0943 99.1355 80.203 101.414 76.2952Z" fill="black"/>
<path d="M199.759 309.437C196.433 302.703 193.822 296.633 190.663 290.829C184.35 279.11 175.696 268.814 165.237 260.581C162.044 258.07 161.262 256.057 163.175 252.349C168.837 241.233 177.132 231.671 187.337 224.495C191.91 221.269 196.067 217.444 199.709 214.518C203.368 217.478 207.758 221.352 212.464 224.778C222.724 232.211 231.039 241.291 236.177 252.931C236.959 254.727 236.427 258.535 235.063 259.583C219.498 272.188 208.756 288.152 201.289 306.511C201.023 307.193 200.557 307.874 199.759 309.437Z" fill="black"/>
<path d="M195.319 65.436H206.012C205.646 70.4248 205.047 75.4136 204.981 80.3192C204.831 92.1593 204.365 104.049 205.114 115.839C205.795 126.549 200.524 132.469 191.694 136.776C199.177 113.195 194.371 89.5651 195.319 65.436Z" fill="black"/>
<path d="M154.993 65.5527H166.634C165.886 68.6974 165.375 71.8936 165.104 75.1146C164.904 84.6431 165.104 94.1717 164.987 103.684C164.987 108.207 167.016 110.335 171.356 109.986C176.129 109.57 180.868 108.739 185.724 108.074C185.624 112.098 183.097 114.559 177.825 114.493C169.76 114.393 161.695 114.493 154.777 114.493C155.932 98.2021 156.004 81.8529 154.993 65.5527Z" fill="black"/>
<path d="M233.75 65.7688C232.918 68.9343 232.328 72.1587 231.987 75.4138C231.721 83.0632 231.887 90.746 231.887 98.4121C231.887 109.687 239.503 113.994 249.714 108.473C250.942 107.687 252.124 106.832 253.256 105.912C252.724 111.433 250.828 114.592 245.124 114.493C237.059 114.36 228.994 114.493 221.444 114.493C223.257 98.3181 223.357 81.9975 221.743 65.8021L233.75 65.7688Z" fill="black"/>
<path d="M136.169 277.144L145.664 284.144L141.956 295.17H130.315L126.707 284.095C129.517 281.999 133.076 279.372 136.169 277.144Z" fill="black"/>
<path d="M206.012 345.889H193.972L190.646 334.664L200.058 327.68L209.487 334.797L206.012 345.889Z" fill="black"/>
<path d="M242.995 311.25L239.087 322.259H227.447C226.516 319.066 225.285 314.892 224.121 311.1L233.483 304.066C236.36 306.228 239.703 308.772 242.995 311.25Z" fill="black"/>
<path d="M166.501 304.316L176.079 311.117C174.898 314.642 173.568 318.633 172.371 322.176H160.514L157.039 311.1L166.501 304.316Z" fill="black"/>
<path d="M273.227 284.227L269.469 295.203H257.729C256.781 292.043 255.534 287.886 254.403 283.945L263.931 277.293L273.227 284.227Z" fill="black"/>
</svg>
