<svg width="400" height="400" viewBox="0 0 400 400" fill="none" xmlns="http://www.w3.org/2000/svg">
<path d="M200.323 359.251C216.478 348.888 232.495 338.318 248.097 327.147C262.795 316.876 276.882 305.756 290.285 293.844C300.094 284.936 303.602 274.204 302.864 261.233C301.864 243.231 301.787 225.214 302.633 207.182C302.898 193.779 304.49 180.436 307.387 167.347C310.386 155.482 315.499 144.256 322.481 134.205C329.113 124.515 337.183 115.892 346.414 108.634C346.935 108.074 347.609 107.68 348.353 107.503C346.627 109.911 344.771 112.222 342.791 114.426C335.194 125.146 329.531 137.112 326.058 149.784C322.948 160.878 320.862 172.235 319.827 183.71C317.034 210.828 317.519 237.969 319.111 265.134C319.804 277.812 320.888 290.467 322.366 303.099C322.486 303.666 322.432 304.257 322.209 304.793C321.987 305.329 321.607 305.784 321.119 306.099C301.779 320.893 282.508 335.802 262.752 349.95C253.82 356.389 244.543 362.366 235.842 369.152C224.071 378.383 212.732 388.092 201.823 398.277C201.477 398.601 201.084 398.901 200.715 399.224C200.346 399.547 200.161 398.924 200.115 398.554C200.115 395.6 200.115 392.669 200.115 389.738C200.08 389.524 200.08 389.306 200.115 389.092C200.651 387.879 201.524 386.846 202.631 386.115C217.124 373.283 232.103 361.028 247.658 349.511C250.451 347.434 253.22 345.288 256.198 343.464C257.045 342.847 257.932 342.284 258.852 341.78C259.059 341.78 259.221 341.433 259.521 341.526C259.221 341.318 259.082 341.526 258.875 341.71C257.88 342.26 256.924 342.877 256.013 343.557C248.097 348.173 240.204 352.788 232.449 357.543C222.31 363.851 212.309 370.406 202.446 377.206C201.754 377.691 201.084 378.822 199.954 377.829C199.896 377.602 199.896 377.364 199.954 377.137C199.954 371.413 199.954 365.597 199.954 359.966C199.983 359.69 200.114 359.434 200.323 359.251Z" fill="black"/>
<path d="M97.4818 222.414C97.7587 232.338 97.6203 242.239 97.2972 252.163C97.1356 257.333 96.8125 262.479 96.9048 267.649C97.0082 272.581 98.1559 277.434 100.272 281.89C102.389 286.346 105.426 290.302 109.183 293.498C121.262 304.381 133.97 314.545 147.241 323.939C163.65 335.802 180.428 347.019 197.507 357.935C198.038 358.258 198.499 358.674 199.007 359.043C199.408 359.615 199.603 360.307 199.561 361.005C199.561 366.29 199.561 371.552 199.561 376.837C199.053 378.383 198.13 377.76 197.253 377.183C194.53 375.36 191.806 373.537 189.106 371.667C174.451 361.558 159.103 352.419 143.779 343.534C143.502 343.534 143.363 343.095 143.04 343.095C143.22 343.203 143.39 343.326 143.548 343.464C149.548 347.411 155.226 351.819 160.926 356.158C170.758 363.636 180.244 371.529 189.614 379.537C192.36 381.845 195.038 384.361 197.761 386.738C198.68 387.395 199.315 388.377 199.538 389.484C199.746 392.677 199.676 395.882 199.33 399.062L199.076 399.339C192.291 393.223 185.506 387.107 178.582 381.153C166.537 371.074 153.98 361.622 140.963 352.835C126.515 342.818 112.622 332.063 98.6358 321.401C92.012 316.369 85.4575 311.292 78.8569 306.238C78.3671 305.988 77.9678 305.591 77.7153 305.102C77.4628 304.614 77.3697 304.058 77.4491 303.514C78.7646 293.129 79.757 282.743 80.4493 272.265C80.5079 271.714 80.6004 271.166 80.7263 270.626C81.1648 267.825 81.3502 264.991 81.2802 262.156C81.5341 258.348 81.7879 254.54 81.8572 250.617C82.0187 242.031 82.4572 233.469 82.2495 224.907C82.5496 223.706 83.4727 224.122 84.0959 224.353C86.0471 225.033 88.135 225.227 90.1782 224.917C92.2214 224.608 94.1581 223.804 95.8201 222.576C96.2817 222.322 96.8356 221.952 97.4818 222.414Z" fill="black"/>
<path d="M49.3157 105.703C55.6557 110.04 61.4584 115.115 66.6021 120.82C76.8966 131.701 84.8116 144.607 89.8428 158.716C91.9801 164.471 93.4288 170.46 94.1586 176.556C95.3126 184.68 96.0511 192.711 96.6512 200.974C96.6512 202.382 96.1204 202.751 94.9202 202.566C94.2431 202.397 93.5856 202.157 92.9585 201.851C91.4792 201.212 89.8848 200.882 88.2734 200.882C86.662 200.882 85.0677 201.212 83.5884 201.851C82.9796 202.22 82.2506 202.336 81.5574 202.174C80.5188 201.343 81.0266 200.166 80.9112 199.127C80.7958 198.089 81.142 197.373 80.6804 196.543V196.127C80.7372 194.575 80.5819 193.022 80.2188 191.511C79.2725 185.949 78.7879 180.318 77.9109 174.756C76.2508 165.107 73.8197 155.606 70.6409 146.345C66.6029 134.296 60.9177 122.864 53.747 112.373C52.316 110.319 50.7467 108.472 49.2465 106.349C49.2058 106.303 49.1751 106.25 49.1564 106.191C49.1376 106.133 49.1313 106.072 49.1379 106.011C49.1444 105.95 49.1636 105.891 49.1942 105.838C49.2249 105.785 49.2663 105.739 49.3157 105.703Z" fill="black"/>
<path d="M80.7262 196.427C81.557 197.396 81.0493 198.573 81.1416 199.635C81.0991 200.428 81.2496 201.22 81.5801 201.943C82.5495 203.235 82.0879 204.736 82.1802 206.143C82.4107 207.243 82.473 208.371 82.3648 209.49C82.8852 208.605 83.5891 207.843 84.4292 207.254C85.2692 206.665 86.2258 206.262 87.2345 206.074C88.1716 205.911 89.1334 205.961 90.0485 206.22C90.9636 206.48 91.8083 206.943 92.5197 207.574C93.2341 208.116 93.8276 208.801 94.2621 209.585C94.6966 210.369 94.9626 211.235 95.043 212.128C95.1234 213.021 95.0164 213.921 94.7289 214.77C94.4415 215.62 93.9798 216.399 93.3736 217.06C90.9503 219.945 86.6575 219.899 83.0803 216.921C83.0803 218.052 83.0803 219.229 83.0803 220.268C83.0803 221.306 83.4495 223.222 82.5033 224.514C82.5033 227.722 82.5033 230.93 82.5033 234.138C82.3879 240.831 82.5033 247.501 82.0186 254.171C81.7417 259.225 81.534 264.28 81.257 269.334C81.257 269.819 81.257 270.327 80.7724 270.627C81.1262 261.395 81.4801 252.163 81.834 242.932C82.2726 229.334 82.0184 215.723 81.0724 202.151C80.8416 200.189 80.8185 198.296 80.7262 196.427Z" fill="black"/>
<path d="M200.323 398.947L200.692 399.409C200.53 399.732 200.392 400.124 199.884 399.962C199.374 398.44 199.24 396.817 199.492 395.231C199.319 393.358 199.319 391.473 199.492 389.6C199.534 389.474 199.62 389.367 199.735 389.299C199.849 389.232 199.984 389.207 200.115 389.231C200.115 389.231 200.115 389.231 200.253 389.392C200.542 392.57 200.565 395.766 200.323 398.947Z" fill="black"/>
<path d="M199.815 389.3V399.962C199.33 399.962 199.192 399.662 199.03 399.339V399.27C199.376 396.039 199.03 392.808 199.192 389.577C199.204 389.511 199.233 389.449 199.274 389.397C199.316 389.344 199.37 389.303 199.431 389.276C199.492 389.248 199.559 389.236 199.626 389.241C199.693 389.245 199.758 389.265 199.815 389.3Z" fill="black"/>
<path d="M350.337 105.864C351.007 104.895 350.799 104.433 349.576 104.549C349.478 104.446 349.424 104.31 349.424 104.168C349.424 104.026 349.478 103.89 349.576 103.787H351.284C352.645 105.218 351.514 105.587 350.337 105.864Z" fill="black"/>
<path d="M80.311 191.419C80.6953 192.117 80.9344 192.886 81.0137 193.679C81.093 194.473 81.011 195.274 80.7725 196.035C80.3974 194.526 80.242 192.972 80.311 191.419Z" fill="black"/>
<path d="M48.8771 104.572V105.033C48.7693 105.139 48.6242 105.198 48.4732 105.198C48.3222 105.198 48.1772 105.139 48.0693 105.033C48.0693 104.895 48.0693 104.733 48.0693 104.595C48.0693 104.041 48.3924 103.741 48.9694 103.787C49.0224 103.841 49.0626 103.907 49.0871 103.978C49.1115 104.05 49.1196 104.126 49.1108 104.202C49.1019 104.277 49.0763 104.349 49.0359 104.413C48.9955 104.477 48.9412 104.531 48.8771 104.572Z" fill="black"/>
<path d="M348.214 107.549C348.282 107.157 348.497 106.806 348.814 106.566C349.131 106.326 349.527 106.216 349.922 106.257C349.553 106.949 349.138 107.572 348.214 107.549Z" fill="black"/>
<path d="M48 105.033H48.8539L49.3155 105.703V106.349C48.7327 106.084 48.2654 105.616 48 105.033V105.033Z" fill="black"/>
<path d="M242.627 103.856C238.542 95.5247 234.434 87.2162 230.372 78.8846C223.048 63.9908 215.755 49.0971 208.493 34.2033C205.7 28.3873 202.977 22.6637 200.323 16.94V16.5708C200.161 12.1165 200.323 7.66221 200.323 3.20792C200.26 2.86553 200.284 2.51277 200.393 2.18208C200.502 1.85139 200.692 1.55338 200.946 1.31543C204.362 7.93916 207.87 14.5629 211.193 21.2097C218.409 35.688 225.687 50.1587 233.026 64.6217C238.034 74.4996 243.066 84.4005 248.028 94.3015C248.223 94.849 248.583 95.3225 249.058 95.6572C249.533 95.9919 250.1 96.1714 250.682 96.1709C267.114 97.3864 283.546 98.6481 299.979 99.9559L340.691 103.256C341.805 103.494 342.947 103.572 344.083 103.487C344.499 103.487 345.168 103.487 344.822 104.226C343.286 104.36 341.742 104.36 340.206 104.226C339.231 104.133 338.25 104.133 337.275 104.226H245.904C244.8 104.438 243.657 104.309 242.627 103.856Z" fill="black"/>
<path d="M199.307 17.3554C194.945 26.3102 190.629 35.288 186.244 44.2427C179.536 58.0902 172.797 71.8685 166.027 85.5775C163.058 91.6089 160.065 97.7018 157.049 103.856C156.312 104.129 155.515 104.201 154.741 104.064C123.584 103.925 92.4198 103.856 61.2475 103.856C60.509 103.856 59.4242 104.549 58.9396 103.256L84.6267 101.156L124.277 98.0403C132.424 97.3941 140.571 96.7479 148.718 96.194C149.376 96.2453 150.033 96.0878 150.597 95.7439C151.16 95.4 151.601 94.8872 151.856 94.2784C160.642 76.8305 169.474 59.4134 178.351 42.0271C185.029 28.8873 191.683 15.7553 198.315 2.63091C198.546 2.21549 198.823 1.82314 199.076 1.40771C199.263 1.56992 199.411 1.77289 199.507 2.00098C199.603 2.22907 199.645 2.47618 199.63 2.72323C199.776 7.60294 199.669 12.4869 199.307 17.3554Z" fill="black"/>
<path d="M340.275 104.087H344.891C345.112 103.974 345.357 103.915 345.606 103.915C345.855 103.915 346.1 103.974 346.322 104.087C347.32 103.61 348.449 103.48 349.53 103.718V104.48H285.577C272.191 104.48 258.782 104.48 245.373 104.48C244.566 104.48 243.689 104.757 243.065 104.157C243.55 103.741 244.127 103.903 244.681 103.903H339.029C339.452 103.882 339.876 103.945 340.275 104.087Z" fill="black"/>
<path d="M58.9397 103.326C59.4705 103.972 60.2321 103.764 60.9014 103.764H157.049C156.772 104.503 156.149 104.318 155.618 104.318H53.5391C53.4737 104.262 53.4243 104.19 53.3959 104.109C53.3675 104.028 53.3612 103.941 53.3776 103.857C53.6776 103.556 54.1161 103.672 54.4392 103.464L58.9397 103.326Z" fill="black"/>
<path d="M199.815 16.7555L199.446 17.0094C199.115 15.1046 199.038 13.1646 199.215 11.2396C199.215 7.84693 199.215 4.43121 199.215 1.01548C199.377 0.646217 199.215 0.115396 199.884 0C200.093 0.28357 200.221 0.618674 200.254 0.969326C200.392 5.97751 200.254 11.0088 200.254 16.017C200.235 16.1634 200.186 16.3045 200.111 16.4315C200.035 16.5585 199.935 16.6687 199.815 16.7555Z" fill="black"/>
<path d="M199.815 16.7555C199.815 11.1703 199.815 5.58517 199.815 0C200.484 0 200.438 0.600059 200.6 1.01548C200.277 5.37745 200.6 9.7625 200.461 14.1245C200.553 15.0222 200.553 15.927 200.461 16.8247L199.815 16.7555Z" fill="black"/>
<path d="M199.122 1.01538C199.467 4.07996 199.552 7.16818 199.376 10.2471C199.376 12.555 199.376 14.8629 199.376 17.1708C199.389 17.2357 199.382 17.3028 199.358 17.3641C199.333 17.4255 199.291 17.4785 199.238 17.517C198.805 16.2004 198.702 14.7977 198.938 13.432C198.938 9.48545 198.938 5.51582 198.938 1.56928L199.122 1.01538Z" fill="black"/>
<path d="M200.323 16.8246C200.323 11.8626 200.323 6.92366 200.323 1.96163C200.381 1.63154 200.49 1.31241 200.646 1.01538C200.701 1.04063 200.745 1.08476 200.771 1.13978C200.796 1.19481 200.801 1.2571 200.784 1.31541C200.784 5.93125 200.784 10.3394 200.784 14.8398C200.623 15.5091 200.9 16.1553 200.323 16.8246Z" fill="black"/>
<path d="M346.253 104.156H344.822C343.552 103.325 341.914 104.456 340.691 103.395C342.56 103.533 344.568 102.818 346.253 104.156Z" fill="black"/>
<path d="M48.8767 104.572C48.8767 104.318 48.8767 104.041 48.8767 103.787H50.123C50.5171 103.638 50.952 103.638 51.3462 103.787C51.4629 103.893 51.5385 104.037 51.5596 104.193C51.5807 104.349 51.546 104.508 51.4616 104.641L48.8767 104.572Z" fill="black"/>
<path d="M51.4156 103.857H50.1462C51.531 103.118 53.0081 103.626 54.439 103.533L53.4696 103.88C53.1861 104.133 52.8182 104.271 52.4381 104.266C52.0581 104.262 51.6934 104.116 51.4156 103.857Z" fill="black"/>
<path d="M202.331 180.595C201.246 178.656 199.469 177.848 198.153 176.556C192.953 171.788 187.082 167.807 180.729 164.739C174.867 161.899 168.66 159.835 162.265 158.6C156.47 157.327 150.539 156.785 144.61 156.985C141.387 157.03 138.184 157.487 135.078 158.346C133.532 158.785 132.77 158.346 131.755 157.423C129.568 155.852 127.252 154.47 124.831 153.292C119.592 150.638 114.884 147.107 109.783 144.06C104.106 140.783 98.5897 137.137 92.9123 133.813C91.666 133.075 90.6043 132.152 89.2427 131.39C88.8042 131.136 88.6195 130.905 88.7349 130.444C88.8503 129.982 89.2427 130.074 89.5658 130.051H91.0428C117.199 130.051 143.356 130.051 169.512 130.051C170.163 130.159 170.831 130.006 171.37 129.626C171.91 129.246 172.279 128.67 172.397 128.02C174.705 121.997 176.551 115.881 179.136 109.972C181.721 104.064 183.752 97.3481 186.221 91.1629C188.345 85.9932 190.353 80.7773 192.314 75.5383C193.261 72.9304 194.091 70.2532 195.222 67.7145C196.353 65.1758 197.53 61.8754 198.707 58.9674C198.869 58.552 198.915 57.7904 199.746 57.9058C200.577 58.0212 200.138 58.6443 200.3 59.0367C202.261 64.2987 204.269 69.5608 206.208 74.8459C208.147 80.1311 209.878 85.7855 212.047 91.0014C215.14 98.5483 217.148 106.488 220.402 113.942C222.387 118.558 223.771 123.381 225.41 128.136C225.527 128.703 225.853 129.205 226.324 129.543C226.794 129.88 227.374 130.029 227.949 129.959C253.997 129.959 280.061 129.959 306.141 129.959H307.387C307.987 129.959 308.864 129.636 309.118 130.213C309.534 131.182 308.38 131.182 307.895 131.552C303.279 134.967 297.948 137.252 293.263 140.529C288.578 143.807 283.823 145.838 279.415 148.976C275.469 151.792 271.061 153.731 267.137 156.5C264.506 158.346 261.737 159.962 258.99 161.624C258.529 161.997 257.957 162.206 257.363 162.219C256.77 162.231 256.19 162.046 255.713 161.693C248.65 157.192 241.15 153.419 233.326 150.43C229.61 149.046 225.918 147.592 222.133 146.461C215.895 144.733 209.57 143.338 203.185 142.283C199.053 141.545 194.968 140.483 190.745 140.137C187.468 139.86 184.214 139.329 180.936 138.983C168.862 137.991 156.738 137.736 144.633 138.221C139.651 138.27 134.687 138.819 129.816 139.86C142.482 142.115 154.987 145.199 167.25 149.092C174.177 151.274 180.94 153.942 187.491 157.077C192.985 159.643 198.298 162.581 203.392 165.87C209.438 169.914 215.192 174.38 220.609 179.233C224.472 182.803 228.132 186.586 231.572 190.565C236.142 195.658 240.093 201.275 243.342 207.297C244.658 209.836 246.273 212.213 247.451 214.798C249.366 218.976 251.12 223.291 253.105 227.423C255.413 232.038 256.705 237.162 258.782 241.939C258.829 242.222 258.829 242.51 258.782 242.793C257.49 242.793 257.005 241.547 256.128 240.97C252.62 238.662 248.997 236.654 245.65 234.208C240.873 230.723 235.68 227.907 230.972 224.307C227.533 221.676 223.587 219.691 219.94 217.383C213.524 213.136 207.154 208.798 200.761 204.482C199.954 203.928 199.4 203.582 198.292 204.343C191.53 208.959 184.652 213.367 177.798 217.822C174.659 219.876 171.335 221.63 168.289 223.845C163.973 226.984 159.057 229.338 154.857 232.5C149.502 236.493 143.548 239.424 138.194 243.509C136.024 245.124 133.578 246.394 131.27 247.94C131.115 248.038 130.934 248.091 130.751 248.091C130.567 248.091 130.387 248.038 130.231 247.94C131.778 243.532 133.393 239.17 134.847 234.739C136.601 229.223 139.14 223.984 140.871 218.468C142.209 214.175 143.617 209.905 145.256 205.751C146.894 201.597 148.556 196.727 150.218 192.204C151.741 188.072 153.034 183.849 154.718 179.764C155.085 178.759 155.701 177.863 156.508 177.161C157.316 176.458 158.288 175.972 159.334 175.748C164.224 174.203 169.323 173.425 174.451 173.44C180.18 173.627 185.85 174.662 191.276 176.51C195.015 177.548 198.523 179.164 202.331 180.595Z" fill="black"/>
<path d="M251.397 287.913C249.512 286.307 247.085 285.482 244.612 285.605C243.319 285.605 241.958 285.605 241.635 287.244C241.312 288.882 242.65 289.39 243.758 289.759C245.967 290.672 248.084 291.793 250.082 293.106C250.721 293.37 251.279 293.801 251.697 294.352C252.574 295.991 253.382 295.044 254.005 294.352C256.758 290.53 258.17 285.905 258.021 281.197C250.636 283.043 246.25 279.051 247.289 271.481H240.204C239.534 271.481 238.819 271.688 238.773 270.534C238.727 269.38 239.396 269.38 240.227 269.38C243.758 269.38 247.289 269.38 251.213 269.38C248.905 272.242 247.889 275.127 250.451 277.804C253.013 280.481 256.451 279.674 259.683 278.174C260.285 280.962 260.315 283.844 259.772 286.645C259.228 289.445 258.122 292.106 256.521 294.467C255.924 295.227 255.285 295.951 254.605 296.637C254.028 297.445 253.636 296.752 253.174 296.521C253.797 302.176 248.766 304.622 244.704 304.599C243.252 304.775 241.779 304.673 240.365 304.299C239.465 303.953 238.173 304.299 237.665 303.284C236.954 301.9 236.411 300.435 236.049 298.922C235.819 298.045 236.488 297.929 237.18 298.322C238.079 298.795 238.949 299.319 239.788 299.891C240.798 300.605 241.966 301.064 243.192 301.229C244.417 301.394 245.665 301.259 246.827 300.837C247.342 300.678 247.801 300.377 248.152 299.969C248.503 299.561 248.732 299.062 248.812 298.529C248.842 298.032 248.709 297.538 248.435 297.122C248.16 296.706 247.758 296.39 247.289 296.221C245.281 295.344 243.273 294.537 241.288 293.66C239.871 293.183 238.677 292.204 237.933 290.907C237.189 289.609 236.946 288.085 237.25 286.621C237.651 285.172 238.553 283.914 239.796 283.068C241.038 282.223 242.541 281.846 244.035 282.005C245.72 282.005 247.404 282.005 249.066 282.005C250.728 282.005 251.72 282.466 251.374 284.313C251.296 285.512 251.303 286.715 251.397 287.913Z" fill="black"/>
<path d="M172.974 290.036C172.456 289.422 171.803 288.936 171.066 288.616C170.33 288.296 169.529 288.15 168.727 288.19C166.419 288.028 165.75 288.744 166.419 291.052C166.915 290.819 167.467 290.731 168.012 290.798C169.166 290.798 170.112 290.636 170.066 292.413C170.019 294.191 169.512 294.398 168.127 294.144C166.027 293.752 166.304 295.114 166.188 296.452C166.073 297.791 166.696 298.529 168.173 298.345C169.004 298.229 169.881 298.345 170.689 298.345C173.366 297.791 174.52 299.683 176.297 301.714H172.235C169.373 301.714 166.488 301.899 163.65 301.714C162.719 301.601 161.776 301.758 160.932 302.167C160.089 302.577 159.382 303.221 158.895 304.022C158.776 304.254 158.594 304.446 158.369 304.577C158.144 304.708 157.886 304.772 157.626 304.761C154.695 304.761 151.764 304.761 148.81 304.761C148.569 304.804 148.322 304.776 148.097 304.682C147.872 304.588 147.679 304.431 147.54 304.23C147.217 303.63 147.748 303.33 148.094 303.053C148.328 302.797 148.501 302.493 148.601 302.161C148.701 301.829 148.725 301.479 148.671 301.137C148.671 296.175 148.533 291.213 148.671 286.274C148.671 284.543 147.125 283.966 146.986 282.12H151.856C153.218 282.12 152.756 283.113 152.756 283.759C152.756 289.067 152.756 294.375 152.756 299.683C152.756 301.022 153.033 301.576 154.464 301.437C155.895 301.299 157.395 301.437 158.872 301.437C159.301 301.442 159.727 301.357 160.122 301.189C160.517 301.021 160.873 300.773 161.167 300.461C161.462 300.149 161.689 299.78 161.834 299.376C161.979 298.972 162.04 298.542 162.011 298.114C162.011 294.791 162.011 291.444 162.196 288.098C162.208 287.828 162.131 287.562 161.977 287.341C161.822 287.12 161.599 286.956 161.342 286.874C160.903 286.621 160.672 286.413 160.788 285.928C160.903 285.444 161.457 285.513 161.826 285.513C165.104 285.513 168.381 285.513 171.658 285.513C172.72 285.513 172.997 285.882 172.927 286.851C172.858 287.821 172.974 288.49 172.974 290.036Z" fill="black"/>
<path d="M159.957 303.93C160.166 303.35 160.559 302.854 161.075 302.516C161.591 302.179 162.204 302.019 162.819 302.061C168.127 302.061 173.458 301.784 178.744 302.199C182.482 302.499 186.175 302.199 189.891 302.199C193.142 301.881 196.403 302.697 199.123 304.507C199.423 304.738 199.63 305.153 200.092 304.669C202.4 302.361 205.492 302.361 208.331 302.199C217.078 301.991 225.825 302.199 234.572 302.199C235.19 302.188 235.801 302.33 236.349 302.615C236.857 302.868 236.765 303.261 236.788 303.653C236.811 304.045 236.419 304.299 235.957 304.299H234.503C225.571 304.299 216.617 304.299 207.685 304.299C206.489 304.16 205.277 304.296 204.141 304.696C203.005 305.096 201.975 305.749 201.13 306.607C199.7 308.269 199.676 308.177 198.13 306.607C197.206 305.753 196.111 305.105 194.917 304.707C193.723 304.31 192.458 304.17 191.206 304.299C181.559 304.299 171.935 304.299 162.288 304.299C161.492 304.403 160.683 304.275 159.957 303.93Z" fill="black"/>
<path d="M190.168 297.422C190.052 298.506 190.652 300.03 189.937 301.091C189.221 302.153 187.629 301.645 186.406 301.83C182.275 302.476 178.259 302.291 175.12 298.968C174.24 298.026 173.602 296.883 173.262 295.639C172.923 294.394 172.891 293.086 173.171 291.827C173.45 290.568 174.032 289.396 174.867 288.412C175.701 287.429 176.762 286.663 177.959 286.182C181.119 285.024 184.537 284.76 187.837 285.42C188.391 285.42 188.529 285.813 188.483 286.274C188.483 287.221 188.852 288.259 188.206 289.067C187.929 289.436 187.375 288.929 186.937 288.721C185.604 288.001 184.089 287.687 182.579 287.818C181.07 287.949 179.632 288.52 178.443 289.459C177.85 290.088 177.413 290.848 177.168 291.677C176.923 292.506 176.878 293.382 177.035 294.232C177.193 295.082 177.549 295.883 178.074 296.569C178.599 297.256 179.28 297.809 180.059 298.183C181.682 298.776 183.417 298.997 185.136 298.829C185.783 298.829 186.083 298.529 185.967 297.952C185.69 296.66 186.775 295.021 184.929 294.052C184.467 293.821 184.536 292.99 185.436 292.967H189.429C190.122 292.967 190.168 293.406 190.168 293.937V297.422Z" fill="black"/>
<path d="M202.63 289.483C200.553 287.567 198.153 288.421 195.891 288.259C196.237 290.567 196.214 290.567 198.545 290.752C200.069 290.89 199.722 291.952 199.815 292.875C199.907 293.798 199.469 294.214 198.499 294.145C197.53 294.075 196.837 294.145 195.868 294.145C196.169 295.49 196.169 296.884 195.868 298.23H203.6C202.953 300.837 201.938 301.691 199.538 301.691H191.714C190.837 301.691 190.098 301.299 190.768 300.561C192.66 298.368 191.622 295.945 191.829 293.637C191.968 292.114 191.668 290.544 191.829 289.021C191.894 288.632 191.867 288.234 191.751 287.857C191.635 287.481 191.432 287.136 191.16 286.852C190.883 286.505 190.306 286.344 190.583 285.767C190.86 285.19 191.414 285.421 191.852 285.421C194.783 285.421 197.714 285.421 200.646 285.421C201.961 285.421 202.4 285.767 202.261 287.059C202.173 287.885 202.301 288.72 202.63 289.483Z" fill="black"/>
<path d="M197.761 279.512C197.3 277.86 197.205 276.127 197.484 274.435C198.569 270.303 201.8 269.08 205.769 268.572C207.014 268.492 208.263 268.492 209.508 268.572C210.847 269.334 210.847 269.334 210.662 272.196C208.712 271.221 206.48 270.968 204.361 271.48C203.283 271.735 202.343 272.394 201.737 273.322C201.131 274.25 200.906 275.376 201.107 276.466C201.198 277.458 201.593 278.398 202.237 279.157C202.881 279.917 203.744 280.46 204.708 280.712C205.327 280.804 205.957 280.804 206.577 280.712C207.408 280.597 208.677 281.266 208.885 280.251C209.159 279.68 209.245 279.036 209.129 278.414C209.012 277.791 208.701 277.222 208.239 276.789C207.869 276.489 207.708 275.889 207.431 275.45C208.285 274.989 208.839 275.681 209.531 275.727C212.785 275.958 212.855 275.981 212.762 279.374C212.762 280.781 213.547 282.697 211.585 283.32C208.834 284.404 205.774 284.404 203.023 283.32C200.935 282.542 199.094 281.22 197.692 279.489L197.761 279.512Z" fill="black"/>
<path d="M226.494 268.965C224.74 270.857 225.479 272.981 225.41 274.919C225.34 276.858 225.41 278.266 225.41 279.928C225.363 280.349 225.363 280.775 225.41 281.197C225.594 282.028 227.256 282.674 226.425 283.366C225.849 283.696 225.196 283.87 224.533 283.87C223.869 283.87 223.216 283.696 222.64 283.366C221.717 282.859 221.394 283.366 220.771 283.505C219.941 283.895 219.024 284.064 218.109 283.996C217.195 283.928 216.313 283.625 215.55 283.117C214.786 282.609 214.167 281.913 213.751 281.095C213.336 280.278 213.138 279.367 213.178 278.45C213.178 276.558 213.178 274.665 213.178 272.796C213.178 271.642 213.501 270.488 211.931 269.865C211.77 269.865 211.608 269.426 211.631 269.196C211.654 268.965 212.024 268.896 212.277 268.896C213.247 268.896 214.239 268.896 215.209 268.896C216.178 268.896 216.57 269.334 216.547 270.35C216.547 273.004 216.547 275.658 216.547 278.312C216.547 280.366 217.563 280.62 219.294 280.62C221.024 280.62 222.109 280.274 222.04 278.312C222.04 275.819 222.04 273.304 222.04 270.788C222.04 269.38 222.317 268.711 223.84 268.919C224.723 268.99 225.609 269.005 226.494 268.965Z" fill="black"/>
<path d="M148.002 269.38C152.11 269.38 156.241 269.38 160.349 269.38C161.088 269.38 161.688 269.38 161.688 270.419C161.688 271.457 161.134 271.504 160.372 271.504H151.856C153.472 278.589 148.187 283.043 141.217 281.243C140.994 283.861 141.354 286.497 142.272 288.959C143.19 291.421 144.642 293.65 146.525 295.483C147.633 296.545 148.948 297.514 148.117 299.568C145.291 297.731 142.961 295.226 141.332 292.275C139.486 288.559 138.688 284.41 139.024 280.274C139.024 278.912 138.77 277.55 140.986 278.912C142.152 279.508 143.47 279.741 144.77 279.58C146.07 279.42 147.292 278.874 148.279 278.012C148.833 277.562 149.281 276.994 149.588 276.349C149.895 275.704 150.054 274.999 150.054 274.285C150.054 273.57 149.895 272.865 149.588 272.22C149.281 271.576 148.833 271.008 148.279 270.557C148.099 270.427 147.972 270.237 147.921 270.021C147.87 269.804 147.899 269.577 148.002 269.38Z" fill="black"/>
<path d="M82.4112 219.898C82.5138 218.304 82.3895 216.703 82.0419 215.144C83.7728 216.783 84.996 218.444 87.1424 218.629C88.1366 218.819 89.1622 218.765 90.131 218.472C91.0998 218.178 91.9829 217.654 92.7045 216.944C93.7155 215.886 94.3115 214.498 94.3836 213.036C94.4556 211.574 93.9989 210.135 93.0968 208.982C92.153 207.861 90.8885 207.055 89.4734 206.674C88.11 206.426 86.7031 206.621 85.4576 207.228C83.9575 207.759 83.5882 209.536 82.1804 210.044L81.6034 206.512C82.6603 205.381 83.9899 204.54 85.4649 204.069C86.94 203.599 88.5112 203.514 90.028 203.825C91.5449 204.135 92.9568 204.829 94.1285 205.842C95.3003 206.854 96.1926 208.149 96.7203 209.605C96.808 209.863 96.9496 210.099 97.1357 210.297C97.5292 213.358 97.6451 216.448 97.4819 219.529C96.3279 219.368 96.7895 218.375 96.4433 217.59C95.5448 218.952 94.3354 220.081 92.9149 220.884C91.4944 221.686 89.9035 222.14 88.2733 222.206C87.1906 222.241 86.1122 222.054 85.1043 221.657C84.0963 221.26 83.1799 220.662 82.4112 219.898Z" fill="black"/>
<path d="M172.628 281.566C173.505 280.62 172.974 279.466 173.043 278.428C173.112 277.389 173.043 275.635 173.043 274.227C173.244 273.25 173.162 272.236 172.806 271.303C172.451 270.371 171.836 269.56 171.035 268.965C175.097 268.965 178.305 268.965 181.513 268.965C182.459 268.965 182.736 269.311 182.69 270.188C182.644 271.065 182.69 271.827 182.69 273.304C181.075 270.719 179.021 271.688 177.221 271.527C176.182 271.527 176.436 272.242 176.413 272.842C176.39 273.442 176.413 274.112 177.359 274.043C177.982 274.043 178.605 274.043 179.228 274.043C180.567 274.043 180.544 274.896 180.613 275.866C180.682 276.835 179.898 276.835 179.159 277.02C178.421 277.204 176.551 275.912 176.367 278.266C176.205 280.205 176.667 281.151 178.674 280.782C179.967 280.551 181.282 280.782 182.598 280.574C183.913 280.366 183.06 281.566 183.406 282.028C183.067 282.651 182.543 283.154 181.907 283.468C181.27 283.782 180.553 283.892 179.852 283.782C177.797 283.62 175.697 283.782 173.62 283.782C172.951 283.782 172.143 283.99 171.751 283.228C171.358 282.466 172.42 282.282 172.489 281.659L172.628 281.566Z" fill="black"/>
<path d="M228.018 269.034C230.81 269.034 233.787 269.034 236.765 269.034C238.126 269.034 238.196 269.427 237.78 272.196C236.188 270.881 234.341 271.55 232.61 271.458C231.664 271.458 231.733 272.173 231.756 272.819C231.78 273.465 231.595 274.296 232.633 274.412C233.187 274.412 233.741 274.412 234.295 274.412C234.849 274.412 235.495 274.412 235.518 275.404C235.541 276.396 235.08 276.535 234.249 276.604C233.418 276.673 231.756 275.912 231.71 278.012C231.71 280.735 231.71 280.758 234.434 280.758H238.842C238.149 282.259 237.411 283.066 235.749 283.066C233.118 283.066 230.464 283.066 227.948 283.066C229.327 278.494 229.351 273.62 228.018 269.034Z" fill="black"/>
<path d="M97.1357 210.275C95.8663 209.559 95.5201 207.967 94.597 207.044C93.2646 205.501 91.4216 204.488 89.4047 204.192C87.3878 203.895 85.3315 204.334 83.6113 205.428C82.9881 205.82 82.4573 206.49 81.6034 206.49C81.6034 204.943 81.6034 203.42 81.6034 201.874C83.6576 200.755 85.9639 200.18 88.3028 200.205C90.6418 200.229 92.9357 200.851 94.9662 202.012C95.8894 202.543 96.4433 202.358 96.351 200.974C95.9356 193.635 95.3817 186.318 94.2508 179.072C94.1813 178.234 94.1813 177.393 94.2508 176.556C95.2073 180.916 95.8093 185.346 96.051 189.803C96.8394 196.598 97.2017 203.435 97.1357 210.275Z" fill="black"/>
<path d="M172.628 281.566C172.42 281.566 172.097 281.566 172.028 281.566C169.212 285.582 165.104 282.905 161.665 283.528C161.506 283.546 161.346 283.508 161.212 283.422C161.077 283.335 160.977 283.204 160.928 283.052C160.879 282.9 160.885 282.735 160.943 282.586C161.002 282.438 161.11 282.314 161.25 282.236C162.334 281.405 162.127 280.297 162.127 279.212C162.127 276.143 162.127 273.05 162.127 269.981C162.127 268.942 161.596 269.057 161.203 268.734C161.026 268.618 160.891 268.447 160.82 268.247C160.749 268.046 160.746 267.829 160.811 267.626C161.042 267.026 161.411 267.35 161.757 267.626C161.895 267.651 162.035 267.651 162.173 267.626C163.327 267.788 164.988 267.073 165.519 267.973C166.05 268.873 165.773 270.511 165.773 271.827C165.773 274.689 165.773 277.551 165.773 280.435C167.726 280.207 169.694 280.138 171.658 280.228C172.697 280.228 172.466 280.897 172.466 281.497L172.628 281.566Z" fill="black"/>
<path d="M209.554 268.596C207.34 267.404 204.843 266.837 202.33 266.957C198.078 266.756 193.818 267.168 189.683 268.18C187.214 268.734 185.713 270.696 183.221 270.881C183.214 270.263 183.385 269.657 183.712 269.133C184.039 268.61 184.509 268.191 185.067 267.927C188.893 265.674 193.23 264.435 197.668 264.326C201.866 264.034 206.078 264.616 210.039 266.034C211.378 266.588 212.67 267.28 214.378 268.111C212.792 268.538 211.144 268.687 209.508 268.55L209.554 268.596Z" fill="black"/>
<path d="M82.4108 219.899C84.0494 220.268 85.388 221.445 87.0266 221.583C88.6661 221.73 90.3154 221.448 91.8126 220.764C93.3098 220.08 94.6033 219.018 95.5659 217.683C95.889 217.268 96.0506 216.691 96.7199 216.437C97.4584 217.337 96.4891 218.745 97.3892 219.483V222.414C95.6582 222.945 94.3658 224.307 92.658 224.953C89.2857 226.105 85.6039 225.948 82.3416 224.514C82.4108 222.991 82.4108 221.56 82.4108 219.899Z" fill="black"/>
<path d="M340.275 104.087H337.967H245.466H242.95L242.627 103.856H337.644C338.523 103.643 339.447 103.724 340.275 104.087Z" fill="black"/>
<path d="M219.501 269.38C219.908 269.415 220.317 269.415 220.724 269.38C221.509 269.38 221.625 269.773 221.625 270.419C221.625 271.065 221.625 271.527 220.794 271.481C219.963 271.435 219.27 271.481 218.486 271.481C217.701 271.481 216.963 271.735 216.939 270.465C216.916 269.196 217.678 269.38 218.44 269.38H219.501Z" fill="black"/>
<path d="M200.323 377.575V378.037C200.069 378.776 199.815 378.383 199.584 378.037C199.33 372.175 199.584 366.336 199.584 360.474C199.565 360.265 199.59 360.054 199.658 359.855C199.725 359.656 199.834 359.474 199.976 359.32H200.392C200.403 359.435 200.403 359.551 200.392 359.666C200.53 365.574 200.577 371.575 200.323 377.575Z" fill="black"/>
<path d="M199.815 359.32V378.199C199.168 378.568 199.261 378.014 199.168 377.668C199.168 372.198 199.168 366.729 199.168 361.259C199.053 360.575 199.124 359.874 199.376 359.228L199.815 359.32Z" fill="black"/>
<path d="M199.399 359.228V377.991C199.099 378.153 199.007 377.991 198.961 377.714V359.043L199.399 359.228Z" fill="black"/>
<path d="M51.4156 103.856H53.4697V104.41C52.8107 104.639 52.1072 104.711 51.4156 104.618V103.856Z" fill="black"/>
<path d="M200.323 377.576C200.323 371.575 200.323 365.575 200.323 359.597C200.47 359.742 200.581 359.921 200.645 360.118C200.71 360.314 200.726 360.524 200.692 360.728V376.422C200.726 376.63 200.71 376.843 200.645 377.043C200.581 377.244 200.471 377.426 200.323 377.576Z" fill="black"/>
<path d="M200.323 398.947C200.323 395.762 200.323 392.577 200.323 389.392C200.946 392.547 200.946 395.792 200.323 398.947Z" fill="black"/>
<path d="M199.007 388.792L199.446 389.161C199.446 391.861 199.446 394.585 199.446 397.285C199.446 397.931 199.769 398.67 199.122 399.224C199.03 395.739 199.03 392.346 199.007 388.792Z" fill="black"/>
<path d="M88.2042 209.005C88.9549 208.991 89.6925 209.203 90.3221 209.612C90.9517 210.021 91.4444 210.609 91.737 211.301C92.0295 211.992 92.1084 212.755 91.9635 213.492C91.8186 214.229 91.4566 214.905 90.924 215.435C90.3914 215.964 89.7126 216.322 88.975 216.462C88.2374 216.602 87.4747 216.519 86.785 216.222C86.0953 215.925 85.5103 215.428 85.1051 214.796C84.6999 214.164 84.4932 213.425 84.5115 212.675C84.5115 212.191 84.6072 211.712 84.793 211.265C84.9789 210.818 85.2512 210.413 85.5944 210.072C85.9376 209.731 86.3449 209.461 86.7928 209.278C87.2407 209.095 87.7203 209.002 88.2042 209.005Z" fill="black"/>
<path d="M231.018 285.767C226.402 284.797 221.787 285.536 217.171 285.328C215.994 285.328 216.271 286.136 216.271 286.759C216.271 288.882 216.271 290.983 216.271 293.106C214.47 291.006 212.093 289.759 210.593 287.751C209.785 286.63 208.636 285.8 207.318 285.384C206 284.968 204.582 284.989 203.277 285.444C205.446 287.151 204.939 289.413 204.962 291.56C204.985 293.706 204.962 295.321 204.962 297.214C204.977 298.04 204.726 298.849 204.246 299.522C203.877 300.076 202.815 300.376 203.115 301.091C203.416 301.807 204.477 301.484 205.193 301.553C205.908 301.622 206.185 301.553 206.67 301.553C208.193 301.737 208.793 301.16 208.747 299.545C208.747 296.799 208.747 294.052 208.747 290.936C212.393 294.583 216.063 297.606 219.156 301.253L219.663 300.953V294.698C219.663 292.598 219.663 290.498 219.663 288.398C219.663 287.336 220.125 286.528 221.14 286.505C222.156 286.482 222.64 287.313 222.617 288.375C222.617 290.129 222.617 291.86 222.617 293.614C222.617 295.922 223.194 298.229 221.556 300.399C220.91 301.253 221.556 301.553 222.525 301.553C225.294 301.656 228.066 301.517 230.811 301.137C232.655 300.634 234.303 299.585 235.539 298.126C236.775 296.668 237.541 294.869 237.734 292.967C237.639 291.169 236.914 289.462 235.686 288.145C234.458 286.829 232.805 285.987 231.018 285.767ZM227.395 298.345C226.472 298.345 226.172 298.045 226.218 297.145C226.218 295.829 226.218 294.491 226.218 293.175C226.136 292.624 226.136 292.064 226.218 291.513C226.518 290.429 225.295 288.836 226.979 288.305C228.065 288.061 229.199 288.15 230.233 288.562C231.267 288.974 232.152 289.689 232.772 290.613C234.319 295.137 232.634 298.253 227.395 298.345Z" fill="black"/>
<path d="M199.146 281.82C198.735 281.584 198.389 281.25 198.139 280.847C197.89 280.444 197.744 279.985 197.715 279.512C196.082 276.719 194.669 273.802 193.492 270.788C192.924 269.984 192.114 269.382 191.179 269.07C190.245 268.759 189.236 268.754 188.299 269.057C188.225 269.099 188.162 269.157 188.112 269.225C188.062 269.293 188.027 269.372 188.01 269.455C187.992 269.537 187.993 269.623 188.011 269.706C188.029 269.788 188.064 269.866 188.114 269.934C189.106 270.627 188.529 271.365 188.114 271.942C186.129 275.104 185.16 278.866 183.337 281.982C183.498 282.605 182.737 283.643 184.121 283.69C185.114 283.69 186.429 283.99 186.568 282.582C186.706 281.174 187.722 280.712 187.976 279.651C188.414 277.643 189.983 278.405 191.207 278.22C192.43 278.035 192.891 278.705 193.353 279.72C195.199 283.92 195.246 283.92 198.477 283.69C198.892 283.69 199.515 283.943 199.631 283.182C199.726 282.934 199.73 282.661 199.641 282.411C199.552 282.161 199.376 281.952 199.146 281.82ZM189.73 275.612L190.814 272.819L191.737 275.612H189.73Z" fill="black"/>
<path d="M243.019 276.12C242.211 274.019 240.503 276.12 239.234 275.289C238.426 275.497 237.18 275.589 237.18 276.743C237.18 279.189 239.35 278.705 240.827 279.051C242.304 279.397 241.334 277.458 242.373 277.528C243.411 277.597 242.511 276.235 243.019 276.12ZM239.211 277.758C238.819 277.758 238.496 277.758 238.542 277.227C238.565 277.101 238.62 276.982 238.7 276.881C238.781 276.781 238.885 276.701 239.003 276.651C239.396 276.535 239.511 276.927 239.626 277.204C239.742 277.481 239.557 277.758 239.211 277.758Z" fill="black"/>
</svg>
