<svg width="400" height="400" viewBox="0 0 400 400" fill="none" xmlns="http://www.w3.org/2000/svg">
<path d="M129.368 263.326C135.5 269.25 143.866 270.705 150.846 274.931C151.937 275.607 152.855 277.27 154.31 276.663C156.371 275.745 153.652 273.979 155.176 272.402C159.004 274.481 163.733 275.503 167.162 279.088C169.518 281.531 171.51 284.44 175.355 284.804C176.446 284.925 176.671 285.809 176.256 286.848C175.009 289.931 175.909 291.369 179.356 291.871C181.694 292.403 183.761 293.763 185.176 295.699C189.818 301.242 195.88 305.416 200.522 311.01C201.128 311.738 202.254 313.262 203.449 312.292C204.333 311.599 204.454 310.11 204.835 308.949C207.121 302.021 203.103 295.837 202.912 289.238C202.912 286.554 199.968 285.272 198.651 283.141C203.38 280.11 203.38 280.11 198.998 274.325C201.994 273.615 204.852 272.749 207.762 272.316C211.625 271.727 210.932 269.631 209.182 267.795C207.221 265.751 204.975 264.001 202.514 262.599C200.591 261.473 199.535 260.07 200.782 258.442C202.029 256.814 203.726 258.615 204.852 259.568C206.62 261.355 208.823 262.65 211.244 263.326C209.789 253.54 200.28 246.837 191.186 248.898C187.012 249.851 182.959 251.288 178.473 250.301C172.497 249.002 168.236 246.283 167.578 239.909C174.801 237.363 182.093 235.007 189.904 235.371C190.349 235.431 190.799 235.317 191.161 235.052C191.523 234.787 191.768 234.392 191.844 233.95C191.953 233.363 191.87 232.757 191.608 232.221C191.346 231.685 190.919 231.247 190.389 230.971C187.196 229.033 183.751 227.541 180.153 226.537C178.602 226.015 177.181 225.167 175.986 224.049C174.791 222.932 173.849 221.571 173.225 220.059C170.707 214.655 167.48 209.611 163.629 205.059C159.264 200.088 160.39 193.524 159.662 187.548C159.66 186.933 159.848 186.333 160.202 185.83C160.556 185.327 161.057 184.947 161.637 184.742C164.079 183.737 166.192 182.889 165.101 179.425C164.564 177.831 166.4 178.212 167.266 178.178C173.069 177.918 178.888 177.658 184.691 177.571C208.143 177.19 231.544 177.866 254.961 178.922C268.523 179.546 282.051 180.55 295.596 181.468C296.029 181.468 296.479 181.468 296.929 181.468C301.346 181.59 303.944 182.785 304.481 188.224C306.66 209.729 310.131 231.083 314.874 252.172C311.669 251.046 309.47 248.604 306.352 248.327C304.395 248.136 302.23 247.686 301.156 249.695C299.753 252.137 303.113 251.687 303.581 253.159C304.048 254.631 305.798 255.03 307.045 255.723C309.089 256.831 311.843 257.455 309.937 260.815C309.037 262.426 311.669 263.067 311.115 264.972C308.171 264.799 305.174 261.369 302.091 264.972C301.658 265.474 300.497 263.084 300.082 261.941C298.355 256.931 295.125 252.576 290.832 249.47C290.018 248.864 289.378 247.738 288.269 248.656C287.161 249.574 287.923 250.474 288.477 251.462C290.607 255.255 293.535 258.736 293.864 264.002C287.091 258.373 286.398 249.574 280.942 243.754C284.546 250.157 286.342 257.419 286.139 264.764C280.779 263.934 275.894 261.212 272.369 257.091C270.394 254.943 268.246 252.986 266.15 250.959C264.055 248.933 263.293 249.227 262.894 252.172C262.554 253.77 262.596 255.425 263.015 257.004C263.656 258.91 264.193 260.468 261.283 260.78C259.898 260.936 260.036 262.252 260.175 263.292C260.294 265.231 261.119 267.059 262.495 268.432C263.87 269.804 265.701 270.625 267.64 270.74C268.377 270.824 269.103 270.986 269.805 271.225C270.654 271.519 271.728 271.9 271.537 272.957C271.347 274.013 270.325 274.013 269.441 274.152C268.004 274.342 265.873 273.113 265.51 275.711C265.215 277.858 267.086 278.222 268.489 279.071C275.209 283.124 275.417 291.819 268.904 297.015C256.295 307.061 244.274 317.8 232.704 329.007C221.134 340.213 210.014 352.286 201.25 366.108C200.141 367.84 199.517 368.463 198.27 366.35C184.812 344.803 166.227 327.95 147.469 311.322C142.636 307.044 140.644 301.293 137.388 296.219C137.108 295.863 136.956 295.424 136.955 294.971C137.994 288.996 138.115 288.909 134.617 283.886C131.201 278.795 129.166 272.904 128.71 266.791C128.71 265.907 128.589 265.058 128.537 264.158L129.368 263.326ZM201.752 217.374C201.752 215.434 201.752 213.512 201.752 211.572C201.752 210.81 201.613 209.996 200.73 209.84C199.847 209.684 198.998 210.481 198.998 211.433C198.998 213.997 198.444 215.608 195.239 215.521C192.364 215.521 191.671 214.118 191.775 211.659C191.775 210.741 191.429 209.788 190.251 209.926C189.073 210.065 189.246 211.243 189.246 212.092C189.246 215.209 189.246 218.327 189.246 221.445C189.246 222.467 188.363 224.147 190.303 224.216C192.035 224.216 192.035 222.675 191.827 221.531C191.515 218.535 192.537 217.236 195.776 217.288C199.24 217.288 198.911 219.591 198.963 221.826C198.963 223.056 199.154 224.424 200.799 224.233C202.445 224.043 201.735 222.675 201.752 221.722C201.786 220.284 201.769 218.795 201.752 217.322V217.374ZM277.34 222.051C278.913 221.966 280.389 221.266 281.452 220.104C282.514 218.941 283.078 217.407 283.021 215.833C282.832 214.35 282.093 212.991 280.95 212.028C279.807 211.064 278.343 210.565 276.849 210.631C275.356 210.696 273.941 211.321 272.886 212.381C271.832 213.441 271.214 214.858 271.156 216.352C271.228 217.921 271.92 219.397 273.079 220.456C274.239 221.514 275.771 222.07 277.34 221.999V222.051ZM205.199 210.637C205.476 214.863 203.588 218.604 207.104 221.254C208.028 221.877 209.128 222.187 210.241 222.137C211.355 222.087 212.423 221.68 213.287 220.977C215.227 218.24 214.552 214.707 213.634 211C211.451 212.732 212.369 214.62 212.11 216.197C211.85 217.773 212.283 220.509 209.373 220.336C206.861 220.198 207.243 218.015 207.052 216.266C206.861 214.516 207.883 212.68 205.199 210.585V210.637ZM246.976 205.735C248.587 204.141 248.223 200.764 250.44 200.712C252.935 200.712 250.718 204.505 253.316 205.735C252.848 202.427 253.628 198.148 251.203 196.971C248.466 195.637 249.089 200.816 246.665 201.89C244.932 200.972 244.933 198.893 243.893 197.559C242.854 196.226 241.78 195.827 241.312 197.559C240.654 200.14 239.58 202.756 240.446 205.804C242.698 204.367 240.291 200.712 242.854 200.608C245.054 200.608 244.586 204.072 246.318 205.371C246.529 205.492 246.749 205.596 246.976 205.683V205.735ZM229.119 200.106C232.115 200.781 232.773 205.492 235.527 204.159C236.93 203.483 236.463 199.499 235.701 197.023C235.701 197.023 235.441 197.023 235.094 196.849C233.085 197.49 235.285 200.417 232.41 201.301C231.474 200.175 230.418 198.703 229.153 197.438C228.253 196.52 226.763 195.897 226.607 197.871C226.382 200.66 225.689 203.604 227.179 206.653C229.413 204.678 227.612 201.994 229.119 200.106ZM262.808 199.43C264.297 201.162 265.475 202.704 266.791 204.072C267.467 204.765 268.887 205.804 269.078 204.072C269.355 201.716 270.203 199.084 268.35 196.503C266.774 201.699 266.774 201.699 263.154 198.235C262.77 197.787 262.34 197.381 261.872 197.023C260.885 196.382 260.019 196.78 259.984 197.871C259.984 200.729 259.291 203.639 260.452 206.687C262.929 204.73 260.885 202.08 262.808 199.43ZM261.387 221.341C263.552 220.18 261.578 216.647 265.215 216.508C268.852 216.37 267.328 220.215 269.753 221.41C270.268 217.956 270.168 214.437 269.459 211.018C266.185 216.664 264.609 216.647 261.197 210.741C260.625 214.638 260.175 217.825 261.387 221.341ZM238.749 214.932C241.468 215.85 242.438 220.267 245.071 218.951C246.803 218.102 245.85 214.361 245.643 211.884C245.643 211.728 245.21 211.589 244.915 211.399C242.958 212.161 244.551 214.551 242.975 215.573C241.07 215.001 240.273 213.027 238.749 211.953C237.658 211.156 236.393 210.585 236.22 212.525C235.801 215.546 235.913 218.617 236.549 221.601C238.991 219.47 237.138 216.837 238.662 214.932H238.749ZM280.319 206.757C281.059 203.281 281.018 199.684 280.198 196.226C278.847 198.2 278.864 200.279 276.231 200.313C273.598 200.348 273.927 197.681 271.537 196.849C272.594 200.158 271.052 203.154 272.646 206.358C273.945 204.436 272.957 201.647 276.3 201.63C279.643 201.613 278.552 204.522 280.301 206.757H280.319ZM293.361 221.479C293.067 217.703 291.214 214.863 289.689 211.918C289.612 211.657 289.452 211.427 289.234 211.264C289.015 211.101 288.75 211.013 288.477 211.013C288.204 211.013 287.939 211.101 287.72 211.264C287.502 211.427 287.342 211.657 287.264 211.918C285.69 214.888 284.658 218.113 284.216 221.445C287.368 216.127 287.368 216.127 293.344 221.479H293.361ZM233.31 220.925C226.382 221.289 231.717 216.283 230.054 214.135C228.599 212.265 232.514 213.096 233.068 210.931C231.128 210.931 228.668 209.978 227.872 211.676C226.66 214.549 226.623 217.782 227.768 220.683C228.478 222.501 230.989 222.016 233.293 220.925H233.31ZM295.925 216.716C295.925 218.448 295.925 220.284 295.925 222.068C295.925 222.969 295.925 224.026 297.172 224.06C298.419 224.095 298.54 223.056 298.54 222.155C298.54 218.691 298.54 215.313 298.54 211.901C298.54 210.966 298.315 209.961 297.224 209.909C296.133 209.857 295.907 210.914 295.89 211.814C295.873 213.443 295.907 215.088 295.907 216.716H295.925ZM250.7 210.983C255.897 213.165 251.584 218.621 254.667 221.618C256.607 218.154 253.558 213.564 258.997 210.983H250.7ZM221.359 206.982C219.627 204.834 217.756 203.414 220.631 201.786C220.961 201.595 221.688 201.231 221.151 200.902C216.076 197.733 223.004 198.374 222.467 196.364C220.579 196.832 217.271 194.632 217.566 198.581C217.739 201.266 214.742 205.908 221.342 206.982H221.359ZM205.961 194.632C203.813 200.972 204.887 206.272 208.524 206.445C205.372 203.05 208.628 198.408 205.961 194.632ZM216.959 211.468C218.545 214.52 219.788 217.738 220.666 221.064C223.611 216.127 220.337 213.789 217.011 211.468H216.959ZM214.309 195.879C212.999 199.454 213.042 203.385 214.431 206.93C215.746 203.354 215.722 199.422 214.361 195.862L214.309 195.879Z" fill="black"/>
<path d="M226.209 110.523C253.766 111.718 282.137 112.255 310.301 116.117C319.897 117.434 329.614 117.849 339.244 119.027C342.708 119.46 343.054 120.759 342.552 123.704C339.469 141.486 336.45 159.286 333.493 177.104C333.078 179.632 332.021 181.07 329.388 180.464C321.196 178.541 312.657 179.425 304.481 177C300.168 175.666 295.318 175.96 290.711 175.718C272.247 174.731 253.801 173.501 235.285 173.016C215.141 172.479 194.997 172.306 174.87 172.652C150.621 173.085 126.493 173.432 102.538 176.688C92.146 178.108 81.5284 178.645 71.1186 180.481C68.659 180.914 66.5459 181.157 65.9224 177.519C63.1857 159.667 60.2758 141.827 57.1927 123.998C56.5865 120.534 57.2966 119.443 60.9686 118.94C96.0729 114.453 131.384 111.77 166.764 110.904C186.319 110.245 205.961 110.401 226.209 110.523ZM160.494 132.225C161.862 137.214 161.637 141.648 162.087 145.978C162.243 147.468 162.278 149.079 164.477 148.992C166.677 148.905 166.417 147.087 166.331 145.701C165.984 139.743 165.551 133.784 165.101 127.843C164.962 126.215 164.962 124.379 162.572 124.379C160.58 124.379 158.779 124.275 157.826 126.683C156.631 129.679 155.938 135.031 153.773 134.997C150.621 134.997 150.119 129.922 148.577 126.977C148.158 126.105 147.448 125.406 146.569 125.002C145.69 124.597 144.697 124.512 143.762 124.76C141.042 125.072 141.562 127.185 141.562 128.865C141.562 134.391 141.458 139.916 141.562 145.441C141.562 147.173 140.713 149.875 143.883 149.702C146.585 149.546 145.84 147.139 145.875 145.493C145.875 141.44 145.875 137.404 145.875 133.369L147.139 133.195C148.369 135.69 149.564 138.201 150.811 140.678C151.418 141.89 152.145 143.086 153.756 143.068C155.367 143.051 155.852 141.683 156.458 140.47C157.74 138.011 158.069 135.153 160.494 132.225ZM242.334 141.232C240.689 140.435 240.602 138.998 239.944 137.768C238.108 134.027 236.151 130.32 234.453 126.51C233.293 123.86 231.266 123.6 228.928 123.998C226.59 124.396 227.196 126.458 227.196 127.965C226.936 133.628 226.763 139.292 226.59 144.974C226.59 146.706 226.087 148.853 228.859 148.905C231.63 148.957 230.972 146.948 231.058 145.441C231.266 141.198 231.474 136.954 231.699 132.555C233.812 133.161 233.916 134.841 234.575 136.019C236.428 139.587 238.351 143.155 239.979 146.827C241.07 149.321 242.958 149.46 245.175 149.217C247.392 148.975 247.149 147 247.201 145.441C247.392 139.777 247.6 134.096 247.669 128.432C247.669 127.047 248.847 124.847 246.076 124.622C243.304 124.396 243.616 126.665 243.443 128.346C242.941 132.572 243.477 136.885 242.334 141.232ZM261.699 150.551C267.986 150.551 270.619 148.819 271.087 144.056C271.554 139.292 269.476 136.833 263.448 135.586C262.426 135.36 261.37 135.326 260.365 135.066C258.321 134.529 255.931 133.975 256.347 131.221C256.762 128.467 259.257 128.64 261.352 128.709C263.448 128.779 265.839 128.934 266.895 131.567C266.991 131.895 267.156 132.198 267.379 132.456C267.603 132.714 267.88 132.921 268.19 133.063C268.501 133.204 268.839 133.277 269.18 133.276C269.522 133.275 269.859 133.2 270.169 133.057C271.901 132.347 271.225 130.77 270.896 129.593C270.71 128.632 270.25 127.746 269.57 127.042C268.891 126.338 268.022 125.846 267.068 125.626C264.327 124.892 261.48 124.628 258.65 124.847C254.892 125.263 252.103 126.579 251.878 131.065C251.653 135.551 253.835 137.751 257.802 138.738C259.811 139.24 261.907 139.466 263.916 140.002C264.728 140.141 265.459 140.575 265.971 141.22C266.483 141.865 266.738 142.676 266.689 143.498C266.64 144.32 266.289 145.095 265.704 145.674C265.118 146.253 264.34 146.596 263.518 146.636C260.192 146.792 256.329 147.693 255.463 142.704C255.204 141.215 254.286 140.782 252.9 140.972C251.029 141.128 250.891 142.462 250.925 143.865C250.916 145.068 251.275 146.245 251.953 147.238C252.63 148.232 253.595 148.995 254.719 149.425C256.93 150.301 259.306 150.685 261.682 150.551H261.699ZM223.022 135.672C223.022 134.183 223.022 132.693 223.022 131.204C223.246 129.476 222.786 127.728 221.742 126.334C220.697 124.94 219.148 124.008 217.427 123.738C211.451 122.214 204.748 123.565 202.982 126.856C202.486 127.769 202.202 128.781 202.15 129.818C202.15 133.992 201.994 138.184 202.15 142.341C202.254 145.805 204.246 147.693 207.589 148.507C218.605 151.192 223.039 147.797 223.039 136.573L223.022 135.672ZM314.822 128.969C311.998 128.103 310.855 130.078 310.63 133.594C310.284 139.102 309.625 144.592 309.158 150.1C309.019 151.659 308.378 153.565 310.89 153.911C313.401 154.257 313.765 152.075 313.627 150.343C313.211 145.355 315.653 144.419 319.862 145.51C320.738 145.705 321.632 145.804 322.529 145.805C327.639 146.047 330.099 143.83 330.705 138.478C331.311 133.126 329.544 131.013 324.331 130.147C321.559 129.679 318.719 129.437 314.822 128.969ZM170.54 136.313H170.418C170.592 139.777 170.748 143.241 170.921 146.584C170.921 147.883 171.336 149.027 172.913 148.94C173.214 148.941 173.511 148.879 173.788 148.76C174.064 148.641 174.313 148.467 174.519 148.247C174.725 148.028 174.884 147.769 174.986 147.486C175.089 147.203 175.131 146.902 175.112 146.602C175.251 144.437 173.969 141.717 175.926 140.262C177.884 138.807 180.551 139.968 182.855 139.673C184.027 139.552 185.187 139.326 186.319 138.998C187.482 138.666 188.506 137.967 189.239 137.006C189.973 136.045 190.376 134.872 190.389 133.663C190.58 130.563 191.186 126.977 187.964 125.141C182.768 122.11 176.637 123.149 171.44 124.587C168.496 125.418 170.748 130.493 170.47 133.628C170.47 134.512 170.54 135.412 170.54 136.313ZM114.854 139.535H114.75C114.559 136.244 114.351 132.97 114.161 129.697C114.057 127.965 113.589 126.717 111.545 126.873C109.501 127.029 109.692 128.45 109.813 129.818C109.934 131.186 110.021 132.503 110.073 133.836C110.125 135.17 110.506 136.867 108.653 137.11C105.725 137.474 102.521 138.201 99.8191 137.422C97.117 136.642 98.5373 133.247 98.087 131.048C98.0606 130.754 98.0606 130.458 98.087 130.164C97.9658 128.727 97.2383 127.982 95.7487 128.138C95.4454 128.14 95.1462 128.209 94.8725 128.339C94.5989 128.47 94.3574 128.66 94.1655 128.895C93.9736 129.13 93.8359 129.404 93.7623 129.698C93.6886 129.993 93.6809 130.3 93.7395 130.597C94.3284 137.422 94.9635 144.252 95.6448 151.088C95.6314 151.39 95.6908 151.691 95.8181 151.966C95.9454 152.24 96.1368 152.48 96.3762 152.665C96.6156 152.85 96.896 152.975 97.1937 153.029C97.4915 153.083 97.7978 153.065 98.087 152.976C99.6112 152.751 100.01 151.763 99.8191 150.412C99.6459 148.472 99.4553 146.55 99.2995 144.61C99.1782 143.189 99.2995 142.133 101.032 141.579C108.202 139.327 110.506 140.747 111.199 148.109C111.216 148.403 111.216 148.698 111.199 148.992C111.199 150.482 111.615 151.694 113.433 151.642C115.252 151.59 115.633 150.43 115.529 148.888C115.287 145.788 115.061 142.67 114.854 139.535ZM291.127 145.874C291.127 146.827 291.023 147.416 291.006 148.022C291.006 149.754 290.088 152.006 292.859 152.162C295.336 152.318 294.903 150.031 295.041 148.524C295.596 142.583 296.029 136.642 296.548 130.701C296.704 129.108 296.721 127.635 294.678 127.237C292.235 126.856 292.53 128.761 292.426 130.147C291.854 137.3 292.772 137.075 284.926 136.694C280.821 136.486 279.626 134.962 280.336 131.221C280.466 130.186 280.466 129.138 280.336 128.103C280.349 127.801 280.294 127.501 280.174 127.223C280.055 126.946 279.874 126.699 279.646 126.501C279.418 126.303 279.148 126.159 278.857 126.079C278.566 126 278.26 125.987 277.963 126.042C276.664 126.042 276.231 126.943 276.11 128.12C275.659 134.956 275.221 141.798 274.793 148.646C274.707 150.031 275.244 150.984 276.803 150.966C277.102 150.999 277.405 150.967 277.691 150.872C277.977 150.777 278.239 150.621 278.459 150.416C278.679 150.21 278.853 149.96 278.967 149.681C279.082 149.402 279.135 149.102 279.124 148.801C279.228 146.879 279.314 144.939 279.453 142.999C279.453 142.133 279.349 140.834 280.267 140.626C283.485 140.007 286.805 140.168 289.949 141.094C292.564 141.821 290.832 144.471 291.127 145.874ZM79.2074 155.054C81.4435 155.094 83.6732 154.802 85.8239 154.188C89.6518 153.322 91.176 150.724 91.1933 146.983C91.1933 145.684 91.1933 144.056 89.3573 143.934C87.5213 143.813 86.9844 144.904 87.0364 146.515C87.107 147.34 86.9022 148.164 86.454 148.86C86.0058 149.556 85.3395 150.084 84.5595 150.36C78.4799 153.028 74.7213 150.88 74.167 144.385C74.0285 142.653 73.8206 141.111 73.6994 139.483C73.5262 137.075 73.1278 134.425 76.3321 133.698C79.5365 132.97 82.8621 131.515 85.3216 135.014C86.3262 136.417 87.1403 138.218 89.0282 136.885C90.9162 135.551 89.5479 133.68 88.7511 132.173C88.3095 131.387 87.6796 130.722 86.9178 130.238C86.1561 129.754 85.2863 129.467 84.3863 129.402C80.6661 128.893 76.8779 129.304 73.353 130.597C72.1083 130.941 71.0232 131.709 70.286 132.769C69.5487 133.829 69.206 135.113 69.3172 136.4C69.577 140.262 69.8888 144.142 70.4604 147.953C71.2571 153.582 73.1105 155.037 79.2074 155.054ZM119.669 151.382C120.452 151.363 121.202 151.061 121.781 150.533C122.36 150.005 122.73 149.285 122.821 148.507C123.323 145.545 125.211 144.8 127.931 144.696C131.187 144.558 134.201 144.246 135.24 148.472C135.656 150.204 137.284 150.533 138.912 150.1C140.142 149.789 140.038 148.905 139.622 147.987C136.504 141.059 133.508 134.131 130.148 127.202C129.945 126.668 129.575 126.213 129.093 125.904C128.612 125.595 128.044 125.45 127.473 125.489C126.903 125.527 126.36 125.749 125.924 126.12C125.489 126.491 125.184 126.992 125.055 127.549C122.631 134.598 120.517 141.752 118.318 148.888C117.85 150.17 117.971 151.313 119.669 151.382ZM193.836 136.088C193.836 139.379 193.836 142.67 193.836 145.943C193.836 147.416 194.2 148.697 196.019 148.646C197.508 148.646 198.08 147.624 198.08 146.255C198.08 139.535 198.08 132.814 198.08 126.094C198.08 124.483 197.3 123.565 195.603 123.669C193.905 123.773 193.871 125.003 193.871 126.25C193.836 129.523 193.836 132.814 193.836 136.088ZM305.59 136.85H305.503C305.659 135.222 305.849 133.594 305.953 131.966C306.057 130.337 306.577 128.501 304.221 128.19C301.866 127.878 301.831 129.766 301.693 131.446C301.19 137.508 300.671 143.571 300.099 149.615C299.96 151.14 299.666 152.699 301.831 152.941C303.996 153.184 304.204 151.711 304.36 150.135C304.689 145.701 305.105 141.284 305.538 136.885L305.59 136.85ZM202.064 166.33C202.064 162.866 202.219 159.402 202.064 156.076C201.951 155.262 201.527 154.524 200.881 154.017C200.235 153.509 199.417 153.273 198.599 153.357C196.469 153.357 194.061 152.369 192.26 154.171C190.996 155.435 191.948 164.754 193.455 166.659C194.823 165.083 192.884 161.636 196.815 161.463C200.747 161.29 199.639 164.598 202.064 166.33ZM172.289 167.075C175.753 166.867 178.455 166.088 178.161 162.502C177.936 159.817 175.615 159.125 173.242 158.882C171.718 158.726 169.778 158.397 170.211 156.544C170.644 154.69 172.791 155.072 174.385 155.539C174.784 155.731 175.152 155.982 175.476 156.284C176.082 156.7 176.758 157.271 177.381 156.457C178.005 155.643 177.503 155.002 176.931 154.517C175.931 153.733 174.735 153.24 173.473 153.09C172.212 152.94 170.933 153.141 169.778 153.669C169.049 153.869 168.422 154.337 168.024 154.979C167.626 155.622 167.485 156.391 167.63 157.133C167.959 159.679 169.899 160.389 172.012 160.857C172.899 160.953 173.768 161.174 174.593 161.515C176.325 162.416 176.186 163.611 174.593 164.477C173.937 164.841 173.186 164.999 172.438 164.931C171.691 164.864 170.981 164.572 170.401 164.096C169.587 163.507 168.877 161.498 167.734 163.178C166.85 164.477 168.271 165.672 169.466 166.261C170.378 166.604 171.325 166.848 172.289 166.988V167.075ZM226.624 153.114C223.697 153.114 221.307 153.547 220.874 156.284C220.441 159.021 222.294 160.302 224.788 160.753C225.377 160.874 225.966 160.978 226.52 161.134C227.646 161.463 229.188 161.619 228.807 163.247C228.426 164.875 226.901 164.979 225.516 164.875C224.995 164.838 224.489 164.689 224.032 164.437C223.574 164.186 223.177 163.839 222.866 163.42C222.363 162.866 221.671 162.294 221.134 163.178C221.003 163.426 220.935 163.702 220.935 163.983C220.935 164.264 221.003 164.54 221.134 164.788C222.762 167.456 225.377 167.196 227.906 166.832C228.394 166.804 228.871 166.679 229.311 166.464C229.75 166.249 230.142 165.95 230.464 165.582C230.786 165.215 231.032 164.787 231.188 164.324C231.344 163.86 231.405 163.371 231.37 162.883C231.284 160.372 229.448 159.419 227.196 159.003C225.758 158.778 224.078 159.003 223.455 157.271C223.419 156.994 223.45 156.712 223.547 156.45C223.643 156.187 223.802 155.952 224.009 155.764C224.648 155.378 225.388 155.19 226.134 155.224C226.88 155.258 227.599 155.512 228.201 155.955C228.963 156.423 229.933 157.86 230.625 156.197C231.128 155.089 230.037 154.257 229.067 153.842C228.282 153.49 227.464 153.217 226.624 153.028V153.114ZM218.206 160.043C217.929 158.917 217.115 159.073 216.474 158.969C214.985 158.744 212.664 159.627 212.577 157.237C212.491 154.846 214.864 155.643 216.319 155.401C217.237 155.245 218.432 155.747 218.847 154.344C215.764 153.01 211.677 152.889 210.603 154.084C209.529 155.279 209.563 165.585 210.603 166.209C211.892 166.847 213.306 167.19 214.744 167.214C216.182 167.238 217.607 166.942 218.917 166.347C218.622 165.741 218.57 165.412 218.38 165.256C216.648 163.87 212.785 166.347 212.525 162.952C212.231 158.934 216.821 161.913 218.206 159.904V160.043ZM189.558 166.105C189.172 165.564 188.645 165.14 188.033 164.88C187.422 164.621 186.751 164.535 186.094 164.633C184.673 164.529 182.768 164.962 182.716 162.762C182.664 160.562 184.344 160.683 185.921 160.614C186.804 160.614 188.034 161.099 188.484 159.679C187.653 158.276 186.319 158.951 185.228 158.813C184.137 158.674 182.716 158.536 182.786 156.908C182.855 155.279 184.24 155.349 185.436 155.175C186.631 155.002 188.12 155.712 189.108 154.361C186.613 152.837 182.179 152.629 181.053 153.894C180.361 154.69 180.014 164.996 180.915 165.706C183.548 167.785 186.319 167.092 189.558 166.105ZM207.433 160.25C206.602 158.12 208.576 154.067 206.082 154.067C203.588 154.067 204.956 158.051 204.921 160.216C204.887 162.381 203.64 166.001 206.03 166.001C208.42 166.001 206.688 162.242 207.433 160.25Z" fill="black"/>
<path d="M133.11 83.0172C128.606 82.4456 124.588 83.4156 120.725 81.926C118.716 81.1465 118.3 84.2123 116.62 84.9398C117.642 73.9065 121.297 70.7714 132.209 71.4989C139.137 71.9665 140.869 70.9273 144.333 63.9124C140.869 66.6144 138.219 69.2645 133.941 68.4851C134.184 66.753 136.037 66.9608 136.73 65.9216C136.73 64.1895 134.374 65.1768 133.941 63.3754C138.808 64.484 140.713 60.812 144.333 57.573L131.447 55.9968C132.607 52.3594 136.643 55.7023 137.856 52.3767C134.391 50.9911 134.963 49.1378 137.215 46.6089C137.591 46.2306 137.884 45.777 138.073 45.2778C138.262 44.7786 138.344 44.245 138.313 43.712C138.282 43.1791 138.139 42.6586 137.893 42.1848C137.647 41.711 137.304 41.2944 136.886 40.9624C135.153 39.1437 137.457 36.2338 136.297 32.5791C134.322 37.0132 130.737 38.9185 128.606 42.1921C127.658 44.0721 126.135 45.601 124.259 46.557C123.84 46.7031 123.468 46.9606 123.185 47.3018C120.387 52.6401 116.197 57.1227 111.06 60.275C107.596 62.648 104.132 64.8997 102.261 68.9354C101.638 65.5752 104.963 64.0683 105.726 60.8986C102.464 62.0591 99.4112 63.7376 96.6841 65.8696C94.3804 67.6017 93.6876 66.8915 93.3238 64.432C92.6657 60.1364 91.765 55.8755 94.5709 51.9091C94.6922 51.7532 97.8619 49.1204 93.7742 49.9518C93.0814 50.0731 93.5317 48.6701 93.7742 48.0639C97.8272 38.4335 101.586 28.682 107.943 20.1948C108.777 18.9153 109.998 17.935 111.428 17.3962C112.857 16.8574 114.421 16.7881 115.893 17.1983C144.022 21.8576 172.22 26.2051 200.765 26.1012C209.563 26.1012 218.345 25.2524 227.144 24.7675C228.46 24.7675 229.794 24.2305 231.059 25.0446C232.791 26.1531 234.644 29.4614 235.822 24.5596C235.995 23.8148 237.277 23.8321 237.762 24.3518C240.152 26.9672 244.24 28.2836 243.755 33.0121C243.495 35.6103 244.569 38.2084 246.716 41.1183C246.959 38.295 247.098 36.4243 247.288 34.5537C247.288 33.8435 247.6 32.5272 247.773 32.5098C252.484 32.5098 250.042 29.7212 249.678 27.4522C253.677 31.0665 256.941 35.4185 259.291 40.2695C260.4 42.4693 260.677 44.5824 264.176 43.4739C266.358 42.781 268.489 44.4438 269.563 46.6782C272.732 53.2774 277.565 59.2184 275.625 67.4631C274.811 70.9273 275.625 74.9457 276.335 78.5831C277.077 81.3974 277.098 84.3533 276.395 87.1778C275.693 90.0023 274.29 92.6042 272.317 94.7433C270.242 96.9747 268.969 99.8324 268.697 102.867C271.572 101.135 273.893 99.801 275.989 98.2768C278.777 96.2676 281.393 94.4662 285.203 94.5355C285.86 94.5574 286.513 94.4313 287.114 94.1667C287.716 93.9021 288.25 93.5057 288.677 93.0067C289.105 92.5078 289.414 91.9191 289.584 91.2843C289.753 90.6495 289.777 89.9847 289.655 89.3392C289.501 88.755 289.471 88.1452 289.567 87.5488C289.662 86.9523 289.881 86.3823 290.209 85.8751C294.816 92.9073 294.972 102.936 290.694 108.167C289.985 109.12 289.036 109.867 287.943 110.333C286.851 110.799 285.654 110.966 284.476 110.817C250.371 108.254 216.197 107.353 182.006 107.942C161.568 108.271 141.146 109.449 120.725 110.228C118.993 110.228 116.897 111.51 115.875 109.466C115.444 108.576 115.256 107.588 115.332 106.601C115.408 105.615 115.745 104.667 116.308 103.854C119.357 99.7144 121.037 94.9165 123.237 90.3612C124.167 88.643 125.677 87.311 127.498 86.6026C129.42 86.031 131.655 85.7365 133.11 83.0172ZM256.364 86.6545L257.888 86.7411C257.888 90.0667 257.888 93.4096 257.888 96.7352C257.888 98.4673 257.784 100.199 260.227 100.199C262.669 100.199 261.959 98.2248 261.959 96.8565C261.959 91.7988 261.716 86.7238 261.595 81.6662C261.595 80.1246 261.595 78.5831 259.43 78.4445C257.594 78.3059 255.966 78.3406 254.978 80.471C253.939 82.8786 253.246 87.1222 251.324 87.0529C248.622 86.949 248.674 82.7054 247.427 80.2978C247.04 79.5748 246.429 78.9967 245.686 78.6501C244.942 78.3035 244.107 78.207 243.304 78.3752C242.126 78.3752 241.208 78.8775 241.157 80.1073C240.879 86.2042 240.62 92.2318 240.429 98.398C240.402 98.6173 240.422 98.8399 240.488 99.0508C240.554 99.2616 240.665 99.4558 240.813 99.6201C240.961 99.7843 241.142 99.9149 241.345 100.003C241.548 100.091 241.767 100.134 241.988 100.13C242.434 100.213 242.895 100.128 243.282 99.8914C243.669 99.6547 243.954 99.2832 244.084 98.8484C244.413 97.4107 244.43 95.9211 244.655 94.4489C245.019 91.8508 244.222 89.0621 245.816 85.8924C246.704 88.3236 247.722 90.7057 248.864 93.0286C250.25 95.5574 252.069 95.644 253.489 93.0286C254.632 91.106 255.429 88.8889 256.364 86.6545ZM213.53 91.6429L212.352 91.9547C210.343 88.1614 208.247 84.4202 206.342 80.575C205.944 79.677 205.23 78.9567 204.336 78.551C203.442 78.1454 202.429 78.0828 201.492 78.3752C199.396 78.7389 199.933 80.6442 199.898 82.0299C199.898 87.1049 199.898 92.1799 199.898 97.2548C199.898 98.6925 199.639 100.511 201.908 100.494C203.64 100.494 203.934 99.0389 203.934 97.6186C203.934 94.1544 203.934 90.6903 203.934 86.6892C204.631 86.9852 205.256 87.4277 205.767 87.9865C206.278 88.5454 206.663 89.2075 206.896 89.9282C208.368 92.6822 209.841 95.4535 211.209 98.2594C211.592 99.0799 212.251 99.7403 213.07 100.126C213.89 100.512 214.818 100.599 215.695 100.373C218.12 100.078 217.687 98.1036 217.722 96.562C217.722 91.487 217.722 86.412 217.722 81.3371C217.722 79.986 217.722 78.4618 215.851 78.4272C213.98 78.3925 213.565 79.8821 213.582 81.493C213.547 84.9225 213.53 88.248 213.53 91.6429ZM238.472 98.4673C238.472 98.1555 238.299 97.7225 238.143 97.3068L231.942 80.575C231.755 79.9203 231.352 79.3483 230.798 78.952C230.245 78.5557 229.573 78.3585 228.893 78.3925C227.283 78.3925 226.607 79.4837 226.105 80.8348C224.165 86.031 222.138 91.1233 220.302 96.3195C219.887 97.48 218.189 99.1428 220.302 100.13C222.173 100.979 223.351 99.7837 223.974 97.965C224.39 96.7352 224.615 95.1071 226.365 95.159C229.396 95.159 233.189 93.6521 234.246 98.6232C234.575 100.199 235.874 100.632 237.381 100.355C238.247 100.078 238.541 99.4373 238.472 98.4673ZM163.993 89.3046C163.993 91.9893 163.993 94.674 163.993 97.3414C163.993 98.6925 163.993 100.286 165.863 100.321C169.726 100.425 173.606 100.321 177.468 100.321C177.7 100.339 177.933 100.307 178.152 100.226C178.37 100.145 178.569 100.018 178.733 99.8538C178.898 99.6891 179.025 99.4908 179.106 99.2724C179.186 99.0539 179.218 98.8206 179.2 98.5885C179.2 97.2202 178.23 96.8565 177.122 96.8565C175.026 96.8565 172.947 96.7179 170.869 96.8565C168.79 96.995 167.63 95.9558 167.647 93.7041C167.665 91.4524 168.669 90.4824 170.921 90.5863C172.843 90.673 174.783 90.5863 176.723 90.5863C176.98 90.5905 177.234 90.5378 177.467 90.432C177.7 90.3261 177.907 90.1698 178.073 89.9743C178.239 89.7788 178.359 89.549 178.425 89.3014C178.491 89.0538 178.502 88.7946 178.455 88.5425C178.351 87.434 177.589 87.0529 176.619 87.0356C174.887 87.0356 173.051 87.0356 171.267 87.0356C169.483 87.0356 167.509 87.2608 167.613 84.4894C167.716 81.7181 169.656 82.0299 171.458 82.0126C173.259 81.9952 175.338 82.0126 177.26 82.0126C178.178 82.0126 179.131 81.7008 179.2 80.5923C179.269 79.4837 178.282 78.8602 177.174 78.8602C176.429 78.8602 175.684 78.8602 174.939 78.8602C164.044 78.3579 164.044 78.3579 164.044 89.3046H163.993ZM147.642 92.7688L146.602 92.9073C145.026 88.7677 143.415 84.628 141.891 80.471C141.268 78.8256 140.159 77.8383 138.427 78.5484C136.695 79.2586 137.682 80.6442 138.046 81.6662C140.038 87.1395 142.116 92.5609 144.178 97.9996C144.336 98.6578 144.711 99.244 145.241 99.6647C145.772 100.085 146.428 100.316 147.105 100.321C148.837 100.321 149.374 99.2121 149.876 97.8784C151.833 92.6822 153.895 87.5899 155.713 82.3936C156.146 81.1985 157.67 79.3798 155.713 78.4965C153.756 77.6131 152.544 79.172 151.885 81.0946C150.534 85.0783 149.114 88.9409 147.694 92.838L147.642 92.7688ZM187.479 91.1406C187.479 93.3923 187.479 95.6267 187.479 97.8611C187.479 99.0735 187.583 100.373 189.212 100.407C190.84 100.442 191.481 99.264 191.498 97.7571C191.498 94.0332 191.636 90.3092 191.498 86.5853C191.377 83.6754 191.654 81.493 195.412 81.926C196.659 82.0645 197.959 81.7528 197.959 80.1939C197.959 78.635 196.781 78.3059 195.482 78.2886C191.307 78.2886 187.133 78.2886 182.959 78.2886C181.712 78.2886 180.413 78.4618 180.343 80.0207C180.239 82.0126 181.885 82.0992 183.149 81.9606C186.96 81.5103 187.809 83.4502 187.462 86.7065C187.42 88.209 187.467 89.7128 187.601 91.2099L187.479 91.1406ZM158.329 89.5991C158.329 92.2665 158.329 94.9339 158.329 97.6012C158.329 99.1082 158.779 100.303 160.546 100.269C162.312 100.234 162.416 99.0389 162.434 97.7745C162.434 92.278 162.434 86.7873 162.434 81.3024C162.434 79.8821 162.226 78.5138 160.321 78.6697C158.415 78.8256 158.346 80.1766 158.346 81.5796C158.311 84.2469 158.329 86.9143 158.329 89.5991Z" fill="black"/>
<path d="M325.474 183.98C318.546 185.902 318.459 185.902 319.135 192.64C321.902 217.724 326.533 242.567 332.991 266.963C333.701 269.735 333.424 271.224 330.913 272.766C298.142 292.927 269.822 318.579 242.386 345.253C228.686 358.59 215.678 372.637 206.377 389.629C204.956 392.239 203.582 394.883 202.254 397.562C201.787 398.48 201.596 399.848 200.522 399.987C199.067 400.16 198.79 398.567 198.218 397.597C189.056 381.003 177.434 366.419 164.478 352.563C143.953 330.565 121.28 311.183 97.5329 292.997C88.2836 285.912 78.8438 279.14 69.023 272.818C68.0319 272.337 67.2645 271.492 66.8806 270.46C66.4967 269.427 66.5257 268.287 66.9618 267.275C72.8166 242.28 77.4067 217.006 80.7145 191.549C81.39 186.699 79.7445 184.621 74.9293 184.066C79.1383 182.109 83.5897 182.836 87.816 182.109C89.5481 181.815 89.3229 183.356 89.2363 184.655C88.8033 191.341 88.197 198.009 87.2271 204.643C85.062 219.383 82.2214 233.985 78.9997 248.517C78.0817 252.587 77.1291 256.658 75.9859 260.641C75.5032 261.815 75.4793 263.127 75.9188 264.317C76.3584 265.508 77.2293 266.489 78.3588 267.067C113.328 290.217 145.591 317.215 174.541 347.557C182.942 356.066 190.208 365.625 196.157 375.998C198.894 380.917 200.366 380.743 203.293 375.911C213.495 359.006 226.936 344.734 241.053 331.258C257.799 315.321 275.443 300.355 293.898 286.432C302.27 279.702 311.032 273.473 320.139 267.777C323.603 265.786 324.487 263.517 323.482 259.706C317.118 235.495 312.573 210.843 309.885 185.954C309.522 182.49 310.561 181.347 313.696 182.196C317.351 183.166 321.231 181.918 325.474 183.98Z" fill="black"/>
<path d="M73.9072 114.61C74.1928 113.922 74.6472 113.317 75.2284 112.851C75.8097 112.384 76.499 112.072 77.2328 111.943C84.5422 108.946 84.6634 108.964 84.1611 100.84C82.914 78.9236 79.8316 57.1502 74.9465 35.7487C74.5033 34.5612 74.3852 33.2769 74.6045 32.0284C74.8237 30.78 75.3723 29.6127 76.1936 28.6472C83.4163 20.4892 90.6044 12.2964 97.5847 3.91318C98.6483 2.42605 100.15 1.30797 101.879 0.714916C103.609 0.121861 105.48 0.0834082 107.232 0.60492C134.755 5.99168 162.503 10.2699 190.632 11.2572C215.054 12.1232 239.251 9.681 263.379 5.78383C273.979 4.05175 284.545 2.16379 295.111 0.189222C296.05 -0.0817607 297.05 -0.0612695 297.978 0.247988C298.906 0.557245 299.718 1.14071 300.307 1.9213C308.055 10.8242 315.826 19.7039 323.621 28.5606C324.325 29.3298 324.812 30.2729 325.031 31.2927C325.25 32.3125 325.194 33.3723 324.868 34.3631C320.139 52.3593 318.286 70.7367 316.848 89.2352C316.467 94.137 316.19 99.0561 315.844 103.975C315.566 107.924 316.536 110.176 320.486 111.146C322.15 111.4 323.652 112.288 324.677 113.623C318.775 113.823 312.88 113.039 307.235 111.302C305.503 110.869 306.144 108.998 306.231 107.751C307.564 84.9224 309.591 62.1629 314.371 39.7498C314.906 38.0838 314.956 36.2999 314.514 34.6067C314.072 32.9136 313.158 31.3812 311.877 30.1888C306.975 25.1831 302.455 19.7963 298.021 14.3576C297.161 13.2457 295.98 12.4261 294.638 12.0107C293.295 11.5953 291.858 11.6043 290.521 12.0366C269.736 16.1936 248.656 18.7051 227.542 20.9048C204.385 23.3124 181.348 22.0827 158.259 19.4326C141.631 17.5273 125.09 15.137 108.687 11.9154C107.479 11.5577 106.188 11.5856 104.996 11.9954C103.804 12.4052 102.769 13.1764 102.036 14.2017C96.9958 20.2986 91.6437 26.205 86.4475 32.0594C85.7742 32.745 85.2933 33.5958 85.0531 34.5261C84.8129 35.4565 84.8219 36.4338 85.0791 37.3596C89.6914 60.7888 92.5859 84.5237 93.7395 108.375C93.93 111.839 92.9427 112.878 89.7211 113.069C84.5249 113.45 79.5192 114.073 73.9072 114.61Z" fill="black"/>
<path d="M133.889 180.741C133.11 200.348 128.052 219.765 136.799 238.54C131.707 239.164 130.131 236.514 128.277 232.946C122.787 222.38 121.713 210.775 119.34 199.465C118.837 197.126 119.201 193.368 116.118 193.489C113.312 193.593 114.68 197.126 114.386 199.17C113.988 201.82 113.832 204.505 113.607 207.172C113.503 208.35 113.745 209.84 112.221 210.082C111.043 210.273 110.662 208.956 110.09 208.09C107.059 203.622 106.436 198.495 106.193 193.316C106.037 189.852 106.193 186.526 106.193 183.218C107.614 182.958 107.492 183.685 107.544 184.222C107.7 185.469 107.181 187.201 109.121 187.375C109.808 187.363 110.47 187.116 110.997 186.675C111.523 186.233 111.882 185.624 112.013 184.95C112.914 181.486 115.477 181.139 118.37 180.481C121.834 179.702 122.198 181.174 121.834 183.945C121.097 189.695 121.097 195.516 121.834 201.266C122.128 203.466 122.076 206.462 124.657 206.653C127.238 206.843 126.892 203.552 127.359 201.682C128.32 197.017 128.859 192.275 128.97 187.513C128.939 186.002 129.403 184.523 130.291 183.3C131.179 182.078 132.443 181.179 133.889 180.741Z" fill="black"/>
<path d="M277.495 18.7225C281.964 19.5539 283.748 22.3252 286.589 23.3991C287.438 21.5284 284.666 20.697 285.688 18.4973C292.616 25.5295 297.726 34.086 306.023 39.8018C303.979 34.7961 302.074 29.7731 298.332 25.6854C296.237 23.3817 294.297 20.9222 292.305 18.5146C291.733 17.8391 291.04 17.0077 291.889 16.1763C292.073 15.9829 292.295 15.829 292.541 15.7239C292.786 15.6187 293.051 15.5645 293.318 15.5645C293.585 15.5645 293.85 15.6187 294.095 15.7239C294.341 15.829 294.563 15.9829 294.747 16.1763C300.22 22.3079 305.613 28.4798 310.925 34.6922C311.261 35.3565 311.336 36.1234 311.132 36.84C309.972 43.0581 308.742 49.2763 307.426 56.0487L277.495 18.7225Z" fill="black"/>
<path d="M116.205 272.42C120.614 279.065 124.423 286.09 127.584 293.412C115.893 285.843 105.76 278.742 100.928 266.305C99.0033 261.447 96.2356 256.967 92.7523 253.072C88.2663 247.98 86.0839 242.385 88.145 235.44C88.8898 232.876 89.6 232.911 91.2454 234.366C95.0042 237.591 97.6524 241.918 98.8146 246.733C99.6822 250.448 101.095 254.014 103.006 257.316C105.743 262.218 107.319 267.708 109.432 273.008C109.861 274.115 110.377 275.187 110.974 276.213C111.771 277.616 112.585 279.486 114.559 278.915C116.534 278.343 115.391 276.351 115.72 275.018C115.893 274.585 115.893 274.152 116.205 272.42Z" fill="black"/>
<path d="M283.904 48.4448C302.247 59.1491 308.465 71.4641 302.697 86.8623C300.134 79.6568 297.691 73.0057 295.44 66.3372C293.016 59.568 289.069 53.4464 283.904 48.4448Z" fill="black"/>
<path d="M91.6436 46.6436C89.9244 43.9386 89.1608 40.7356 89.4747 37.5459C89.7887 34.3562 91.1621 31.3636 93.3757 29.0457C96.7532 25.0446 100.304 21.182 103.768 17.2676C104.703 16.2283 105.951 14.9985 107.232 16.0724C108.86 17.4754 106.765 18.2722 106.054 19.1382C105.238 20.3854 104.117 21.4046 102.798 22.1C99.8883 23.07 99.2301 25.3217 98.3987 27.7813C96.2163 34.1033 93.93 40.3561 91.6436 46.6436Z" fill="black"/>
<path d="M106.886 106.504C104.99 103.936 103.732 100.954 103.214 97.8041C102.696 94.6543 102.933 91.4266 103.907 88.3865C105.476 85.0314 107.524 81.9217 109.986 79.1545C108.791 88.9581 105.396 97.4279 106.886 106.504Z" fill="black"/>
<path d="M281.15 61.0024C283.991 66.0081 286.346 70.4249 282.692 75.4999C281.883 77.107 281.518 78.9009 281.635 80.6961C281.736 81.6142 281.54 82.5405 281.076 83.3387C280.611 84.1369 279.902 84.7649 279.054 85.1303C279.279 76.8336 278.223 69.0912 281.15 61.0024Z" fill="black"/>
<path d="M131.845 41.9148C128.381 59.045 122.475 68.1384 113.347 70.8751C113.386 69.7951 113.733 68.7488 114.347 67.8591C114.961 66.9693 115.815 66.2731 116.811 65.8521C118.747 64.8862 120.457 63.5208 121.828 61.8459C123.198 60.171 124.198 58.2246 124.761 56.1351C126.299 51.0276 128.694 46.2188 131.845 41.9148Z" fill="black"/>
<path d="M144.766 211.589L148.993 229.048C142.913 223.679 142.289 221.375 144.766 211.589Z" fill="black"/>
<path d="M97.2557 93.8947C95.3504 88.3174 96.3377 83.5022 95.3157 78.9295C95.2661 78.7842 95.256 78.6284 95.2865 78.4779C95.317 78.3274 95.3869 78.1877 95.4891 78.0731C95.5914 77.9586 95.7222 77.8732 95.8683 77.8259C96.0143 77.7786 96.1703 77.7709 96.3203 77.8037C98.4508 78.2194 96.736 80.09 97.4635 81.1119C98.9531 81.2852 99.1956 79.0681 101.153 79.4838C99.4578 84.1715 98.1543 88.9916 97.2557 93.8947Z" fill="black"/>
<path d="M121.764 89.7896C119.755 94.0158 118.3 98.6058 113.814 101.914C112.688 94.9165 118.837 93.4096 121.764 89.7896Z" fill="black"/>
<path d="M280.44 215.902C280.44 218.431 279.401 220.007 277.097 219.938C276.611 219.928 276.131 219.818 275.689 219.615C275.247 219.412 274.851 219.121 274.526 218.758C274.202 218.396 273.955 217.971 273.801 217.51C273.647 217.048 273.59 216.56 273.633 216.075C273.591 215.63 273.644 215.182 273.788 214.759C273.932 214.336 274.163 213.949 274.468 213.621C274.772 213.294 275.142 213.035 275.553 212.861C275.964 212.687 276.408 212.602 276.854 212.611C277.313 212.559 277.777 212.606 278.216 212.748C278.655 212.891 279.058 213.127 279.398 213.439C279.738 213.751 280.007 214.132 280.187 214.557C280.366 214.982 280.453 215.441 280.44 215.902Z" fill="black"/>
<path d="M218.743 136.434L218.587 139.102C218.328 144.298 217.375 145.268 212.646 145.233C207.45 145.233 206.446 144.177 206.394 138.911C206.394 137.283 206.394 135.638 206.394 134.009C206.394 127.705 209.373 125.557 215.504 127.272C216.386 127.46 217.18 127.937 217.761 128.627C218.341 129.317 218.675 130.181 218.709 131.082C218.865 132.849 218.743 134.65 218.743 136.434Z" fill="black"/>
<path d="M320.607 141.596C318.442 140.834 313.99 142.739 314.908 137.11C315.289 134.841 314.908 132.208 318.494 133.178C321.49 134.027 326.427 132.018 326.236 138.028C326.132 141.631 323.742 142.081 320.607 141.596Z" fill="black"/>
<path d="M179.858 135.655C175.857 136.521 174.818 134.425 174.818 130.961C174.818 126.544 178.144 127.653 180.568 127.497C183.652 127.22 186.44 127.757 186.336 131.775C186.232 136.348 182.578 135.378 179.858 135.655Z" fill="black"/>
<path d="M128.346 132.78C129.005 134.252 129.715 135.707 130.286 137.197C130.667 138.218 132.018 139.587 130.581 140.332C129.242 140.975 127.716 141.11 126.285 140.713C124.241 140.089 125.8 138.461 125.973 137.335C126.289 135.792 126.682 134.266 127.151 132.762L128.346 132.78Z" fill="black"/>
<path d="M197.145 155.262C198.565 155.262 200.054 155.574 199.743 157.444C199.431 159.315 197.768 159.402 196.244 159.402C194.72 159.402 193.958 158.778 193.958 157.271C193.958 154.933 195.707 155.349 197.145 155.262Z" fill="black"/>
<path d="M228.668 84.5586C230.4 87.0355 231.613 88.8195 230.712 90.8287C230.262 91.816 228.045 91.7294 227.456 91.0192C225.776 88.9927 227.802 87.3126 228.668 84.5586Z" fill="black"/>
</svg>
