<svg width="400" height="400" viewBox="0 0 400 400" fill="none" xmlns="http://www.w3.org/2000/svg">
<path d="M77 206.617L133.154 232.222L135.005 230.815L125.067 192.217L122.874 192.331L112.733 204.791L98.8912 194.017C104.684 187.235 109.995 180.504 115.902 174.344C118.818 171.289 119.211 168.665 118.159 164.799C114.126 150.493 110.851 135.985 108.347 121.334L155.705 179.643L157.935 179.478C172.069 120.053 186.114 60.5653 200.463 0C214.825 60.5527 228.933 120.041 243.054 179.516L245.298 179.706L292.49 121.486L293.758 121.955C291.793 129.877 289.853 137.812 287.863 145.735C286.215 152.263 284.732 158.841 282.717 165.268C281.551 169.071 282.4 171.416 285.049 174.23C290.804 180.34 296.09 186.906 302.035 193.814L288.332 204.829L278.192 192.382H275.91L266.137 230.473L267.911 232.171L322.418 207.441C322.582 208.049 322.735 208.341 322.671 208.417C314.952 216.859 316.549 225.922 318.868 236.304C334.079 305.945 287.838 371.707 217.208 382.254C214.33 382.685 211.2 384.992 209.26 387.324C206.04 391.127 203.683 395.728 200.945 400C200.45 399.67 200.007 399.544 199.893 399.277C194.493 386.804 184.745 382.444 171.549 379.275C103.074 362.771 64.3241 293.51 84.6689 226.264C85.8097 222.462 85.683 219.495 83.2492 216.352C81.2337 213.766 79.6746 210.838 77 206.617ZM200.59 351.299L264.603 250.653L262.854 248.308L236.07 261.402C224.661 212.993 213.253 165.141 201.997 117.29L198.917 117.417C187.61 165.319 176.303 213.234 164.895 261.541C157.619 257.891 151.293 254.57 144.841 251.553C142.94 250.665 140.658 250.615 138.503 250.184C139.074 252.225 139.201 254.532 140.265 256.256C156.321 281.971 172.479 307.639 188.738 333.262C192.35 338.902 196.153 344.442 200.59 351.299ZM226.157 360.058L228.211 362.378C254.665 354.937 275.111 338.991 289.689 315.477C303.378 293.485 307.524 269.591 303.239 244.492L300.438 243.491C275.703 282.347 250.943 321.203 226.157 360.058ZM101.084 244.404L98.6631 244.86C98.0546 246.698 96.9645 248.511 96.9138 250.361C96.7363 258.132 95.9124 266.054 97.0406 273.672C103.379 316.086 126.702 345.063 166.872 360.299C169.052 361.123 171.613 360.984 173.996 361.301L174.642 359.513C150.11 321.139 125.591 282.769 101.084 244.404Z" fill="black"/>
<path d="M200.476 302.789C195.912 289.935 191.603 278.109 187.546 266.219C187.059 264.842 187.019 263.347 187.432 261.947C191.539 249.879 195.798 237.863 200.45 224.616C205.102 237.736 209.323 249.588 213.443 261.478C213.913 262.862 213.948 264.357 213.544 265.762C209.387 277.817 205.026 289.808 200.476 302.789Z" fill="black"/>
</svg>
