<svg width="400" height="400" viewBox="0 0 400 400" fill="none" xmlns="http://www.w3.org/2000/svg">
<path d="M352.213 68C352.075 71.4461 351.817 74.8921 351.817 78.3382C351.782 110.323 351.782 142.308 351.817 174.294V182.047L388.543 171.382C392.472 183.822 396.443 196.004 399.975 208.306C400.268 209.323 397.89 212.019 396.305 212.528C383.469 216.583 370.563 220.422 357.589 224.046C353.143 225.269 351.601 227.311 351.636 232.075C351.886 263.09 351.636 294.104 351.868 325.119C351.868 329.943 350.507 331.408 345.691 331.244C335.474 330.908 325.23 330.883 315.013 331.244C310.025 331.425 308.396 330.15 308.448 324.895C308.732 298.696 308.577 272.489 308.577 246.282V239.011C299.497 241.595 291.252 243.947 283.042 246.342C276.572 248.237 270.205 250.495 263.666 252.063C259.092 253.148 256.533 255.509 254.69 259.816C245.445 281.587 235.891 303.228 226.423 324.904C225.665 326.627 224.743 328.298 223.606 330.555L184.364 314.393L202.938 271.395C201.103 271.395 199.82 271.111 198.717 271.438C182.486 276.237 166.238 280.984 150.102 286.084C147.948 286.764 145.699 289.065 144.709 291.184C139.442 302.51 134.416 313.954 129.632 325.515C128.081 329.271 126.548 330.607 122.438 328.806C111.178 323.878 99.7634 319.33 87.9779 314.428C89.2012 310.982 90.3298 307.811 91.8719 303.486C88.96 304.201 87.0043 304.589 85.0918 305.158C67.1981 310.49 49.2614 315.66 31.4367 321.19C27.5168 322.414 25.3199 321.725 24.8805 317.796C23.4763 305.244 15.9208 298.645 4.20419 295.767C2.98946 295.44 1.8781 294.621 0 293.717L94.6115 77.1579L134.241 93.5267C108.752 151.88 83.3774 209.995 58.1178 267.871L59.298 269.052L81.2064 262.651C90.6227 259.885 100.005 256.99 109.464 254.406C113.151 253.398 115.228 251.356 116.744 247.876C140.453 193.388 164.23 138.926 188.077 84.4894C189.059 82.2408 190.085 80.0181 191.342 77.2354C203.852 82.4045 215.887 87.3841 227.939 92.3292C231.868 93.9402 229.663 96.3955 228.749 98.4718C218.985 120.871 209.196 143.25 199.38 165.61C189.978 187.102 180.596 208.605 171.235 230.12C170.545 231.688 170.028 233.333 169.055 235.961C171.329 235.53 172.897 235.358 174.379 234.927C190.067 230.309 205.79 225.821 221.358 220.841C223.821 220.049 226.423 217.395 227.5 214.949C246.551 171.873 265.467 128.717 284.248 85.4801C285.385 82.8956 286.669 80.311 288.073 77.356L308.198 85.4284V68H352.213ZM279.501 203.525C288.625 200.897 296.051 198.597 303.58 196.633C307.371 195.659 308.75 193.876 308.706 189.818C308.457 175.026 308.629 160.217 308.586 145.416C308.504 143.914 308.338 142.418 308.086 140.936H306.82C297.955 161.242 289.09 181.548 279.501 203.525Z" fill="black"/>
</svg>
