<svg width="24" height="24" viewBox="0 0 24 24" fill="none" xmlns="http://www.w3.org/2000/svg">
<path fill-rule="evenodd" clip-rule="evenodd" d="M10 3C10 3 2 4.5 2 7C2 8.5 4.5 11.5 4.5 11.5C4.5 11.5 7 21.5 10 21.5V19H14V21.5C17 21.5 19.5 11.5 19.5 11.5C19.5 11.5 21.5 8.5 21.5 7C21.5 4.5 14 3 14 3L16.5 8C16.5 8 15.8784 8.55016 15.3976 8.75C14.8856 8.9628 14 9 14 9L12 6.5L10 9C10 9 8.98816 8.94526 8.5 8.75C8.01184 8.55474 7.5 8 7.5 8L10 3ZM13 11.5C13 12.0523 12.5523 12.5 12 12.5C11.4477 12.5 11 12.0523 11 11.5C11 10.9477 11.4477 10.5 12 10.5C12.5523 10.5 13 10.9477 13 11.5ZM10.5 14C10.5 13.4477 10.0523 13 9.5 13C8.94772 13 8.5 13.4477 8.5 14C8.5 14.5523 8.94772 15 9.5 15C10.0523 15 10.5 14.5523 10.5 14ZM13 16.5C13 17.0523 12.5523 17.5 12 17.5C11.4477 17.5 11 17.0523 11 16.5C11 15.9477 11.4477 15.5 12 15.5C12.5523 15.5 13 15.9477 13 16.5ZM15.5 14C15.5 13.4477 15.0523 13 14.5 13C13.9477 13 13.5 13.4477 13.5 14C13.5 14.5523 13.9477 15 14.5 15C15.0523 15 15.5 14.5523 15.5 14Z" fill="#838381" stroke="#F3F3F3" stroke-width="0.75"/>
</svg>
