<svg width="34" height="34" viewBox="0 0 34 34" fill="none" xmlns="http://www.w3.org/2000/svg">
<path fill-rule="evenodd" clip-rule="evenodd" d="M25 3C22.872 6.3 19.853 9.851 18.034 14.469C18.8164 16.265 19.4733 18.1131 20 20C20.2759 18.9818 20.6098 17.9801 21 17C21 12.023 22.856 8.277 25 3ZM13 20C11.512 15.513 8.24 13.034 4 11C7.868 14.136 8.422 18.52 9 23L12.743 26.312C14.215 27.917 16.527 30.451 17 31C21.555 21.555 13.634 10.2 9 3C11.67 9.573 13.717 13.342 13 20ZM21 25C21.0437 25.666 21.0437 26.334 21 27L25 23C25.578 18.52 26.132 14.136 30 11C24.712 13.537 22.134 18.854 21 25Z" fill="#C8AA6E"/>
</svg>
