<svg width="24" height="24" viewBox="0 0 24 24" fill="none" xmlns="http://www.w3.org/2000/svg">
<path d="M5.69835 20.7C5.69835 20.7 3.90002 18.6001 3.90002 15.6001C3.90002 14.7079 4.85819 13.8157 5.93406 12.8139C6.81206 11.9963 7.76844 11.1058 8.34642 10.0827C8.60906 9.61782 8.81102 9.11931 9.01171 8.62392L9.05494 8.51728C9.74663 6.8132 9.61093 5.6631 9.38421 3.74149C9.35651 3.50667 9.32744 3.26028 9.29835 3C9.29835 3 12.5984 6.6 12.5984 8.4C12.5984 10.2 11.9984 12 8.69835 13.5C4.50002 15.6001 5.69835 20.7 5.69835 20.7Z" fill="#A2E5FF"/>
<path d="M12 17.4001C10.8 17.4001 9.60002 18.9001 9.60002 18.9001C9.60002 18.9001 12 18.3001 14.1 19.2001C15.9 20.1001 17.4 20.4001 17.4 20.4001C19.5 18.0001 19.5 14.4001 19.5 14.4001C19.5 14.4001 17.1 17.4001 15.6 18.0001C14.6885 18.3647 13.9985 18.0646 13.3281 17.773C12.8954 17.5848 12.4708 17.4001 12 17.4001Z" fill="#A2E5FF"/>
<path d="M14.6968 4.80007C14.6968 4.80007 18.8968 8.10007 18.2968 11.7001C18.2968 11.7001 18.0444 13.2144 16.9667 14.2787C16.1846 15.0512 15.0806 15.0871 13.9497 15.1239C13.1597 15.1496 12.3564 15.1757 11.6405 15.4537C10.6989 15.8194 9.60944 16.4592 8.39944 17.4001C8.39944 16.0887 9.54642 14.7772 11.236 13.4658C11.5659 13.2098 11.9221 12.9904 12.2783 12.771C12.4604 12.6588 12.6426 12.5466 12.8212 12.4295C15.5476 10.6421 15.2491 8.09893 14.6968 4.80007Z" fill="#A2E5FF"/>
</svg>
