<svg width="24" height="24" viewBox="0 0 24 24" fill="none" xmlns="http://www.w3.org/2000/svg">
<path fill-rule="evenodd" clip-rule="evenodd" d="M10.5796 8.5C10.5796 10.5 9.47685 11.4897 9.07968 10.5C8.63732 9.39772 9.57968 7.5 9.57968 7.5V3C9.57968 3 6.07959 10 4.07959 12.5C3.80316 14.1583 4.29071 15.3583 4.86653 16.7756C5.3324 17.9222 5.85606 19.2111 6.07968 21L7.07967 18V14.5C7.07967 14.5 8.14943 16.8798 9.07968 17.5C9.64983 17.8801 9.64202 18.3325 9.63297 18.8571C9.6182 19.7126 9.60011 20.7602 12.0797 22C14.5592 20.7602 14.5411 19.7126 14.5263 18.8571C14.5172 18.3325 14.5094 17.8801 15.0795 17.5C16.0098 16.8798 17.0795 14.5 17.0795 14.5V18L18.0795 21C18.3031 19.2111 18.8268 17.9222 19.2927 16.7756C19.8685 15.3583 20.356 14.1583 20.0796 12.5C18.0796 10 14.5795 3 14.5795 3V7.5C14.5795 7.5 15.5219 9.39772 15.0795 10.5C14.6823 11.4897 13.5796 10.5 13.5796 8.5L12.0796 7L10.5796 8.5ZM8.97959 13.2586V14.5721L10.548 15.4L10.6503 14.9293L8.97959 13.2586ZM15.1796 13.2586L13.5089 14.9293L13.6112 15.4L15.1796 14.5721V13.2586ZM10.2301 18.4646V17.3621L11.0179 18.15H11.5179L12.0801 18.7121L12.6422 18.15H13.1422L13.9301 17.3621V18.4646L13.013 20.2988L12.0801 19.8323L11.1472 20.2988L10.2301 18.4646Z" fill="#CC9DFB"/>
</svg>
