<svg width="24" height="24" viewBox="0 0 24 24" fill="none" xmlns="http://www.w3.org/2000/svg">
<path d="M12.5 3.5L11 2C11 2 11.1685 3.29446 11.0427 4.2463C11.0203 4.41582 10.9617 4.57815 10.8828 4.72983C10.0672 6.29674 9.22575 7.23937 7.81837 8.36772C7.31249 8.77331 6.62403 8.88082 6.10167 8.4967C5.75759 8.24368 5.50001 8 5.50001 8C5.50016 9.5 3.99999 10.5 4.49997 12.5L6.00001 16.5C7.73936 18.8565 9.80038 19.8332 12 20C14.1996 20.1668 18 15.5 19.5 13.5C19.5 12 18.5 10.5 18.5 10.5C18.5 10.5 18 11 17.5 11C16.0859 11 16.4345 9.28044 15.2968 8.63161C15.1101 8.52511 14.8902 8.49498 14.6768 8.52037C13.1062 8.70718 10.4662 10.1688 10 12.5C10 13.5 10.9065 15.1562 12 15C12.9665 14.8619 13.0976 14.3895 13.5 13.5C12.5 12.5 12 11 14 11C16 11 16 13 16 13C16 13 13.5 17 12 17C10.5 17 7.99997 14.5 7.99997 12.5C7.99997 10.8081 10.1468 8.40069 12.6243 7.09367C13.4595 6.65309 14.2545 5.89316 13.8303 5.04955C13.3849 4.16366 12.5 3.5 12.5 3.5Z" fill="#F69856"/>
</svg>
