<svg width="24" height="24" viewBox="0 0 24 24" fill="none" xmlns="http://www.w3.org/2000/svg">
<path d="M14.9999 15.5C14.8467 18.1225 12.5963 19.6001 9.99993 20C6.17898 20.5885 3.66079 16.8091 2.99993 13C2.56619 10.5 4.49995 6.00002 4.49995 6.00002L4.99995 8.5C4.99995 8.5 8.00011 3 13.0001 3C16.0001 3 19.5003 5.77043 19.5001 8.5C19.4999 11.2296 19.0001 13.5 19.0001 13.5L20.0001 14.5V17L19.5938 16.7969C19.234 16.617 18.8013 16.6703 18.4959 16.9321L15.5 19.5C15.5 19.5 18.5 14.5 16.5 11C14.5 7.5 12.5 8 12.5 8L13.4999 6.00002L10.5 7.5C7.99995 8.5 7.99995 10.5 7.99995 10.5C7.99995 10.5 15.4089 8.5 14.9999 15.5Z" fill="#4ECEAD"/>
</svg>
