<svg width="22" height="22" viewBox="0 0 22 22" fill="none" xmlns="http://www.w3.org/2000/svg">
<path d="M16.5565 13.0533C16.5565 13.0374 16.5563 13.0214 16.5561 13.0055C16.9203 12.842 17.2615 12.656 17.5755 12.4501C18.8678 11.6026 19.75 10.3746 19.75 8.94667C19.75 7.51871 18.8678 6.29069 17.5755 5.44322C16.279 4.59293 14.5173 4.08333 12.5968 4.08333C10.6762 4.08333 8.91455 4.59293 7.61803 5.44322C6.32579 6.29069 5.44355 7.51871 5.44355 8.94667C5.44355 8.96269 5.44366 8.97869 5.44388 8.99466C3.59829 9.82495 2.25 11.2791 2.25 13.0533C2.25 14.4813 3.13225 15.7093 4.42448 16.5568C5.721 17.4071 7.48268 17.9167 9.40323 17.9167C11.3238 17.9167 13.0855 17.4071 14.382 16.5568C15.6742 15.7093 16.5565 14.4813 16.5565 13.0533ZM5.42183 11.0228C5.57989 10.9192 5.75019 10.8207 5.93185 10.7284C6.31587 11.3981 6.90444 11.9821 7.61803 12.4501C8.91455 13.3004 10.6762 13.81 12.5968 13.81C13.3132 13.81 14.0074 13.7391 14.6637 13.6061C14.4943 14.1046 14.0886 14.6221 13.3846 15.0838C12.4221 15.7151 11.0182 16.1467 9.40323 16.1467C7.7882 16.1467 6.38438 15.7151 5.42183 15.0838C4.45191 14.4477 4.04839 13.7057 4.04839 13.0533C4.04839 12.4009 4.45191 11.6589 5.42183 11.0228Z" fill="#F3F3F3" stroke="#F3F3F3"/>
</svg>
