<svg width="24" height="24" viewBox="0 0 24 24" fill="none" xmlns="http://www.w3.org/2000/svg">
<path d="M18.0161 14.24C18.0161 14.2128 18.0158 14.1857 18.0152 14.1586C18.4207 13.9782 18.8001 13.7724 19.1484 13.5439C20.5501 12.6247 21.5 11.2975 21.5 9.76C21.5 8.22251 20.5501 6.89533 19.1484 5.97607C17.7424 5.054 15.8295 4.5 13.7419 4.5C11.6544 4.5 9.74148 5.054 8.33551 5.97607C6.93382 6.89533 5.98387 8.22251 5.98387 9.76C5.98387 9.78725 5.98417 9.81444 5.98476 9.84156C3.96594 10.7412 2.5 12.3211 2.5 14.24C2.5 15.7775 3.44994 17.1047 4.85163 18.0239C6.25761 18.946 8.17049 19.5 10.2581 19.5C12.3456 19.5 14.2585 18.946 15.6645 18.0239C17.0662 17.1047 18.0161 15.7775 18.0161 14.24ZM5.88979 11.9869C6.07491 11.8655 6.27515 11.7506 6.48933 11.6437C6.9033 12.3825 7.54813 13.0276 8.33551 13.5439C9.74148 14.466 11.6544 15.02 13.7419 15.02C14.5483 15.02 15.3287 14.9373 16.0638 14.7827C15.8909 15.3615 15.4352 15.9626 14.6263 16.4931C13.5679 17.1873 12.0275 17.66 10.2581 17.66C8.48864 17.66 6.94826 17.1873 5.88979 16.4931C4.82358 15.7939 4.37097 14.9719 4.37097 14.24C4.37097 13.5081 4.82358 12.6861 5.88979 11.9869Z" fill="#C4C4C4" stroke="#F3F3F3"/>
</svg>
