<svg width="21" height="21" viewBox="0 0 21 21" fill="none" xmlns="http://www.w3.org/2000/svg">
<g clip-path="url(#clip0_120_9713)">
<path d="M7.00084 10.5004C7.00084 8.56742 8.56742 7 10.5004 7C12.4334 7 14.0008 8.56742 14.0008 10.5004C14.0008 12.4334 12.4334 14.0008 10.5004 14.0008C8.56742 14.0008 7.00084 12.4334 7.00084 10.5004ZM5.10858 10.5004C5.10858 13.4783 7.5225 15.8923 10.5004 15.8923C13.4783 15.8923 15.8923 13.4783 15.8923 10.5004C15.8923 7.5225 13.4783 5.10858 10.5004 5.10858C7.5225 5.10858 5.10858 7.52233 5.10858 10.5004ZM14.8457 4.89479C14.8456 5.14401 14.9194 5.38765 15.0578 5.59492C15.1962 5.80219 15.3929 5.96378 15.6231 6.05924C15.8533 6.1547 16.1067 6.17975 16.3511 6.13123C16.5956 6.08271 16.8201 5.96279 16.9964 5.78664C17.1727 5.61049 17.2928 5.38602 17.3415 5.14161C17.3903 4.89721 17.3654 4.64384 17.2701 4.41356C17.1748 4.18328 17.0134 3.98642 16.8063 3.84788C16.5991 3.70934 16.3555 3.63535 16.1063 3.63525C15.7722 3.6354 15.4514 3.76814 15.2152 4.0043C14.9789 4.24046 14.846 4.56074 14.8457 4.89479ZM6.25825 19.0476C5.2345 19.001 4.67806 18.8304 4.30828 18.6864C3.81804 18.4955 3.46825 18.2682 3.10048 17.9009C2.73271 17.5337 2.50506 17.1842 2.31505 16.694C2.1709 16.3244 2.00037 15.7678 1.95383 14.744C1.90293 13.6372 1.89276 13.3047 1.89276 10.5006C1.89276 7.69647 1.90377 7.36491 1.95383 6.25716C2.00046 5.23341 2.17224 4.6779 2.31505 4.30719C2.5059 3.81694 2.73322 3.46715 3.10048 3.09939C3.46774 2.73162 3.8172 2.50397 4.30828 2.31396C4.6779 2.16981 5.2345 1.99928 6.25825 1.95274C7.36508 1.90184 7.69756 1.89167 10.5004 1.89167C13.3033 1.89167 13.6361 1.90251 14.7438 1.95291C15.7676 1.99953 16.3231 2.17132 16.6938 2.31412C17.1841 2.50414 17.5339 2.73229 17.9016 3.09956C18.2694 3.46682 18.4962 3.81711 18.687 4.30736C18.8312 4.67697 19.0017 5.23358 19.0483 6.25733C19.0992 7.36508 19.1093 7.69664 19.1093 10.5008C19.1093 13.3049 19.0992 13.6364 19.0483 14.7442C19.0016 15.7679 18.8303 16.3244 18.687 16.6942C18.4962 17.1844 18.2689 17.5342 17.9016 17.9011C17.5344 18.268 17.1841 18.4957 16.6938 18.6866C16.3242 18.8307 15.7676 19.0012 14.7438 19.0478C13.637 19.0987 13.3045 19.1088 10.5004 19.1088C7.6963 19.1088 7.36474 19.0985 6.25825 19.0476ZM6.17131 0.0635906C5.05347 0.114497 4.28963 0.291744 3.62256 0.551314C2.93214 0.819369 2.34689 1.17899 1.76247 1.76247C1.17806 2.34596 0.819369 2.9313 0.551314 3.62256C0.291744 4.29005 0.114497 5.05347 0.0635906 6.17131C0.0118445 7.2909 0 7.64884 0 10.5004C0 13.352 0.0118445 13.7099 0.0635906 14.8295C0.114497 15.9475 0.291744 16.7108 0.551314 17.3783C0.819369 18.0687 1.17815 18.6551 1.76247 19.2384C2.3468 19.8216 2.9313 20.1807 3.62256 20.4495C4.29089 20.7091 5.05347 20.8863 6.17131 20.9373C7.29149 20.9882 7.64884 21.0008 10.5004 21.0008C13.352 21.0008 13.7099 20.989 14.8295 20.9373C15.9474 20.8863 16.7108 20.7091 17.3783 20.4495C18.0687 20.1807 18.654 19.8219 19.2384 19.2384C19.8228 18.6549 20.1807 18.0687 20.4495 17.3783C20.7091 16.7108 20.8872 15.9474 20.9372 14.8295C20.9882 13.7091 21 13.352 21 10.5004C21 7.64884 20.9882 7.2909 20.9372 6.17131C20.8863 5.05339 20.7091 4.28963 20.4495 3.62256C20.1807 2.93214 19.8219 2.34689 19.2384 1.76247C18.6549 1.17806 18.0687 0.819369 17.3791 0.551314C16.7108 0.291744 15.9474 0.113657 14.8304 0.0635906C13.7106 0.0124326 13.3528 0 10.5017 0C7.65052 0 7.29149 0.0118445 6.17131 0.0635906Z" fill="#F3F3F3"/>
</g>
<defs>
<clipPath id="clip0_120_9713">
<rect width="21" height="21" fill="white"/>
</clipPath>
</defs>
</svg>
