<svg width="21" height="21" viewBox="0 0 21 21" fill="none" xmlns="http://www.w3.org/2000/svg">
<path d="M17.9229 17.9229C13.8206 22.0253 7.18003 22.026 3.07706 17.9229C-1.02538 13.8205 -1.02599 7.18004 3.07706 3.07703C7.17938 -1.02537 13.82 -1.02598 17.9229 3.07703C22.0254 7.17942 22.0259 13.8199 17.9229 17.9229ZM17.4842 4.57345C16.9937 5.01204 16.4691 5.40018 15.916 5.73468C16.2816 6.9973 16.4981 8.38671 16.5493 9.83101H19.6356C19.4961 7.88423 18.7481 6.05803 17.4842 4.57345ZM1.36433 9.83101H4.45066C4.50185 8.38671 4.7184 6.9973 5.08392 5.73468C4.5309 5.40018 4.00625 5.01204 3.51577 4.57345C2.25188 6.05803 1.50392 7.88423 1.36433 9.83101ZM3.51581 16.4265C4.00629 15.9879 4.53094 15.5998 5.08396 15.2653C4.71844 14.0027 4.50189 12.6132 4.4507 11.169H1.36433C1.50392 13.1157 2.25188 14.9419 3.51581 16.4265ZM9.83105 15.127C8.74002 15.205 7.68805 15.4738 6.71279 15.9171C7.27999 17.3776 8.32561 19.1294 9.83105 19.5635V15.127ZM9.83105 13.7866V11.1689H5.78918C5.83549 12.3907 6.0086 13.5639 6.2965 14.6373C7.40478 14.1528 8.5967 13.8635 9.83105 13.7866ZM9.83105 9.83101V7.21336C8.5967 7.13643 7.40478 6.8471 6.2965 6.36261C6.0086 7.43605 5.83549 8.60925 5.78918 9.83101H9.83105ZM9.83105 5.87291V1.43643C8.32569 1.87055 7.28007 3.62213 6.71279 5.08286C7.68805 5.52616 8.74002 5.79488 9.83105 5.87291ZM11.169 5.87291C12.26 5.79488 13.3119 5.52616 14.2872 5.08286C13.72 3.62225 12.6744 1.87055 11.169 1.43643V5.87291ZM11.169 7.21336V9.83101H15.2108C15.1645 8.60925 14.9914 7.43605 14.7035 6.36261C13.5952 6.8471 12.4033 7.13643 11.169 7.21336ZM11.169 11.1689V13.7866C12.4033 13.8635 13.5952 14.1528 14.7035 14.6373C14.9914 13.5639 15.1645 12.3907 15.2108 11.1689H11.169ZM11.169 15.127V19.5635C12.6744 19.1294 13.72 17.3776 14.2872 15.917C13.3119 15.4738 12.26 15.205 11.169 15.127ZM14.1738 18.8956C15.0301 18.5206 15.829 18.0122 16.5452 17.3813C16.2043 17.0807 15.8446 16.8082 15.469 16.5645C15.1354 17.3903 14.7093 18.1929 14.1738 18.8956ZM5.53099 16.5645C5.15539 16.8082 4.79573 17.0807 4.4548 17.3813C5.17096 18.0122 5.96987 18.5206 6.82619 18.8956C6.29064 18.1928 5.86454 17.3902 5.53099 16.5645ZM5.53103 4.43546C5.86454 3.60963 6.29072 2.807 6.82623 2.10432C5.96991 2.4793 5.171 2.98777 4.45484 3.61865C4.79573 3.91921 5.15543 4.19174 5.53103 4.43546ZM15.469 4.43546C15.8446 4.19174 16.2043 3.91921 16.5452 3.61869C15.829 2.98781 15.0301 2.47934 14.1738 2.10436C14.7093 2.80695 15.1354 3.60959 15.469 4.43546ZM16.5493 11.1689C16.4981 12.6132 16.2816 14.0027 15.9161 15.2652C16.4691 15.5997 16.9937 15.9879 17.4842 16.4265C18.7481 14.9419 19.4961 13.1157 19.6357 11.1689H16.5493Z" fill="#F3F3F3"/>
</svg>
