<svg width="24" height="27" viewBox="0 0 24 27" fill="none" xmlns="http://www.w3.org/2000/svg">
<g clip-path="url(#clip0_120_9711)">
<path d="M7.36114 24.0444C16.1942 24.0444 21.0248 15.7645 21.0248 8.58442C21.0248 8.34928 21.0205 8.11521 21.0111 7.88211C21.9511 7.11259 22.7622 6.15981 23.4066 5.06843C22.5461 5.50127 21.6202 5.79259 20.6488 5.92394C21.6403 5.25127 22.4015 4.18709 22.7606 2.91859C21.8179 3.55133 20.7866 3.99738 19.7112 4.23751C18.8349 3.18134 17.5873 2.52078 16.2058 2.52078C13.5538 2.52078 11.4033 4.95414 11.4033 7.95362C11.4033 8.38005 11.4455 8.79471 11.5279 9.19257C7.5366 8.96534 3.99744 6.80318 1.62885 3.5155C1.20225 4.34472 0.977861 5.28714 0.978606 6.24652C0.978606 8.13167 1.82638 9.79583 3.11565 10.7694C2.35303 10.7431 1.60716 10.51 0.940737 10.0898C0.940023 10.1127 0.940023 10.1349 0.940023 10.1593C0.940023 12.7907 2.59533 14.9878 4.79269 15.4856C4.38 15.6128 3.95414 15.6771 3.52641 15.6768C3.21751 15.6768 2.91645 15.6424 2.62387 15.5789C3.23525 17.7378 5.00806 19.3088 7.10995 19.3528C5.4663 20.8104 3.39581 21.6786 1.1455 21.6786C0.762689 21.679 0.380194 21.6538 0 21.6033C2.12534 23.1447 4.64873 24.0444 7.36114 24.0444Z" fill="#F3F3F3"/>
</g>
<defs>
<clipPath id="clip0_120_9711">
<rect width="23.4066" height="26.4683" fill="white"/>
</clipPath>
</defs>
</svg>
