<svg width="21" height="21" viewBox="0 0 21 21" fill="none" xmlns="http://www.w3.org/2000/svg">
<path d="M10.9652 17.5074L6.65686 17.4286C5.2619 17.4012 3.86346 17.456 2.49586 17.1715C0.41541 16.7465 0.268023 14.6626 0.113799 12.9146C-0.0987062 10.4571 -0.0164391 7.955 0.384586 5.51803C0.610977 4.15063 1.50192 3.3347 2.87973 3.24591C7.53086 2.92368 12.2129 2.96187 16.8537 3.1122C17.3439 3.12598 17.8374 3.2013 18.3207 3.28704C20.7063 3.70521 20.7645 6.06676 20.9191 8.05473C21.0733 10.0632 21.0082 12.082 20.7134 14.0768C20.477 15.7285 20.0245 17.1136 18.115 17.2473C15.7225 17.4221 13.385 17.5629 10.9858 17.5181C10.9859 17.5074 10.9721 17.5074 10.9652 17.5074ZM8.43233 13.3259C10.2353 12.2907 12.0038 11.2728 13.7964 10.2446C11.9901 9.20942 10.2249 8.1915 8.43233 7.16326V13.3259Z" fill="#F3F3F3"/>
</svg>
