<svg width="400" height="400" viewBox="0 0 400 400" fill="none" xmlns="http://www.w3.org/2000/svg">
<path d="M137.587 81.3846C135.911 78 135.911 78 139.652 78H397.846C398.563 78 399.28 78 400 78C399.981 79.1077 399.449 80.0492 398.969 80.9938C394.202 90.4297 389.424 99.8585 384.637 109.28C380.298 117.818 375.797 126.28 371.683 134.929C370.575 137.255 369.369 137.723 367.037 137.717C325.375 137.647 283.715 137.631 242.055 137.668C241.492 137.668 240.932 137.702 240.369 137.72C239.864 137.966 239.277 137.652 238.784 137.957C238.501 138.058 237.689 137.56 238.267 138.572C240.52 142.483 242.692 146.437 244.901 150.372C248.924 157.533 252.95 164.692 256.978 171.849C257.775 173.262 258.606 174.652 259.394 176.068C259.603 176.446 259.794 176.778 260.277 176.785C260.874 177.025 261.507 176.905 262.101 176.905H344.978C345.594 176.905 346.209 176.806 346.824 176.997L349 177.111C348.535 178.206 348.16 179.231 347.674 180.203C340.845 193.871 334.011 207.534 327.172 221.194C326.821 221.898 326.535 222.609 325.597 222.637C325.043 222.812 324.477 222.726 323.917 222.726C312.04 222.726 300.163 222.726 288.286 222.726C287.735 222.726 287.16 222.569 286.634 222.877C286.852 224.646 288.031 225.975 288.846 227.443C294.166 237.028 299.471 246.625 305.037 256.058C306.535 258.6 306.486 260.428 305.141 263C299.803 273.215 294.744 283.582 289.581 293.892C286.658 299.732 283.737 305.572 280.818 311.412C279.427 314.175 278.015 316.927 276.581 319.668C276.351 320.108 276.175 320.625 275.563 320.898C274.114 318.391 272.646 315.852 271.184 313.314L255.541 286.215C250.905 278.16 246.267 270.105 241.627 262.049C237.744 255.311 233.834 248.588 229.96 241.846C225.726 234.48 221.541 227.077 217.295 219.726C211.754 210.117 206.154 200.538 200.615 190.923C195.883 182.695 191.249 174.415 186.517 166.188C182.209 158.695 177.803 151.255 173.48 143.769C167.254 132.99 161.05 122.2 154.867 111.4C150.649 104.043 146.461 96.6677 142.234 89.3077C140.711 86.6523 139.138 84.0246 137.587 81.3846Z" fill="#00ACED"/>
<path d="M86.9754 150.646C91.3446 142.222 95.7354 133.812 100.077 125.372C107.683 110.585 115.273 95.7888 122.846 80.9847C123.375 79.954 123.769 78.2309 124.692 78.2155C125.649 78.1847 126.006 79.9263 126.594 80.9109C128.034 83.317 129.44 85.7447 130.858 88.1632C133.342 93.1078 136.277 97.8001 138.982 102.625C143.818 111.24 148.76 119.815 153.64 128.415C158.674 137.289 163.699 146.168 168.717 155.052C173.619 163.694 178.531 172.329 183.452 180.957C187.76 188.547 192.058 196.143 196.348 203.745C201.039 212.018 205.749 220.296 210.477 228.579C214.567 235.768 218.656 242.957 222.745 250.145C228.062 259.486 233.274 268.883 238.689 278.169C243.957 287.2 248.988 296.369 254.126 305.477C256.618 309.892 259.142 314.296 261.606 318.726C262.812 320.88 262.769 320.917 260.357 321.105C259.911 321.218 259.448 321.25 258.991 321.197H198.683C198.225 321.25 197.761 321.218 197.314 321.105C196.913 321.122 196.517 321.022 196.172 320.818C195.827 320.614 195.549 320.314 195.372 319.954C192.074 314.317 188.683 308.732 185.335 303.123C182.306 298.04 179.283 292.948 176.268 287.846C171.775 280.271 167.345 272.652 162.778 265.126C159.255 259.335 155.797 253.508 152.351 247.674C147.237 239.013 142.099 230.366 136.938 221.732C133.498 215.963 130.003 210.228 126.585 204.446C125.895 203.28 125.458 203.911 125.102 204.551C124.366 205.88 123.732 207.268 123.062 208.631C119.585 215.698 116.11 222.763 112.637 229.828C105.546 244.213 98.4513 258.596 91.3538 272.975C91.1785 273.329 91.0123 273.686 90.76 274.206C91.4308 274.24 91.9631 274.289 92.4985 274.289C106.388 274.289 120.278 274.289 134.169 274.289C137.729 274.289 137.748 274.289 136.157 277.44C129.043 291.477 121.932 305.516 114.825 319.557C114.311 320.576 113.594 320.419 112.815 320.419H38.3908C37.7262 320.419 37.0615 320.452 36.3938 320.471C35.7785 320.72 35.0923 320.394 34.48 320.699H0C1.89846 316.425 3.89231 312.409 5.96308 308.425C8.51692 303.502 11.0154 298.579 13.5477 293.656C19.7446 281.594 25.9426 269.534 32.1415 257.477C38.4431 245.188 44.7333 232.893 51.0123 220.594C59.0861 204.854 67.1723 189.118 75.2708 173.385C79.1702 165.795 83.0718 158.215 86.9754 150.646Z" fill="#00ACED"/>
</svg>
