<svg width="400" height="400" viewBox="0 0 400 400" fill="none" xmlns="http://www.w3.org/2000/svg">
<path d="M369.857 341.664C367.596 347.906 360.44 351.29 352.201 349.986C344.92 348.849 339.719 343.703 339.621 336.671C339.381 324.475 339.381 312.284 339.621 300.097C339.719 294.161 337.777 290.388 329.719 289.847C338.498 283.287 346.085 277.517 353.81 271.928C356.099 270.264 357.707 270.957 357.583 274.105C357.583 275.714 357.652 277.337 357.472 278.932C356.75 285.52 359.524 288.474 366.21 287.573C367.327 287.377 368.472 287.407 369.578 287.662C370.683 287.917 371.726 288.391 372.645 289.057V291.831C370.814 291.97 368.997 292.191 367.166 292.219C358.11 292.372 357.805 292.635 357.791 301.442C357.791 311.29 357.721 321.151 357.874 331.013C357.971 341.678 359.51 342.94 369.857 341.664Z" fill="#F3F3F3"/>
<path d="M148.04 399.972C148.04 390.056 148.151 380.153 147.902 370.25C147.805 366.491 148.706 364.938 152.784 365.118C159.719 365.451 166.653 365.298 173.588 365.187C178.956 365.104 183.297 366.866 185.044 372.122C186.653 377.129 185.752 381.928 180.676 384.605C176.806 386.685 180.024 388.142 180.676 389.959C181.854 393.259 187.18 395.104 184.157 399.875H178.609C174.767 392.108 171.327 384.327 159.982 386.006C155.821 386.644 154.434 387.628 154.836 391.651C155.1 394.619 155.655 397.92 152.271 399.861L148.04 399.972ZM165.585 380.25C167.652 380.25 169.746 380.25 171.771 380.25C174.823 380.25 178.193 380.097 178.401 376.089C178.609 372.081 175.239 371.554 172.187 371.456C167.846 371.304 163.477 371.567 159.136 371.332C155.849 371.165 154.795 372.33 154.739 375.631C154.739 379.182 155.738 380.735 159.413 380.333C161.467 380.187 163.528 380.16 165.585 380.25Z" fill="#F3F3F3"/>
<path d="M222.895 399.972C222.007 397.351 219.261 397.434 217.347 396.283C206.126 389.348 205.78 374.813 216.972 367.85C225.294 362.677 234.032 362.677 242.576 367.254C248.512 370.416 251.868 375.659 251.591 382.51C251.314 389.362 247.694 394.078 241.688 397.226C240.01 398.1 237.527 397.739 236.695 400L222.895 399.972ZM230.273 370.541C221.757 370.541 215.835 375.312 215.96 382.08C216.085 388.849 221.952 393.259 230.689 393.176C239.011 393.079 244.559 388.641 244.642 382.011C244.725 375.381 238.831 370.541 230.273 370.541Z" fill="#F3F3F3"/>
<path d="M291.091 387.601C291.244 381.456 291.438 375.298 291.535 369.14C291.535 366.963 291.535 365.201 294.656 365.132C297.777 365.063 298.512 366.394 298.442 369.196C298.207 379.015 298.123 388.835 297.985 398.655C292.714 399.57 289.039 397.42 285.641 393.37C280.204 386.907 274.17 380.888 267.277 373.551C267.277 381.706 266.986 387.85 267.416 393.953C267.61 396.879 266.195 398.336 264.476 399.972H260.315C260.315 390.541 260.315 381.124 260.523 371.706C260.523 369.542 258.72 366.158 262.381 365.34C263.923 364.894 265.563 364.91 267.096 365.385C268.629 365.861 269.989 366.776 271.008 368.017C276.917 374.716 283.283 381.013 289.469 387.434L290.648 388.516L291.091 387.601Z" fill="#F3F3F3"/>
<path d="M58.5535 141.054C81.3829 135.978 102.936 131.04 124.587 126.436C129.857 125.312 131.619 124.23 129.233 118.114C115.003 81.914 101.314 45.4646 87.4578 9.07073C86.5008 6.56033 85.6686 4.00832 84.2816 0C100.925 10.9293 116.182 21.0402 131.535 31.1096C152.34 44.7712 173.255 58.3218 193.949 72.1637C197.805 74.7434 200.398 74.6602 204.282 72.0804C238.678 49.251 273.228 26.6713 307.749 4.02219C309.275 3.00971 310.842 2.06657 312.895 0.776699C312.34 6.40777 309.899 10.8738 308.137 15.5062C295.054 49.9769 281.891 84.4059 268.651 118.793C266.972 123.148 267.042 124.938 272.326 126.061C294.42 130.763 316.39 135.992 339.635 141.318C329.927 150.208 320.87 158.571 311.743 166.865C276.043 199.32 240.246 231.65 204.739 264.313C200.135 268.558 197.804 268.225 193.325 264.161C150.153 224.503 106.847 184.993 63.4078 145.631C62.0764 144.397 60.7726 143.148 58.5535 141.054ZM99.9266 18.3773C99.4827 18.0583 98.8863 17.3786 98.6367 17.4896C97.5687 17.9612 98.179 18.7517 98.5119 19.4313C111.674 54.0915 124.767 88.7656 138.096 123.44C139.816 127.892 139.358 129.626 134.42 130.68C117.971 134.189 101.605 138.128 85.2525 141.983C83.9349 142.288 81.8406 141.526 81.4522 144.3C89.3163 145.964 97.1665 147.517 104.961 149.334C107.424 149.876 109.98 149.833 112.423 149.209C126.82 145.992 141.203 142.677 155.669 139.806C159.829 138.974 160.273 137.725 158.845 134.022C145.9 100.735 133.08 67.3925 120.384 33.9945C119.7 31.7888 118.267 29.8907 116.334 28.6269C110.8 25.2705 105.377 21.8031 99.9266 18.3773ZM195.974 225.451C195.974 178.072 195.974 131.72 196.057 85.3675C196.057 81.8863 194.074 80.527 191.757 78.9736C172.59 66.1489 153.426 53.3148 134.268 40.4716C132.284 39.0846 130.398 37.018 127.86 38.613C129.545 42.1683 131 45.8282 132.215 49.57C134.198 57.1429 138.678 62.3301 145.183 66.5742C154.434 72.6352 163.033 79.6949 172.243 85.8252C177.139 89.0707 179.08 92.6075 179.025 98.7101C178.664 134.771 178.831 170.721 178.872 206.727C178.872 209.168 177.763 212.469 180.44 213.662C186.182 216.366 189.621 221.914 195.974 225.451ZM202.16 226.172C206.154 222.691 208.817 219.834 211.993 217.739C217.832 213.911 219.289 208.835 219.219 201.997C218.872 167.323 219.219 132.746 218.942 98.1137C218.942 93.0097 220.135 89.6949 224.559 86.7268C235.1 79.681 244.975 71.6089 255.571 64.6602C265.766 57.9889 265.738 46.81 269.663 37.2816C247.846 51.1512 226.667 65.4924 205.28 79.6116C202.506 81.4563 202.104 83.6477 202.118 86.5465C202.173 132.51 202.16 178.447 202.16 226.172ZM316.709 144.341L316.875 142.857C299.705 138.89 282.576 134.716 265.336 131.082C259.621 129.875 257.888 128.571 260.356 122.316C272.992 90.4161 285.1 58.1969 297.277 26.061C298.11 23.8835 300.204 21.7198 298.151 18.1137C291.327 23.7725 281.341 25.2843 277.749 34.4521C264.795 67.5312 252.284 100.777 239.372 133.856C237.624 138.308 238.872 139.126 242.978 139.945C257.222 142.802 271.397 146.033 285.571 149.237C288.253 149.868 291.045 149.868 293.727 149.237C301.355 147.476 309.039 145.936 316.709 144.244V144.341ZM79.1776 151.179L195.974 257.337C195.974 251.789 195.544 248.086 196.071 244.521C197.153 237.295 193.976 232.76 188.664 228.128C163.422 206.158 138.332 184.008 113.657 161.401C103.602 152.219 91.0777 153.509 79.1776 151.179ZM202.479 257.06L318.512 151.512L317.527 149.986C311.494 151.373 305.516 153.135 299.413 153.911C293.061 154.716 288.456 157.878 283.893 161.997C261.452 182.205 239.372 202.871 216.043 221.997C205.114 230.957 199.649 240.361 202.173 254.189C202.229 254.66 202.257 255.201 202.479 257.087V257.06Z" fill="#084C2F"/>
<path d="M255.766 248.904L274.406 242.233V283.842C274.406 301.387 274.406 318.932 274.406 336.546C274.406 340.319 273.657 344.632 279.732 345.284C271.189 351.678 259.857 351.692 256.986 340.444C254.975 342.066 253.144 343.786 251.105 345.173C248.26 347.171 245.007 348.512 241.581 349.099C238.155 349.687 234.641 349.506 231.293 348.571C227.945 347.635 224.847 345.968 222.222 343.689C219.596 341.411 217.51 338.578 216.112 335.395C211.909 326.01 211.413 315.381 214.725 305.645C220.023 289.001 237.166 281.65 253.172 288.738L257.818 290.763C256.778 276.56 259.483 262.94 255.766 248.904ZM257.735 315.894H257.666C257.666 311.969 257.666 308.058 257.666 304.133C257.666 298.169 255.114 293.814 249.441 291.9C243.214 289.82 237.569 291.012 233.255 296.324C226.473 304.646 226.029 326.616 232.576 335.159C236.598 340.374 242.048 342.469 248.47 340.707C254.892 338.946 257.499 334.008 257.693 327.67C257.832 323.731 257.735 319.806 257.735 315.894Z" fill="#F3F3F3"/>
<path d="M27.2497 347.337C29.1054 343.369 30.0168 339.025 29.9126 334.646C29.9126 309.311 29.9126 283.971 29.9126 258.627C30.0891 253.791 29.0896 248.984 27 244.619C45.6963 244.619 64.448 244.841 83.0888 244.369C89.8017 244.189 92.4508 246.186 91.4799 252.871C91.3103 255.675 91.3103 258.486 91.4799 261.29C79.5659 245.742 63.9764 253.232 50.19 251.581C47.4161 251.248 47.7351 253.689 47.7212 255.451C47.7212 265.159 47.6981 274.868 47.6519 284.577C47.6519 286.366 47.3883 288.128 49.982 288.835C56.4313 290.61 74.9473 288.197 80.9667 283.994V303.578C71.0083 295.409 60.1623 299.417 49.8849 298.53C48.068 298.363 47.6241 299.778 47.6657 301.304C48.165 316.63 46.2788 332.039 49.2053 347.711C41.8898 348.228 34.5432 348.103 27.2497 347.337Z" fill="#F3F3F3"/>
<path d="M201.757 333.287C192.645 350.943 168.636 353.87 155.613 340.818C146.986 332.178 144.517 315.492 150.065 303.273C155.613 291.054 166.445 284.979 180.384 286.116C194.323 287.254 205.349 299.986 204.767 314.105C204.67 316.685 204.004 317.975 201.272 317.961C191.813 317.961 182.349 317.961 172.881 317.961C169.427 317.961 167.915 316.186 167.777 312.413C174.101 312.413 180.259 312.178 186.528 312.483C190.689 312.691 191.549 311.096 191.23 307.295C190.537 298.627 185.225 291.692 178.096 290.777C170.967 289.861 164.489 295.187 162.354 304.341C160.751 311.123 160.794 318.19 162.478 324.951C165.377 336.588 175.266 341.512 189.441 338.585C193.85 337.63 198.032 335.831 201.757 333.287Z" fill="#F3F3F3"/>
<path d="M92.5894 292.011C96.7502 290.458 101.924 288.793 106.847 286.463C112.395 283.842 114.517 285.881 114.614 291.401C114.614 293.703 114.614 295.992 114.614 299.612C117.61 296.408 119.718 293.856 122.118 291.637C126.667 287.476 131.729 284.397 138.304 286.172C140.109 286.646 141.723 287.667 142.925 289.095C144.127 290.523 144.857 292.287 145.017 294.147C145.371 295.745 145.19 297.414 144.5 298.898C143.811 300.383 142.652 301.598 141.202 302.358C137.763 304.105 134.656 302.76 131.66 300.499C123.671 294.452 115.197 297.42 114.892 307.004C114.476 320.499 113.602 334.078 115.752 347.864H96.6809C94.9611 329.362 100.675 310.485 92.5894 292.011Z" fill="#F3F3F3"/>
<path d="M295.1 288.682L315.294 279.861C316.806 303.079 314.393 325.631 316.903 348.266H297.777C297.652 328.585 301.411 308.89 295.1 288.682Z" fill="#F3F3F3"/>
<path d="M128.65 398.835L99.6491 398.321C99.6491 389.084 99.871 379.861 99.6491 370.582C99.5381 366.505 100.384 364.785 104.906 365.034C112.035 365.437 119.205 365.034 126.348 365.187C135.696 365.381 139.247 370.333 136.32 379.057C136.024 379.619 135.869 380.245 135.869 380.88C135.869 381.516 136.024 382.142 136.32 382.704C141.119 392.371 139.344 396.047 128.65 398.835ZM117.971 392.455V392.247C121.175 392.247 124.392 392.385 127.596 392.247C129.663 392.122 131.868 391.65 131.882 388.835C131.896 386.019 129.996 384.896 127.374 384.882C121.646 384.882 115.904 384.882 110.162 384.812C107.513 384.812 106.584 385.7 106.542 388.405C106.501 391.109 107.333 392.704 110.398 392.566C112.908 392.33 115.447 392.51 117.971 392.51V392.455ZM118.539 371.387C115.558 371.387 112.589 371.387 109.607 371.387C107.097 371.387 106.612 372.774 106.653 374.923C106.695 377.073 106.75 378.682 109.427 378.654C115.377 378.654 121.327 378.654 127.263 378.46C127.728 378.486 128.193 378.419 128.632 378.263C129.07 378.107 129.473 377.865 129.817 377.551C130.161 377.237 130.438 376.858 130.633 376.435C130.828 376.012 130.937 375.555 130.953 375.09C130.953 372.496 129.053 371.581 126.792 371.47C123.99 371.276 121.313 371.387 118.539 371.387Z" fill="#F3F3F3"/>
<path d="M295.932 268.974C293.158 262.621 293.241 257.295 295.863 252.178C298.373 247.295 302.492 244.438 308.109 244.757C312.686 245.021 316.084 247.531 316.847 252.164C317.61 256.796 314.323 259.32 310.259 260.485C304.822 261.9 298.623 261.706 295.932 268.974Z" fill="#F3F3F3"/>
<path d="M200.786 382.552C200.786 386.713 200.689 390.874 200.786 395.035C200.87 397.531 200.273 398.821 197.388 398.779C194.725 398.779 193.741 397.947 193.768 395.201C193.907 386.436 193.879 377.656 193.768 368.849C193.768 366.325 194.337 365.076 197.194 365.09C200.051 365.104 200.884 365.964 200.786 368.669C200.662 373.315 200.786 377.933 200.786 382.552Z" fill="#F3F3F3"/>
<path d="M195.974 225.451C189.621 221.956 186.182 216.422 180.44 213.717C177.763 212.469 178.872 209.168 178.872 206.782C178.872 170.721 178.664 134.771 179.025 98.7656C179.025 92.663 177.139 89.0569 172.243 85.8807C163.033 79.6949 154.434 72.6352 145.183 66.5742C138.678 62.3301 134.198 57.1429 132.215 49.5701C130.999 45.8282 129.545 42.1683 127.86 38.613C130.398 37.018 132.284 39.1401 134.268 40.4716C153.454 53.2501 172.617 66.0841 191.757 78.9737C194.073 80.5271 196.071 81.8863 196.057 85.3675C195.932 131.761 195.974 178.072 195.974 225.451Z" fill="#F5F7F6"/>
<path d="M202.159 226.172C202.159 178.447 202.159 132.51 202.159 86.5741C202.159 83.6476 202.52 81.4562 205.322 79.6393C226.625 65.4923 247.846 51.1789 269.718 37.2815C265.793 46.8099 265.821 57.9888 255.627 64.6601C245.03 71.5949 235.155 79.6809 224.614 86.7267C220.19 89.6948 218.969 93.0096 218.997 98.1137C219.219 132.788 218.997 167.379 219.275 201.997C219.275 208.835 217.888 213.911 212.048 217.739C208.817 219.833 206.154 222.691 202.159 226.172Z" fill="#F5F7F6"/>
<path d="M99.9265 18.3772C105.377 21.803 110.8 25.312 116.306 28.6268C118.24 29.8907 119.672 31.7887 120.356 33.9944C133.116 67.3555 145.918 100.698 158.761 134.022C160.148 137.725 159.718 138.974 155.585 139.806C141.119 142.677 126.736 145.992 112.34 149.209C109.896 149.833 107.341 149.876 104.878 149.334C97.0832 147.517 89.233 145.964 81.3689 144.3C81.7572 141.526 83.8516 142.288 85.1692 141.983C101.549 138.128 117.915 134.189 134.365 130.666C139.302 129.612 139.76 127.892 138.04 123.426C124.767 88.7655 111.674 54.0915 98.5118 19.4174L99.9265 18.3772Z" fill="#F5F7F6"/>
<path d="M316.709 144.244C309.039 145.881 301.355 147.42 293.727 149.182C291.045 149.813 288.253 149.813 285.571 149.182C271.397 145.978 257.222 142.746 242.978 139.889C238.817 139.071 237.624 138.253 239.372 133.8C252.284 100.721 264.795 67.4758 277.749 34.3968C281.341 25.2289 291.327 23.7172 298.151 18.0583C300.204 21.6645 298.151 23.8281 297.277 26.0056C285.1 58.1416 272.992 90.3052 260.357 122.261C257.888 128.516 259.621 129.82 265.336 131.026C282.576 134.66 299.705 138.835 316.875 142.802L316.709 144.244Z" fill="#F5F7F6"/>
<path d="M79.1775 151.179C91.0776 153.481 103.602 152.191 113.657 161.401C138.331 184.008 163.422 206.158 188.664 228.128C193.976 232.76 197.153 237.295 196.071 244.522C195.544 248.086 195.974 251.803 195.974 257.337L79.1775 151.179Z" fill="#F5F7F6"/>
<path d="M202.478 257.087C202.257 255.132 202.229 254.66 202.146 254.216C199.649 240.347 205.114 230.985 216.015 222.025C239.344 202.899 261.424 182.233 283.865 162.025C288.429 157.864 293.033 154.743 299.386 153.939C305.488 153.162 311.466 151.359 317.499 150.014L318.484 151.539L202.478 257.087Z" fill="#F5F7F6"/>
<path d="M98.5118 19.4175C98.1789 18.7379 97.5686 17.9473 98.6366 17.4757C98.8862 17.3648 99.4826 18.0444 99.9265 18.3634L98.5118 19.4175Z" fill="#F5F7F6"/>
</svg>
