<svg width="400" height="400" viewBox="0 0 400 400" fill="none" xmlns="http://www.w3.org/2000/svg">
<g clip-path="url(#clip0_6_4884)">
<path d="M0 210.73C32.4879 203.506 63.16 196.48 93.9702 189.927C101.47 188.328 103.977 186.789 100.582 178.084C80.3316 126.57 60.8507 74.6995 41.1329 22.9083C39.771 19.3358 38.5868 15.7041 36.613 10C60.298 25.5531 82.0093 39.9418 103.859 54.2712C133.465 73.7126 163.229 92.9961 192.677 112.694C198.164 116.365 201.855 116.247 207.382 112.576C256.331 80.0878 305.497 47.9552 354.623 15.7239C356.795 14.283 359.025 12.9409 361.946 11.1053C361.157 19.1187 357.683 25.4742 355.176 32.0665C336.557 81.1208 317.826 130.116 298.983 179.052C296.595 185.249 296.694 187.795 304.214 189.394C335.656 196.085 366.92 203.526 400 211.105C386.184 223.757 373.295 235.659 360.308 247.462C309.504 293.647 258.561 339.656 208.033 386.137C201.48 392.177 198.164 391.703 191.789 385.92C130.353 329.484 68.7259 273.259 6.90812 217.244C5.01332 215.487 3.158 213.711 0 210.73ZM58.8769 36.1522C58.2453 35.6982 57.3966 34.7311 57.0414 34.889C55.5216 35.56 56.39 36.6851 56.8637 37.6522C75.5946 86.9762 94.2268 136.32 113.195 185.664C115.642 191.999 114.991 194.467 107.964 195.967C84.5554 200.96 61.2652 206.566 37.9947 212.053C36.1196 212.487 33.1392 211.401 32.5866 215.349C43.7778 217.717 54.9492 219.928 66.0416 222.514C69.5465 223.285 73.1833 223.224 76.6604 222.336C97.1479 217.757 117.616 213.04 138.202 208.954C144.123 207.77 144.755 205.993 142.722 200.723C124.3 153.353 106.056 105.904 87.9897 58.3766C87.0153 55.2377 84.9773 52.5367 82.2264 50.7382C74.3511 45.9617 66.6338 41.0273 58.8769 36.1522ZM195.559 330.833C195.559 263.41 195.559 197.447 195.677 131.484C195.677 126.53 192.855 124.596 189.559 122.385C162.282 104.135 135.011 85.8709 107.747 67.594C104.924 65.6202 102.24 62.6794 98.6282 64.9492C101.026 70.0086 103.096 75.2168 104.826 80.5418C107.648 91.3185 114.023 98.7003 123.28 104.74C136.445 113.365 148.683 123.412 161.788 132.136C168.756 136.754 171.519 141.787 171.44 150.472C170.927 201.789 171.164 252.949 171.223 304.187C171.223 307.661 169.644 312.359 173.453 314.056C181.624 317.905 186.519 325.8 195.559 330.833ZM204.362 331.859C210.046 326.905 213.836 322.839 218.356 319.859C226.665 314.411 228.738 307.187 228.639 297.457C228.146 248.113 228.639 198.908 228.244 149.623C228.244 142.36 229.942 137.642 236.238 133.419C251.239 123.392 265.292 111.905 280.371 102.016C294.878 92.5224 294.839 76.614 300.424 63.0544C269.377 82.7919 239.238 103.2 208.803 123.293C204.855 125.918 204.283 129.037 204.303 133.162C204.382 198.572 204.362 263.943 204.362 331.859ZM367.374 215.408L367.611 213.296C343.176 207.651 318.8 201.71 294.266 196.539C286.134 194.822 283.667 192.967 287.18 184.065C305.161 138.669 322.392 92.8185 339.722 47.0867C340.906 43.988 343.886 40.9089 340.965 35.7772C331.254 43.8301 317.043 45.9814 311.931 59.0279C293.496 106.102 275.693 153.413 257.318 200.487C254.831 206.822 256.607 207.987 262.449 209.151C282.72 213.217 302.892 217.816 323.063 222.375C326.88 223.273 330.852 223.273 334.669 222.375C345.525 219.869 356.459 217.678 367.374 215.27V215.408ZM29.3496 225.139L195.559 376.209C195.559 368.314 194.947 363.044 195.697 357.972C197.237 347.689 192.717 341.235 185.157 334.642C149.235 303.378 113.53 271.857 78.417 239.685C64.1074 226.619 46.2844 228.455 29.3496 225.139ZM204.816 375.815L369.94 225.612L368.538 223.441C359.953 225.415 351.446 227.922 342.761 229.027C333.721 230.172 327.169 234.672 320.675 240.534C288.74 269.291 257.318 298.7 224.119 325.918C208.566 338.669 200.789 352.051 204.382 371.729C204.461 372.4 204.5 373.17 204.816 375.854V375.815Z" fill="#084C2F"/>
<path d="M195.559 330.833C186.519 325.859 181.624 317.984 173.453 314.135C169.644 312.359 171.223 307.661 171.223 304.266C171.223 252.949 170.927 201.789 171.44 150.551C171.44 141.866 168.755 136.735 161.788 132.215C148.682 123.412 136.445 113.365 123.28 104.74C114.023 98.7005 107.648 91.3186 104.826 80.542C103.096 75.217 101.026 70.0087 98.6282 64.9493C102.24 62.6795 104.924 65.6994 107.747 67.5942C135.05 85.779 162.321 104.043 189.559 122.385C192.855 124.596 195.697 126.53 195.677 131.484C195.5 197.506 195.559 263.41 195.559 330.833Z" fill="#F5F7F6"/>
<path d="M204.362 331.859C204.362 263.942 204.362 198.572 204.362 133.201C204.362 129.037 204.875 125.918 208.862 123.332C239.179 103.2 269.377 82.8312 300.503 63.0542C294.918 76.6139 294.957 92.5223 280.45 102.016C265.371 111.885 251.318 123.392 236.317 133.418C230.021 137.642 228.284 142.359 228.323 149.623C228.639 198.967 228.323 248.192 228.718 297.457C228.718 307.187 226.744 314.411 218.435 319.859C213.836 322.839 210.046 326.905 204.362 331.859Z" fill="#F5F7F6"/>
<path d="M58.8768 36.1521C66.6336 41.0273 74.351 46.0208 82.1868 50.7381C84.9376 52.5366 86.9757 55.2377 87.9501 58.3765C106.109 105.852 124.326 153.301 142.603 200.723C144.577 205.993 143.965 207.77 138.083 208.954C117.497 213.039 97.0294 217.757 76.5418 222.336C73.0647 223.224 69.428 223.284 65.9231 222.513C54.8306 219.928 43.6592 217.717 32.468 215.349C33.0207 211.401 36.001 212.487 37.8761 212.053C61.1861 206.566 84.4763 200.96 107.885 195.947C114.912 194.447 115.563 191.999 113.115 185.644C94.2266 136.32 75.5944 86.9761 56.8636 37.6324L58.8768 36.1521Z" fill="#F5F7F6"/>
<path d="M367.374 215.27C356.459 217.599 345.525 219.79 334.669 222.296C330.852 223.194 326.88 223.194 323.063 222.296C302.892 217.737 282.72 213.138 262.449 209.072C256.528 207.908 254.831 206.743 257.318 200.408C275.693 153.334 293.497 106.023 311.931 58.949C317.043 45.9025 331.254 43.7511 340.965 35.6982C343.886 40.83 340.965 43.909 339.722 47.0078C322.392 92.7396 305.161 138.511 287.181 183.986C283.667 192.888 286.134 194.743 294.266 196.46C318.8 201.631 343.176 207.572 367.611 213.217L367.374 215.27Z" fill="#F5F7F6"/>
<path d="M29.3496 225.139C46.2844 228.415 64.1073 226.58 78.417 239.685C113.53 271.857 149.235 303.378 185.157 334.642C192.717 341.235 197.237 347.689 195.697 357.972C194.947 363.045 195.559 368.334 195.559 376.209L29.3496 225.139Z" fill="#F5F7F6"/>
<path d="M204.816 375.854C204.5 373.071 204.461 372.4 204.342 371.768C200.789 352.031 208.566 338.708 224.08 325.958C257.278 298.74 288.7 269.331 320.635 240.573C327.129 234.652 333.682 230.211 342.722 229.066C351.406 227.961 359.913 225.395 368.499 223.48L369.9 225.652L204.816 375.854Z" fill="#F5F7F6"/>
<path d="M56.8635 37.6325C56.3898 36.6654 55.5213 35.5404 57.0411 34.8693C57.3964 34.7114 58.2451 35.6785 58.8767 36.1325L56.8635 37.6325Z" fill="#F5F7F6"/>
</g>
<defs>
<clipPath id="clip0_6_4884">
<rect width="400" height="400" fill="white"/>
</clipPath>
</defs>
</svg>
