<svg width="400" height="400" viewBox="0 0 400 400" fill="none" xmlns="http://www.w3.org/2000/svg">
<path d="M348.585 199.865C348.585 237.215 348.585 274.57 348.585 311.928C348.678 312.789 348.495 313.656 348.062 314.406C347.629 315.155 346.968 315.747 346.176 316.096C298.108 343.769 250.076 371.495 202.078 399.273C201.409 399.746 200.609 400 199.789 400C198.97 400 198.17 399.746 197.5 399.273C149.529 371.495 101.514 343.769 53.4552 316.096C52.66 315.742 51.9968 315.146 51.5597 314.393C51.1226 313.64 50.934 312.768 51.0205 311.902C51.0911 237.299 51.0911 162.692 51.0205 88.0804C50.9422 87.2118 51.1357 86.3403 51.5742 85.5865C52.0128 84.8327 52.6747 84.2338 53.4685 83.8725C101.528 56.1821 149.565 28.4652 197.58 0.721865C198.248 0.252088 199.045 0 199.862 0C200.679 0 201.476 0.252088 202.145 0.721865C250.23 28.5358 298.347 56.3233 346.494 84.0843C347.201 84.4095 347.788 84.9483 348.173 85.6248C348.557 86.3014 348.72 87.0816 348.637 87.8554C348.576 125.179 348.558 162.515 348.585 199.865ZM313.017 88.7684V92.3808C313.017 157.395 313.017 222.408 313.017 287.422C313.128 288.424 312.922 289.435 312.428 290.313C311.934 291.191 311.178 291.893 310.264 292.318C274.185 313.057 238.14 333.863 202.131 354.734C201.425 355.239 200.578 355.51 199.71 355.51C198.842 355.51 197.995 355.239 197.288 354.734C161.271 333.863 125.226 313.053 89.1555 292.305C88.3325 291.91 87.656 291.264 87.2233 290.461C86.7905 289.657 86.6239 288.737 86.7473 287.833C86.7473 222.625 86.7473 157.421 86.7473 92.222V88.7155C81.4544 91.7324 76.6776 94.67 71.6891 97.3164C70.7525 97.6998 69.9653 98.3763 69.4453 99.2446C68.9253 100.113 68.7005 101.126 68.8045 102.133C68.8839 167.411 68.8839 232.69 68.8045 297.968C68.7018 298.88 68.8895 299.8 69.341 300.599C69.7925 301.397 70.4846 302.033 71.3186 302.414C113.397 326.611 155.435 350.87 197.434 375.191C198.141 375.695 198.987 375.967 199.855 375.967C200.724 375.967 201.57 375.695 202.277 375.191C244.293 350.87 286.336 326.611 328.406 302.414C329.231 302.029 329.914 301.393 330.358 300.597C330.803 299.802 330.985 298.887 330.88 297.982C330.827 232.703 330.827 167.425 330.88 102.146C330.847 101.67 330.847 101.193 330.88 100.717C330.975 100.21 330.896 99.6862 330.656 99.2299C330.415 98.7736 330.028 98.4117 329.557 98.2029C324.132 95.1595 318.799 92.0764 313.017 88.7684ZM221.424 35.8399V39.4655V198C221.424 205.41 221.424 212.82 221.424 220.23C221.424 221.143 221.715 222.161 220.643 222.783C217.11 224.808 213.564 226.846 210.057 228.897C209.078 229.466 208.734 229.175 208.734 228.103C208.734 227.335 208.734 226.581 208.734 225.814C208.734 161.373 208.783 96.9371 208.88 32.5054C208.88 29.5811 207.887 28.1653 205.545 26.4848C201.457 23.5737 198.149 23.6399 194.113 26.4848C191.969 28.033 190.911 29.2636 190.911 32.0291C191.043 96.5754 191.109 161.113 191.109 225.642C191.109 226.211 191.109 226.78 191.109 227.348C191.241 229.135 190.725 229.624 189.058 228.592C186.412 226.965 183.765 225.311 180.907 223.921C179.977 223.547 179.195 222.879 178.679 222.019C178.163 221.159 177.942 220.155 178.049 219.158C178.155 159.56 178.203 99.9672 178.194 40.3785C178.194 39.7169 178.194 39.0553 178.194 38.3805C178.393 36.4221 177.837 36.0252 176.064 37.0573C171.499 39.7831 166.894 42.456 162.237 44.9966C161.607 45.2881 161.086 45.7717 160.748 46.378C160.411 46.9842 160.274 47.6819 160.358 48.3708C160.428 109.018 160.428 169.656 160.358 230.286C160.294 230.972 160.446 231.66 160.792 232.256C161.138 232.851 161.662 233.324 162.289 233.607C174.075 240.329 185.838 247.104 197.58 253.932C198.226 254.387 198.998 254.632 199.789 254.632C200.58 254.632 201.352 254.387 201.999 253.932C213.471 247.236 224.97 240.567 236.561 234.084C237.394 233.696 238.082 233.054 238.527 232.25C238.971 231.447 239.15 230.523 239.036 229.611C239.036 169.458 239.036 109.296 239.036 49.125C239.036 48.556 239.036 47.987 239.036 47.418C239.086 46.995 238.996 46.5672 238.778 46.201C238.56 45.8349 238.228 45.551 237.832 45.3935C232.605 42.3369 227.286 39.2406 221.45 35.8664L221.424 35.8399ZM99.3707 139.196H99.4501C99.4501 157.721 99.4501 176.246 99.4501 194.771C99.3575 195.553 99.52 196.344 99.9134 197.026C100.307 197.708 100.91 198.244 101.633 198.555C106.304 201.069 110.896 203.742 115.461 206.495C115.934 206.86 116.511 207.065 117.109 207.079C117.706 207.093 118.292 206.916 118.782 206.574C127.674 201.369 136.602 196.231 145.564 191.159C146.235 190.851 146.794 190.341 147.162 189.701C147.529 189.06 147.688 188.321 147.615 187.586C147.615 155.379 147.642 123.181 147.694 90.9914C147.766 90.2976 147.618 89.5989 147.271 88.9936C146.925 88.3883 146.397 87.907 145.763 87.6172C136.853 82.5626 127.979 77.4373 119.14 72.2415C118.539 71.8154 117.816 71.5944 117.08 71.6111C116.343 71.6277 115.632 71.8813 115.051 72.3341C110.578 74.9806 106.066 77.627 101.475 80.1411C100.756 80.4566 100.159 80.9949 99.7702 81.6765C99.3818 82.3581 99.2231 83.1467 99.3178 83.9255C99.3972 102.331 99.3707 120.764 99.3707 139.196ZM282.583 111.858C288.405 108.498 293.87 105.322 299.374 102.199C300.353 101.643 300.221 100.876 300.221 99.9893C300.221 94.3921 300.221 88.7817 300.221 83.1712C300.272 82.5676 300.128 81.9636 299.812 81.4472C299.495 80.9307 299.022 80.5288 298.461 80.2999C293.662 77.6534 288.894 74.9012 284.157 72.043C283.669 71.688 283.081 71.4968 282.477 71.4968C281.873 71.4968 281.285 71.688 280.796 72.043C271.799 77.3359 262.765 82.5581 253.697 87.7099C253.186 87.9273 252.757 88.2999 252.47 88.7748C252.182 89.2497 252.052 89.803 252.096 90.3563C252.149 122.943 252.175 155.538 252.175 188.142C252.129 188.741 252.271 189.34 252.582 189.855C252.893 190.37 253.357 190.775 253.909 191.013C262.907 196.121 271.891 201.241 280.796 206.495C281.323 206.862 281.954 207.052 282.596 207.038C283.238 207.023 283.859 206.805 284.369 206.415C288.855 203.769 293.354 201.122 297.932 198.595C298.654 198.275 299.254 197.733 299.644 197.047C300.035 196.361 300.195 195.568 300.102 194.784C300.102 169.643 300.102 144.423 300.102 119.242C300.102 118.461 300.459 117.562 299.546 116.675C291.951 121.086 284.338 125.496 276.708 129.907C276.377 130.088 276.107 130.363 275.933 130.698C275.759 131.032 275.687 131.411 275.728 131.786C275.728 137.582 275.728 143.377 275.728 149.173C275.728 150.774 276.35 150.668 277.422 150.033C278.957 149.12 280.519 148.273 282.331 147.268V187.043C278.547 184.86 275.12 182.769 271.587 180.877C270.954 180.585 270.429 180.1 270.089 179.492C269.749 178.883 269.611 178.182 269.695 177.49C269.756 152.014 269.792 126.546 269.8 101.088C269.8 100.188 269.496 99.2086 270.608 98.5734C274.458 96.4034 278.282 94.1671 282.517 91.7589L282.583 111.858ZM191.281 299.927C186.24 294.912 181.833 290.479 177.361 286.126C176.21 285.001 175.958 284.419 177.599 283.479C183.329 280.145 189.018 276.704 194.655 273.224C196.508 272.086 196.812 272.642 196.786 274.547C196.719 281.865 196.786 289.182 196.719 296.5C196.719 299.146 197.738 300.019 200.279 299.966C205.982 299.861 211.685 299.874 217.388 299.966C219.272 300.008 221.121 299.462 222.681 298.405C231.635 292.512 240.624 286.673 249.648 280.886C250.376 280.423 250.971 279.562 252.294 279.88V300.707C256.343 298.273 260.062 296.01 263.793 293.787C264.501 293.398 265.087 292.822 265.489 292.122C265.89 291.422 266.091 290.624 266.069 289.817C266.069 284.022 266.069 278.226 266.069 272.43C266.069 271.345 265.804 269.929 264.653 269.956C260.101 270.035 255.391 268.408 251.064 271.186C238.493 279.337 225.923 287.493 213.352 295.653C212.548 296.427 211.52 296.927 210.415 297.082V295.07C210.415 287.846 210.415 280.621 210.415 273.396C210.415 270.088 209.978 269.678 206.591 269.665C200.888 269.665 195.185 269.665 189.495 269.665C187.549 269.649 185.64 270.201 184.003 271.253C172.743 278.094 161.416 284.855 150.116 291.617C149.415 292.04 148.7 292.94 147.88 292.57C147.059 292.199 147.496 291.021 147.483 290.228C147.483 284.339 147.483 278.451 147.483 272.563C147.648 271.484 147.496 270.381 147.046 269.387C143.076 271.782 139.279 274.071 135.494 276.374C134.812 276.81 134.266 277.43 133.92 278.163C133.574 278.895 133.441 279.711 133.536 280.515C133.536 285.927 133.536 291.352 133.536 296.764C133.536 299.133 134.542 299.9 136.804 299.953C149.785 300.231 149.785 300.257 161.006 293.522C162.223 292.781 163.52 292.199 164.645 291.313C165.77 290.426 166.603 290.651 167.556 291.657C169.699 293.933 171.975 296.103 174.172 298.273C174.559 298.754 175.046 299.146 175.598 299.422C176.151 299.699 176.757 299.853 177.374 299.874C181.688 299.913 185.988 299.927 191.281 299.927Z" fill="#010101"/>
<path d="M313.017 88.7685C318.773 92.0766 324.105 95.1597 329.464 98.1898C329.936 98.3986 330.323 98.7605 330.563 99.2168C330.803 99.6731 330.882 100.197 330.787 100.704C330.754 101.18 330.754 101.657 330.787 102.133C330.787 167.411 330.787 232.69 330.787 297.968C330.892 298.874 330.71 299.789 330.266 300.584C329.822 301.38 329.139 302.016 328.313 302.401C286.226 326.59 244.183 350.848 202.184 375.178C201.478 375.682 200.631 375.953 199.763 375.953C198.895 375.953 198.048 375.682 197.341 375.178C155.343 350.857 113.304 326.598 71.2261 302.401C70.3921 302.019 69.7 301.384 69.2485 300.586C68.797 299.787 68.6092 298.867 68.712 297.955C68.7825 232.677 68.7825 167.398 68.712 102.12C68.6079 101.113 68.8327 100.1 69.3527 99.2315C69.8727 98.3632 70.66 97.6867 71.5966 97.3033C76.5851 94.6568 81.4148 91.7193 86.6547 88.7024V92.2221C86.6547 157.43 86.6547 222.634 86.6547 287.833C86.5567 288.742 86.7499 289.658 87.2065 290.45C87.6631 291.242 88.3596 291.868 89.1953 292.239C125.31 312.987 161.368 333.779 197.368 354.615C198.075 355.12 198.921 355.391 199.789 355.391C200.658 355.391 201.504 355.12 202.211 354.615C238.211 333.752 274.255 312.947 310.344 292.199C311.257 291.774 312.014 291.072 312.507 290.194C313.001 289.316 313.207 288.305 313.096 287.303C313.026 222.298 313.026 157.284 313.096 92.2618L313.017 88.7685Z" fill="#FEFEFE"/>
<path d="M221.45 35.8666C227.286 39.2408 232.605 42.3239 237.951 45.3805C238.346 45.538 238.679 45.8219 238.897 46.188C239.115 46.5541 239.205 46.982 239.155 47.405C239.155 47.974 239.155 48.543 239.155 49.1119C239.155 109.283 239.155 169.445 239.155 229.598C239.269 230.51 239.09 231.434 238.646 232.237C238.201 233.041 237.513 233.683 236.68 234.071C225.089 240.581 213.59 247.303 202.118 253.919C201.471 254.374 200.699 254.619 199.908 254.619C199.117 254.619 198.345 254.374 197.698 253.919C185.975 247.082 174.211 240.307 162.408 233.594C161.781 233.311 161.257 232.838 160.911 232.243C160.565 231.647 160.413 230.959 160.477 230.273C160.477 169.635 160.477 108.996 160.477 48.3577C160.384 47.6807 160.505 46.9917 160.823 46.3868C161.141 45.7819 161.64 45.2913 162.25 44.9835C166.907 42.4297 171.512 39.7568 176.077 37.0442C177.85 35.9857 178.406 36.3826 178.208 38.3675C178.141 39.0291 178.208 39.6907 178.208 40.3655C178.208 99.963 178.159 159.556 178.062 219.145C177.941 220.154 178.156 221.175 178.676 222.048C179.195 222.922 179.989 223.599 180.933 223.974C183.739 225.364 186.411 227.018 189.084 228.645C190.752 229.678 191.268 229.188 191.135 227.402C191.135 226.833 191.135 226.264 191.135 225.695C191.135 161.157 191.069 96.6197 190.937 32.0822C190.937 29.3167 191.995 28.1126 194.139 26.5379C198.109 23.6533 201.483 23.5872 205.572 26.5379C207.914 28.2184 208.919 29.6343 208.906 32.5586C208.783 96.999 208.734 161.435 208.761 225.867C208.761 226.634 208.761 227.388 208.761 228.156C208.761 229.228 209.171 229.479 210.084 228.95C213.604 226.899 217.15 224.861 220.669 222.837C221.741 222.215 221.45 221.196 221.45 220.283C221.45 212.873 221.45 205.463 221.45 198.053V39.5187V35.8666Z" fill="#5DC0C0"/>
<path d="M99.3707 139.196C99.3707 120.764 99.3707 102.331 99.3707 83.8856C99.276 83.1068 99.4347 82.3182 99.8231 81.6367C100.212 80.9551 100.809 80.4167 101.528 80.1012C106.119 77.6268 110.631 74.9936 115.104 72.2943C115.685 71.8414 116.396 71.5879 117.133 71.5712C117.869 71.5545 118.591 71.7756 119.192 72.2016C128.014 77.4151 136.888 82.5403 145.815 87.5774C146.45 87.8671 146.978 88.3485 147.324 88.9537C147.671 89.559 147.819 90.2577 147.747 90.9515C147.686 123.159 147.659 155.357 147.668 187.546C147.734 188.285 147.566 189.026 147.188 189.664C146.811 190.303 146.243 190.807 145.564 191.105C136.593 196.169 127.665 201.307 118.782 206.521C118.292 206.863 117.706 207.04 117.109 207.026C116.511 207.012 115.934 206.807 115.461 206.442C110.909 203.716 106.304 201.043 101.633 198.502C100.91 198.191 100.307 197.655 99.9134 196.973C99.52 196.291 99.3574 195.5 99.4501 194.718C99.4501 176.193 99.4501 157.668 99.4501 139.143L99.3707 139.196ZM117.181 91.719V94.9741L117.102 183.312C117.102 183.881 117.102 184.45 117.102 185.019C117.022 186.514 117.485 186.937 118.888 186.104C122.156 184.159 125.425 182.24 128.746 180.401C129.91 179.766 129.95 178.853 129.937 177.754L129.857 100.809C129.857 99.9891 130.03 99.0893 129.077 98.5468C125.226 96.3767 121.402 94.1537 117.181 91.719Z" fill="#5DC0C0"/>
<path d="M282.583 111.858V91.7191C278.388 94.1274 274.564 96.3636 270.674 98.5337C269.562 99.1688 269.867 100.148 269.867 101.048C269.867 126.506 269.831 151.974 269.761 177.45C269.677 178.142 269.815 178.843 270.155 179.452C270.495 180.061 271.02 180.546 271.653 180.837C275.186 182.73 278.613 184.807 282.397 187.004V147.228C280.585 148.234 279.023 149.08 277.488 149.993C276.417 150.629 275.781 150.734 275.795 149.133C275.795 143.338 275.795 137.542 275.795 131.746C275.754 131.371 275.825 130.993 275.999 130.658C276.173 130.324 276.443 130.048 276.774 129.867C284.413 125.457 292.026 121.046 299.612 116.635C300.525 117.522 300.168 118.422 300.168 119.202C300.168 144.343 300.168 169.564 300.168 194.744C300.261 195.528 300.101 196.321 299.71 197.007C299.32 197.693 298.72 198.235 297.998 198.555C293.42 201.03 288.921 203.703 284.435 206.375C283.925 206.766 283.304 206.984 282.662 206.998C282.02 207.012 281.39 206.822 280.863 206.455C271.957 201.162 262.973 196.081 253.975 190.973C253.423 190.735 252.959 190.33 252.648 189.815C252.337 189.301 252.195 188.701 252.241 188.102C252.241 155.463 252.215 122.868 252.162 90.3165C252.118 89.7632 252.248 89.21 252.536 88.735C252.823 88.2601 253.252 87.8876 253.763 87.6701C262.814 82.4831 271.847 77.2608 280.863 72.0033C281.351 71.6482 281.939 71.457 282.543 71.457C283.147 71.457 283.735 71.6482 284.223 72.0033C288.961 74.8173 293.729 77.5696 298.527 80.2601C299.078 80.4976 299.54 80.9032 299.847 81.4189C300.153 81.9346 300.289 82.534 300.234 83.1315C300.155 88.7419 300.234 94.3523 300.234 99.9495C300.234 100.783 300.367 101.604 299.387 102.159C293.817 105.322 288.352 108.497 282.583 111.858Z" fill="#5DC0C0"/>
<path d="M191.281 299.927C185.988 299.927 181.661 299.927 177.321 299.927C176.704 299.905 176.098 299.751 175.546 299.475C174.993 299.199 174.506 298.807 174.119 298.325C171.923 296.102 169.647 293.932 167.503 291.709C166.55 290.704 165.77 290.479 164.592 291.365C163.414 292.252 162.17 292.834 160.953 293.575C149.732 300.31 149.732 300.284 136.752 300.006C134.489 300.006 133.457 299.186 133.483 296.817C133.576 291.405 133.483 285.98 133.483 280.568C133.382 279.764 133.51 278.948 133.852 278.213C134.194 277.478 134.735 276.854 135.415 276.413C139.199 274.111 142.997 271.822 146.967 269.427C147.417 270.421 147.568 271.524 147.403 272.602C147.403 278.491 147.403 284.379 147.403 290.267C147.403 291.061 146.914 292.186 147.8 292.609C148.687 293.033 149.335 292.08 150.037 291.656C161.416 284.855 172.756 278.094 184.003 271.253C185.676 270.183 187.629 269.634 189.614 269.678C195.304 269.771 201.007 269.678 206.71 269.678C210.097 269.678 210.521 270.101 210.534 273.409C210.534 280.634 210.534 287.859 210.534 295.084V297.029C211.639 296.874 212.667 296.374 213.471 295.6C226.06 287.466 238.63 279.311 251.183 271.133C255.47 268.355 260.22 269.982 264.772 269.903C265.924 269.903 266.188 271.292 266.188 272.377C266.188 278.173 266.188 283.969 266.188 289.764C266.21 290.571 266.009 291.369 265.608 292.069C265.206 292.769 264.62 293.345 263.912 293.734C260.181 295.957 256.463 298.22 252.414 300.654V279.88C251.09 279.509 250.455 280.422 249.767 280.886C240.752 286.69 231.763 292.53 222.8 298.405C221.241 299.462 219.391 300.008 217.507 299.966C211.804 299.874 206.101 299.86 200.398 299.966C197.857 299.966 196.799 299.119 196.839 296.499C196.944 289.182 196.839 281.865 196.905 274.547C196.905 272.642 196.627 272.086 194.774 273.224C189.138 276.704 183.448 280.145 177.718 283.479C176.077 284.419 176.329 285.001 177.48 286.125C181.86 290.479 186.266 294.912 191.281 299.927Z" fill="#FEFEFE"/>
<path d="M117.181 91.719C121.415 94.1537 125.24 96.3767 129.09 98.5732C130.043 99.1158 129.871 100.016 129.871 100.836L129.95 177.781C129.95 178.853 129.95 179.766 128.759 180.427C125.438 182.266 122.143 184.185 118.901 186.13C117.499 186.964 117.036 186.54 117.115 185.045C117.115 184.476 117.115 183.907 117.115 183.338L117.181 94.9741V91.719Z" fill="#010101"/>
</svg>
