<svg width="400" height="400" viewBox="0 0 400 400" fill="none" xmlns="http://www.w3.org/2000/svg">
<path d="M270.727 111.574C273.879 115.028 277.184 118.333 280.642 121.489C280.975 121.605 281.285 121.78 281.556 122.006C285.49 125.965 289.555 129.796 293.341 133.908C293.404 134.379 293.651 134.807 294.028 135.097C296.726 137.803 299.426 140.506 302.126 143.207C302.459 143.539 302.796 143.876 303.313 143.897C307.516 147.757 311.457 151.893 315.459 155.937C315.618 156.114 315.713 156.34 315.728 156.578C316.316 157.233 316.872 157.92 317.498 158.543C334.217 175.283 350.945 192.013 367.683 208.731C368.066 209.081 368.368 209.511 368.568 209.99C368.768 210.469 368.861 210.986 368.841 211.504C368.813 253.452 368.813 295.401 368.841 337.352C368.841 338.768 368.547 339.239 367.028 339.239C325.316 339.204 283.604 339.204 241.892 339.239C239.58 339.239 237.89 338.092 236.357 336.516C220.387 320.121 204.133 303.991 187.925 287.836C187.421 287.255 186.812 286.775 186.13 286.42C183.088 283.552 180.443 280.301 177.398 277.429C176.119 276.222 174.777 275.067 173.704 273.651C170.556 270.195 167.245 266.898 163.814 263.736C161.162 261.416 158.81 258.778 156.282 256.345C154.975 255.081 153.757 253.728 152.28 252.645C151.726 252.296 151.319 251.755 151.137 251.126C147.914 247.673 144.642 244.277 141.133 241.115C140.453 240.956 140.071 240.439 139.632 239.953C136.099 236.031 132.373 232.288 128.466 228.739C128.576 228.13 128.19 227.747 127.818 227.372C124.985 224.539 122.158 221.706 119.337 218.873C119.103 218.715 118.845 218.595 118.572 218.519C115.116 215.371 111.912 211.964 108.618 208.65C107.769 207.797 106.54 207.301 106.079 206.068C103.031 202.651 99.8435 199.365 96.5644 196.175C96.3725 196.046 96.1608 195.949 95.9376 195.888C94.2202 194.56 92.7506 192.945 91.3342 191.348C89.5276 189.263 87.57 187.314 85.4772 185.516C84.769 184.935 83.9722 184.354 83.7385 183.359C83.2179 182.796 82.7186 182.212 82.1804 181.674C65.5395 165.028 48.8962 148.385 32.2506 131.744C31.8474 131.374 31.5298 130.921 31.3201 130.416C31.1103 129.91 31.0133 129.366 31.036 128.819C31.0667 86.5876 31.0608 44.3574 31.0183 2.12837C31.0183 0.421552 31.4291 0.00370029 33.143 0.00370029C74.4844 0.0556367 115.829 0.0556367 157.178 0.00370029C157.812 -0.0225064 158.445 0.090741 159.031 0.335467C159.617 0.580193 160.143 0.950445 160.57 1.42015C177.331 18.2664 194.122 35.0915 210.943 51.8953C211.562 52.515 212.118 53.2303 213 53.5242C217.358 57.6862 221.617 61.9461 225.776 66.3041C225.989 67.2389 226.757 67.763 227.391 68.3508C230.189 70.9571 232.543 74.0166 235.691 76.2511C239.824 80.0684 243.701 84.1442 247.671 88.128C247.853 88.359 247.99 88.622 248.075 88.9035C251.262 92.349 254.548 95.706 258.022 98.8717C258.527 99.0264 258.977 99.324 259.318 99.7287C262.835 103.241 266.35 106.757 269.863 110.274C270.255 110.628 270.552 111.075 270.727 111.574Z" fill="#598CFD"/>
<path d="M271.492 85.7166C272.091 85.0721 272.675 84.4134 273.295 83.7902C300.927 56.1199 328.555 28.446 356.178 0.768653C356.383 0.530735 356.639 0.341273 356.926 0.21391C357.213 0.0865472 357.525 0.0244533 357.839 0.0321C361.083 0.060429 364.326 0.0852168 367.57 0.0321C368.632 0.0108533 368.841 0.386212 368.827 1.3494C368.774 4.70992 368.76 8.07752 368.827 11.4345C368.852 11.9202 368.769 12.4055 368.584 12.8551C368.398 13.3047 368.115 13.7073 367.754 14.0337C351.892 29.8743 336.048 45.7361 320.222 61.6192L285.345 96.5595C284.722 97.1827 284.109 97.813 283.493 98.4433C281.754 97.7351 280.951 96.0425 279.81 94.7641C277.501 92.1685 274.984 89.7853 272.586 87.2817C272.144 86.8037 271.581 86.4283 271.492 85.7166Z" fill="#2F5FF5"/>
<path d="M129.135 252.857C128.707 253.339 128.303 253.838 127.85 254.291C100.135 282.051 72.4221 309.813 44.7117 337.575C43.7166 338.57 42.7464 339.041 41.3299 339.013C38.4404 338.949 35.5508 338.994 32.6612 339.147C31.2731 339.218 30.9934 338.722 31.0288 337.44C31.1173 334.253 31.1102 331.066 31.0288 327.879C31.0034 327.362 31.095 326.845 31.2967 326.367C31.4984 325.89 31.805 325.464 32.1938 325.121C53.941 303.402 75.6729 281.673 97.3894 259.933C103.688 253.646 110.003 247.371 116.334 241.108C117.8 242.145 118.647 243.743 119.897 245.003C122.359 247.452 125.059 249.65 127.956 251.565C128.427 251.869 129.249 251.969 129.135 252.857Z" fill="#2F5FF5"/>
<path d="M152.479 274.795C152.124 275.188 151.802 275.598 151.416 275.97C130.821 296.589 110.23 317.212 89.6414 337.841C89.2169 338.31 88.693 338.678 88.1079 338.919C87.5229 339.16 86.8914 339.267 86.2597 339.232C80.0663 339.151 73.8658 339.193 67.6759 339.169C66.4471 339.169 65.2148 339.045 64.0179 338.981C63.809 338.322 64.3047 338.159 64.5562 337.919C89.233 313.192 113.915 288.476 138.601 263.771C138.845 263.527 139.136 263.325 139.405 263.102C141.058 263.81 141.852 265.425 142.946 266.678C145.343 269.479 148.176 271.682 151.236 273.658C151.696 273.966 152.309 274.143 152.479 274.795Z" fill="#2F5FF5"/>
<path d="M249.498 62.6815C249.888 62.2494 250.263 61.7997 250.677 61.3854C270.841 41.1751 291.003 20.9694 311.163 0.768535C311.546 0.386094 311.843 0.0319824 312.47 0.0319824C320.131 0.0532291 327.784 0.0532291 335.431 0.0319824C335.65 0.740206 335.077 0.959756 334.818 1.282C332.006 4.54691 328.947 7.57457 325.909 10.6235C304.551 32.0472 283.198 53.4745 261.85 74.9054C261.761 74.9792 261.665 75.0433 261.563 75.0966C260.501 75.2489 260.246 74.2467 259.75 73.6802C256.403 69.962 252.891 66.3678 249.498 62.6815Z" fill="#2F5FF5"/>
<path d="M104.964 231.947C104.698 232.259 104.45 232.592 104.16 232.882C80.1159 256.957 56.067 281.031 32.0134 305.103C31.8044 305.312 31.5849 305.507 31.3724 305.709C30.8271 305.443 31.0714 304.972 31.0714 304.614C31.0714 297.245 31.0714 289.873 31.0466 282.5C31.0171 282.125 31.0696 281.749 31.2005 281.397C31.3313 281.044 31.5375 280.725 31.8044 280.46C52.0384 260.25 72.2688 240.03 92.4957 219.801C92.6291 219.688 92.7725 219.587 92.9241 219.5C94.4681 219.854 95.1798 221.271 96.0899 222.29C98.4554 224.975 101.047 227.432 103.509 230.014C104.065 230.594 104.741 231.111 104.964 231.947Z" fill="#2F5FF5"/>
<path d="M296.191 106.205C296.496 105.851 296.779 105.476 297.109 105.143C320.53 81.6937 343.96 58.2456 367.4 34.7987C367.754 34.4446 368.161 34.0904 368.558 33.7363C369.05 34.2321 368.82 34.7987 368.823 35.2732C368.823 42.2917 368.806 49.3102 368.862 56.3287C368.895 56.9049 368.799 57.4812 368.582 58.0158C368.364 58.5504 368.031 59.0301 367.605 59.4201C348.441 78.5421 329.296 97.6807 310.172 116.836C309.673 117.335 309.166 117.82 308.663 118.312C307.955 118.543 307.562 118.004 307.183 117.604C304.049 114.261 300.476 111.375 297.3 108.082C296.783 107.547 295.997 107.147 296.191 106.205Z" fill="#2F5FF5"/>
<path d="M84.1916 207.57C83.8375 207.967 83.5223 208.388 83.1505 208.763C66.2287 225.711 49.3021 242.655 32.3709 259.596C32.0557 259.922 31.7016 260.23 31.3475 260.552C30.8376 260.156 31.0713 259.649 31.0713 259.214C31.0713 251.958 31.0713 244.695 31.0465 237.443C31.0143 237.04 31.0713 236.634 31.2132 236.255C31.3552 235.877 31.5787 235.534 31.868 235.251C45.1944 221.962 58.5031 208.658 71.7942 195.339C72.0079 195.142 72.2325 194.958 72.467 194.787C73.4443 195.357 73.7488 196.444 74.3579 197.29C76.7043 200.466 79.4326 203.34 82.4812 205.849C83.0939 206.363 83.8977 206.724 84.1916 207.57Z" fill="#2F5FF5"/>
<path d="M173.389 298.906C173.081 299.26 172.787 299.614 172.458 299.947C159.799 312.631 147.142 325.32 134.486 338.014C134.12 338.423 133.668 338.745 133.162 338.958C132.656 339.17 132.109 339.268 131.561 339.243C125.541 339.176 119.521 339.218 113.519 339.19C112.053 339.19 110.584 339.045 109.164 338.97C108.951 338.404 109.348 338.234 109.567 338.011C126.636 320.893 143.709 303.777 160.786 286.664C160.959 286.507 161.142 286.361 161.335 286.229C162.79 287.093 163.619 288.562 164.674 289.791C167.419 292.992 170.549 295.808 173.389 298.906Z" fill="#2F5FF5"/>
<path d="M316.762 130.671C316.985 130.402 317.183 130.111 317.431 129.864C334.14 113.135 350.858 96.4071 367.584 79.6788C367.899 79.3637 368.228 79.0627 368.816 78.5032V80.5393C368.816 87.5012 368.788 94.463 368.844 101.432C368.876 102.006 368.781 102.58 368.565 103.112C368.349 103.645 368.017 104.123 367.594 104.513C355.082 116.949 342.606 129.413 330.165 141.903L328.543 143.522C326.581 142.459 325.466 140.526 324.025 138.964C321.96 136.733 319.807 134.595 317.711 132.395C317.254 131.91 316.546 131.528 316.762 130.671Z" fill="#2F5FF5"/>
<path d="M227.171 39.9687C231.378 35.6769 235.553 31.3532 239.799 27.1003C248.593 18.2947 257.402 9.50566 266.226 0.733126C266.62 0.340062 266.935 0.0249023 267.551 0.0249023C274.985 0.0579528 282.421 0.0791995 289.86 0.0886425C290.134 0.130784 290.404 0.194727 290.667 0.279863C273.84 18.0811 256.375 34.9191 239.321 52.1608C238.908 52.0764 238.534 51.8572 238.259 51.5376C234.955 48.0885 231.198 45.1069 227.961 41.5906C227.561 41.1408 226.906 40.7726 227.171 39.9687Z" fill="#2F5FF5"/>
<path d="M49.4994 399.771C43.8938 399.771 38.2882 399.725 32.6826 399.803C31.337 399.824 30.912 399.449 31.0324 398.121C31.1728 396.708 31.1728 395.285 31.0324 393.872C30.827 392.126 31.6061 391.885 33.1181 391.896C43.208 391.948 53.2966 391.948 63.3841 391.896C64.8359 391.896 66.6702 392.508 67.6334 391.542C68.547 390.656 67.9132 388.847 67.9875 387.448C68.3062 379.605 68.1929 371.765 67.9875 363.921C67.9628 362.891 67.7113 362.505 66.5994 362.459C57.6947 362.222 48.79 362.215 39.8852 362.437C38.6281 362.466 38.4688 362.972 38.4688 364.024C38.4971 369.98 38.4086 375.94 38.5042 381.899C38.5325 383.518 38.0084 383.953 36.4999 383.815C35.204 383.701 33.9006 383.701 32.6047 383.815C31.3688 383.918 31.0076 383.514 31.0147 382.257C31.0749 375.118 31.0466 367.979 31.0466 360.84C31.0466 359.13 31.082 357.416 31.0466 355.706C31.0183 354.788 31.1989 354.325 32.2824 354.328C43.6707 354.371 55.0577 354.384 66.4436 354.367C66.7643 354.362 67.0825 354.424 67.3772 354.551C67.672 354.677 67.9367 354.864 68.154 355.1C70.2503 357.175 72.3573 359.24 74.4997 361.269C74.78 361.522 75.0001 361.835 75.1441 362.184C75.2881 362.533 75.3522 362.91 75.3318 363.287C75.3082 372.494 75.3082 381.701 75.3318 390.908C75.3318 391.737 75.1654 392.409 74.4926 392.916C74.4459 392.951 74.4032 392.992 74.3651 393.036C72.1519 395.242 70.2928 398.298 67.637 399.41C64.9811 400.522 61.4896 399.718 58.3663 399.732C55.3989 399.796 52.4491 399.771 49.4994 399.771Z" fill="#5A8CFE"/>
<path d="M368.951 399.771C365.491 399.771 362.371 399.736 359.252 399.771C358.25 399.771 357.764 399.176 357.265 398.525C354.121 394.403 350.962 390.288 347.86 386.131C347.077 385.069 346.589 384.785 345.548 385.957C342.06 389.892 339.096 394.226 335.905 398.387C335.147 399.375 334.358 399.803 333.101 399.778C330.229 399.693 327.357 399.75 324.06 399.75C326.443 396.489 328.603 393.504 330.788 390.543C333.522 386.85 336.319 383.202 339.018 379.481C340.597 377.299 340.576 376.846 338.958 374.629C334.439 368.443 329.875 362.292 325.335 356.124C324.981 355.66 324.712 355.16 324.092 354.19C327.456 354.19 330.431 354.19 333.405 354.19C334.294 354.19 334.768 354.792 335.307 355.33C338.915 358.932 341.592 363.273 344.783 367.211C345.335 367.891 345.93 368.542 346.642 369.364C348.933 366.318 351.111 363.344 353.37 360.451C354.928 358.454 356.298 356.109 358.306 354.725C360.399 353.28 363.211 354.661 365.7 354.403C366.631 354.307 367.577 354.403 368.753 354.403C367.662 356.446 366.341 358.078 365.098 359.757C361.341 364.821 357.584 369.884 353.767 374.895C352.555 376.478 352.669 377.795 353.83 379.339C358.66 385.734 363.423 392.179 368.207 398.61C368.398 398.883 368.568 399.18 368.951 399.771Z" fill="#5A8CFE"/>
<path d="M180.96 354.728C181.512 354.293 181.998 354.463 182.437 354.463C193.584 354.434 204.746 354.434 215.882 354.392C216.347 354.361 216.812 354.433 217.245 354.604C217.677 354.774 218.067 355.038 218.386 355.376C220.355 357.409 222.398 359.371 224.406 361.357C224.87 361.814 225.344 362.243 225.334 362.986C225.288 366.173 225.688 369.36 225.118 372.515C225.013 373.334 224.651 374.097 224.084 374.697C222.26 376.545 220.422 378.376 218.63 380.253C218.021 380.89 217.306 380.936 216.527 380.936H207.915L207.653 381.421L225.755 399.757H215.1C214.625 399.757 214.392 399.403 214.091 399.127L189.027 374.141C188.917 373.986 188.82 373.823 188.736 373.652C190.73 373.528 192.631 373.33 194.526 373.298C199.894 373.241 205.266 373.149 210.627 373.298C214.363 373.394 216.07 370.685 218.17 368.436C218.271 368.326 218.327 368.182 218.327 368.032C218.327 367.883 218.271 367.739 218.17 367.629C218.071 367.48 217.947 367.349 217.858 367.197C215.996 363.967 213.634 362.189 209.47 362.462C203.011 362.88 196.498 362.54 190.011 362.579C189.488 362.608 188.966 362.516 188.484 362.311C188.003 362.105 187.575 361.791 187.235 361.393C185.202 359.144 183.081 356.949 180.96 354.728Z" fill="#5A8CFE"/>
<path d="M296.191 106.205C298.128 108.564 300.441 110.543 302.693 112.579C304.729 114.424 306.662 116.382 308.646 118.295L293.341 133.897C293.06 133.834 292.794 133.72 292.555 133.56C288.571 129.548 284.431 125.689 280.642 121.478L296.191 106.205Z" fill="#2245B3"/>
<path d="M227.172 39.9688C229.93 43.262 233.22 46.0134 236.29 48.988C237.352 50.0078 238.323 51.1127 239.332 52.175L225.791 66.3395C225.27 66.3111 224.948 65.957 224.611 65.6312L213.715 54.7033C213.382 54.3669 213.007 54.0482 213.007 53.5277L227.172 39.9688Z" fill="#2245B3"/>
<path d="M249.498 62.6816C251.237 63.4394 252.271 65.0046 253.51 66.3042C256.251 69.1902 258.886 72.1789 261.563 75.1287L248.075 88.939C243.847 85.1217 239.962 80.9538 235.943 76.924C235.794 76.7788 235.773 76.5026 235.691 76.2866L249.498 62.6816Z" fill="#2245B3"/>
<path d="M104.964 231.947C102.322 229.305 99.6522 226.685 97.053 224.011C95.6366 222.552 94.298 221.005 92.9241 219.5L106.086 206.044C110.555 209.486 114.249 213.739 118.204 217.729C118.37 217.967 118.497 218.23 118.579 218.508L104.964 231.947Z" fill="#2245B3"/>
<path d="M271.492 85.7166C275.791 89.6602 279.802 93.9075 283.493 98.4256C279.716 102.293 275.945 106.162 272.179 110.033C271.687 110.536 271.216 111.06 270.734 111.574C266.343 107.494 262.106 103.262 258.022 98.8753L271.492 85.7166Z" fill="#2245B3"/>
<path d="M316.762 130.671C319.357 133.716 322.463 136.28 324.984 139.396C326.128 140.813 327.367 142.151 328.561 143.525C324.29 147.878 320.018 152.232 315.745 156.585C311.496 152.764 307.601 148.585 303.55 144.545C303.405 144.4 303.401 144.113 303.33 143.893L316.762 130.671Z" fill="#2245B3"/>
<path d="M173.389 298.906C173.219 298.86 173 298.871 172.886 298.768C168.732 294.873 164.699 290.857 161.339 286.229L173.701 273.647C174.163 273.74 174.578 273.99 174.876 274.355C178.577 277.96 182.249 281.593 185.645 285.492C185.84 285.776 186.002 286.081 186.126 286.402L173.389 298.906Z" fill="#2245B3"/>
<path d="M129.136 252.857C125.382 250.446 121.813 247.794 118.82 244.451C117.893 243.417 116.844 242.457 116.342 241.108L128.488 228.714C128.927 228.487 129.231 228.654 129.55 228.987C133.473 232.963 137.663 236.689 141.147 241.09L129.136 252.857Z" fill="#2245B3"/>
<path d="M152.479 274.795C147.047 272.093 143.034 267.811 139.405 263.109L151.144 251.119C155.598 254.699 159.433 258.909 163.445 262.96C163.609 263.196 163.735 263.455 163.821 263.729L152.479 274.795Z" fill="#2245B3"/>
<path d="M84.1917 207.57C79.3793 204.139 75.2008 200.134 72.467 194.794L83.7561 183.342C88.1896 187.145 92.2734 191.338 95.9588 195.87C92.1203 199.864 88.2392 203.799 84.1917 207.57Z" fill="#2245B3"/>
</svg>
