<svg width="400" height="400" viewBox="0 0 400 400" fill="none" xmlns="http://www.w3.org/2000/svg">
<path d="M31.0217 0.165676C29.5868 -0.432222 28 0.665923 28 2.21292C28.0944 14.1342 28 63.3033 28 86.3161C28 88.088 29.437 89.6232 31.3071 89.6232H95.0554C96.9256 89.6232 98.3625 88.0692 98.3625 86.2177C98.2676 74.6628 98.1721 63.0088 98.0771 51.4534C98.0771 49.8011 96.8699 48.3672 95.2129 48.1462C86.6952 47.0105 78.1756 45.6882 69.7498 44.2682C68.2793 43.9959 66.9843 44.7177 66.3245 45.8036C65.6646 46.8896 65.6278 48.3788 66.5505 49.5734C69.5816 53.646 72.0495 56.7755 75.7438 61.2268H75.7334C76.0498 61.6223 76.2945 62.2051 76.2945 62.7328V70.2131C76.2945 71.6724 75.2117 72.7541 73.7649 72.6737C67.0484 72.2953 60.416 71.8264 53.6856 71.5418C52.4104 71.4621 51.4808 70.4483 51.4808 69.1697C51.3859 56.8624 51.3885 44.6407 51.294 32.3287C51.294 30.7218 52.6982 29.6325 54.2173 29.9467C67.3912 33.0744 80.6538 35.8256 93.9227 38.195H93.933C96.0133 38.5234 97.7818 36.8604 97.8898 34.8091C98.0792 31.9579 97.9878 30.7953 97.9878 27.9683C97.9878 27.4617 98.0136 26.7184 97.9775 25.9702C97.9414 25.222 97.8531 24.4716 97.5543 23.8737C97.2323 23.2301 96.7366 22.7251 96.0484 22.4957C95.538 22.2939 94.9043 22.1184 94.1783 21.8461L94.168 21.8358H94.1577C82.1218 17.6659 41.3145 4.03459 31.0184 0.162319L31.0217 0.165676Z" fill="#F3F3F3"/>
<path d="M115.146 26.8377C113.931 26.5947 112.685 27.497 112.685 28.8259C112.591 37.2625 112.216 71.1494 112.311 87.4493C112.311 88.649 113.299 89.5359 114.397 89.5359H176.437C177.57 89.5359 178.514 88.5823 178.514 87.4493V78.2659C178.514 77.1328 177.57 76.1793 176.437 76.1793C163.277 76.0845 150.21 75.8002 137.047 75.4214H137.027C136.332 75.4214 135.895 74.8963 135.895 74.2894V67.8424C135.895 67.1478 136.399 66.7105 137.125 66.7105C149.72 67.3733 170.552 68.4172 176.525 68.2262C177.658 68.2262 178.513 67.2376 178.513 66.1396V56.8581C178.513 55.1454 177.46 54.112 176.436 54.112C171.947 53.9213 147 53.1585 136.888 52.4978C136.259 52.4208 135.796 51.9675 135.796 51.3659V45.0174C135.796 44.3229 136.342 43.815 136.888 43.8757H136.899C150.068 45.0126 163.053 45.9608 176.23 46.4348H176.24C177.409 46.4348 178.425 45.5577 178.425 44.358V35.0765C178.425 33.9785 177.553 33.1084 176.486 32.9899H176.466C152.237 31.2863 140.313 29.9604 115.148 26.838L115.146 26.8377Z" fill="#F3F3F3"/>
<path d="M258.362 28.6387C250.982 29.7741 246.728 30.2433 239.248 31.0009H239.227C238.339 31.1278 237.593 31.8685 237.593 32.8021L237.495 59.1312C237.495 59.8995 236.649 60.2369 236.088 59.8006C225.192 51.0842 214.109 42.4685 203.124 33.7568L203.114 33.7465L203.094 33.7268C202.749 33.497 202.371 33.3725 201.981 33.3725H201.971L190.514 33.4612C189.52 33.4612 188.713 34.2679 188.713 35.2623V87.832C188.713 88.8264 189.52 89.6233 190.514 89.6233H210.219C211.214 89.6233 212.02 88.8265 212.02 87.832C212.115 79.4934 212.109 71.0681 212.109 62.7331C212.109 62.3489 212.324 62.0656 212.611 61.9261C212.898 61.7866 213.223 61.7919 213.507 62.0442L213.517 62.0545C224.492 70.9479 235.473 79.9331 246.254 89.2007C246.61 89.5577 247.055 89.6239 247.445 89.6239H258.242C259.234 89.6239 260.029 88.8331 260.033 87.8424V87.8321C260.128 84.4174 260.131 81.1006 260.131 77.6944C260.226 61.877 260.322 46.1526 260.417 30.4297C260.417 29.8807 260.194 29.38 259.817 29.0517C259.439 28.7235 258.922 28.578 258.379 28.6383L258.431 29.101L258.362 28.6387Z" fill="#F3F3F3"/>
<path d="M367.362 0.253179C344.752 8.86167 311.19 19.6321 304.016 22.3106C302.954 22.6647 302.274 23.7036 302.274 24.8402C302.178 32.6322 302.369 68.8008 302.274 86.7873C302.274 88.2857 303.522 89.5334 305.02 89.5334H368.288C369.787 89.5334 371.035 88.2857 371.035 86.7873V37.1506C371.035 35.4352 369.422 34.1739 367.727 34.5128H367.707C358.43 36.6898 349.156 38.6824 339.783 40.5759C338.724 40.799 337.964 41.5475 337.677 42.4362C337.39 43.3249 337.569 44.368 338.297 45.1528C341.986 49.1255 344.537 52.0494 348.799 56.974C349.123 57.382 349.252 57.7261 349.252 58.1846V68.5979C349.252 69.6106 348.615 70.3217 347.608 70.3991C340.509 70.967 333.407 71.4446 326.299 72.0133C325.238 72.0891 324.34 71.2675 324.34 70.2121L324.537 35.3889C324.621 34.5301 325.13 33.8698 325.984 33.6369C340.478 30.2264 354.782 26.4364 369.085 22.2689H369.095C370.234 21.9273 371.034 20.8738 371.034 19.6311V2.86927C371.034 0.961981 369.17 -0.426471 367.363 0.251112L367.362 0.253179Z" fill="#F3F3F3"/>
<path d="M282.825 71.542L268.898 73.0578C267.696 73.178 266.772 74.2203 266.772 75.42V87.1622C266.772 88.4624 267.834 89.5343 269.134 89.5343H283.102C284.376 89.4185 285.425 88.3936 285.425 87.1622V73.9042C285.425 72.5046 284.229 71.4259 282.836 71.542H282.825Z" fill="#F3F3F3"/>
<path d="M366.02 110.373H218.076C216.655 110.373 215.424 111.509 215.424 113.025V159.15C215.424 160.571 216.56 161.802 218.076 161.802H314.777C316.198 161.802 317.429 162.939 317.429 164.454V228.574C317.429 229.237 317.145 229.9 316.671 230.469L271.303 276.026C269.598 277.731 266.757 276.5 266.757 274.132V230.753C266.757 230.09 267.041 229.427 267.515 228.859L294.224 201.865C295.834 200.16 294.698 197.414 292.33 197.414H218.074C216.653 197.414 215.422 198.645 215.422 200.066V397.354C215.422 399.722 218.263 400.858 219.968 399.248L368.005 251.97C368.479 251.496 368.763 250.833 368.763 250.075V113.026C368.669 111.605 367.532 110.374 366.016 110.374" fill="#F3F3F3"/>
<path d="M33.2926 110.373H181.33C182.75 110.373 183.982 111.51 183.982 113.025V159.151C183.982 160.571 182.845 161.803 181.33 161.803H84.6287C83.208 161.803 81.9767 162.939 81.9767 164.455V228.575C81.9767 229.238 82.261 229.901 82.7344 230.469L128.102 276.026C129.807 277.731 132.649 276.5 132.649 274.132V230.753C132.649 230.09 132.364 229.427 131.891 228.859L105.182 201.865C103.572 200.16 104.708 197.414 107.076 197.414H181.332C182.753 197.414 183.984 198.645 183.984 200.066V397.354C183.984 399.722 181.143 400.859 179.438 399.248L31.4936 251.872C31.0198 251.398 30.7359 250.735 30.7359 249.978V113.021C30.6409 111.6 31.8725 110.369 33.2932 110.369" fill="#AA8B30"/>
</svg>
