<svg width="400" height="400" viewBox="0 0 400 400" fill="none" xmlns="http://www.w3.org/2000/svg">
<g clip-path="url(#clip0_6_5050)">
<path d="M396.754 29.0049H221.689C220.007 29.0049 218.55 30.3498 218.55 32.1431V86.7244C218.55 88.4056 219.895 89.8626 221.689 89.8626H336.117C337.798 89.8626 339.255 91.2075 339.255 93.0008V168.875C339.255 169.66 338.918 170.444 338.358 171.117L284.673 225.026C282.656 227.043 279.294 225.586 279.294 222.784V171.453C279.294 170.668 279.63 169.884 280.19 169.211L311.796 137.269C313.702 135.252 312.357 132.002 309.555 132.002H221.686C220.005 132.002 218.548 133.459 218.548 135.14V368.595C218.548 371.397 221.91 372.742 223.928 370.837L399.103 196.559C399.664 195.999 400 195.214 400 194.318V32.1443C399.888 30.4631 398.543 29.0061 396.749 29.0061" fill="black"/>
<path d="M3.03125 29.0049H178.206C179.888 29.0049 181.345 30.3498 181.345 32.1431V86.7244C181.345 88.4056 180 89.8626 178.206 89.8626H63.7782C62.0971 89.8626 60.6401 91.2075 60.6401 93.0008V168.875C60.6401 169.66 60.9766 170.444 61.5367 171.117L115.222 225.026C117.239 227.043 120.601 225.586 120.601 222.784V171.453C120.601 170.668 120.265 169.884 119.705 169.211L88.0993 137.269C86.1939 135.252 87.5386 132.002 90.3408 132.002H178.209C179.89 132.002 181.347 133.459 181.347 135.14V368.595C181.347 371.397 177.985 372.742 175.968 370.837L0.902493 196.443C0.341864 195.883 0.00585213 195.098 0.00585213 194.202V32.1382C-0.106518 30.457 1.35084 29 3.03199 29" fill="#AA8B30"/>
</g>
<defs>
<clipPath id="clip0_6_5050">
<rect width="400" height="400" fill="white"/>
</clipPath>
</defs>
</svg>
