<svg width="400" height="378" viewBox="0 0 400 378" fill="none" xmlns="http://www.w3.org/2000/svg">
<path d="M176.793 301.76C176.784 301.591 176.791 298.041 176.81 293.872C176.838 287.453 176.953 286.103 177.558 285.052C178.725 283.029 180.55 282.378 185.056 282.377C188.481 282.377 189.177 282.499 190.389 283.315C192.432 284.69 192.994 286.148 192.957 289.976C192.9 295.892 191.071 297.53 184.502 297.546L180.912 297.555V299.811V302.068H178.861C177.733 302.068 176.802 301.929 176.793 301.76ZM187.886 293.461C188.345 293.172 188.501 292.281 188.501 289.966C188.501 286.282 188.311 286.081 184.809 286.081C181.294 286.081 181.142 286.25 180.973 290.361L180.828 293.863L184.049 293.857C185.821 293.853 187.548 293.675 187.886 293.461ZM142.426 297.154C139.085 296.351 138.083 293.777 138.322 286.614C138.599 278.306 139.154 277.864 149.304 277.864H156.298V279.461C156.298 280.539 156.087 281.139 155.649 281.307C155.292 281.444 152.468 281.556 149.373 281.556C145.543 281.556 143.588 281.713 143.253 282.048C142.982 282.319 142.761 283.242 142.761 284.099V285.658H148.22C154.371 285.658 155.227 285.946 155 287.935L154.862 289.145L148.812 289.259L142.761 289.372L142.767 290.9C142.778 293.596 142.873 293.636 149.821 293.863L156.093 294.068V295.709V297.35L149.94 297.416C146.555 297.452 143.174 297.334 142.426 297.154ZM158.839 295.812L158.965 294.068L164.213 293.953C168.533 293.859 169.505 293.724 169.708 293.194C170.102 292.166 169.046 291.825 165.453 291.818C160.692 291.809 158.897 290.926 158.486 288.391C158.081 285.895 158.651 284.072 160.115 283.179C161.258 282.482 162.203 282.379 167.477 282.378L173.528 282.377V284.21V286.044L168.298 286.159C163.379 286.267 163.067 286.323 163.067 287.094C163.067 287.85 163.409 287.931 167.374 288.12C169.792 288.235 172.095 288.561 172.625 288.863C174.229 289.778 174.862 292.87 173.941 295.292C173.253 297.101 171.399 297.555 164.698 297.555H158.712L158.839 295.812ZM198.581 296.837C196.275 295.66 195.51 294.238 195.337 290.8C195.155 287.199 195.675 285.39 197.357 283.777C198.568 282.616 198.741 282.578 203.398 282.449C207.859 282.325 208.29 282.382 209.587 283.269C211.877 284.836 212.566 286.562 212.42 290.376C212.311 293.237 212.147 293.851 211.142 295.165C209.651 297.114 208.28 297.555 203.721 297.554C200.978 297.554 199.615 297.364 198.581 296.837ZM207.076 293.224C207.856 292.678 207.987 292.208 207.987 289.972C207.987 286.498 207.536 286.069 203.885 286.069C200.235 286.069 199.783 286.499 199.783 289.966C199.783 291.79 199.977 292.768 200.427 293.218C201.307 294.098 205.822 294.102 207.076 293.224V293.224ZM214.961 291.239V284.923L216.411 283.65C217.837 282.398 217.935 282.377 222.178 282.377H226.495L226.369 284.12L226.243 285.863L222.961 286.069L219.679 286.274L219.563 291.376C219.497 294.278 219.255 296.71 219 297.016C218.754 297.313 217.745 297.555 216.757 297.555H214.961V291.239ZM232.894 297.3C232.733 297.14 232.601 294.547 232.601 291.538V286.069H230.558C228.738 286.069 228.487 285.96 228.265 285.075C227.758 283.052 228.139 282.591 230.428 282.458L232.554 282.335L232.68 280.818L232.806 279.3H234.858H236.909L237.036 280.838L237.163 282.377H239.162C241.416 282.377 241.966 283.07 241.237 284.989C240.877 285.934 240.596 286.069 238.982 286.069H237.137L237.023 291.709L236.909 297.35L235.047 297.471C234.024 297.538 233.055 297.461 232.894 297.3ZM243.443 296.559C243.306 296.011 243.315 295.181 243.463 294.713C243.762 293.771 243.961 293.743 249.505 293.857C253.398 293.937 254.754 293.682 254.754 292.872C254.754 292.497 253.602 292.276 250.737 292.101C245.876 291.805 244.744 291.415 243.679 289.668C242.645 287.972 242.637 286.229 243.657 284.556C244.91 282.501 245.554 282.344 252.183 282.468L258.241 282.582L258.367 284.325L258.493 286.069H253.161C247.776 286.069 246.806 286.331 247.795 287.522C248.16 287.962 249.237 288.12 251.871 288.12C257.632 288.12 259.266 289.163 259.266 292.837C259.266 295.098 258.418 296.521 256.717 297.114C256.021 297.357 252.806 297.555 249.573 297.555H243.693L243.443 296.559ZM107.165 268.086C106.764 267.831 106.67 265.559 106.755 258.144L106.865 248.532H108.711H110.557L110.678 251.507L110.798 254.481H115.685H120.572L120.693 251.507L120.813 248.532L122.619 248.403C123.785 248.32 124.545 248.465 124.766 248.813C125.332 249.707 125.205 267.359 124.628 267.936C124.103 268.462 122.326 268.59 121.257 268.18C120.715 267.972 120.608 267.121 120.608 263.039V258.147L115.788 258.262L110.968 258.378L110.851 263.08C110.773 266.209 110.567 267.888 110.235 268.099C109.584 268.513 107.826 268.505 107.165 268.086V268.086ZM130.249 267.853C128.415 267.044 127.509 265.801 127.282 263.786C127.027 261.53 128.055 259.194 129.668 258.36C130.459 257.951 132.149 257.763 135.028 257.763C140.97 257.763 139.708 257 133.524 256.853L128.608 256.737V254.891V253.045H133.941C142.485 253.045 143.582 253.961 143.579 261.093C143.577 264.89 143.477 265.476 142.656 266.501C142.099 267.196 141.087 267.8 140.094 268.029C137.668 268.591 131.676 268.483 130.249 267.853ZM139.069 264.155C139.069 264.06 139.171 263.715 139.297 263.387C139.764 262.17 138.331 261.455 135.426 261.455C132.269 261.455 131.161 262.009 131.533 263.403C131.766 264.273 131.992 264.326 135.424 264.326C137.429 264.326 139.069 264.249 139.069 264.155ZM146.553 267.955C146.212 267.614 146.046 266.076 146.052 263.321C146.065 257.743 146.465 256.219 148.341 254.583C149.851 253.268 149.927 253.25 154.008 253.252C160.973 253.254 162.041 254.529 162.041 262.842V268.003L161.016 268.26C160.452 268.402 159.529 268.402 158.965 268.26C157.947 268.005 157.939 267.969 157.939 263.384C157.939 257.375 157.677 256.942 154.043 256.942C152.398 256.942 151.3 257.133 151.092 257.455C150.909 257.737 150.668 260.275 150.555 263.096L150.35 268.224L148.707 268.345C147.785 268.413 146.84 268.242 146.553 267.955ZM168.681 268.045C166.876 267.588 165.415 266.157 164.915 264.357C164.307 262.169 164.383 253.855 165.016 253.356C165.591 252.902 166.717 252.801 168.092 253.079C168.989 253.26 169.015 253.408 169.015 258.304C169.015 261.675 169.178 263.505 169.508 263.834C170.326 264.652 173.023 264.449 173.514 263.533C173.747 263.096 173.938 260.624 173.938 258.039C173.938 252.943 173.986 252.84 176.351 252.84C178.247 252.84 178.451 253.42 178.451 258.826C178.451 264.31 178.461 264.333 181.048 264.32C183.44 264.308 183.572 264.019 183.65 258.61C183.689 255.9 183.822 253.52 183.945 253.321C184.13 253.022 186.182 252.95 187.609 253.193C187.795 253.224 187.887 255.941 187.814 259.231L187.681 265.212L186.199 266.569C183.984 268.597 179.401 269.002 177.063 267.377C176.423 266.932 176.141 266.938 175.414 267.414C174.309 268.139 170.471 268.498 168.681 268.045ZM190.64 268.174C190.479 268.013 190.347 263.472 190.347 258.083V248.284L192.501 248.408L194.655 248.532L194.776 250.842L194.898 253.153L197.443 252.95C200.786 252.685 203.297 253.4 205 255.103L206.369 256.473L206.255 262.348L206.141 268.224H204.295H202.449L202.237 263.253C201.981 257.246 201.805 256.94 198.604 256.948C195.094 256.958 195.095 256.955 194.86 262.977L194.655 268.224L192.794 268.345C191.77 268.412 190.801 268.335 190.64 268.174ZM211.808 268.001C209.679 267.345 208.808 265.857 208.808 262.878C208.808 260.451 208.888 260.239 210.258 259.036C211.692 257.776 211.757 257.763 216.231 257.763C219.141 257.763 220.663 257.616 220.499 257.352C220.354 257.117 218.198 256.942 215.429 256.942C210.108 256.942 209.628 256.75 209.628 254.612C209.628 252.864 210.268 252.706 216.495 252.914C223.832 253.159 224.784 253.973 225.123 260.278C225.343 264.384 224.805 266.501 223.288 267.496C222.06 268.3 213.939 268.658 211.808 268.001ZM220.638 263.142C220.826 261.809 220.119 261.468 217.149 261.461C213.847 261.453 213.32 261.686 213.32 263.155V264.358L216.91 264.24C220.342 264.126 220.506 264.078 220.638 263.142ZM240.592 268.053C236.691 267.1 235.883 264.983 235.883 255.719C235.883 251.283 236.035 249.16 236.375 248.82C236.646 248.549 237.532 248.327 238.345 248.327C239.157 248.327 240.043 248.549 240.314 248.82C240.656 249.162 240.808 251.375 240.812 256.101C240.816 259.835 240.993 263.167 241.206 263.506C241.509 263.987 242.831 264.166 247.251 264.326L252.908 264.531V266.377V268.224L247.37 268.29C244.324 268.326 241.274 268.22 240.592 268.053ZM256.292 267.986C255.653 267.613 255.574 266.803 255.574 260.601C255.574 254.805 255.677 253.595 256.186 253.4C256.7 253.202 256.664 252.995 255.958 252.097C255.079 250.981 255.16 249.256 256.12 248.645C256.961 248.11 259.185 248.305 259.852 248.972C260.811 249.93 260.666 251.802 259.574 252.563C258.799 253.104 258.766 253.21 259.369 253.229C260.025 253.248 260.087 253.881 260.087 260.586C260.087 267.848 260.077 267.925 259.164 268.17C257.869 268.517 257.123 268.469 256.292 267.986ZM262.976 267.835C262.62 267.406 262.521 265.102 262.619 259.528C262.734 252.923 262.859 251.658 263.491 250.728C264.497 249.246 266.079 248.675 269.39 248.598L272.189 248.532V250.173V251.814L269.964 252.019C266.724 252.318 266.692 253.25 269.922 253.25H272.441L272.315 254.994L272.189 256.737L269.625 256.859L267.061 256.981V262.456C267.061 267.07 266.959 267.97 266.412 268.18C265.258 268.622 263.482 268.444 262.976 267.835ZM278.596 268.017C277.833 267.837 276.633 267.115 275.929 266.411C274.677 265.16 274.647 265.039 274.513 260.7C274.381 256.422 274.414 256.222 275.45 254.991C276.04 254.289 277.181 253.498 277.985 253.232C279.923 252.593 287.471 252.885 288.653 253.645C290.052 254.545 290.854 256.297 290.854 258.453C290.854 262.344 289.061 263.506 283.056 263.506C280.396 263.506 279 263.653 279.163 263.916C279.31 264.155 281.614 264.326 284.681 264.326C290.408 264.326 290.444 264.342 290.444 266.777C290.444 267.451 290.174 268.034 289.795 268.18C288.872 268.534 280.254 268.409 278.596 268.017ZM286.268 259.14C286.475 258.77 286.555 258.124 286.445 257.704C286.272 257.04 285.815 256.942 282.889 256.942C279.427 256.942 278.419 257.339 278.857 258.531C279.258 259.621 279.833 259.801 282.937 259.807C285.254 259.812 285.972 259.669 286.268 259.14ZM0 250.996C0 250.794 1.69246 248.127 3.76102 245.068C22.7401 217.006 43.9821 197.776 70.7649 184.412C86.5999 176.51 104.444 171.314 123.89 168.941C131.429 168.02 150.229 167.677 158.806 168.302C182.29 170.014 207.508 175.654 232.319 184.744C234.932 185.701 235.873 186.228 235.713 186.643C235.215 187.941 212.02 226.391 211.658 226.517C211.443 226.593 209.282 225.604 206.858 224.321C204.433 223.037 199.126 220.46 195.065 218.594C135.545 191.242 81.6031 190.499 38.3567 216.437C25.7274 224.011 11.644 236.328 3.48138 246.937C0.0627971 251.38 0 251.453 0 250.996ZM355.803 238.789C341.95 221.64 322.624 201.587 305.815 186.92C258.92 146.003 206.574 118.101 150.945 104.37C138.005 101.176 129.195 99.6695 110.352 97.4279C107.305 97.0653 107.297 97.0613 109.532 97.0089C115.667 96.8651 138.219 98.4862 148.914 99.8399C211.781 107.797 272.672 130.679 330.442 168.056C349.971 180.691 372.011 197.42 389.515 212.894C399.094 221.362 400.195 222.384 399.976 222.602C399.863 222.715 394.417 225.615 387.874 229.048C381.331 232.481 372.54 237.115 368.339 239.347C364.138 241.579 360.437 243.405 360.116 243.405C359.794 243.405 357.853 241.328 355.803 238.789ZM290.239 207.803C273.56 191.51 250.048 176.137 226.243 165.959C203.424 156.202 180.113 150.925 155.273 149.892C126.222 148.685 96.7831 153.814 66.8149 165.306C63.0631 166.745 59.8205 167.922 59.6093 167.922C59.3981 167.922 54.8749 162.891 49.5577 156.743C44.2406 150.595 36.4555 141.595 32.2576 136.744C28.0598 131.893 24.6226 127.727 24.6195 127.486C24.6082 126.602 43.2625 122.715 56.8325 120.774C73.1846 118.434 78.2507 118.095 96.6095 118.109C114.595 118.122 119.588 118.45 134.146 120.576C183.804 127.827 229.243 149.646 269.112 185.385C277.671 193.057 296.673 212.667 295.508 212.625C295.317 212.618 292.946 210.448 290.239 207.803Z" fill="#CECFD0"/>
<path d="M176.81 294.209C176.81 286.354 176.81 286.35 177.889 284.936C179.373 282.99 181.09 282.376 185.048 282.376C187.679 282.376 188.714 282.559 189.918 283.236C192.286 284.567 192.809 285.81 192.809 290.117C192.809 293.684 192.758 293.892 191.544 295.274C190.009 297.023 188.286 297.55 184.091 297.553L180.912 297.555V299.811V302.068H178.861H176.81V294.209ZM188.282 293.069C188.515 292.633 188.706 291.236 188.706 289.966C188.706 286.413 188.381 286.069 185.029 286.069C181.232 286.069 180.912 286.422 180.912 290.61V293.863H184.384C187.398 293.863 187.913 293.758 188.282 293.069ZM142.922 297.167C141.308 296.781 139.662 295.572 139.096 294.356C138.466 293.002 138.536 282.026 139.183 280.748C139.465 280.191 140.327 279.309 141.098 278.79C142.441 277.884 142.786 277.849 149.296 277.957L156.093 278.069V279.505V280.941L149.856 281.146C145.772 281.28 143.448 281.522 143.124 281.848C142.851 282.121 142.612 283.136 142.592 284.104L142.555 285.863L148.63 285.977L154.705 286.091L154.579 287.618L154.452 289.145L148.504 289.35L142.555 289.555L142.423 290.71C142.35 291.345 142.585 292.314 142.945 292.864C143.587 293.843 143.713 293.863 149.3 293.863C152.435 293.863 155.292 293.975 155.649 294.112C156.416 294.406 156.519 296.35 155.806 297.063C155.255 297.613 145.134 297.695 142.922 297.167ZM158.938 297.018C158.806 296.675 158.758 295.87 158.831 295.231L158.964 294.068L164.503 293.863C169.992 293.66 170.131 293.619 169.897 292.281C169.863 292.088 167.874 291.829 165.477 291.707C160.469 291.452 159.208 290.848 158.59 288.413C158.054 286.297 158.711 284.426 160.388 283.296C161.704 282.409 162.118 282.361 167.553 282.468L173.323 282.582V284.222V285.863L168.065 285.978C162.898 286.091 162.81 286.109 162.937 287.004C163.059 287.858 163.321 287.928 167.169 288.131C169.425 288.25 171.677 288.574 172.173 288.852C174.664 290.246 175.147 293.777 173.152 296.009L171.956 297.348L165.567 297.495C160.133 297.62 159.142 297.549 158.938 297.018ZM199.006 296.919C196.235 295.716 195.462 294.085 195.499 289.523C195.543 284.057 197.494 282.378 203.799 282.377C210.622 282.376 212.283 284.042 212.025 290.626C211.902 293.77 211.759 294.344 210.859 295.319C210.295 295.93 209.239 296.683 208.513 296.993C206.738 297.749 200.812 297.703 199.006 296.919ZM207.563 293.069C207.796 292.633 207.987 291.236 207.987 289.966C207.987 286.329 207.713 286.069 203.885 286.069C201.089 286.069 200.572 286.18 200.207 286.862C199.619 287.961 199.669 292.765 200.275 293.371C200.573 293.669 202.022 293.863 203.952 293.863C206.682 293.863 207.199 293.749 207.563 293.069ZM214.961 291.479C214.961 286.015 215.048 285.249 215.768 284.333C217.016 282.746 218.529 282.33 222.57 282.462C226.535 282.591 226.84 282.807 226.271 285.075C226.036 286.014 225.855 286.069 223.003 286.069C221.011 286.069 219.832 286.252 219.537 286.607C219.283 286.914 219.04 289.346 218.974 292.248L218.858 297.35L216.91 297.475L214.961 297.6V291.479ZM232.838 296.875C232.686 296.478 232.593 293.93 232.632 291.213L232.702 286.274L230.703 286.069L228.704 285.863L228.579 284.142L228.454 282.421L230.63 282.296C232.702 282.177 232.8 282.121 232.683 281.11C232.523 279.731 233.44 279.006 235.138 279.169C236.382 279.289 236.509 279.429 236.624 280.817L236.75 282.335L238.881 282.458L241.011 282.582V284.222V285.863L238.869 285.987L236.726 286.111L236.612 291.73L236.498 297.35L234.807 297.473C233.497 297.569 233.053 297.434 232.838 296.875ZM243.756 295.812L243.882 294.068L249.215 293.863C254.362 293.665 254.553 293.626 254.68 292.735C254.806 291.846 254.69 291.811 251.603 291.794C245.078 291.758 243.267 290.822 243.267 287.486C243.267 282.975 244.471 282.313 252.396 282.468L258.241 282.582V284.222V285.863L252.908 286.069C247.916 286.26 247.575 286.326 247.575 287.094C247.575 287.85 247.916 287.931 251.903 288.12C256.981 288.36 258.158 288.91 258.9 291.386C259.295 292.704 259.276 293.312 258.804 294.567C257.851 297.101 256.442 297.554 249.5 297.554L243.63 297.555L243.756 295.812ZM131.187 268.136C130.575 268.043 129.514 267.443 128.828 266.802C127.69 265.739 127.582 265.409 127.582 263.002C127.582 260.792 127.731 260.231 128.505 259.526C130.148 258.03 131.153 257.763 135.144 257.763C138.947 257.763 140.207 257.317 137.983 256.759C137.386 256.609 135.192 256.521 133.108 256.563C131.023 256.605 129.112 256.512 128.86 256.356C128.273 255.994 128.263 253.795 128.846 253.434C129.09 253.283 131.61 253.19 134.446 253.226C142.484 253.33 143.376 254.119 143.376 261.12C143.376 265.328 143.325 265.589 142.312 266.602C141.727 267.187 140.527 267.833 139.646 268.037C138.055 268.406 133.323 268.461 131.187 268.136H131.187ZM138.117 264.485C139.229 264.187 139.607 263.282 139.052 262.245C138.69 261.568 138.169 261.455 135.412 261.455C133.1 261.455 132.056 261.622 131.7 262.05C131.077 262.801 131.5 264.215 132.421 264.457C133.486 264.738 137.109 264.756 138.117 264.485V264.485ZM190.8 267.864C190.472 267.469 190.365 264.493 190.442 257.916L190.552 248.532H192.603H194.655L194.777 250.862L194.899 253.191H198.578C202.709 253.191 204.331 253.85 205.628 256.054C206.643 257.778 206.7 267.795 205.697 268.18C204.627 268.59 203.193 268.462 202.741 267.916C202.508 267.634 202.255 265.227 202.178 262.567C202.07 258.826 201.9 257.643 201.423 257.343C201.085 257.129 199.661 256.952 198.259 256.948C195.006 256.94 194.86 257.201 194.86 262.987C194.86 265.906 194.69 267.614 194.367 267.936C193.698 268.606 191.377 268.559 190.8 267.864ZM212.226 267.978C210.095 267.361 208.805 265.461 208.821 262.962C208.835 260.839 209.266 259.984 211.029 258.583C211.566 258.156 213.2 257.901 216.357 257.749C220.398 257.555 220.78 257.475 219.755 257.031C219.092 256.745 216.776 256.532 214.319 256.532H210.038V254.891V253.25H215.597C224.108 253.25 224.807 253.831 224.807 260.908C224.807 265.091 224.722 265.609 223.884 266.581C223.373 267.172 222.227 267.821 221.32 268.03C219.258 268.506 213.945 268.476 212.226 267.978ZM220.762 264.022C221.14 263.645 221.145 263.283 220.784 262.491C220.337 261.511 220.137 261.455 217.103 261.455C213.107 261.455 211.866 262.403 213.596 264.133C214.144 264.681 214.883 264.789 217.275 264.668C218.921 264.585 220.49 264.294 220.762 264.022ZM241.087 268.031C239.255 267.677 237.528 266.497 236.807 265.107C236.44 264.399 236.324 261.925 236.397 256.327L236.498 248.532H238.344H240.19L240.395 255.752C240.545 261.021 240.753 263.156 241.164 263.649C241.631 264.211 242.585 264.326 246.771 264.326C249.545 264.326 252.107 264.438 252.464 264.575C253.358 264.919 253.358 267.836 252.464 268.18C251.581 268.518 243.028 268.407 241.087 268.031ZM279.07 268.043C275.577 267.18 274.443 265.24 274.447 260.135C274.449 257.468 274.621 256.478 275.243 255.534C276.551 253.551 277.474 253.28 282.998 253.265L288.064 253.25L289.459 254.645C290.688 255.873 290.854 256.294 290.854 258.173C290.854 260.052 290.688 260.472 289.459 261.701L288.064 263.096H283.511C279.907 263.096 278.957 263.214 278.957 263.663C278.957 264.502 280.295 264.725 285.367 264.731L289.931 264.736L290.197 266.068C290.386 267.012 290.287 267.529 289.856 267.844C289.14 268.368 280.992 268.518 279.07 268.043V268.043ZM286.259 259.321C286.999 258.582 286.852 257.435 285.958 256.957C285.522 256.723 284.033 256.532 282.649 256.532C278.945 256.532 277.589 257.566 279.192 259.169C279.989 259.967 285.496 260.085 286.259 259.321ZM106.66 258.4V248.737H108.711H110.762V251.814V254.891H115.685H120.608V251.814V248.737H122.659H124.71V258.4V268.063L122.762 267.938L120.813 267.813L120.697 262.993L120.582 258.173H115.685H110.788L110.673 262.993L110.557 267.813L108.609 267.938L106.66 268.063V258.4ZM146.452 262.665C146.452 256.629 146.793 255.508 149.055 254.11C150.188 253.41 151.108 253.25 154.008 253.25C158.057 253.25 159.418 253.756 160.881 255.808C161.763 257.045 161.836 257.553 161.836 262.48V267.813L159.921 267.937L158.007 268.061L157.87 262.931C157.782 259.621 157.557 257.625 157.235 257.304C156.961 257.031 155.759 256.726 154.565 256.627C152.821 256.482 152.19 256.61 151.371 257.273C150.401 258.057 150.343 258.347 150.213 263.058L150.076 268.018H148.264H146.452V262.665ZM167.322 267.328C165.232 266.031 164.913 264.904 164.913 258.827V253.25H166.709H168.506L168.677 258.376C168.787 261.68 169.027 263.682 169.353 264.007C170.016 264.67 172.95 264.658 173.619 263.989C173.977 263.632 174.17 261.876 174.228 258.461L174.312 253.455L176.133 253.332L177.955 253.209L178.1 258.337C178.198 261.79 178.417 263.637 178.771 263.991C179.418 264.637 182.435 264.607 183.096 263.948C183.398 263.647 183.629 261.55 183.715 258.337L183.851 253.208L185.766 253.331L187.681 253.455L187.796 258.494C187.928 264.257 187.471 265.806 185.23 267.191C183.487 268.268 178.711 268.36 177.261 267.344C176.368 266.719 176.216 266.719 175.157 267.344C173.613 268.257 168.803 268.247 167.322 267.328ZM255.984 260.657C255.984 255.33 256.117 253.25 256.458 253.25C256.735 253.25 256.637 252.924 256.224 252.468C255.774 251.97 255.564 251.19 255.648 250.322C255.751 249.251 256.028 248.87 256.935 248.553C259.612 247.618 261.744 250.773 259.451 252.276C258.375 252.981 258.371 252.999 259.231 253.317C260.084 253.633 260.103 253.818 259.994 260.727L259.881 267.813L257.933 267.938L255.984 268.063V260.657ZM262.958 259.927C262.958 251.071 263.073 250.566 265.361 249.383C266.291 248.902 269.596 248.559 271.906 248.704C272.272 248.727 272.402 249.228 272.316 250.276C272.189 251.81 272.183 251.815 270.148 251.943C269.025 252.014 267.841 252.291 267.516 252.558C267.043 252.948 267.451 253.086 269.557 253.25C272.094 253.448 272.193 253.497 272.323 254.633C272.51 256.27 271.871 256.734 269.399 256.756L267.266 256.774L267.061 262.294L266.855 267.813L264.907 267.938L262.958 268.063V259.927V259.927ZM2.68388 247.097C2.87257 246.758 5.20257 243.435 7.86164 239.712C25.8229 214.566 48.1498 195.292 72.6107 183.818C90.5225 175.416 109.233 170.491 129.838 168.755C137.086 168.145 154.235 168.246 162.246 168.946C183.262 170.783 204.258 175.432 227.324 183.355C231.693 184.856 235.34 186.147 235.429 186.223C235.517 186.3 234.244 188.629 232.599 191.398C226.263 202.065 211.963 225.978 211.821 226.144C211.739 226.241 207.658 224.361 202.753 221.967C173.835 207.856 150.192 200.65 123.479 197.805C116.357 197.046 99.4731 197.166 92.3019 198.026C69.3221 200.783 50.015 207.904 31.7927 220.345C22.7296 226.532 12.4013 235.771 6.0812 243.345C2.61551 247.498 2.21158 247.944 2.68388 247.097ZM354.151 236.533C338.486 217.709 319.824 198.681 302.34 183.71C274.656 160.003 244.916 140.766 213.522 126.26C180.703 111.094 148.463 101.733 115.48 97.7929C110.232 97.1659 124.17 97.6524 133.103 98.408C206.431 104.611 278.45 131.599 344.184 177.508C361.841 189.84 382.659 206.51 397.391 220.115L399.936 222.465L397.392 223.861C393.655 225.913 360.212 243.404 360.027 243.404C359.94 243.404 357.296 240.312 354.151 236.533ZM288.803 206.223C263.755 182.928 231.854 165.222 199.122 156.448C155.871 144.855 112.098 147.787 66.3093 165.343C62.505 166.802 59.2586 167.84 59.095 167.651C58.9314 167.461 51.0854 158.383 41.6594 147.477C32.2115 136.546 24.68 127.493 24.8751 127.303C25.4121 126.78 41.0897 123.397 49.4327 122.004C67.1625 119.043 78.6023 118.097 96.6093 118.103C119.388 118.11 138.365 120.384 158.554 125.527C198.257 135.639 233.508 154.483 266.749 183.365C274.139 189.786 295.122 211.008 294.068 210.994C293.992 210.994 291.623 208.846 288.803 206.223Z" fill="#B8BABD"/>
<path d="M177.083 301.794C176.602 301.313 176.843 288.013 177.365 286.283C178.191 283.543 179.792 282.786 184.767 282.788C191.23 282.791 192.809 284.206 192.809 289.999C192.809 292.48 192.626 293.446 191.952 294.538C190.703 296.559 189.798 296.897 185.014 297.136L180.707 297.35L180.584 299.709L180.461 302.068H178.909C178.055 302.068 177.234 301.944 177.083 301.794ZM187.34 294.023C188.632 293.677 189.27 291.773 188.993 289.092C188.696 286.212 188.049 285.688 184.77 285.671C181.425 285.654 180.788 286.341 180.57 290.205C180.361 293.89 180.681 294.275 183.937 294.268C185.319 294.264 186.851 294.155 187.34 294.023ZM215.145 297.191C215.044 297.091 214.961 294.436 214.961 291.292V285.576L216.356 284.181L217.751 282.787H221.894H226.038V284.222V285.658H223.344C219.047 285.658 219.064 285.635 219.064 291.597C219.064 295.159 218.914 296.779 218.563 296.995C218.013 297.336 215.437 297.483 215.145 297.191ZM244.806 297.289C243.842 297.119 243.678 296.892 243.678 295.73C243.678 294.003 244.12 293.876 250.139 293.869L254.754 293.863V292.837C254.754 291.832 254.69 291.812 251.575 291.802C247.394 291.789 245.319 291.273 244.19 289.964C242.575 288.092 243.209 284.071 245.254 283.224C245.951 282.935 248.582 282.806 252.303 282.877L258.241 282.992V284.222V285.453L253.728 285.554C247.952 285.684 247.28 285.839 247.446 287.003C247.604 288.117 248.795 288.415 253.361 288.481C256.284 288.524 256.816 288.651 257.771 289.536C258.664 290.364 258.856 290.903 258.856 292.579C258.856 295.233 258.602 295.812 257.096 296.591C255.833 297.244 247.304 297.729 244.806 297.289ZM141.198 296.314C138.994 294.97 138.561 293.327 138.726 286.915C138.887 280.619 139.228 279.7 141.847 278.524C143.102 277.96 144.477 277.857 149.529 277.953L155.683 278.069V279.505V280.941L149.735 281.046C144.258 281.143 143.729 281.22 143.068 282.014C142.657 282.508 142.35 283.555 142.35 284.462V286.047L148.401 286.16L154.452 286.274L154.58 287.596L154.708 288.918L148.632 289.032L142.556 289.145L142.43 290.866C142.336 292.168 142.511 292.792 143.148 293.43C143.921 294.203 144.485 294.273 149.94 294.273H155.888V295.709V297.145L149.222 297.143C143.259 297.142 142.412 297.054 141.198 296.314V296.314ZM159.17 295.709V294.273L163.785 294.268C169.207 294.261 170.246 294.055 170.246 292.984C170.246 291.85 168.66 291.403 164.579 291.389C159.956 291.372 158.76 290.459 158.76 286.949C158.76 283.249 159.713 282.787 167.354 282.787H173.118V284.21V285.633L168.136 285.748C163.948 285.845 163.084 285.976 162.71 286.57C161.913 287.836 163.027 288.298 167.492 288.551C172.318 288.825 172.929 289.026 173.748 290.61C174.918 292.872 174.141 295.726 172.104 296.655C171.428 296.962 168.822 297.145 165.099 297.145H159.17V295.709ZM198.264 296.341C196.168 295.063 195.578 293.47 195.743 289.529C195.855 286.869 196.073 285.876 196.746 284.97C198.114 283.128 199.196 282.799 203.885 282.799C208.573 282.799 209.657 283.128 211.023 284.968C212.167 286.508 212.467 291.756 211.539 293.977C210.489 296.49 208.912 297.142 203.885 297.142C200.335 297.142 199.347 297.001 198.264 296.341ZM207.467 293.329C207.985 292.811 208.139 291.967 208.098 289.875C208.031 286.419 207.315 285.655 204.147 285.664C201.244 285.672 200.368 285.973 199.833 287.148C199.239 288.452 199.242 291.486 199.839 292.797C200.388 294.001 201.207 294.236 204.41 294.109C205.977 294.046 207.014 293.781 207.467 293.329ZM232.921 291.504L232.806 285.863L230.653 285.739L228.499 285.615V284.201C228.499 282.829 228.548 282.787 230.106 282.787C232.531 282.787 233.012 282.474 233.012 280.897C233.012 279.523 233.036 279.505 234.833 279.505C236.641 279.505 236.655 279.516 236.781 281.043C236.906 282.552 236.944 282.584 238.755 282.71C240.981 282.865 241.343 283.163 240.995 284.552C240.761 285.481 240.485 285.632 238.818 285.74L236.909 285.863L236.795 291.504L236.68 297.145H234.858H233.035L232.921 291.504ZM106.953 267.764C106.792 267.603 106.66 263.256 106.66 258.104V248.737H108.488H110.316L110.437 251.712L110.557 254.686H115.685H120.813L120.859 251.814L120.905 248.943L122.816 248.817L124.726 248.692L124.615 258.253L124.505 267.813L122.775 267.939L121.045 268.064L120.929 263.221L120.813 258.378H115.685H110.557L110.352 263.096L110.147 267.813L108.697 267.935C107.899 268.002 107.114 267.926 106.953 267.764ZM130.199 267.429C129.494 267.122 128.617 266.442 128.25 265.918C126.903 263.994 127.717 259.608 129.61 258.595C130.045 258.363 132.364 258.173 134.764 258.173C138.7 258.173 139.115 258.102 138.991 257.455C138.87 256.825 138.234 256.723 133.833 256.622L128.813 256.507V254.878V253.25H133.727C142.112 253.25 143.171 254.135 143.171 261.138C143.171 266.012 142.777 266.927 140.39 267.59C138.196 268.199 131.734 268.097 130.199 267.429ZM139.064 264.126C139.786 263.257 139.249 261.599 138.15 261.304C136.722 260.921 133.498 260.999 132.326 261.444C131.183 261.879 130.886 263.364 131.766 264.244C132.515 264.993 138.424 264.898 139.064 264.126ZM146.746 267.764C146.195 267.214 146.421 258.223 147.022 256.785C147.965 254.526 149.785 253.545 153.421 253.335C155.954 253.188 156.936 253.312 158.415 253.966C161.206 255.201 161.684 256.548 161.541 262.774L161.426 267.813H159.785H158.144L158.028 262.908C157.884 256.839 157.691 256.532 154.029 256.532C150.54 256.532 150.396 256.765 150.145 262.849L149.94 267.813L148.489 267.935C147.691 268.002 146.907 267.926 146.746 267.764ZM168.209 267.482C167.391 267.201 166.385 266.394 165.839 265.582C164.95 264.26 164.898 263.832 165.004 258.813L165.118 253.455L166.862 253.329L168.605 253.203V258.058C168.605 263.864 168.98 264.736 171.477 264.736C173.971 264.736 174.348 263.862 174.348 258.081V253.25H176.194H178.041V258.081C178.041 263.837 178.423 264.736 180.872 264.736C183.403 264.736 183.738 264.023 183.873 258.361L183.989 253.455L185.732 253.329L187.476 253.203L187.47 258.662C187.463 264.571 187.212 265.528 185.292 266.953C183.792 268.067 178.777 268.189 177.306 267.148C176.434 266.53 176.26 266.537 174.861 267.25C173.158 268.119 170.342 268.217 168.209 267.482H168.209ZM190.853 258.275L190.963 248.532H192.604H194.245L194.45 250.954L194.655 253.376L198.142 253.301C202.062 253.217 203.824 253.843 205.291 255.843C206.048 256.876 206.141 257.587 206.141 262.407L206.141 267.813L204.449 267.937L202.757 268.061L202.579 263.061C202.366 257.082 202.008 256.532 198.331 256.532C196.464 256.532 196.028 256.687 195.3 257.613C194.553 258.562 194.45 259.26 194.45 263.356V268.018H192.596H190.743L190.853 258.275ZM211.357 267.4C208.52 266.168 208.013 261.311 210.503 259.216C211.664 258.239 212.024 258.173 216.199 258.173C218.651 258.173 220.757 258.009 220.881 257.809C221.412 256.95 219.742 256.552 215.141 256.443L210.244 256.327V254.891V253.455L215.489 253.34C223.671 253.161 224.807 254.073 224.807 260.82C224.807 265.411 224.26 266.879 222.297 267.564C220.398 268.225 213.002 268.115 211.357 267.4ZM220.623 264.244C220.893 263.973 221.115 263.323 221.115 262.798C221.115 261.615 219.779 261.044 217.013 261.044C214.033 261.044 212.91 261.593 212.91 263.051C212.91 263.715 213.141 264.351 213.423 264.465C214.505 264.901 220.138 264.729 220.623 264.244ZM240.372 267.635C236.627 266.479 236.293 265.538 236.293 256.135V248.737H238.345H240.396V255.887C240.396 265.123 239.998 264.665 248.19 264.841L252.908 264.942V266.377V267.813L247.165 267.886C244.006 267.926 240.949 267.813 240.372 267.635ZM256.278 267.764C256.116 267.603 255.985 264.358 255.985 260.553C255.985 254.674 256.08 253.598 256.622 253.39C257.167 253.181 257.132 253.01 256.383 252.212C254.608 250.323 256.5 247.737 258.959 248.69C259.89 249.051 260.087 249.377 260.087 250.559C260.087 251.589 259.848 252.118 259.233 252.448C258.465 252.859 258.445 252.954 259.038 253.387C259.607 253.803 259.682 254.824 259.584 260.841L259.472 267.813L258.021 267.935C257.223 268.002 256.439 267.926 256.278 267.764ZM263.251 267.764C263.09 267.603 262.958 264.078 262.958 259.93C262.958 251.465 263.189 250.536 265.566 249.408C266.399 249.013 268.018 248.737 269.506 248.737H272.033L271.906 250.276C271.781 251.782 271.742 251.815 270.033 251.873C266.297 252 265.833 253.25 269.522 253.25H271.984V254.871V256.493L269.42 256.615L266.856 256.737L266.651 262.275L266.445 267.813L264.995 267.935C264.197 268.002 263.413 267.926 263.251 267.764ZM278.32 267.586C277.63 267.382 276.615 266.736 276.063 266.149C275.157 265.186 275.047 264.674 274.922 260.848C274.767 256.126 275.033 255.271 277.035 254.05C278.947 252.884 286.802 252.883 288.57 254.048C290.808 255.524 291.487 258.22 290.232 260.648C289.233 262.58 287.732 263.096 283.104 263.096C280.85 263.096 278.905 263.259 278.781 263.459C278.243 264.33 279.927 264.717 284.727 264.826L289.829 264.942V266.377V267.813L284.701 267.885C281.88 267.924 279.009 267.79 278.32 267.586ZM286.547 258.173V256.737L283.123 256.617C279.579 256.493 278.547 256.837 278.547 258.141C278.547 259.532 279.442 259.847 283.054 259.726L286.547 259.609V258.173ZM354.151 236.533C338.487 217.709 319.824 198.681 302.341 183.71C274.656 160.003 244.916 140.766 213.523 126.26C180.704 111.094 148.463 101.733 115.48 97.7929C110.233 97.1659 124.171 97.6524 133.103 98.408C206.432 104.611 278.45 131.599 344.184 177.508C361.842 189.84 382.659 206.51 397.391 220.115L399.936 222.465L397.392 223.861C393.655 225.913 360.212 243.404 360.027 243.404C359.94 243.404 357.296 240.312 354.151 236.533ZM288.188 205.394C279.666 197.29 265.805 186.995 253.134 179.359C225.191 162.518 193.313 152.182 162.247 149.889C154.924 149.348 139.262 149.342 132.095 149.876C110.324 151.5 86.5753 157.074 65.125 165.594L59.4849 167.835L42.9725 148.717C24.33 127.133 24.8512 127.755 25.1552 127.451C25.4786 127.128 32.7377 125.441 40.8181 123.811C54.1064 121.13 65.6662 119.6 79.7103 118.663C89.0834 118.037 113.107 118.394 121.839 119.288C163.254 123.528 202.269 137.563 236.909 160.681C252.966 171.397 266.804 182.871 281.669 197.794C288.535 204.687 292.547 209.002 292.017 208.925C291.941 208.914 290.218 207.325 288.188 205.394Z" fill="#F49456"/>
<path d="M177.083 301.794C176.602 301.313 176.843 288.013 177.365 286.283C178.191 283.543 179.792 282.786 184.767 282.788C191.23 282.791 192.809 284.206 192.809 290C192.809 292.48 192.626 293.446 191.952 294.538C190.703 296.559 189.798 296.898 185.014 297.136L180.707 297.35L180.584 299.709L180.461 302.068H178.909C178.055 302.068 177.234 301.945 177.083 301.794ZM187.34 294.023C188.632 293.677 189.27 291.773 188.993 289.092C188.696 286.213 188.049 285.688 184.77 285.671C181.424 285.654 180.788 286.341 180.57 290.205C180.361 293.89 180.681 294.275 183.937 294.268C185.319 294.264 186.851 294.155 187.34 294.023ZM215.145 297.191C215.044 297.091 214.961 294.436 214.961 291.292V285.576L216.356 284.181L217.751 282.787H221.894H226.038V284.223V285.658H223.344C219.047 285.658 219.064 285.635 219.064 291.597C219.064 295.159 218.914 296.779 218.563 296.995C218.013 297.336 215.437 297.483 215.145 297.191ZM244.806 297.289C243.842 297.119 243.678 296.892 243.678 295.73C243.678 294.003 244.12 293.876 250.139 293.869L254.754 293.863V292.837C254.754 291.832 254.69 291.812 251.575 291.802C247.394 291.789 245.319 291.273 244.19 289.964C242.575 288.092 243.209 284.071 245.254 283.224C245.951 282.935 248.582 282.806 252.303 282.877L258.241 282.992V284.223V285.453L253.728 285.554C247.952 285.684 247.28 285.839 247.446 287.003C247.604 288.117 248.795 288.415 253.361 288.481C256.284 288.524 256.816 288.651 257.771 289.536C258.664 290.364 258.856 290.903 258.856 292.579C258.856 295.233 258.602 295.812 257.096 296.591C255.833 297.244 247.304 297.729 244.806 297.289ZM141.198 296.314C138.994 294.97 138.561 293.327 138.726 286.915C138.887 280.619 139.228 279.7 141.847 278.524C143.102 277.96 144.477 277.858 149.529 277.953L155.683 278.069V279.505V280.941L149.735 281.046C144.258 281.143 143.729 281.22 143.068 282.014C142.657 282.508 142.35 283.555 142.35 284.462V286.047L148.401 286.16L154.452 286.274L154.58 287.596L154.708 288.918L148.632 289.032L142.555 289.145L142.43 290.866C142.336 292.168 142.511 292.792 143.148 293.43C143.921 294.203 144.485 294.273 149.94 294.273H155.888V295.709V297.145L149.222 297.143C143.259 297.142 142.412 297.054 141.198 296.314V296.314ZM159.17 295.709V294.273L163.785 294.268C169.207 294.261 170.246 294.055 170.246 292.984C170.246 291.85 168.66 291.403 164.579 291.389C159.956 291.372 158.76 290.459 158.76 286.95C158.76 283.249 159.713 282.787 167.354 282.787H173.118V284.21V285.633L168.136 285.748C163.948 285.845 163.084 285.976 162.71 286.57C161.913 287.836 163.027 288.298 167.492 288.551C172.318 288.825 172.929 289.026 173.748 290.61C174.918 292.872 174.141 295.726 172.104 296.655C171.428 296.962 168.822 297.145 165.099 297.145H159.17V295.709ZM198.264 296.341C196.168 295.063 195.578 293.47 195.743 289.529C195.855 286.869 196.073 285.876 196.746 284.97C198.114 283.128 199.196 282.799 203.885 282.799C208.573 282.799 209.657 283.128 211.023 284.968C212.167 286.508 212.467 291.756 211.539 293.977C210.489 296.49 208.912 297.142 203.885 297.142C200.335 297.142 199.347 297.001 198.264 296.341ZM207.467 293.329C207.985 292.811 208.139 291.967 208.098 289.875C208.031 286.419 207.315 285.655 204.147 285.664C201.244 285.672 200.368 285.973 199.833 287.148C199.239 288.452 199.242 291.486 199.839 292.797C200.388 294.001 201.207 294.236 204.41 294.109C205.977 294.046 207.014 293.781 207.467 293.329ZM232.921 291.504L232.806 285.863L230.653 285.739L228.499 285.615V284.201C228.499 282.829 228.548 282.787 230.106 282.787C232.531 282.787 233.012 282.474 233.012 280.897C233.012 279.523 233.036 279.505 234.833 279.505C236.641 279.505 236.655 279.516 236.781 281.043C236.906 282.552 236.944 282.584 238.755 282.71C240.981 282.865 241.343 283.163 240.995 284.553C240.761 285.481 240.485 285.632 238.818 285.74L236.909 285.863L236.795 291.504L236.68 297.145H234.858H233.035L232.921 291.504ZM106.953 267.764C106.792 267.603 106.66 263.256 106.66 258.104V248.737H108.488H110.316L110.437 251.712L110.557 254.686H115.685H120.813L120.859 251.814L120.905 248.943L122.816 248.817L124.726 248.692L124.615 258.253L124.505 267.813L122.775 267.939L121.045 268.064L120.929 263.221L120.813 258.378H115.685H110.557L110.352 263.096L110.147 267.813L108.697 267.935C107.899 268.002 107.114 267.926 106.953 267.764ZM130.199 267.429C129.494 267.122 128.617 266.442 128.25 265.918C126.903 263.994 127.717 259.608 129.61 258.595C130.045 258.363 132.364 258.173 134.764 258.173C138.7 258.173 139.115 258.102 138.991 257.455C138.87 256.826 138.234 256.723 133.833 256.622L128.813 256.507V254.878V253.25H133.727C142.112 253.25 143.171 254.135 143.171 261.138C143.171 266.012 142.777 266.927 140.39 267.59C138.196 268.199 131.734 268.097 130.199 267.429ZM139.064 264.126C139.786 263.257 139.249 261.599 138.15 261.304C136.722 260.921 133.498 260.999 132.326 261.445C131.183 261.879 130.886 263.364 131.766 264.244C132.515 264.993 138.424 264.898 139.064 264.126ZM146.746 267.764C146.195 267.214 146.421 258.223 147.022 256.785C147.965 254.526 149.785 253.545 153.421 253.335C155.954 253.188 156.936 253.312 158.415 253.966C161.206 255.201 161.684 256.548 161.541 262.774L161.426 267.813H159.785H158.144L158.028 262.908C157.884 256.839 157.691 256.532 154.029 256.532C150.54 256.532 150.396 256.765 150.145 262.849L149.94 267.813L148.489 267.935C147.691 268.002 146.907 267.926 146.746 267.764ZM168.209 267.482C167.391 267.201 166.385 266.394 165.839 265.582C164.95 264.26 164.898 263.832 165.004 258.813L165.118 253.455L166.862 253.329L168.605 253.203V258.058C168.605 263.864 168.98 264.736 171.477 264.736C173.971 264.736 174.348 263.862 174.348 258.082V253.25H176.194H178.041V258.082C178.041 263.837 178.423 264.736 180.872 264.736C183.403 264.736 183.738 264.023 183.873 258.361L183.989 253.455L185.732 253.329L187.476 253.203L187.47 258.662C187.463 264.571 187.212 265.528 185.292 266.953C183.792 268.067 178.777 268.189 177.306 267.148C176.434 266.53 176.26 266.537 174.861 267.25C173.158 268.119 170.342 268.217 168.209 267.482ZM190.853 258.275L190.963 248.532H192.604H194.245L194.45 250.954L194.655 253.376L198.142 253.301C202.062 253.217 203.824 253.843 205.291 255.843C206.048 256.876 206.14 257.587 206.141 262.407L206.141 267.813L204.449 267.937L202.757 268.061L202.579 263.061C202.366 257.082 202.008 256.532 198.331 256.532C196.464 256.532 196.028 256.687 195.3 257.613C194.553 258.562 194.45 259.26 194.45 263.356V268.018H192.596H190.743L190.853 258.275ZM211.356 267.4C208.52 266.168 208.013 261.311 210.503 259.216C211.664 258.239 212.024 258.173 216.199 258.173C218.651 258.173 220.757 258.009 220.881 257.809C221.412 256.95 219.742 256.552 215.141 256.443L210.244 256.327V254.891V253.455L215.489 253.34C223.671 253.161 224.807 254.073 224.807 260.82C224.807 265.411 224.26 266.879 222.297 267.564C220.398 268.225 213.002 268.115 211.356 267.4ZM220.623 264.244C220.893 263.973 221.115 263.323 221.115 262.798C221.115 261.615 219.779 261.044 217.013 261.044C214.033 261.044 212.91 261.593 212.91 263.051C212.91 263.715 213.141 264.351 213.423 264.465C214.505 264.901 220.138 264.729 220.623 264.244ZM240.372 267.635C236.627 266.479 236.293 265.538 236.293 256.135V248.737H238.345H240.396V255.887C240.396 265.123 239.998 264.666 248.19 264.841L252.908 264.942V266.377V267.813L247.165 267.886C244.006 267.926 240.949 267.813 240.372 267.635ZM256.278 267.764C256.116 267.603 255.985 264.358 255.985 260.553C255.985 254.674 256.08 253.598 256.622 253.39C257.167 253.181 257.132 253.01 256.383 252.212C254.608 250.323 256.5 247.737 258.959 248.69C259.89 249.051 260.087 249.377 260.087 250.559C260.087 251.59 259.848 252.119 259.232 252.448C258.465 252.859 258.445 252.954 259.038 253.387C259.607 253.803 259.682 254.824 259.584 260.841L259.471 267.813L258.021 267.935C257.223 268.002 256.439 267.926 256.278 267.764ZM263.251 267.764C263.09 267.603 262.958 264.078 262.958 259.93C262.958 251.465 263.189 250.536 265.566 249.408C266.399 249.013 268.018 248.737 269.506 248.737H272.033L271.906 250.276C271.781 251.782 271.741 251.815 270.033 251.873C266.297 252 265.832 253.25 269.522 253.25H271.984V254.871V256.493L269.42 256.615L266.856 256.737L266.651 262.275L266.445 267.813L264.995 267.935C264.197 268.002 263.413 267.926 263.251 267.764ZM278.32 267.586C277.63 267.382 276.615 266.736 276.063 266.149C275.157 265.186 275.047 264.674 274.922 260.848C274.767 256.126 275.033 255.271 277.035 254.05C278.947 252.884 286.802 252.883 288.57 254.048C290.808 255.524 291.487 258.22 290.232 260.648C289.233 262.58 287.732 263.096 283.104 263.096C280.85 263.096 278.905 263.259 278.781 263.459C278.243 264.33 279.927 264.717 284.727 264.826L289.829 264.942V266.377V267.813L284.701 267.885C281.88 267.924 279.009 267.79 278.32 267.586ZM286.547 258.173V256.737L283.123 256.617C279.579 256.493 278.547 256.837 278.547 258.141C278.547 259.532 279.442 259.847 283.054 259.726L286.547 259.609V258.173ZM353.943 235.945C305.849 178.22 248.138 136.862 183.147 113.545C164.52 106.861 143.407 101.508 125.121 98.8318C122.752 98.485 120.259 98.1174 119.583 98.0149C116.344 97.5241 130.397 98.3145 137.633 99.03C199.169 105.115 259.324 125.476 315.468 159.223C343.921 176.325 374.075 198.839 397.196 220.246L399.55 222.425L394.122 225.272C391.137 226.838 382.51 231.364 374.952 235.33C367.393 239.296 360.906 242.655 360.535 242.794C360.03 242.984 358.375 241.264 353.943 235.945ZM288.188 205.394C279.666 197.29 265.805 186.995 253.134 179.359C225.191 162.518 193.313 152.182 162.247 149.889C154.924 149.348 139.262 149.342 132.095 149.877C110.324 151.5 86.5753 157.074 65.125 165.594L59.4849 167.835L42.9725 148.717C24.33 127.133 24.8512 127.755 25.1552 127.451C25.4786 127.128 32.7377 125.441 40.8181 123.811C54.1064 121.13 65.6662 119.6 79.7103 118.663C89.0834 118.037 113.107 118.394 121.839 119.288C163.254 123.528 202.269 137.563 236.909 160.681C252.966 171.397 266.804 182.871 281.669 197.794C288.535 204.687 292.547 209.002 292.017 208.925C291.941 208.914 290.218 207.325 288.188 205.394ZM115.177 97.4821C115.688 97.384 116.426 97.3877 116.818 97.4904C117.21 97.5931 116.793 97.6734 115.89 97.6688C114.988 97.6643 114.667 97.5802 115.177 97.4821Z" fill="#F27220"/>
<path d="M177.083 301.794C176.602 301.313 176.843 288.013 177.365 286.283C178.191 283.543 179.792 282.786 184.767 282.788C191.23 282.791 192.809 284.206 192.809 290C192.809 292.48 192.626 293.446 191.952 294.538C190.703 296.559 189.798 296.898 185.014 297.136L180.707 297.35L180.584 299.709L180.461 302.068H178.909C178.055 302.068 177.234 301.945 177.083 301.794ZM187.34 294.023C188.632 293.677 189.27 291.773 188.993 289.092C188.696 286.213 188.049 285.689 184.77 285.671C181.424 285.654 180.788 286.341 180.57 290.205C180.361 293.89 180.681 294.275 183.937 294.268C185.319 294.264 186.851 294.155 187.34 294.023ZM215.145 297.191C215.044 297.091 214.961 294.436 214.961 291.292V285.576L216.356 284.182L217.751 282.787H221.894H226.038V284.223V285.658H223.344C219.047 285.658 219.064 285.635 219.064 291.597C219.064 295.159 218.914 296.779 218.563 296.996C218.013 297.336 215.437 297.483 215.145 297.191ZM244.806 297.289C243.842 297.119 243.678 296.892 243.678 295.73C243.678 294.003 244.12 293.876 250.139 293.869L254.754 293.863V292.837C254.754 291.833 254.69 291.812 251.575 291.802C247.394 291.789 245.319 291.273 244.19 289.964C242.575 288.092 243.209 284.071 245.254 283.224C245.951 282.935 248.582 282.806 252.303 282.877L258.241 282.992V284.223V285.453L253.728 285.554C247.952 285.684 247.28 285.839 247.446 287.003C247.604 288.117 248.795 288.415 253.361 288.481C256.284 288.524 256.816 288.651 257.771 289.536C258.664 290.364 258.856 290.903 258.856 292.579C258.856 295.233 258.602 295.812 257.096 296.591C255.833 297.244 247.304 297.729 244.806 297.289ZM141.198 296.314C138.994 294.97 138.561 293.327 138.726 286.915C138.887 280.619 139.228 279.7 141.847 278.524C143.102 277.96 144.477 277.858 149.529 277.953L155.683 278.069V279.505V280.941L149.735 281.046C144.258 281.143 143.729 281.22 143.068 282.014C142.657 282.508 142.35 283.555 142.35 284.462V286.047L148.401 286.16L154.452 286.274L154.58 287.596L154.708 288.918L148.632 289.032L142.555 289.145L142.43 290.866C142.336 292.168 142.511 292.793 143.148 293.43C143.921 294.203 144.485 294.273 149.94 294.273H155.888V295.709V297.145L149.222 297.143C143.259 297.142 142.412 297.054 141.198 296.314V296.314ZM159.17 295.709V294.273L163.785 294.268C169.207 294.261 170.246 294.055 170.246 292.985C170.246 291.85 168.66 291.404 164.579 291.389C159.956 291.372 158.76 290.459 158.76 286.95C158.76 283.249 159.713 282.787 167.354 282.787H173.118V284.21V285.633L168.136 285.748C163.948 285.845 163.084 285.976 162.71 286.57C161.913 287.836 163.027 288.298 167.492 288.551C172.318 288.825 172.929 289.026 173.748 290.61C174.918 292.872 174.141 295.726 172.104 296.655C171.428 296.962 168.822 297.145 165.099 297.145H159.17V295.709ZM198.264 296.341C196.168 295.063 195.578 293.47 195.743 289.529C195.855 286.869 196.073 285.876 196.746 284.97C198.114 283.128 199.196 282.799 203.885 282.799C208.573 282.799 209.657 283.128 211.023 284.968C212.167 286.508 212.467 291.756 211.539 293.977C210.489 296.49 208.912 297.142 203.885 297.142C200.335 297.142 199.347 297.001 198.264 296.341ZM207.467 293.329C207.985 292.811 208.139 291.967 208.098 289.875C208.031 286.419 207.315 285.656 204.147 285.664C201.244 285.672 200.368 285.973 199.833 287.148C199.239 288.453 199.242 291.486 199.839 292.797C200.388 294.001 201.207 294.237 204.41 294.109C205.977 294.046 207.014 293.782 207.467 293.329ZM232.921 291.504L232.806 285.863L230.653 285.739L228.499 285.615V284.201C228.499 282.829 228.548 282.787 230.106 282.787C232.531 282.787 233.012 282.474 233.012 280.897C233.012 279.523 233.036 279.505 234.833 279.505C236.641 279.505 236.655 279.516 236.781 281.043C236.906 282.552 236.944 282.584 238.755 282.71C240.981 282.865 241.343 283.163 240.995 284.553C240.761 285.482 240.485 285.632 238.818 285.74L236.909 285.863L236.795 291.504L236.68 297.145H234.858H233.035L232.921 291.504ZM106.953 267.764C106.792 267.603 106.66 263.256 106.66 258.104V248.738H108.488H110.316L110.437 251.712L110.557 254.686H115.685H120.813L120.859 251.814L120.905 248.943L122.816 248.817L124.726 248.692L124.615 258.253L124.505 267.813L122.775 267.939L121.045 268.064L120.929 263.221L120.813 258.378H115.685H110.557L110.352 263.096L110.147 267.813L108.697 267.935C107.899 268.003 107.114 267.926 106.953 267.764ZM130.199 267.429C129.494 267.122 128.617 266.442 128.25 265.918C126.903 263.994 127.717 259.608 129.61 258.595C130.045 258.363 132.364 258.173 134.764 258.173C138.7 258.173 139.115 258.102 138.991 257.455C138.87 256.826 138.234 256.723 133.833 256.622L128.813 256.507V254.878V253.25H133.727C142.112 253.25 143.171 254.135 143.171 261.138C143.171 266.012 142.777 266.927 140.39 267.59C138.196 268.199 131.734 268.097 130.199 267.429ZM139.064 264.127C139.786 263.257 139.249 261.599 138.15 261.304C136.722 260.921 133.498 260.999 132.326 261.445C131.183 261.879 130.886 263.364 131.766 264.244C132.515 264.993 138.424 264.898 139.064 264.127ZM146.746 267.764C146.195 267.214 146.421 258.223 147.022 256.785C147.965 254.526 149.785 253.545 153.421 253.335C155.954 253.188 156.936 253.312 158.415 253.966C161.206 255.201 161.684 256.548 161.541 262.774L161.426 267.813H159.785H158.144L158.028 262.908C157.884 256.839 157.691 256.532 154.029 256.532C150.54 256.532 150.396 256.765 150.145 262.849L149.94 267.813L148.489 267.935C147.691 268.003 146.907 267.926 146.746 267.764ZM168.209 267.482C167.391 267.201 166.385 266.394 165.839 265.582C164.95 264.26 164.898 263.832 165.004 258.813L165.118 253.455L166.862 253.329L168.605 253.203V258.058C168.605 263.864 168.98 264.737 171.477 264.737C173.971 264.737 174.348 263.862 174.348 258.082V253.25H176.194H178.041V258.082C178.041 263.837 178.423 264.737 180.872 264.737C183.403 264.737 183.738 264.023 183.873 258.361L183.989 253.455L185.732 253.329L187.476 253.203L187.47 258.662C187.463 264.571 187.212 265.528 185.292 266.953C183.792 268.067 178.777 268.189 177.306 267.148C176.434 266.53 176.26 266.537 174.861 267.25C173.158 268.119 170.342 268.217 168.209 267.482ZM190.853 258.275L190.963 248.532H192.604H194.245L194.45 250.954L194.655 253.376L198.142 253.301C202.062 253.217 203.824 253.843 205.291 255.843C206.048 256.876 206.14 257.587 206.141 262.407L206.141 267.813L204.449 267.937L202.757 268.061L202.579 263.061C202.366 257.082 202.008 256.532 198.331 256.532C196.464 256.532 196.028 256.687 195.3 257.613C194.553 258.562 194.45 259.26 194.45 263.356V268.018H192.596H190.743L190.853 258.275ZM211.356 267.4C208.52 266.168 208.013 261.311 210.503 259.216C211.664 258.239 212.024 258.173 216.199 258.173C218.651 258.173 220.757 258.009 220.881 257.809C221.412 256.95 219.742 256.552 215.141 256.443L210.244 256.327V254.891V253.455L215.489 253.34C223.671 253.161 224.807 254.073 224.807 260.82C224.807 265.411 224.26 266.879 222.297 267.564C220.398 268.226 213.002 268.115 211.356 267.4ZM220.623 264.244C220.893 263.974 221.115 263.323 221.115 262.798C221.115 261.616 219.779 261.044 217.013 261.044C214.033 261.044 212.91 261.593 212.91 263.051C212.91 263.715 213.141 264.351 213.423 264.465C214.505 264.901 220.138 264.729 220.623 264.244ZM240.372 267.635C236.627 266.479 236.293 265.538 236.293 256.135V248.738H238.345H240.396V255.887C240.396 265.123 239.998 264.666 248.19 264.841L252.908 264.942V266.377V267.813L247.165 267.886C244.006 267.926 240.949 267.813 240.372 267.635ZM256.278 267.764C256.116 267.603 255.985 264.358 255.985 260.553C255.985 254.674 256.08 253.598 256.622 253.39C257.167 253.181 257.132 253.01 256.383 252.212C254.608 250.323 256.5 247.737 258.959 248.69C259.89 249.051 260.087 249.377 260.087 250.559C260.087 251.59 259.848 252.119 259.232 252.448C258.465 252.859 258.445 252.954 259.038 253.387C259.607 253.804 259.682 254.824 259.584 260.841L259.471 267.813L258.021 267.935C257.223 268.003 256.439 267.926 256.278 267.764ZM263.251 267.764C263.09 267.603 262.958 264.078 262.958 259.93C262.958 251.465 263.189 250.537 265.566 249.408C266.399 249.013 268.018 248.738 269.506 248.738H272.033L271.906 250.276C271.781 251.782 271.741 251.816 270.033 251.874C266.297 252 265.832 253.25 269.522 253.25H271.984V254.871V256.493L269.42 256.615L266.856 256.737L266.651 262.275L266.445 267.813L264.995 267.935C264.197 268.003 263.413 267.926 263.251 267.764ZM278.32 267.586C277.63 267.382 276.615 266.736 276.063 266.149C275.157 265.186 275.047 264.674 274.922 260.848C274.767 256.126 275.033 255.271 277.035 254.05C278.947 252.884 286.802 252.883 288.57 254.048C290.808 255.524 291.487 258.22 290.232 260.648C289.233 262.58 287.732 263.096 283.104 263.096C280.85 263.096 278.905 263.259 278.781 263.459C278.243 264.33 279.927 264.717 284.727 264.826L289.829 264.942V266.377V267.813L284.701 267.885C281.88 267.924 279.009 267.79 278.32 267.586ZM286.547 258.173V256.737L283.123 256.617C279.579 256.493 278.547 256.837 278.547 258.141C278.547 259.532 279.442 259.847 283.054 259.726L286.547 259.609V258.173ZM288.188 205.394C279.666 197.29 265.805 186.995 253.134 179.359C225.191 162.518 193.313 152.182 162.247 149.889C154.924 149.348 139.262 149.342 132.095 149.877C110.324 151.5 86.5753 157.074 65.125 165.594L59.4849 167.835L42.9725 148.717C24.33 127.133 24.8512 127.755 25.1552 127.451C25.4786 127.128 32.7377 125.441 40.8181 123.811C54.1064 121.13 65.6662 119.6 79.7103 118.663C89.0834 118.037 113.107 118.394 121.839 119.288C163.254 123.528 202.269 137.563 236.909 160.681C252.966 171.397 266.804 182.871 281.669 197.794C288.535 204.687 292.547 209.003 292.017 208.925C291.941 208.914 290.218 207.325 288.188 205.394Z" fill="#585858"/>
<path d="M177.22 294.062V286.057L178.625 284.524L180.029 282.992H184.81H189.59L190.995 284.524C192.386 286.043 192.399 286.092 192.399 289.928C192.399 293.485 192.313 293.902 191.347 295.05C190.025 296.622 188.178 297.14 183.887 297.143L180.502 297.145V299.606V302.068H178.861H177.22V294.062ZM188.478 293.361C188.886 292.78 189.117 291.55 189.117 289.966C189.117 286.26 188.541 285.658 184.991 285.658C181.021 285.658 180.502 286.219 180.502 290.513C180.502 292.28 180.625 293.849 180.776 294C180.926 294.15 182.577 294.273 184.444 294.273C187.488 294.273 187.906 294.179 188.478 293.361ZM142.837 296.744C139.479 295.936 138.486 293.446 138.741 286.479C138.931 281.301 139.278 280.276 141.249 279.074C142.401 278.372 143.345 278.277 149.222 278.276L155.888 278.274V279.467V280.66L149.755 280.8C145.795 280.891 143.451 281.111 143.142 281.42C142.466 282.097 141.994 285.035 142.434 285.821C142.744 286.375 143.702 286.479 148.524 286.479H154.247V287.709V288.94H148.333C144.13 288.94 142.372 289.081 142.256 289.428C142.038 290.082 142.554 293.382 142.934 293.764C143.1 293.931 146.037 294.16 149.46 294.273L155.683 294.478V295.709V296.94L149.94 297.006C146.781 297.042 143.585 296.924 142.837 296.744ZM159.17 295.758V294.297L164.606 294.183L170.041 294.068L170.17 292.954C170.326 291.597 169.916 291.476 164.617 291.313C161.314 291.211 160.714 291.078 159.899 290.262C158.56 288.922 158.559 285.267 159.898 283.926C160.772 283.051 161.219 282.983 166.975 282.86L173.118 282.728V284.181V285.634L167.887 285.749L162.657 285.863L162.529 286.977C162.372 288.336 162.78 288.456 168.128 288.619C171.75 288.729 172.013 288.798 172.949 289.886C174.318 291.478 174.318 294.196 172.949 295.789L171.959 296.94L165.565 297.079L159.17 297.218V295.758ZM198.992 296.426C196.747 295.282 195.934 293.824 195.753 290.622C195.629 288.432 195.78 287.399 196.441 285.904C197.56 283.373 198.967 282.787 203.913 282.787C210.331 282.787 211.869 284.186 211.879 290.038C211.884 292.79 211.732 293.6 211.035 294.551C209.616 296.486 207.802 297.144 203.885 297.144C201.375 297.144 200.004 296.943 198.992 296.426ZM207.577 293.453C208.23 292.801 208.398 292.085 208.398 289.966C208.398 286.234 207.77 285.658 203.703 285.658C199.888 285.658 199.373 286.19 199.373 290.127C199.373 293.808 199.864 294.273 203.744 294.273C206.21 294.273 206.906 294.124 207.577 293.453ZM215.232 296.837C215.128 296.668 215.022 294.314 214.996 291.607C214.923 283.87 215.8 282.803 222.243 282.793L226.038 282.787V284.223V285.658H223.025C218.775 285.658 218.654 285.839 218.654 292.152V297.145H217.037C216.148 297.145 215.335 297.006 215.232 296.837ZM233.305 296.891C233.144 296.73 233.012 294.136 233.012 291.128V285.658H230.961H228.909V284.223V282.787H230.961H233.012V281.122V279.458L234.755 279.584C236.448 279.706 236.502 279.755 236.626 281.248L236.753 282.787H238.806H240.858L240.73 284.12C240.606 285.397 240.519 285.458 238.664 285.578L236.727 285.702L236.613 291.321L236.499 296.94L235.048 297.062C234.25 297.129 233.466 297.052 233.305 296.891ZM243.835 296.553C243.71 296.228 243.672 295.628 243.75 295.22C243.876 294.563 244.498 294.455 249.177 294.273C253.515 294.105 254.539 293.946 254.892 293.385C255.203 292.889 255.173 292.522 254.783 292.051C254.36 291.543 253.404 291.402 250.376 291.402C246.358 291.402 244.434 290.845 243.933 289.537C243.792 289.172 243.678 288.073 243.678 287.094C243.678 283.23 244.563 282.787 252.272 282.787H258.036V284.223V285.658H252.958C247.4 285.658 246.455 286 247.356 287.683C247.765 288.448 248.189 288.53 251.712 288.53C257.239 288.53 258.856 289.505 258.856 292.837C258.856 296.455 257.412 297.145 249.839 297.145C245.187 297.145 244.018 297.03 243.835 296.553ZM130.454 267.482C127.368 266.43 126.655 261.422 129.277 259.216C130.441 258.237 130.794 258.173 135.028 258.173C139.103 258.173 139.526 258.103 139.402 257.455C139.282 256.83 138.599 256.71 134.141 256.532L129.018 256.327V254.891V253.455L134.351 253.461C140.233 253.467 141.076 253.717 142.371 255.84C143.014 256.895 143.168 257.91 143.169 261.092C143.171 265.655 142.574 266.869 139.973 267.592C137.938 268.157 132.24 268.091 130.454 267.482V267.482ZM138.371 264.768C139.699 264.263 140.049 263.196 139.274 262.012C138.697 261.133 138.349 261.044 135.449 261.044C131.937 261.044 131.274 261.385 131.274 263.191C131.274 264.012 131.545 264.461 132.197 264.724C133.423 265.216 137.122 265.243 138.371 264.768ZM179.477 267.615C178.574 267.473 177.446 267.108 176.969 266.804C176.228 266.331 175.964 266.349 175.135 266.93C174.45 267.41 173.294 267.608 171.187 267.608C168.516 267.608 168.078 267.492 166.949 266.48C165.365 265.06 164.936 263.245 164.923 257.908L164.913 253.746L166.576 253.588C167.49 253.501 168.32 253.512 168.422 253.613C168.523 253.714 168.605 256.051 168.605 258.806C168.605 264.503 168.809 264.923 171.569 264.923C174.046 264.923 174.349 264.224 174.349 258.505V253.66H176.154H177.959L178.014 258.685C178.078 264.459 178.312 264.953 180.956 264.884C183.665 264.813 183.967 264.211 184.135 258.568L184.281 253.66H185.878H187.476V258.624C187.476 264.145 187.012 265.761 185.111 266.852C183.7 267.662 181.594 267.947 179.477 267.615ZM191.051 267.764C190.89 267.603 190.758 263.256 190.758 258.104V248.737H192.604H194.45V251.117V253.496L198.245 253.476C201.128 253.46 202.358 253.629 203.366 254.18C205.604 255.403 205.976 256.664 205.846 262.586L205.731 267.813H204.296H202.86L202.655 262.754C202.414 256.812 202.229 256.532 198.552 256.532C194.875 256.532 194.691 256.811 194.45 262.754L194.245 267.813L192.794 267.935C191.997 268.002 191.212 267.926 191.051 267.764ZM212.218 267.566C210.228 266.99 209.217 265.425 209.227 262.938C209.244 259.107 210.731 258.173 216.811 258.173C220.746 258.173 221.162 258.102 221.038 257.455C220.916 256.824 220.273 256.723 215.714 256.622C210.246 256.502 210.094 256.443 210.193 254.478L210.245 253.455H215.801C223.889 253.455 224.541 254.026 224.579 261.135C224.605 266.162 224.205 266.949 221.28 267.628C219.251 268.098 213.932 268.062 212.218 267.566ZM220.063 264.747C220.85 264.448 221.115 264.054 221.115 263.188C221.115 261.393 220.448 261.044 217.033 261.051C213.757 261.057 213.215 261.227 212.791 262.378C212.422 263.376 212.866 264.331 213.89 264.745C215.089 265.229 218.791 265.23 220.063 264.746V264.747ZM240.622 267.562C238.807 267.131 237.6 266.207 237.083 264.856C236.893 264.357 236.713 260.573 236.685 256.446L236.633 248.943H238.307H239.981L240.086 256.056C240.22 265.142 239.877 264.737 247.44 264.737H252.752L252.625 266.275L252.498 267.813L247.37 267.88C244.549 267.917 241.513 267.774 240.622 267.562ZM278.386 267.473C275.8 266.693 275.084 265.327 274.92 260.863C274.746 256.118 275.273 254.859 277.847 253.876C279.184 253.365 280.435 253.249 282.881 253.408C284.672 253.524 286.566 253.628 287.091 253.639C287.616 253.651 288.585 254.2 289.245 254.859C290.254 255.869 290.444 256.387 290.444 258.135C290.444 259.849 290.235 260.445 289.248 261.551L288.052 262.89L283.3 263.028C279.759 263.131 278.547 263.301 278.547 263.696C278.547 264.739 280.815 265.204 285.253 265.072L289.605 264.942L289.864 266.121C290.035 266.904 289.934 267.419 289.565 267.653C288.747 268.171 280.246 268.035 278.386 267.473ZM286.412 259.545C286.825 259.172 287.162 258.562 287.162 258.191C287.162 256.869 286.246 256.532 282.65 256.532C278.202 256.532 277.012 257.458 278.958 259.404C280.055 260.501 285.247 260.599 286.412 259.545ZM107.071 258.173V248.737H108.694H110.318L110.438 251.917L110.558 255.096H115.686H120.813L120.933 251.917L121.053 248.737H122.677H124.3V258.173V267.608H122.672H121.045L120.929 262.788L120.813 257.968H115.686H110.558L110.442 262.788L110.326 267.608H108.699H107.071V258.173ZM146.593 266.972C146.459 266.622 146.433 264.361 146.536 261.947C146.836 254.863 147.939 253.659 154.124 253.662C160.45 253.664 161.631 255.115 161.631 262.877V267.608H160.025H158.418L158.281 262.651C158.119 256.76 157.96 256.532 154.027 256.532C150.356 256.532 150.145 256.874 150.145 262.82V267.608H148.491C147.376 267.608 146.758 267.401 146.593 266.972ZM256.382 267.095C256.226 260.928 256.44 253.85 256.786 253.735C257.428 253.521 257.304 252.551 256.6 252.281C255.747 251.954 255.774 249.316 256.634 248.986C259.563 247.862 261.402 250.552 258.959 252.389C257.831 253.236 257.831 253.237 258.754 253.496C259.664 253.752 259.677 253.85 259.677 260.682V267.608H258.036C257.004 267.608 256.39 267.418 256.382 267.095ZM263.369 259.664C263.369 252.272 263.427 251.645 264.211 250.649C265.238 249.344 267.46 248.629 269.933 248.809C271.683 248.936 271.785 249.012 271.907 250.276L272.036 251.609H270.022C268.591 251.609 267.812 251.827 267.329 252.36C266.382 253.407 266.828 253.66 269.617 253.66H272.036L271.907 254.994C271.779 256.327 271.779 256.327 269.215 256.449L266.651 256.571V262.09V267.608H265.01H263.369V259.664ZM287.555 204.598C285.273 202.244 279.169 197.099 273.989 193.162C234.95 163.487 188.774 148.036 142.556 149.182C129.054 149.517 120.156 150.551 104.609 153.591C92.5157 155.956 75.2246 161.205 61.6515 166.633L59.5117 167.489L54.4533 161.654C34.3911 138.515 25.4346 128.06 25.4346 127.78C25.4346 127.305 35.2037 125.086 45.4412 123.234C73.3899 118.18 99.1079 117.111 124.505 119.95C165.128 124.489 200.822 137.384 235.473 160.038C253.058 171.534 273.384 188.63 286.43 202.894C289.925 206.716 290.599 207.736 287.555 204.598Z" fill="#3F3F40"/>
<mask id="path-7-outside-1_6_4875" maskUnits="userSpaceOnUse" x="106.07" y="247.747" width="185" height="55" fill="black">
<rect fill="white" x="106.07" y="247.747" width="185" height="55"/>
<path d="M177.513 301.814C177.352 301.653 177.22 298.315 177.22 294.397C177.22 284.094 177.778 283.17 184.187 282.863C190.426 282.565 192.394 284.248 192.397 289.884C192.4 295.467 191.062 296.731 185.137 296.741C183.152 296.744 181.308 296.887 181.039 297.058C180.771 297.228 180.494 298.379 180.424 299.615C180.301 301.785 180.254 301.867 179.051 301.985C178.366 302.052 177.674 301.975 177.513 301.814ZM188.263 293.893C189.499 293.11 189.49 286.817 188.251 286.032C187.938 285.834 186.356 285.668 184.736 285.665C180.741 285.656 180.502 285.936 180.502 290.611V294.273L184.091 294.267C186.066 294.264 187.943 294.095 188.263 293.893ZM159.327 296.554C159.202 296.228 159.164 295.628 159.242 295.22C159.368 294.563 159.99 294.455 164.669 294.273C169.007 294.105 170.031 293.946 170.384 293.385C171.181 292.117 170.025 291.402 167.176 291.402C160.739 291.402 159.17 290.589 159.17 287.256C159.17 283.305 160.179 282.787 167.872 282.787H173.17L173.041 284.12L172.912 285.453L167.785 285.659L162.657 285.864V287.076C162.657 288.594 163.422 288.844 168.252 288.899C172.924 288.953 173.733 289.527 173.733 292.787C173.733 294.358 173.523 295.275 173.055 295.742C172.094 296.704 169.513 297.107 164.182 297.127C160.518 297.141 159.507 297.022 159.327 296.554ZM199.888 296.745C197.023 296.065 196.091 294.319 196.091 289.631C196.091 286.711 196.228 286.005 196.98 285.049C198.282 283.393 200.133 282.787 203.885 282.787C209.973 282.787 211.675 284.364 211.678 290.008C211.68 294.09 210.766 295.812 208.183 296.59C206.352 297.142 201.909 297.225 199.888 296.745ZM207.753 293.629C208.222 293.16 208.398 292.163 208.398 289.966C208.398 285.972 208.072 285.657 203.958 285.665C202.226 285.668 200.564 285.826 200.265 286.015C198.887 286.889 198.877 293.037 200.252 293.908C200.558 294.102 202.226 294.264 203.958 294.267C206.281 294.272 207.277 294.104 207.753 293.629ZM215.371 291.412C215.371 283.388 215.878 282.787 222.638 282.787H226.089L225.961 284.12L225.832 285.453L222.69 285.573C220.779 285.645 219.377 285.897 219.113 286.214C218.875 286.501 218.628 289.032 218.564 291.838L218.448 296.94L216.91 297.067L215.371 297.195V291.412ZM234.55 296.825L233.422 296.68V291.457C233.422 287.941 233.261 286.072 232.929 285.741C232.659 285.47 231.643 285.248 230.673 285.248C228.994 285.248 228.909 285.19 228.909 284.039C228.909 282.869 228.98 282.826 231.063 282.706L233.217 282.582L233.235 281.146C233.253 279.795 233.343 279.703 234.748 279.584C236.207 279.461 236.244 279.494 236.37 281.02L236.498 282.582L238.652 282.706C240.735 282.826 240.806 282.869 240.806 284.039C240.806 285.172 240.705 285.248 239.198 285.248C236.237 285.248 236.293 285.133 236.293 291.216C236.293 294.225 236.155 296.75 235.986 296.828C235.816 296.906 235.17 296.904 234.55 296.825V296.825ZM244.088 295.766V294.297L249.523 294.183L254.959 294.068V292.838V291.607L250.271 291.358C245.83 291.122 245.532 291.05 244.63 290.002C243.299 288.455 243.316 285.715 244.667 284.143L245.656 282.992L251.874 282.859L258.092 282.727L257.961 284.09L257.83 285.453L253.318 285.555C247.823 285.678 246.959 285.853 246.959 286.847C246.959 288.125 247.817 288.421 252.091 288.618C254.35 288.721 256.605 289.024 257.103 289.29C259.154 290.388 259.138 295.271 257.08 296.416C256.542 296.715 253.796 296.975 250.139 297.072L244.088 297.234V295.766H244.088ZM141.635 296.313C141.129 296.109 140.345 295.336 139.893 294.595C139.176 293.419 139.071 292.527 139.07 287.587C139.068 278.671 139.503 278.274 149.311 278.274H155.478V279.505V280.736H149.78C142.866 280.736 142.222 281.035 142.175 284.265L142.145 286.274L148.196 286.387L154.247 286.501V287.71V288.918L148.196 289.032L142.145 289.145L142.169 291.059C142.207 294.193 142.388 294.273 149.374 294.273H155.478V295.504V296.735L149.016 296.709C145.463 296.694 142.141 296.516 141.635 296.313V296.313ZM107.07 258.378V249.148H108.711H110.352V252.225V255.301H115.685H121.018V252.225V249.148H122.659H124.3V258.378V267.608H122.659H121.018V262.673V257.738L115.788 257.853L110.557 257.968L110.442 262.788L110.326 267.608H108.698H107.07V258.378ZM129.254 266.546C128.128 265.598 127.992 265.243 127.992 263.237C127.992 259.04 129.253 258.173 135.356 258.173C138.777 258.173 139.479 258.067 139.479 257.547C139.479 256.531 137.644 256.122 133.093 256.122H128.813V254.891V253.66H134.126C137.268 253.66 139.865 253.854 140.479 254.134C142.153 254.897 142.877 256.434 143.085 259.664C143.328 263.46 142.949 265.406 141.726 266.629C140.798 267.557 140.477 267.608 135.632 267.608C130.727 267.608 130.464 267.565 129.254 266.546ZM139.117 264.369C139.943 263.701 140.02 263.428 139.667 262.421C139.26 261.261 139.22 261.249 135.492 261.132C132.01 261.023 131.694 261.08 131.262 261.888C130.665 263.003 131.062 264.621 131.992 264.864C132.387 264.967 133.935 265.073 135.433 265.099C137.545 265.136 138.373 264.972 139.117 264.369ZM146.869 262.583C146.875 257.135 147.154 256.131 149.046 254.726C150.583 253.584 156.216 253.272 158.447 254.205C160.806 255.19 161.372 256.716 161.557 262.583L161.715 267.608H160.032H158.349V262.872C158.349 258.39 158.295 258.082 157.342 257.129C156.536 256.322 155.918 256.122 154.239 256.122C153.085 256.122 151.804 256.303 151.391 256.523C150.214 257.153 149.734 259.193 149.734 263.567V267.608H148.299H146.863L146.869 262.583H146.869ZM167.99 267.22C167.538 267.036 166.8 266.475 166.349 265.974C165.627 265.173 165.512 264.375 165.395 259.362L165.261 253.66H166.694H168.126L168.263 258.62C168.391 263.255 168.463 263.632 169.368 264.364C169.901 264.794 170.85 265.147 171.477 265.147C172.104 265.147 173.052 264.794 173.585 264.364C174.49 263.632 174.562 263.255 174.69 258.62L174.827 253.66H176.194H177.561L177.698 258.62C177.826 263.255 177.899 263.632 178.804 264.364C179.901 265.251 181.225 265.361 182.704 264.687C184.017 264.088 184.182 263.357 184.188 258.07L184.194 253.66H185.788H187.382L187.445 257.966C187.522 263.182 187.049 265.153 185.385 266.553C184.292 267.473 183.752 267.608 181.177 267.608C179.101 267.608 177.937 267.408 177.261 266.934C176.368 266.309 176.216 266.309 175.158 266.934C173.936 267.656 169.488 267.834 167.99 267.22ZM191.052 258.294L191.141 248.943H192.693H194.245L194.364 251.404L194.483 253.866L198.261 253.744C204.715 253.535 205.936 254.989 205.936 262.877V267.608H204.295H202.654V262.936C202.654 256.883 202.3 256.321 198.549 256.425C194.712 256.531 194.499 256.847 194.36 262.635L194.245 267.403L192.604 267.525L190.963 267.646L191.052 258.294ZM210.368 266.36C209.213 265.205 209.133 264.941 209.307 262.846C209.453 261.088 209.741 260.335 210.595 259.48C211.641 258.433 211.929 258.371 216.405 258.24C220.165 258.13 221.115 257.983 221.115 257.512C221.115 256.532 219.233 256.122 214.729 256.122H210.449V254.891V253.66H215.802C223.83 253.66 224.397 254.164 224.397 261.288C224.397 265.313 224.331 265.66 223.39 266.601C222.423 267.568 222.168 267.608 216.999 267.608H211.616L210.368 266.36ZM220.753 264.369C221.58 263.7 221.656 263.429 221.302 262.421L220.89 261.25H217.047C212.819 261.25 212.142 261.614 212.645 263.618C212.959 264.868 213.46 265.036 217.069 265.099C219.181 265.136 220.009 264.972 220.753 264.369ZM238.911 266.825C236.997 265.658 236.703 264.23 236.703 256.078V248.772L238.242 248.858L239.78 248.943L239.991 255.917C240.107 259.752 240.352 263.201 240.537 263.58C241.09 264.719 243.141 265.147 248.046 265.147H252.703V266.378V267.608L246.447 267.607C241.021 267.605 240.02 267.501 238.911 266.825V266.825ZM256.395 260.678C256.395 254.632 256.48 253.715 257.068 253.49C257.438 253.348 258.084 253.341 258.504 253.474C259.207 253.697 259.266 254.251 259.266 260.662V267.608H257.83H256.395V260.678ZM263.369 260.046C263.369 255.886 263.545 252.018 263.761 251.451C264.346 249.913 266.201 249.148 269.344 249.148C271.98 249.148 272.07 249.181 271.832 250.071C271.696 250.579 271.582 251.132 271.579 251.302C271.576 251.471 270.823 251.609 269.905 251.609C267.974 251.609 266.65 252.199 266.65 253.06C266.65 253.523 267.236 253.66 269.214 253.66H271.778V254.891C271.778 256.111 271.758 256.122 269.502 256.122C268.249 256.122 267.003 256.343 266.732 256.614C266.401 256.946 266.24 258.82 266.24 262.357V267.608H264.804H263.369V260.046ZM276.66 266.214C275.683 265.236 275.246 264.407 275.201 263.444C275.166 262.689 275.092 261.516 275.037 260.839C274.819 258.18 275.367 255.957 276.525 254.799C277.639 253.685 277.766 253.66 282.433 253.66C289.011 253.66 290.444 254.552 290.444 258.643C290.444 261.162 288.783 262.535 285.281 262.91C283.806 263.068 281.797 263.106 280.816 262.996C278.389 262.722 277.619 263.26 278.9 264.335C279.746 265.044 280.485 265.147 284.746 265.147H289.623V266.378V267.608H283.839H278.055L276.66 266.214ZM286.67 259.732C287.45 258.952 287.268 257.028 286.368 256.546C285.037 255.834 279.757 256.013 278.887 256.801C277.966 257.634 277.925 258.723 278.782 259.579C279.586 260.384 285.895 260.506 286.67 259.732ZM256.477 251.937C256.206 251.667 255.984 251.058 255.984 250.584C255.984 248.723 258.142 248.09 259.473 249.56C260.088 250.239 260.136 250.56 259.75 251.406C259.237 252.532 257.374 252.834 256.477 251.937Z"/>
</mask>
<path d="M177.513 301.814C177.352 301.653 177.22 298.315 177.22 294.397C177.22 284.094 177.778 283.17 184.187 282.863C190.426 282.565 192.394 284.248 192.397 289.884C192.4 295.467 191.062 296.731 185.137 296.741C183.152 296.744 181.308 296.887 181.039 297.058C180.771 297.228 180.494 298.379 180.424 299.615C180.301 301.785 180.254 301.867 179.051 301.985C178.366 302.052 177.674 301.975 177.513 301.814ZM188.263 293.893C189.499 293.11 189.49 286.817 188.251 286.032C187.938 285.834 186.356 285.668 184.736 285.665C180.741 285.656 180.502 285.936 180.502 290.611V294.273L184.091 294.267C186.066 294.264 187.943 294.095 188.263 293.893ZM159.327 296.554C159.202 296.228 159.164 295.628 159.242 295.22C159.368 294.563 159.99 294.455 164.669 294.273C169.007 294.105 170.031 293.946 170.384 293.385C171.181 292.117 170.025 291.402 167.176 291.402C160.739 291.402 159.17 290.589 159.17 287.256C159.17 283.305 160.179 282.787 167.872 282.787H173.17L173.041 284.12L172.912 285.453L167.785 285.659L162.657 285.864V287.076C162.657 288.594 163.422 288.844 168.252 288.899C172.924 288.953 173.733 289.527 173.733 292.787C173.733 294.358 173.523 295.275 173.055 295.742C172.094 296.704 169.513 297.107 164.182 297.127C160.518 297.141 159.507 297.022 159.327 296.554ZM199.888 296.745C197.023 296.065 196.091 294.319 196.091 289.631C196.091 286.711 196.228 286.005 196.98 285.049C198.282 283.393 200.133 282.787 203.885 282.787C209.973 282.787 211.675 284.364 211.678 290.008C211.68 294.09 210.766 295.812 208.183 296.59C206.352 297.142 201.909 297.225 199.888 296.745ZM207.753 293.629C208.222 293.16 208.398 292.163 208.398 289.966C208.398 285.972 208.072 285.657 203.958 285.665C202.226 285.668 200.564 285.826 200.265 286.015C198.887 286.889 198.877 293.037 200.252 293.908C200.558 294.102 202.226 294.264 203.958 294.267C206.281 294.272 207.277 294.104 207.753 293.629ZM215.371 291.412C215.371 283.388 215.878 282.787 222.638 282.787H226.089L225.961 284.12L225.832 285.453L222.69 285.573C220.779 285.645 219.377 285.897 219.113 286.214C218.875 286.501 218.628 289.032 218.564 291.838L218.448 296.94L216.91 297.067L215.371 297.195V291.412ZM234.55 296.825L233.422 296.68V291.457C233.422 287.941 233.261 286.072 232.929 285.741C232.659 285.47 231.643 285.248 230.673 285.248C228.994 285.248 228.909 285.19 228.909 284.039C228.909 282.869 228.98 282.826 231.063 282.706L233.217 282.582L233.235 281.146C233.253 279.795 233.343 279.703 234.748 279.584C236.207 279.461 236.244 279.494 236.37 281.02L236.498 282.582L238.652 282.706C240.735 282.826 240.806 282.869 240.806 284.039C240.806 285.172 240.705 285.248 239.198 285.248C236.237 285.248 236.293 285.133 236.293 291.216C236.293 294.225 236.155 296.75 235.986 296.828C235.816 296.906 235.17 296.904 234.55 296.825V296.825ZM244.088 295.766V294.297L249.523 294.183L254.959 294.068V292.838V291.607L250.271 291.358C245.83 291.122 245.532 291.05 244.63 290.002C243.299 288.455 243.316 285.715 244.667 284.143L245.656 282.992L251.874 282.859L258.092 282.727L257.961 284.09L257.83 285.453L253.318 285.555C247.823 285.678 246.959 285.853 246.959 286.847C246.959 288.125 247.817 288.421 252.091 288.618C254.35 288.721 256.605 289.024 257.103 289.29C259.154 290.388 259.138 295.271 257.08 296.416C256.542 296.715 253.796 296.975 250.139 297.072L244.088 297.234V295.766H244.088ZM141.635 296.313C141.129 296.109 140.345 295.336 139.893 294.595C139.176 293.419 139.071 292.527 139.07 287.587C139.068 278.671 139.503 278.274 149.311 278.274H155.478V279.505V280.736H149.78C142.866 280.736 142.222 281.035 142.175 284.265L142.145 286.274L148.196 286.387L154.247 286.501V287.71V288.918L148.196 289.032L142.145 289.145L142.169 291.059C142.207 294.193 142.388 294.273 149.374 294.273H155.478V295.504V296.735L149.016 296.709C145.463 296.694 142.141 296.516 141.635 296.313V296.313ZM107.07 258.378V249.148H108.711H110.352V252.225V255.301H115.685H121.018V252.225V249.148H122.659H124.3V258.378V267.608H122.659H121.018V262.673V257.738L115.788 257.853L110.557 257.968L110.442 262.788L110.326 267.608H108.698H107.07V258.378ZM129.254 266.546C128.128 265.598 127.992 265.243 127.992 263.237C127.992 259.04 129.253 258.173 135.356 258.173C138.777 258.173 139.479 258.067 139.479 257.547C139.479 256.531 137.644 256.122 133.093 256.122H128.813V254.891V253.66H134.126C137.268 253.66 139.865 253.854 140.479 254.134C142.153 254.897 142.877 256.434 143.085 259.664C143.328 263.46 142.949 265.406 141.726 266.629C140.798 267.557 140.477 267.608 135.632 267.608C130.727 267.608 130.464 267.565 129.254 266.546ZM139.117 264.369C139.943 263.701 140.02 263.428 139.667 262.421C139.26 261.261 139.22 261.249 135.492 261.132C132.01 261.023 131.694 261.08 131.262 261.888C130.665 263.003 131.062 264.621 131.992 264.864C132.387 264.967 133.935 265.073 135.433 265.099C137.545 265.136 138.373 264.972 139.117 264.369ZM146.869 262.583C146.875 257.135 147.154 256.131 149.046 254.726C150.583 253.584 156.216 253.272 158.447 254.205C160.806 255.19 161.372 256.716 161.557 262.583L161.715 267.608H160.032H158.349V262.872C158.349 258.39 158.295 258.082 157.342 257.129C156.536 256.322 155.918 256.122 154.239 256.122C153.085 256.122 151.804 256.303 151.391 256.523C150.214 257.153 149.734 259.193 149.734 263.567V267.608H148.299H146.863L146.869 262.583H146.869ZM167.99 267.22C167.538 267.036 166.8 266.475 166.349 265.974C165.627 265.173 165.512 264.375 165.395 259.362L165.261 253.66H166.694H168.126L168.263 258.62C168.391 263.255 168.463 263.632 169.368 264.364C169.901 264.794 170.85 265.147 171.477 265.147C172.104 265.147 173.052 264.794 173.585 264.364C174.49 263.632 174.562 263.255 174.69 258.62L174.827 253.66H176.194H177.561L177.698 258.62C177.826 263.255 177.899 263.632 178.804 264.364C179.901 265.251 181.225 265.361 182.704 264.687C184.017 264.088 184.182 263.357 184.188 258.07L184.194 253.66H185.788H187.382L187.445 257.966C187.522 263.182 187.049 265.153 185.385 266.553C184.292 267.473 183.752 267.608 181.177 267.608C179.101 267.608 177.937 267.408 177.261 266.934C176.368 266.309 176.216 266.309 175.158 266.934C173.936 267.656 169.488 267.834 167.99 267.22ZM191.052 258.294L191.141 248.943H192.693H194.245L194.364 251.404L194.483 253.866L198.261 253.744C204.715 253.535 205.936 254.989 205.936 262.877V267.608H204.295H202.654V262.936C202.654 256.883 202.3 256.321 198.549 256.425C194.712 256.531 194.499 256.847 194.36 262.635L194.245 267.403L192.604 267.525L190.963 267.646L191.052 258.294ZM210.368 266.36C209.213 265.205 209.133 264.941 209.307 262.846C209.453 261.088 209.741 260.335 210.595 259.48C211.641 258.433 211.929 258.371 216.405 258.24C220.165 258.13 221.115 257.983 221.115 257.512C221.115 256.532 219.233 256.122 214.729 256.122H210.449V254.891V253.66H215.802C223.83 253.66 224.397 254.164 224.397 261.288C224.397 265.313 224.331 265.66 223.39 266.601C222.423 267.568 222.168 267.608 216.999 267.608H211.616L210.368 266.36ZM220.753 264.369C221.58 263.7 221.656 263.429 221.302 262.421L220.89 261.25H217.047C212.819 261.25 212.142 261.614 212.645 263.618C212.959 264.868 213.46 265.036 217.069 265.099C219.181 265.136 220.009 264.972 220.753 264.369ZM238.911 266.825C236.997 265.658 236.703 264.23 236.703 256.078V248.772L238.242 248.858L239.78 248.943L239.991 255.917C240.107 259.752 240.352 263.201 240.537 263.58C241.09 264.719 243.141 265.147 248.046 265.147H252.703V266.378V267.608L246.447 267.607C241.021 267.605 240.02 267.501 238.911 266.825V266.825ZM256.395 260.678C256.395 254.632 256.48 253.715 257.068 253.49C257.438 253.348 258.084 253.341 258.504 253.474C259.207 253.697 259.266 254.251 259.266 260.662V267.608H257.83H256.395V260.678ZM263.369 260.046C263.369 255.886 263.545 252.018 263.761 251.451C264.346 249.913 266.201 249.148 269.344 249.148C271.98 249.148 272.07 249.181 271.832 250.071C271.696 250.579 271.582 251.132 271.579 251.302C271.576 251.471 270.823 251.609 269.905 251.609C267.974 251.609 266.65 252.199 266.65 253.06C266.65 253.523 267.236 253.66 269.214 253.66H271.778V254.891C271.778 256.111 271.758 256.122 269.502 256.122C268.249 256.122 267.003 256.343 266.732 256.614C266.401 256.946 266.24 258.82 266.24 262.357V267.608H264.804H263.369V260.046ZM276.66 266.214C275.683 265.236 275.246 264.407 275.201 263.444C275.166 262.689 275.092 261.516 275.037 260.839C274.819 258.18 275.367 255.957 276.525 254.799C277.639 253.685 277.766 253.66 282.433 253.66C289.011 253.66 290.444 254.552 290.444 258.643C290.444 261.162 288.783 262.535 285.281 262.91C283.806 263.068 281.797 263.106 280.816 262.996C278.389 262.722 277.619 263.26 278.9 264.335C279.746 265.044 280.485 265.147 284.746 265.147H289.623V266.378V267.608H283.839H278.055L276.66 266.214ZM286.67 259.732C287.45 258.952 287.268 257.028 286.368 256.546C285.037 255.834 279.757 256.013 278.887 256.801C277.966 257.634 277.925 258.723 278.782 259.579C279.586 260.384 285.895 260.506 286.67 259.732ZM256.477 251.937C256.206 251.667 255.984 251.058 255.984 250.584C255.984 248.723 258.142 248.09 259.473 249.56C260.088 250.239 260.136 250.56 259.75 251.406C259.237 252.532 257.374 252.834 256.477 251.937Z" fill="white" fill-opacity="0.95"/>
<path d="M177.513 301.814C177.352 301.653 177.22 298.315 177.22 294.397C177.22 284.094 177.778 283.17 184.187 282.863C190.426 282.565 192.394 284.248 192.397 289.884C192.4 295.467 191.062 296.731 185.137 296.741C183.152 296.744 181.308 296.887 181.039 297.058C180.771 297.228 180.494 298.379 180.424 299.615C180.301 301.785 180.254 301.867 179.051 301.985C178.366 302.052 177.674 301.975 177.513 301.814ZM188.263 293.893C189.499 293.11 189.49 286.817 188.251 286.032C187.938 285.834 186.356 285.668 184.736 285.665C180.741 285.656 180.502 285.936 180.502 290.611V294.273L184.091 294.267C186.066 294.264 187.943 294.095 188.263 293.893ZM159.327 296.554C159.202 296.228 159.164 295.628 159.242 295.22C159.368 294.563 159.99 294.455 164.669 294.273C169.007 294.105 170.031 293.946 170.384 293.385C171.181 292.117 170.025 291.402 167.176 291.402C160.739 291.402 159.17 290.589 159.17 287.256C159.17 283.305 160.179 282.787 167.872 282.787H173.17L173.041 284.12L172.912 285.453L167.785 285.659L162.657 285.864V287.076C162.657 288.594 163.422 288.844 168.252 288.899C172.924 288.953 173.733 289.527 173.733 292.787C173.733 294.358 173.523 295.275 173.055 295.742C172.094 296.704 169.513 297.107 164.182 297.127C160.518 297.141 159.507 297.022 159.327 296.554ZM199.888 296.745C197.023 296.065 196.091 294.319 196.091 289.631C196.091 286.711 196.228 286.005 196.98 285.049C198.282 283.393 200.133 282.787 203.885 282.787C209.973 282.787 211.675 284.364 211.678 290.008C211.68 294.09 210.766 295.812 208.183 296.59C206.352 297.142 201.909 297.225 199.888 296.745ZM207.753 293.629C208.222 293.16 208.398 292.163 208.398 289.966C208.398 285.972 208.072 285.657 203.958 285.665C202.226 285.668 200.564 285.826 200.265 286.015C198.887 286.889 198.877 293.037 200.252 293.908C200.558 294.102 202.226 294.264 203.958 294.267C206.281 294.272 207.277 294.104 207.753 293.629ZM215.371 291.412C215.371 283.388 215.878 282.787 222.638 282.787H226.089L225.961 284.12L225.832 285.453L222.69 285.573C220.779 285.645 219.377 285.897 219.113 286.214C218.875 286.501 218.628 289.032 218.564 291.838L218.448 296.94L216.91 297.067L215.371 297.195V291.412ZM234.55 296.825L233.422 296.68V291.457C233.422 287.941 233.261 286.072 232.929 285.741C232.659 285.47 231.643 285.248 230.673 285.248C228.994 285.248 228.909 285.19 228.909 284.039C228.909 282.869 228.98 282.826 231.063 282.706L233.217 282.582L233.235 281.146C233.253 279.795 233.343 279.703 234.748 279.584C236.207 279.461 236.244 279.494 236.37 281.02L236.498 282.582L238.652 282.706C240.735 282.826 240.806 282.869 240.806 284.039C240.806 285.172 240.705 285.248 239.198 285.248C236.237 285.248 236.293 285.133 236.293 291.216C236.293 294.225 236.155 296.75 235.986 296.828C235.816 296.906 235.17 296.904 234.55 296.825V296.825ZM244.088 295.766V294.297L249.523 294.183L254.959 294.068V292.838V291.607L250.271 291.358C245.83 291.122 245.532 291.05 244.63 290.002C243.299 288.455 243.316 285.715 244.667 284.143L245.656 282.992L251.874 282.859L258.092 282.727L257.961 284.09L257.83 285.453L253.318 285.555C247.823 285.678 246.959 285.853 246.959 286.847C246.959 288.125 247.817 288.421 252.091 288.618C254.35 288.721 256.605 289.024 257.103 289.29C259.154 290.388 259.138 295.271 257.08 296.416C256.542 296.715 253.796 296.975 250.139 297.072L244.088 297.234V295.766H244.088ZM141.635 296.313C141.129 296.109 140.345 295.336 139.893 294.595C139.176 293.419 139.071 292.527 139.07 287.587C139.068 278.671 139.503 278.274 149.311 278.274H155.478V279.505V280.736H149.78C142.866 280.736 142.222 281.035 142.175 284.265L142.145 286.274L148.196 286.387L154.247 286.501V287.71V288.918L148.196 289.032L142.145 289.145L142.169 291.059C142.207 294.193 142.388 294.273 149.374 294.273H155.478V295.504V296.735L149.016 296.709C145.463 296.694 142.141 296.516 141.635 296.313V296.313ZM107.07 258.378V249.148H108.711H110.352V252.225V255.301H115.685H121.018V252.225V249.148H122.659H124.3V258.378V267.608H122.659H121.018V262.673V257.738L115.788 257.853L110.557 257.968L110.442 262.788L110.326 267.608H108.698H107.07V258.378ZM129.254 266.546C128.128 265.598 127.992 265.243 127.992 263.237C127.992 259.04 129.253 258.173 135.356 258.173C138.777 258.173 139.479 258.067 139.479 257.547C139.479 256.531 137.644 256.122 133.093 256.122H128.813V254.891V253.66H134.126C137.268 253.66 139.865 253.854 140.479 254.134C142.153 254.897 142.877 256.434 143.085 259.664C143.328 263.46 142.949 265.406 141.726 266.629C140.798 267.557 140.477 267.608 135.632 267.608C130.727 267.608 130.464 267.565 129.254 266.546ZM139.117 264.369C139.943 263.701 140.02 263.428 139.667 262.421C139.26 261.261 139.22 261.249 135.492 261.132C132.01 261.023 131.694 261.08 131.262 261.888C130.665 263.003 131.062 264.621 131.992 264.864C132.387 264.967 133.935 265.073 135.433 265.099C137.545 265.136 138.373 264.972 139.117 264.369ZM146.869 262.583C146.875 257.135 147.154 256.131 149.046 254.726C150.583 253.584 156.216 253.272 158.447 254.205C160.806 255.19 161.372 256.716 161.557 262.583L161.715 267.608H160.032H158.349V262.872C158.349 258.39 158.295 258.082 157.342 257.129C156.536 256.322 155.918 256.122 154.239 256.122C153.085 256.122 151.804 256.303 151.391 256.523C150.214 257.153 149.734 259.193 149.734 263.567V267.608H148.299H146.863L146.869 262.583H146.869ZM167.99 267.22C167.538 267.036 166.8 266.475 166.349 265.974C165.627 265.173 165.512 264.375 165.395 259.362L165.261 253.66H166.694H168.126L168.263 258.62C168.391 263.255 168.463 263.632 169.368 264.364C169.901 264.794 170.85 265.147 171.477 265.147C172.104 265.147 173.052 264.794 173.585 264.364C174.49 263.632 174.562 263.255 174.69 258.62L174.827 253.66H176.194H177.561L177.698 258.62C177.826 263.255 177.899 263.632 178.804 264.364C179.901 265.251 181.225 265.361 182.704 264.687C184.017 264.088 184.182 263.357 184.188 258.07L184.194 253.66H185.788H187.382L187.445 257.966C187.522 263.182 187.049 265.153 185.385 266.553C184.292 267.473 183.752 267.608 181.177 267.608C179.101 267.608 177.937 267.408 177.261 266.934C176.368 266.309 176.216 266.309 175.158 266.934C173.936 267.656 169.488 267.834 167.99 267.22ZM191.052 258.294L191.141 248.943H192.693H194.245L194.364 251.404L194.483 253.866L198.261 253.744C204.715 253.535 205.936 254.989 205.936 262.877V267.608H204.295H202.654V262.936C202.654 256.883 202.3 256.321 198.549 256.425C194.712 256.531 194.499 256.847 194.36 262.635L194.245 267.403L192.604 267.525L190.963 267.646L191.052 258.294ZM210.368 266.36C209.213 265.205 209.133 264.941 209.307 262.846C209.453 261.088 209.741 260.335 210.595 259.48C211.641 258.433 211.929 258.371 216.405 258.24C220.165 258.13 221.115 257.983 221.115 257.512C221.115 256.532 219.233 256.122 214.729 256.122H210.449V254.891V253.66H215.802C223.83 253.66 224.397 254.164 224.397 261.288C224.397 265.313 224.331 265.66 223.39 266.601C222.423 267.568 222.168 267.608 216.999 267.608H211.616L210.368 266.36ZM220.753 264.369C221.58 263.7 221.656 263.429 221.302 262.421L220.89 261.25H217.047C212.819 261.25 212.142 261.614 212.645 263.618C212.959 264.868 213.46 265.036 217.069 265.099C219.181 265.136 220.009 264.972 220.753 264.369ZM238.911 266.825C236.997 265.658 236.703 264.23 236.703 256.078V248.772L238.242 248.858L239.78 248.943L239.991 255.917C240.107 259.752 240.352 263.201 240.537 263.58C241.09 264.719 243.141 265.147 248.046 265.147H252.703V266.378V267.608L246.447 267.607C241.021 267.605 240.02 267.501 238.911 266.825V266.825ZM256.395 260.678C256.395 254.632 256.48 253.715 257.068 253.49C257.438 253.348 258.084 253.341 258.504 253.474C259.207 253.697 259.266 254.251 259.266 260.662V267.608H257.83H256.395V260.678ZM263.369 260.046C263.369 255.886 263.545 252.018 263.761 251.451C264.346 249.913 266.201 249.148 269.344 249.148C271.98 249.148 272.07 249.181 271.832 250.071C271.696 250.579 271.582 251.132 271.579 251.302C271.576 251.471 270.823 251.609 269.905 251.609C267.974 251.609 266.65 252.199 266.65 253.06C266.65 253.523 267.236 253.66 269.214 253.66H271.778V254.891C271.778 256.111 271.758 256.122 269.502 256.122C268.249 256.122 267.003 256.343 266.732 256.614C266.401 256.946 266.24 258.82 266.24 262.357V267.608H264.804H263.369V260.046ZM276.66 266.214C275.683 265.236 275.246 264.407 275.201 263.444C275.166 262.689 275.092 261.516 275.037 260.839C274.819 258.18 275.367 255.957 276.525 254.799C277.639 253.685 277.766 253.66 282.433 253.66C289.011 253.66 290.444 254.552 290.444 258.643C290.444 261.162 288.783 262.535 285.281 262.91C283.806 263.068 281.797 263.106 280.816 262.996C278.389 262.722 277.619 263.26 278.9 264.335C279.746 265.044 280.485 265.147 284.746 265.147H289.623V266.378V267.608H283.839H278.055L276.66 266.214ZM286.67 259.732C287.45 258.952 287.268 257.028 286.368 256.546C285.037 255.834 279.757 256.013 278.887 256.801C277.966 257.634 277.925 258.723 278.782 259.579C279.586 260.384 285.895 260.506 286.67 259.732ZM256.477 251.937C256.206 251.667 255.984 251.058 255.984 250.584C255.984 248.723 258.142 248.09 259.473 249.56C260.088 250.239 260.136 250.56 259.75 251.406C259.237 252.532 257.374 252.834 256.477 251.937Z" stroke="white" stroke-opacity="0.95" stroke-width="0.4" mask="url(#path-7-outside-1_6_4875)"/>
</svg>
