<svg width="400" height="400" viewBox="0 0 400 400" fill="none" xmlns="http://www.w3.org/2000/svg">
<path d="M268.699 390.938C266.947 391.018 265.183 390.938 263.425 390.938C260.512 390.938 259.577 390.016 259.571 387.139C259.571 381.724 259.571 376.302 259.571 370.881C258.957 370.156 258.502 370.666 258.028 371.053C257.451 372.19 256.455 372.584 254.955 372.282C254.309 372.141 253.64 372.141 252.994 372.282C251.316 372.657 250.296 372.221 249.786 370.942C249.392 370.598 248.999 370.266 248.587 370.942C248.587 377.353 248.55 383.758 248.587 390.163C248.624 394.644 250.603 397.878 254.912 399.519L258.877 399.992C261.913 399.881 264.95 400.164 267.98 399.832C269.941 399.279 270.439 397.699 270.193 395.628C270.084 394.679 270.099 393.721 270.236 392.776C270.47 391.159 269.91 390.895 268.699 390.938Z" fill="black"/>
<path d="M317.72 171.878C323.658 179.199 328.975 186.975 334.593 194.523C353.972 220.536 373.308 246.58 392.6 272.655C392.994 273.184 393.369 273.731 393.996 274.616H391.389C359.906 274.616 328.418 274.632 296.925 274.665C296.182 274.703 295.442 274.54 294.783 274.193C294.124 273.845 293.571 273.327 293.182 272.692C276.967 250.92 260.725 229.169 244.456 207.438C242.262 204.499 239.84 201.727 237.947 198.574C238.974 197.603 240.271 197.959 241.457 197.959C250.978 198.027 260.475 197.99 269.886 196.115C286.192 193.023 301.371 185.615 313.841 174.663C315.028 173.624 316.11 172.364 317.72 171.878Z" fill="#FE0A07"/>
<path d="M317.72 171.878C313.035 176.601 307.797 180.741 302.119 184.209C291.827 190.625 280.391 194.991 268.441 197.068C260.45 198.5 252.318 198.709 244.192 198.556C242.121 198.513 240.043 198.556 237.972 198.556L231.056 189.335C231.751 188.61 232.642 188.905 233.454 188.899C238.519 188.868 243.59 189.034 248.642 188.85C260.813 188.395 272.529 185.973 283.679 180.859C293.219 176.476 301.947 170.981 309.551 163.728C310.023 163.341 310.525 162.992 311.051 162.683L317.72 171.878Z" fill="#CB0507"/>
<path d="M217.294 399.82L208.953 399.74C208.909 397.441 208.83 395.148 208.83 392.85C208.83 379.577 208.83 366.308 208.83 353.043C208.83 349.662 209.85 348.611 213.2 348.66C215.327 348.697 218.154 347.732 219.347 349.072C220.392 350.222 219.666 353.006 219.673 355.065C219.673 361.261 219.673 367.457 219.673 373.758C220.619 373.758 220.773 372.854 221.357 372.614C221.491 372.477 221.661 372.379 221.848 372.332C222.035 372.286 222.231 372.292 222.414 372.35C224.707 372.43 226.999 372.289 229.292 372.399C231.054 372.553 232.809 372.039 234.21 370.961C234.399 370.899 234.602 370.894 234.793 370.948C234.985 371.001 235.156 371.111 235.285 371.262C233.632 373.364 232.089 375.565 230.282 377.538C229.003 378.921 229.219 379.782 230.343 381.122C234.831 386.469 239.195 391.915 243.596 397.337C244.211 398.099 244.739 398.929 245.311 399.722L233.786 399.795C232.378 399.574 231.542 398.566 230.712 397.558L219.648 383.98C219.648 388.51 219.648 392.352 219.648 396.193C219.685 397.945 219.261 399.396 217.294 399.82Z" fill="black"/>
<path d="M235.298 371.268L234.117 371.231C233.623 371.594 233.028 371.794 232.415 371.803C229.157 371.718 225.899 371.924 222.678 372.417L221.363 372.608C223.717 368.779 226.36 365.17 230.048 362.533C231.892 361.206 234.228 361.255 236.441 361.224C240.485 361.169 244.524 361.169 248.569 361.144C248.807 360.896 249.093 360.699 249.41 360.566C249.727 360.432 250.069 360.366 250.413 360.37C252.847 360.271 255.283 360.271 257.721 360.37C258.067 360.358 258.411 360.422 258.729 360.557C259.047 360.692 259.333 360.894 259.565 361.15C263.757 361.267 268.005 361.728 271.982 358.52C271.982 361.47 272.197 364.107 271.914 366.682C271.674 368.815 268.724 370.487 265.54 370.684C263.554 370.807 261.563 370.832 259.577 370.899C259.366 370.842 259.144 370.836 258.93 370.883C258.715 370.931 258.516 371.029 258.348 371.17C256.949 371.757 255.446 372.056 253.928 372.051C252.411 372.046 250.91 371.736 249.515 371.139C249.411 370.989 249.257 370.883 249.08 370.84C248.903 370.797 248.717 370.82 248.556 370.905C244.628 370.905 240.701 370.825 236.773 370.825C236.264 370.908 235.768 371.057 235.298 371.268Z" fill="#FE0A07"/>
<path d="M331.39 311.675C331.39 308.601 331.39 305.528 331.39 302.455C331.39 300.359 332.442 299.467 334.519 299.381C338.644 299.252 342.799 299.836 346.899 298.994C347.919 298.785 348.067 299.461 348.042 300.223C347.987 301.692 348.528 303.567 346.272 303.832C344.21 304.018 342.14 304.1 340.07 304.077C337.07 304.114 336.025 305.565 336.898 308.423C337.181 309.351 337.832 309.038 338.361 309.038C340.586 309.075 342.817 309.142 345.036 309.038C346.499 308.958 346.954 309.517 346.819 310.882C346.696 312.111 347.175 313.666 345.073 313.654C342.971 313.642 340.924 313.734 338.859 313.654C337.42 313.586 336.836 313.925 336.861 315.535C336.91 319.223 336.812 319.285 340.598 319.223C342.737 319.223 344.901 319.5 347.003 318.91C347.384 318.805 347.704 318.688 347.987 319.112C349.032 320.649 347.765 323.624 345.921 323.821C342.018 324.233 338.097 324.018 334.187 323.981C332.374 323.981 331.384 322.96 331.39 321.073C331.397 317.957 331.39 314.816 331.39 311.675Z" fill="black"/>
<path d="M242.256 324.307C240.849 324.286 239.448 324.105 238.082 323.766C235.421 322.967 234.658 321.67 235.255 318.965C235.519 317.736 236.195 318.271 236.779 318.498C238.822 319.381 241.041 319.785 243.264 319.678C244.641 319.574 245.889 319.162 246.27 317.68C246.651 316.199 245.729 315.154 244.518 314.539C242.76 313.642 240.873 312.99 239.103 312.111C236.435 310.771 235.212 308.473 235.341 305.553C235.457 302.867 237.32 300.912 240.399 300.021C241.434 299.747 242.488 299.556 243.553 299.449C245.52 299.216 247.542 299.769 249.472 299.025C249.773 298.908 250.204 298.945 250.228 299.283C250.376 300.489 250.387 301.708 250.259 302.916C250.093 303.899 249.03 303.906 248.187 303.955C246.436 304.065 244.678 304.201 242.926 304.367C241.967 304.453 241.045 304.797 240.922 305.891C240.878 306.355 240.986 306.821 241.232 307.217C241.477 307.613 241.845 307.918 242.28 308.085C244.34 309.069 246.466 309.929 248.483 310.999C249.452 311.468 250.273 312.195 250.855 313.101C251.437 314.006 251.759 315.055 251.783 316.131C252.078 321.59 248.987 324.288 242.256 324.307Z" fill="black"/>
<path d="M288.836 313.998C288.836 311.245 288.793 308.466 288.836 305.731C288.867 304.551 288.51 304.034 287.281 304.133C286.291 304.213 285.283 304.133 284.288 304.133C282.868 304.2 281.755 304.182 281.829 302.16C281.915 300.316 282.321 299.394 284.441 299.363C289.709 299.283 295.001 299.885 300.251 299.012C300.558 298.963 300.798 298.932 301.025 299.246C302.095 300.733 300.779 303.696 298.978 303.997C297.491 304.249 295.395 303.383 294.676 304.612C293.957 305.841 294.381 307.686 294.375 309.314C294.375 313.445 294.307 317.582 294.375 321.719C294.43 324.423 292.574 323.938 290.926 324.091C289.082 324.257 288.713 323.44 288.781 321.811C288.922 319.211 288.836 316.605 288.836 313.998Z" fill="black"/>
<path d="M188.785 311.374C188.785 308.159 188.816 304.938 188.785 301.723C188.748 298.816 190.881 299.621 192.522 299.412C194.532 299.154 194.329 300.42 194.323 301.687C194.323 306.739 194.44 311.798 194.256 316.845C194.176 318.99 194.901 319.488 196.843 319.303C199.265 319.051 201.761 319.598 204.14 318.891C204.319 318.82 204.518 318.819 204.698 318.89C204.877 318.961 205.023 319.098 205.105 319.272C206.125 321.024 204.859 323.772 202.824 323.87C199.136 324.042 195.448 324.055 191.797 324.042C189.738 324.042 188.773 322.844 188.785 320.803C188.797 317.656 188.785 314.515 188.785 311.374Z" fill="black"/>
<path d="M259.559 361.157H248.569C248.569 358.261 248.538 355.366 248.569 352.465C248.599 349.883 249.767 348.709 252.337 348.654C254.242 348.617 256.16 348.716 258.059 348.623C259.289 348.562 259.614 348.998 259.59 350.185C259.516 353.836 259.565 357.493 259.559 361.157Z" fill="black"/>
<path d="M249.521 371.145L258.354 371.176C258.569 372.706 257.85 373.173 256.387 373.081C254.719 372.977 253.046 372.977 251.378 373.081C249.872 373.173 249.22 372.669 249.521 371.145Z" fill="#C0C4C3"/>
<path d="M392.895 315.978C392.336 314.896 392.317 314.294 393.418 313.359C396.411 310.815 396.448 307.372 395.538 303.893C394.721 300.752 392.145 299.898 389.299 299.369C386.226 298.798 383.196 299.369 380.153 299.603C378.696 299.701 378.112 300.304 378.137 301.902C378.243 308.565 378.243 315.226 378.137 321.885C378.137 323.624 378.659 324.251 380.362 324.073C381.88 323.913 383.81 324.51 383.687 321.866C383.586 320.491 383.586 319.111 383.687 317.736C383.767 316.961 382.956 315.72 384.406 315.462C385.857 315.203 387.05 315.32 387.67 317.047C388.291 318.775 389.324 320.483 390.031 322.241C390.208 322.791 390.563 323.265 391.039 323.591C391.515 323.917 392.086 324.076 392.662 324.042C393.94 324.042 395.237 324.202 396.491 323.766V323.323C395.323 320.865 394.149 318.406 392.895 315.978ZM385.587 310.907C383.681 310.907 383.681 310.907 383.681 307.342C383.749 303.426 383.103 303.967 386.281 303.875C389.355 303.795 390.473 304.742 390.461 307.096C390.455 309.647 388.789 310.931 385.587 310.907Z" fill="black"/>
<path d="M338.385 76.9781C329.964 30.3608 288.363 -0.0411875 247.284 0.00184007C174.088 0.108384 100.892 0.120678 27.6959 0.0387208C27.2041 0.0387208 26.6448 -0.176417 26.0854 0.407528C26.614 1.12056 27.1427 1.84588 27.6774 2.55891C44.5975 25.2406 61.5299 47.914 78.4745 70.5793C78.937 71.1143 79.2398 71.7686 79.3485 72.4674C79.4572 73.1662 79.3674 73.8815 79.0892 74.5317C75.5978 84.9812 72.1823 95.4554 68.8425 105.954C68.3323 107.577 67.6132 108.007 65.9535 108.001C46.2838 107.915 26.614 107.874 6.94431 107.878H4C5.03266 108.683 5.59202 109.15 6.18211 109.581C22.1187 121.19 38.0635 132.787 54.0164 144.372C55.3319 145.324 55.6884 146.074 55.1352 147.715C50.4882 161.662 45.9641 175.628 41.4032 189.587L35.8342 206.669L87.7992 169.1V172.032C87.7992 205.405 87.7767 238.774 87.7316 272.139C87.7316 274.155 88.1803 274.671 90.2333 274.665C117.656 274.591 145.075 274.591 172.49 274.665C174.672 274.665 174.912 273.958 174.905 272.09C174.85 245.161 174.905 218.231 174.826 191.308C174.826 189.415 175.274 188.893 177.204 188.899C194.335 188.979 211.46 188.948 228.591 188.948C229.421 188.948 230.282 188.807 231.05 189.329C239.699 189.526 248.353 189.944 256.984 188.887C275.86 186.612 292.444 179.101 306.969 166.943C308.475 165.713 310.147 164.533 311.038 162.671C311.549 162.105 312.04 161.521 312.563 160.974C335.109 137.266 344.262 109.249 338.385 76.9781ZM136.851 119.864C127.63 126.577 118.373 133.313 109.061 139.934C107.721 140.886 107.586 141.667 108.059 143.105C111.649 154.004 115.152 164.926 118.687 175.843C118.871 176.415 119.252 176.956 118.976 177.644C118.207 177.724 117.796 177.091 117.285 176.722C108.034 170.01 98.7774 163.316 89.6248 156.511C88.2541 155.497 87.4304 155.596 86.1273 156.554C76.9071 163.316 67.6255 169.967 58.3622 176.661C57.809 177.06 57.2374 177.441 56.2293 178.136C57.4587 174.306 58.5528 170.932 59.6531 167.563C62.3085 159.419 64.9393 151.268 67.6439 143.148C68.1479 141.649 68.0557 140.806 66.642 139.792C56.8009 132.773 47.0275 125.575 37.1927 118.414C37.7582 117.658 38.5019 118.026 39.1043 118.026C50.6234 118.026 62.1364 118.026 73.6554 118.082C75.3028 118.082 76.0343 117.639 76.5506 116.023C80.042 105.087 83.644 94.1953 87.2153 83.2909C87.4243 82.6762 87.6517 82.0246 88.0021 80.9981C90.1227 87.526 92.1389 93.6912 94.1489 99.8688C95.8884 105.253 97.6894 110.62 99.2999 116.047C99.7855 117.694 100.572 118.125 102.189 118.125C113.868 118.088 125.547 118.125 137.226 118.162H138.602C138.227 119.213 137.435 119.446 136.851 119.864ZM252.085 106.341C249.869 107.595 247.358 108.232 244.813 108.185C199.736 108.14 154.674 108.101 109.626 108.069C108.268 108.069 107.61 107.706 107.168 106.354C104.709 98.4673 102.195 90.5994 99.5703 82.7684C98.9556 80.9674 99.2691 80.6355 101.125 80.6355C125.303 80.6928 149.48 80.7051 173.658 80.6723C197.532 80.6723 221.408 80.6723 245.286 80.6723C248.315 80.6362 251.267 81.6261 253.662 83.4809C256.058 85.3358 257.754 87.9465 258.477 90.8883C259.249 93.8087 259.042 96.9016 257.887 99.6929C256.732 102.484 254.694 104.82 252.085 106.341Z" fill="#FE0A07"/>
<path d="M222.678 372.424C226.305 370.272 230.276 371.373 234.117 371.194C233.398 372.559 232.273 373.038 230.737 372.971C228.462 372.872 226.176 372.971 223.895 372.922C223.471 372.946 222.758 373.321 222.678 372.424Z" fill="#D2D5D4"/>
<path d="M107.512 321.995C106.473 320.047 105.668 317.982 104.623 316.033C104.008 314.896 103.916 314.287 105.146 313.316C108.151 310.95 107.881 307.464 107.309 304.207C106.799 301.293 104.439 300.014 101.728 299.467C98.2857 298.773 94.8558 299.265 91.4259 299.676C90.2457 299.818 89.9322 300.291 89.9506 301.428C90.006 304.877 89.9506 308.331 89.9506 311.786C89.9506 315.24 89.9998 318.547 89.9199 321.909C89.883 323.403 90.1781 324.257 91.9176 324.073C93.5219 323.901 95.5381 324.516 95.4704 321.774C95.4274 320.164 95.5319 318.547 95.4397 316.943C95.366 315.756 95.6979 315.351 96.9518 315.375C98.0951 315.375 98.7959 315.689 99.2016 316.783C99.7609 318.203 100.64 319.512 101.082 320.957C101.869 323.563 103.541 324.27 106.111 324.11C107.838 323.999 108.422 323.704 107.512 321.995ZM97.3514 310.857C93.4604 310.636 96.122 307.612 95.5504 305.94C94.8066 303.789 96.4539 303.709 97.6649 303.844C101.076 303.875 102.115 304.717 102.072 307.169C102.029 309.622 100.505 311.03 97.3514 310.857Z" fill="black"/>
<path d="M158.635 311.607C158.635 310.821 158.678 309.898 158.635 308.983C158.352 304.065 156.096 300.617 152.304 299.609C150.297 299.089 148.205 298.986 146.157 299.308C142.377 299.848 140.01 301.92 139.027 305.454C137.911 309.537 137.911 313.844 139.027 317.926C140.065 321.811 142.807 323.938 146.833 324.171C148.061 324.258 149.293 324.258 150.521 324.171C154.068 323.889 156.526 322.1 157.744 318.731C158.541 316.447 158.845 314.018 158.635 311.607ZM152.752 316.23C152.224 318.584 150.908 319.66 148.554 319.653C146.2 319.647 144.866 318.682 144.251 316.359C143.858 314.828 143.962 313.322 143.852 311.804C143.981 310.286 143.76 308.761 144.233 307.243C145.063 304.588 146.077 303.789 148.898 303.905C151.222 303.998 152.236 304.981 152.808 307.593C153.432 310.44 153.413 313.391 152.752 316.23Z" fill="black"/>
</svg>
