<svg width="400" height="378" viewBox="0 0 400 378" fill="none" xmlns="http://www.w3.org/2000/svg">
<g clip-path="url(#clip0_6_4894)">
<path d="M321.768 235.288C327.858 242.796 333.311 250.771 339.074 258.513C358.95 285.194 378.781 311.906 398.569 338.649C398.973 339.192 399.357 339.753 400 340.661H397.327C365.036 340.661 332.74 340.677 300.44 340.711C299.677 340.75 298.918 340.582 298.242 340.226C297.567 339.87 297 339.339 296.6 338.687C279.969 316.357 263.311 294.047 246.625 271.759C244.374 268.745 241.89 265.902 239.948 262.668C241.001 261.672 242.332 262.037 243.548 262.037C253.314 262.107 263.054 262.069 272.707 260.146C289.431 256.975 305 249.377 317.79 238.144C319.007 237.078 320.116 235.786 321.768 235.288Z" fill="#FE0A07"/>
<path d="M321.768 235.288C316.963 240.132 311.59 244.378 305.767 247.934C295.21 254.515 283.481 258.993 271.225 261.123C263.029 262.592 254.688 262.807 246.354 262.649C244.229 262.605 242.098 262.649 239.974 262.649L232.881 253.192C233.594 252.448 234.508 252.751 235.34 252.745C240.535 252.713 245.736 252.883 250.918 252.694C263.401 252.228 275.417 249.744 286.854 244.499C296.638 240.003 305.591 234.367 313.389 226.928C313.874 226.532 314.388 226.173 314.928 225.856L321.768 235.288Z" fill="#CB0507"/>
<path d="M342.963 137.953C334.326 90.1397 291.658 58.9578 249.525 59.0019C174.451 59.1112 99.3774 59.1238 24.3038 59.0397C23.7994 59.0397 23.2257 58.8191 22.652 59.418C23.1942 60.1493 23.7363 60.8932 24.2848 61.6245C41.639 84.8881 59.0057 108.143 76.385 131.39C76.8594 131.939 77.17 132.61 77.2814 133.326C77.3929 134.043 77.3008 134.777 77.0155 135.444C73.4345 146.161 69.9313 156.904 66.5059 167.672C65.9826 169.336 65.245 169.778 63.5428 169.771C43.3685 169.683 23.1942 169.641 3.01984 169.645H0C1.05915 170.471 1.63286 170.95 2.23809 171.392C18.5835 183.299 34.9373 195.193 51.2995 207.075C52.6487 208.052 53.0143 208.821 52.4469 210.505C47.6807 224.81 43.0406 239.133 38.3627 253.451L32.6509 270.971L85.9489 232.438V235.445C85.9489 269.674 85.9258 303.899 85.8796 338.12C85.8796 340.188 86.3398 340.717 88.4455 340.711C116.572 340.635 144.694 340.635 172.812 340.711C175.05 340.711 175.296 339.986 175.29 338.069C175.233 310.45 175.29 282.83 175.208 255.216C175.208 253.274 175.668 252.738 177.648 252.745C195.218 252.827 212.782 252.795 230.353 252.795C231.204 252.795 232.087 252.65 232.875 253.186C241.745 253.388 250.622 253.816 259.473 252.732C278.834 250.399 295.844 242.695 310.741 230.225C312.286 228.964 314.001 227.754 314.915 225.844C315.438 225.264 315.942 224.665 316.478 224.103C339.603 199.787 348.991 171.051 342.963 137.953ZM136.259 181.939C126.802 188.824 117.307 195.733 107.756 202.523C106.382 203.5 106.243 204.301 106.728 205.776C110.41 216.954 114.004 228.157 117.629 239.354C117.818 239.94 118.209 240.495 117.925 241.201C117.137 241.283 116.715 240.634 116.191 240.256C106.703 233.371 97.2087 226.505 87.8213 219.526C86.4154 218.486 85.5706 218.587 84.2341 219.571C74.7774 226.505 65.2576 233.327 55.7568 240.192C55.1894 240.602 54.6031 240.993 53.5691 241.706C54.83 237.778 55.9522 234.317 57.0807 230.862C59.8043 222.508 62.5026 214.149 65.2765 205.82C65.7935 204.282 65.6989 203.418 64.2489 202.378C54.1554 195.179 44.1313 187.796 34.0442 180.451C34.6242 179.676 35.387 180.054 36.0049 180.054C47.8194 180.054 59.6277 180.054 71.4423 180.111C73.1319 180.111 73.8821 179.657 74.4117 177.999C77.9927 166.783 81.6871 155.612 85.35 144.428C85.5643 143.797 85.7976 143.129 86.157 142.076C88.332 148.771 90.3999 155.095 92.4614 161.431C94.2456 166.953 96.0928 172.457 97.7446 178.024C98.2426 179.714 99.0496 180.155 100.708 180.155C112.686 180.117 124.665 180.155 136.643 180.193H138.055C137.671 181.271 136.858 181.51 136.259 181.939ZM254.449 168.069C252.176 169.356 249.601 170.009 246.99 169.961C200.758 169.914 154.539 169.874 108.336 169.841C106.943 169.841 106.268 169.469 105.814 168.082C103.293 159.993 100.714 151.924 98.022 143.892C97.3915 142.044 97.7131 141.704 99.617 141.704C124.415 141.763 149.212 141.775 174.01 141.742C198.496 141.742 222.985 141.742 247.476 141.742C250.583 141.705 253.611 142.72 256.067 144.622C258.524 146.525 260.264 149.203 261.005 152.22C261.797 155.215 261.584 158.387 260.4 161.25C259.215 164.113 257.125 166.509 254.449 168.069Z" fill="#FE0A07"/>
</g>
<defs>
<clipPath id="clip0_6_4894">
<rect width="400" height="400" fill="white"/>
</clipPath>
</defs>
</svg>
