<svg width="400" height="378" viewBox="0 0 400 378" fill="none" xmlns="http://www.w3.org/2000/svg">
<path d="M175.643 0H178.838C179.493 0.630978 180.316 0.319482 181.075 0.399353C181.682 0.399353 182.337 0.527146 182.832 0H185.228C187.85 0.655027 190.593 0.655027 193.215 0L208.39 0C210.199 0.638857 212.172 0.638857 213.981 0H217.975C218.31 0.282199 218.735 0.436935 219.173 0.436935C219.611 0.436935 220.036 0.282199 220.371 0L222.767 0C229.069 1.59741 235.618 0.918512 242.008 2.30027C271.725 8.74408 299.612 21.7894 323.604 40.4704C342.172 54.7779 358.015 72.3091 370.376 92.2266C384.01 114.071 393.802 137.473 397.78 163.088C398.466 167.513 397.899 172.081 399.193 176.442V178.838C398.911 179.174 398.756 179.598 398.756 180.036C398.756 180.475 398.911 180.899 399.193 181.234V183.631C398.562 185.166 398.562 186.888 399.193 188.423V210.787C398.562 212.322 398.562 214.044 399.193 215.579V217.975C398.911 218.31 398.756 218.735 398.756 219.173C398.756 219.611 398.911 220.036 399.193 220.371V223.566C397.788 227.647 398.395 231.952 397.796 236.129C395.447 252.175 390.384 267.399 383.786 282.111C373.521 305.273 358.9 326.246 340.72 343.891C311.072 372.556 275.921 390.815 235.291 398.203C230.874 399.002 226.313 399.066 221.809 399.201C219.7 399.265 217.584 399.201 215.571 400H211.577C210.866 399.321 209.98 399.704 209.181 399.601C208.382 399.704 207.488 399.321 206.785 400H202.791C200.436 399.377 197.959 399.377 195.603 400H192.408C191.697 399.321 190.811 399.704 190.012 399.601C189.213 399.704 188.319 399.321 187.616 400H182.824C178.032 398.562 173.104 399.257 168.255 398.682C155.125 397.085 142.473 393.602 130.109 389.098C107.979 380.97 87.4367 369.042 69.4076 353.851C50.0236 337.556 33.9336 317.706 22.0044 295.37C12.5843 278.218 5.85019 259.723 2.0367 240.53C1.37239 236.336 0.958991 232.106 0.798706 227.863C0.670913 226.138 1.19806 224.309 0 222.751V176.426C1.19806 174.893 0.670913 173.08 0.798706 171.37C1.23799 156.994 5.27945 143.376 10.1675 130.005C18.3001 107.872 30.2364 87.3294 45.4384 69.3037C61.5717 50.1599 81.1745 34.2343 103.217 22.3638C120.586 12.7896 139.32 5.93431 158.767 2.0367C162.808 1.23799 166.922 1.12618 171.019 0.81468C172.592 0.694874 174.198 0.798706 175.643 0Z" fill="#FEC800"/>
<path d="M0 171.658L1.50157 171.554C1.50157 173.327 2.14053 175.316 0 176.442V171.658Z" fill="#ECDC9A"/>
<path d="M1.50157 227.631L0 227.543V222.751C2.14053 223.877 1.46962 225.874 1.50157 227.631Z" fill="#ECDC99"/>
<path d="M193.215 0C191.971 0.605285 190.605 0.919813 189.222 0.919813C187.838 0.919813 186.472 0.605285 185.228 0L193.215 0Z" fill="#F7CA0E"/>
<path d="M213.973 0C213.153 0.57173 212.178 0.878259 211.178 0.878259C210.178 0.878259 209.202 0.57173 208.382 0L213.973 0Z" fill="#F6CA13"/>
<path d="M399.193 188.423C398.646 187.744 398.348 186.898 398.348 186.027C398.348 185.155 398.646 184.309 399.193 183.63V188.423Z" fill="#F0CA27"/>
<path d="M399.193 215.571C398.646 214.892 398.348 214.046 398.348 213.175C398.348 212.303 398.646 211.457 399.193 210.778V215.571Z" fill="#F0CA27"/>
<path d="M399.193 220.355C397.971 219.556 398.275 218.758 399.193 217.959V220.355Z" fill="#EDDC9C"/>
<path d="M399.193 181.234C398.275 180.436 397.971 179.637 399.193 178.838V181.234Z" fill="#EDDC9C"/>
<path d="M181.187 0.646952C180.34 0.646952 179.35 1.19806 178.838 0H181.234C181.788 0.266235 181.772 0.481886 181.187 0.646952Z" fill="#F1DF9B"/>
<path d="M220.355 0C219.556 1.21403 218.758 0.926499 217.959 0H220.355Z" fill="#F1DF9A"/>
<path d="M181.187 0.646952L181.234 0H182.832C182.673 0.279857 182.423 0.496769 182.124 0.614513C181.824 0.732258 181.493 0.743708 181.187 0.646952Z" fill="#EFD571"/>
<path d="M172.457 11.1819C181.298 10.5189 190.108 9.52054 199.006 9.49658C208.295 9.49658 217.504 10.455 226.745 11.1819C227.24 10.7985 227.703 10.6627 228.063 11.3576C242.04 14.0173 255.953 17.0603 269.1 22.6433C334.594 50.4489 373.997 99.3191 387.309 169.254C387.465 169.891 387.66 170.517 387.892 171.131C388.539 171.514 388.451 171.985 388.043 172.489C388.698 181.202 389.705 189.884 389.745 198.646C389.745 208.071 388.81 217.424 388.043 226.793C388.451 227.296 388.531 227.759 387.892 228.142C385.328 241.049 382.676 253.949 377.708 266.185C350.52 333.186 301.405 373.547 230.363 387.269C229.564 387.412 228.837 387.676 228.079 387.884C227.719 388.562 227.28 388.443 226.745 388.059C217.376 388.818 208.031 389.793 198.606 389.745C189.821 389.705 181.163 388.714 172.457 388.059C171.953 388.443 171.49 388.562 171.131 387.884C157.153 385.224 143.368 381.893 130.085 376.654C90.7605 361.197 57.7025 333.086 36.1284 296.755C14.5544 260.425 5.69281 217.945 10.9423 176.019C11.086 174.837 11.086 173.623 11.1499 172.449C10.7426 171.953 10.6468 171.482 11.3097 171.107C13.8576 158.2 16.5172 145.309 21.4852 133.064C48.6945 66.0317 97.8149 25.6704 168.846 11.9806C169.645 11.8288 170.372 11.5732 171.131 11.3656C171.482 10.6307 171.953 10.7506 172.457 11.1819Z" fill="black"/>
<path d="M8.57021 191.29V207.751H8.25073V191.298L8.57021 191.29Z" fill="#FED400"/>
<path d="M11.3097 171.107L11.15 172.449C10.1596 171.323 10.3513 170.053 11.0142 168.799L11.3097 171.107Z" fill="#FED500"/>
<path d="M172.457 11.1819L171.131 11.3656L168.152 10.9503C170.164 10.2155 171.33 10.2634 172.457 11.1819Z" fill="#FED500"/>
<path d="M228.062 11.3176L226.745 11.1818C227.799 10.2553 229.005 10.3831 230.443 10.5588C229.708 11.5333 228.757 11.0221 228.062 11.3176Z" fill="#FED500"/>
<path d="M387.9 228.102C387.948 227.655 388.003 227.2 388.051 226.753C388.341 227.156 388.562 227.604 388.706 228.078C388.77 228.558 389.162 229.268 388.283 229.532L387.9 228.102Z" fill="#FDD700"/>
<path d="M388.051 172.449C388.003 171.993 387.948 171.546 387.9 171.091C388.163 170.644 388.083 169.406 388.475 169.781C389.265 170.508 388.73 171.626 388.051 172.449Z" fill="#FDD700"/>
<path d="M27.1561 166.858C29.0251 153.879 33.2103 141.579 38.3859 129.606C68.9125 59.0004 141.092 17.1003 218.718 24.8557C293.493 32.3236 356.527 89.6627 371.79 164.118C371.886 164.772 371.942 165.43 371.958 166.091C371.902 166.554 371.023 167.153 372.157 167.441C375.544 182.456 375.879 197.656 374.825 212.919C374.386 219.253 373.914 225.602 372.165 231.761C371.015 232.048 371.91 232.647 371.958 233.118C368.419 253.813 360.696 272.934 349.841 290.793C312.118 352.884 241.209 384.976 169.046 372.748C99.0397 360.887 42.2676 305.817 27.5155 235.482C27.2999 234.452 27.26 233.39 27.1401 232.336C27.3744 232.069 27.522 231.738 27.5635 231.385C27.4124 231.54 27.2336 231.664 27.0363 231.753C23.6738 216.737 23.3143 201.545 24.3846 186.29C24.8239 179.964 25.2871 173.607 27.0443 167.457C27.2403 167.539 27.4171 167.662 27.5635 167.816C27.5248 167.464 27.3831 167.13 27.1561 166.858Z" fill="#FCC600"/>
<path d="M372.197 167.441C372.109 168.239 372.021 168.966 371.877 170.156C371.482 169.547 371.282 168.831 371.304 168.105C371.325 167.379 371.567 166.676 371.997 166.091C372.029 166.538 372.093 166.993 372.197 167.441Z" fill="#FED300"/>
<path d="M371.958 233.118C371.528 232.531 371.286 231.828 371.264 231.1C371.243 230.373 371.443 229.656 371.838 229.045C371.981 230.235 372.069 230.994 372.165 231.761C372.093 232.216 372.029 232.663 371.958 233.118Z" fill="#FED300"/>
<path d="M27.0363 231.753L27.3797 228.925C28.1385 230.563 27.9148 231.481 27.1401 232.336C27.0928 232.306 27.0522 232.267 27.021 232.221C26.9898 232.174 26.9686 232.122 26.9588 232.067C26.949 232.012 26.9509 231.956 26.9642 231.902C26.9776 231.848 27.0021 231.797 27.0363 231.753Z" fill="#FED500"/>
<path d="M27.156 166.858C27.8749 167.656 28.1624 168.543 27.4915 170.148C27.2918 168.918 27.18 168.184 27.0602 167.457C27.0241 167.412 26.9979 167.361 26.9831 167.305C26.9683 167.25 26.9653 167.192 26.9744 167.136C26.9834 167.079 27.0043 167.025 27.0356 166.977C27.0669 166.929 27.1079 166.889 27.156 166.858Z" fill="#FED500"/>
<path d="M176.442 29.5042C191.838 27.822 207.371 27.822 222.767 29.5042C223.27 29.0968 223.742 29.017 224.133 29.6559C237.711 32.1958 251.217 35.191 263.956 40.726C320.611 65.3474 355.36 107.889 368.204 168.351C368.367 168.986 368.57 169.61 368.811 170.22C369.497 170.795 369.266 171.698 369.609 172.401C369.45 173.758 370.512 175.068 369.753 176.442C371.423 191.839 371.423 207.371 369.753 222.767C370.512 224.141 369.45 225.459 369.609 226.809C369.282 227.511 369.513 228.406 368.811 228.989C365.815 242.91 361.982 256.544 356.159 269.603C326.184 336.782 254.644 378.315 182.632 370.24C106.412 361.654 45.686 306.44 31.3413 232.687C26.9065 210.037 27.0877 186.725 31.8738 164.146C36.6599 141.567 45.9527 120.186 59.1958 101.283C72.4388 82.3804 89.3599 66.3439 108.946 54.1338C128.532 41.9237 150.381 33.7912 173.184 30.223C173.824 30.082 174.454 29.8952 175.068 29.6639C175.46 29.0249 175.931 29.0968 176.442 29.5042Z" fill="#010000"/>
<path d="M369.697 176.442C369.186 175.156 368.547 173.894 368.97 172.449C369.015 172.273 369.1 172.109 369.218 171.971C369.335 171.833 369.483 171.723 369.649 171.65C370.194 172.327 370.494 173.169 370.503 174.038C370.512 174.907 370.228 175.754 369.697 176.442Z" fill="#FDD500"/>
<path d="M369.002 226.753C368.571 225.299 369.218 224.037 369.729 222.759C370.258 223.448 370.542 224.295 370.533 225.163C370.524 226.032 370.224 226.873 369.681 227.551C369.514 227.479 369.367 227.369 369.249 227.231C369.131 227.092 369.047 226.929 369.002 226.753Z" fill="#FDD500"/>
<path d="M369.002 226.753L369.681 227.551C369.717 228.062 369.717 228.574 369.681 229.085C369.593 229.522 369.464 229.949 369.298 230.363C369.138 229.899 368.978 229.444 368.827 228.989L369.002 226.753Z" fill="#FED400"/>
<path d="M224.125 29.656L222.759 29.5042C223.893 28.6576 225.099 28.4579 226.833 29.2966L224.125 29.656Z" fill="#FED500"/>
<path d="M369.649 171.666L368.97 172.465C368.906 171.722 368.834 170.987 368.771 170.244L369.25 168.878C370.072 169.693 369.465 170.731 369.649 171.666Z" fill="#FED400"/>
<path d="M176.442 29.5042L175.068 29.664L172.361 29.2966C174.118 28.4579 175.3 28.6576 176.442 29.5042Z" fill="#FED500"/>
<path d="M206.777 33.5456C215.422 33.5283 224.036 34.5799 232.423 36.6765C232.423 37.2037 231.888 36.5408 232.248 36.9321C232.607 37.3235 232.823 36.8443 233.11 36.7804C251.453 40.1104 268.998 46.8857 284.818 56.748C326.735 82.509 352.783 119.516 362.964 167.768C363.082 168.562 363.154 169.362 363.18 170.164C362.748 170.636 362.988 171.306 362.676 171.818C362.929 171.764 363.166 171.655 363.371 171.498C364.972 178.385 365.725 185.442 365.616 192.512C365.022 197.286 365.022 202.115 365.616 206.889C365.725 213.92 364.985 220.938 363.411 227.791C363.203 227.635 362.963 227.526 362.708 227.471C363.02 227.983 362.78 228.654 363.211 229.133C360.548 246.801 354.588 263.81 345.64 279.276C315.489 331.607 270.282 360.592 209.956 365.68C208.646 365.783 207.312 365.68 205.962 365.68C201.727 365.032 197.418 365.032 193.183 365.68C171.722 365.445 150.569 360.539 131.195 351.303C78.1879 326.112 46.2396 284.595 35.3506 226.753C35.2104 225.693 35.1357 224.626 35.127 223.558C35.2707 223.103 36.1972 222.543 34.9672 222.248C33.8474 217.171 33.3698 211.973 33.5455 206.777C34.1299 202.003 34.1299 197.175 33.5455 192.4C33.3616 187.207 33.8339 182.012 34.9512 176.937C36.1813 176.65 35.2548 176.091 35.119 175.635C36.6591 161.617 40.4004 147.93 46.205 135.077C69.2876 83.1825 108.464 50.5075 163.735 37.0519C164.527 36.9117 165.327 36.821 166.131 36.7804C168.04 36.7804 169.965 36.9082 171.682 35.8219C178.481 34.1992 185.459 33.4398 192.448 33.5616C197.206 34.1527 202.02 34.1473 206.777 33.5456Z" fill="#FDC800"/>
<path d="M365.632 206.777C364.398 202.064 364.398 197.113 365.632 192.4C366.144 197.179 366.144 201.998 365.632 206.777Z" fill="#FED500"/>
<path d="M33.5457 192.416C34.7744 197.13 34.7744 202.079 33.5457 206.793C33.0414 202.014 33.0414 197.195 33.5457 192.416Z" fill="#FED400"/>
<path d="M206.777 33.5456C202.065 34.7865 197.112 34.7865 192.4 33.5456C197.181 33.0733 201.997 33.0733 206.777 33.5456Z" fill="#FED500"/>
<path d="M193.215 365.664C197.38 364.392 201.829 364.392 205.994 365.664C201.746 366.111 197.463 366.111 193.215 365.664Z" fill="#FED500"/>
<path d="M171.626 35.8219C170.029 37.5152 168.215 38.1382 166.075 36.7804C167.829 36.0456 169.727 35.718 171.626 35.8219Z" fill="#FED400"/>
<path d="M363.196 229.133C362.92 228.722 362.712 228.268 362.581 227.791C362.525 227.312 362.109 226.569 363.028 226.425C363.175 226.874 363.297 227.329 363.395 227.791C363.323 228.238 363.26 228.686 363.196 229.133Z" fill="#FED300"/>
<path d="M34.9753 222.24C35.2389 221.777 35.2309 220.547 35.5584 220.874C36.3571 221.673 35.83 222.727 35.1351 223.55L34.9753 222.24Z" fill="#FED600"/>
<path d="M233.126 36.7804C232.752 37.1546 232.251 37.374 231.722 37.3948C231.194 37.4155 230.677 37.236 230.275 36.8922L232.439 36.6765C232.548 36.6093 232.676 36.5828 232.802 36.6018C232.928 36.6209 233.043 36.6842 233.126 36.7804Z" fill="#FED400"/>
<path d="M35.1431 175.651C35.4292 176.059 35.6552 176.505 35.814 176.977C35.828 177.462 35.7715 177.946 35.6463 178.415C34.8076 178.207 35.2469 177.424 34.9753 176.953L35.1431 175.651Z" fill="#FED600"/>
<path d="M363.411 171.41C363.164 171.866 363.22 173.088 362.852 172.744C362.054 172.009 362.581 170.915 363.22 170.076L363.411 171.41Z" fill="#FED300"/>
<path d="M359.226 199.772C359.162 287.933 287.534 359.33 199.229 359.226C111.316 359.114 39.9354 287.462 39.9754 199.429C40.0472 111.268 111.683 39.8793 199.972 39.9831C287.886 40.087 359.29 111.723 359.226 199.772Z" fill="black"/>
<path d="M224.349 50.3743C225.505 50.1702 226.695 50.3976 227.695 51.0133C228.039 52.0756 228.63 51.2689 229.125 51.205C252.088 55.3423 272.982 64.5114 291.056 79.0559C340.848 119.127 361.055 171.298 346.766 233.526C332.709 294.707 292.454 332.374 231.473 347.741C230.695 347.888 229.908 347.987 229.117 348.036C228.918 347.9 228.693 347.808 228.456 347.767C228.219 347.725 227.976 347.736 227.743 347.797C227.224 347.9 227.048 348.236 227.487 347.94C227.927 347.645 227.487 348.739 227.703 348.228C226.699 348.847 225.502 349.075 224.341 348.867C223.869 348.803 223.278 347.876 222.975 349.05C207.518 351.858 191.683 351.858 176.226 349.05C175.915 347.868 175.324 348.811 174.853 348.867C173.691 349.075 172.494 348.847 171.49 348.228C171.155 347.166 170.564 347.964 170.068 348.036C149.837 344.474 131.451 336.407 114.542 324.938C64.5194 290.961 38.4976 229.947 50.9734 171.482C64.6153 107.49 104.359 67.6983 167.728 51.5085C168.506 51.3553 169.293 51.254 170.084 51.205C170.285 51.339 170.512 51.4295 170.75 51.4708C170.988 51.512 171.232 51.5031 171.466 51.4446C171.993 51.3408 172.169 51.0213 171.722 51.3088C171.274 51.5963 171.722 50.5101 171.506 51.0133C172.51 50.4005 173.702 50.1734 174.861 50.3743C175.332 50.3743 175.931 51.4126 176.234 50.1906C191.691 47.3875 207.526 47.3875 222.983 50.1906C223.278 51.4047 223.877 50.3903 224.349 50.3743Z" fill="#FEC800"/>
<path d="M222.975 349.034L220.235 348.707C221.992 347.828 223.19 348.052 224.34 348.851L222.975 349.034Z" fill="#FDD600"/>
<path d="M174.853 348.827C176.003 348.028 177.249 347.804 178.966 348.683L176.227 349.01L174.853 348.827Z" fill="#FDD600"/>
<path d="M229.125 51.2051C228.579 51.4677 228.01 51.6763 227.424 51.8281C227.048 51.9 226.401 52.0757 226.377 51.3968C226.377 51.285 227.24 51.1412 227.695 51.0134L229.125 51.2051Z" fill="#FED600"/>
<path d="M171.498 51.0134C171.921 51.269 173.151 51.1013 172.736 51.5805C172.081 52.3792 170.915 51.8281 170.076 51.2051L171.498 51.0134Z" fill="#FED600"/>
<path d="M224.349 50.3745C223.936 50.6476 223.483 50.855 223.007 50.9895C222.528 51.0454 221.817 51.4368 221.553 50.5742L222.975 50.1908L224.349 50.3745Z" fill="#FDD800"/>
<path d="M176.227 50.1908C176.674 50.4464 177.896 50.3585 177.528 50.7579C176.81 51.5566 175.691 51.0135 174.853 50.3745L176.227 50.1908Z" fill="#FDD800"/>
<path d="M170.068 347.996C170.617 347.733 171.189 347.522 171.778 347.365C172.145 347.301 172.8 347.118 172.816 347.805C172.816 347.924 171.953 348.06 171.49 348.188L170.068 347.996Z" fill="#FED600"/>
<path d="M227.703 348.188C227.28 347.932 226.05 348.084 226.465 347.621C227.128 346.822 228.278 347.373 229.117 347.996L227.703 348.188Z" fill="#FED600"/>
<path d="M59.2561 199.676C59.2561 122.202 122.194 59.216 199.629 59.224C277.063 59.232 340.009 122.266 339.953 199.724C339.897 277.183 276.856 340.081 199.381 339.977C122.122 339.881 59.2881 276.967 59.2561 199.676Z" fill="black"/>
<path d="M160.404 304.155C164.286 297.366 168.173 290.58 172.065 283.796C174.27 279.979 174.286 280.002 176.786 283.844C177.248 284.485 177.746 285.098 178.279 285.681C178.87 286.48 179.717 286.216 180.484 286.216C195.611 286.216 210.744 286.216 225.882 286.216C226.641 286.216 227.479 286.448 228.079 285.681C230.69 282.007 233.142 278.253 234.692 273.988C233.39 272.958 231.864 273.477 230.459 273.477C194.006 273.445 157.553 273.424 121.1 273.413C119.462 273.413 117.106 274.435 116.699 271.472C120.133 264.955 123.712 258.525 127.769 252.375C129.175 252.998 130.66 252.679 132.098 252.679H239.428C240.492 252.62 241.559 252.62 242.623 252.679C206.194 252.679 169.142 252.679 132.082 252.679C130.652 252.679 129.159 253.054 127.777 252.319C128.975 250.722 130.708 251.521 132.154 251.521C169.23 251.465 206.314 251.409 243.39 251.577C247.128 251.577 249.26 250.474 250.706 247.192C251.704 244.931 253.102 242.855 254.58 240.211H146.85C141.555 240.211 138.008 234.101 140.732 229.556C143.04 225.714 144.869 221.569 147.729 218.071C185.811 217.863 223.893 218.071 261.944 217.959C263.501 217.959 265.059 218.877 266.624 218.015C276.025 218.814 283.157 225.603 284.196 234.74C284.307 237.399 283.956 240.067 284.196 242.727C282.886 253.014 276.935 260.378 269.156 266.592C267.95 267.551 266.217 268.014 265.905 269.859C265.985 271.728 265.354 273.597 265.905 275.45C265.107 289.978 249.779 305.657 234.756 307.398C211.396 307.398 188.034 307.398 164.669 307.398C162.433 307.374 159.741 307.901 160.404 304.155Z" fill="#FEC800"/>
<path d="M256.289 171.61C253.933 171.203 252.647 169.445 251.712 167.569C245.956 156.088 240.264 144.579 234.636 133.04C233.645 131.012 233.038 128.823 234.636 126.707C237.575 124.734 240.898 125.429 244.1 125.365C246.84 125.309 249.58 125.325 252.311 125.365C254.516 126.036 255.043 128.104 255.929 129.822C258.038 133.903 260.067 138.032 262.399 142.689C264.843 137.793 267.095 133.464 269.164 129.047C270.689 125.764 273.038 124.255 276.688 124.438C279.731 124.606 282.79 124.438 285.833 124.502C288.061 124.566 289.986 125.229 290.625 127.697C290.383 128.748 290.383 129.841 290.625 130.892C290.625 133.136 289.203 134.838 288.285 136.715C283.525 146.469 278.716 156.203 273.86 165.915C272.63 168.399 271.464 170.971 268.269 171.602C264.276 171.626 260.282 171.722 256.289 171.61Z" fill="#FEC800"/>
<path d="M164.326 204.317C175.763 197.64 187.195 190.955 198.622 184.261C199.422 183.79 200.337 183.549 201.266 183.567H256.584L243.605 205.411C232.423 205.803 221.241 205.531 210.108 205.571C196.263 205.629 182.432 205.629 168.615 205.571C167.113 205.563 165.332 206.146 164.326 204.317Z" fill="#FEC800"/>
<path d="M129.478 129.071C130.636 133.863 129.854 138.751 129.958 143.591C130.101 150.892 129.958 150.78 137.473 150.939C142.034 151.051 146.659 150.141 151.163 151.562C145.189 152.784 139.183 151.69 133.168 152.066C132.633 151.978 133.208 152.864 133.168 152.361C139.334 151.562 145.556 152.673 151.722 151.77C152.594 152.007 153.368 152.516 153.931 153.223C154.494 153.929 154.817 154.797 154.853 155.7C154.308 159.675 154.308 163.705 154.853 167.68C154.827 168.593 154.508 169.473 153.945 170.192C153.381 170.911 152.602 171.43 151.722 171.674C139.223 171.674 126.723 171.921 114.223 171.538C110.309 169.941 108.52 166.898 108.488 162.864C108.408 152.215 108.408 141.595 108.488 131.004C108.488 126.906 110.884 124.71 114.982 124.558C117.498 124.47 120.03 124.63 122.546 124.518C125.74 124.374 128.137 125.469 129.343 128.6C128.36 134.989 129.462 141.499 128.975 146.123C128.975 143.064 128.927 138.2 128.975 133.344C128.991 131.882 128.432 130.365 129.478 129.071Z" fill="#FEC800"/>
<path d="M170.069 171.57C167.465 170.524 166.73 168.375 166.73 165.819C166.73 154.26 166.73 142.7 166.73 131.14C166.73 128.6 167.449 126.435 170.061 125.397C175.108 125.397 180.156 125.157 185.236 125.541C185.877 125.764 186.442 126.163 186.866 126.693C187.29 127.223 187.555 127.862 187.632 128.536C187.632 141.842 187.632 155.157 187.632 168.471C187.545 169.14 187.275 169.772 186.852 170.297C186.429 170.822 185.87 171.221 185.236 171.45C180.148 171.858 175.108 171.618 170.069 171.57Z" fill="#FEC800"/>
<path d="M219.556 125.397C220.429 125.652 221.2 126.174 221.761 126.891C222.321 127.607 222.642 128.482 222.679 129.39C221.944 137.018 222.432 144.67 222.392 152.305C222.392 157.433 221.952 162.577 222.663 167.696C222.624 168.598 222.302 169.464 221.743 170.172C221.184 170.88 220.416 171.395 219.548 171.642C214.756 171.738 209.964 171.642 205.172 171.73C204.396 171.57 203.686 171.18 203.136 170.609C202.585 170.039 202.22 169.316 202.089 168.535C202.282 168.11 202.39 167.652 202.408 167.185C202.408 154.773 202.408 142.364 202.408 129.957C202.396 129.492 202.284 129.034 202.081 128.616C202.173 127.951 202.445 127.324 202.868 126.802C203.29 126.28 203.846 125.882 204.477 125.652C209.469 125.109 214.516 125.445 219.556 125.397Z" fill="#FEC800"/>
<path d="M174.038 116.611C168.807 115.453 165.748 112.154 164.589 107.027C165.101 105.158 164.589 103.313 164.486 101.436C165.396 95.8447 168.551 92.4023 174.07 91.1004C176.203 91.1802 178.335 91.0205 180.46 91.0205C186.586 92.3783 190.651 97.1626 190.843 103.273C191.075 109.662 187.456 114.646 181.195 116.555C178.83 116.611 176.434 116.491 174.038 116.611Z" fill="#FEC800"/>
<path d="M215.563 91.0525C220.786 92.2106 223.933 95.4214 225.083 100.637C224.716 102.754 225.331 104.878 225.083 107.027C223.949 112.25 220.834 115.501 215.571 116.611C213.175 116.483 210.779 116.611 208.382 116.499C206.236 116.046 204.266 114.984 202.708 113.44C201.15 111.896 200.07 109.935 199.597 107.793C199.597 105.134 199.597 102.482 199.597 99.8063C200.97 94.9182 204.093 91.923 209.125 91.0205C211.298 91.1323 213.43 91.0525 215.563 91.0525Z" fill="#FEC800"/>
<path d="M266.664 217.999C265.258 219.093 263.613 218.75 262.048 218.75C225.483 218.75 188.921 218.75 152.361 218.75C150.764 218.75 149.166 219.093 147.729 218.055C148.871 217.008 150.269 217.536 151.531 217.528C188.197 217.496 224.865 217.496 261.536 217.528C263.246 217.528 264.955 217.831 266.664 217.999Z" fill="#FED800"/>
<path d="M160.404 304.155C161.003 306.655 162.848 306.623 164.933 306.615C186.54 306.557 208.143 306.557 229.74 306.615C231.417 306.615 233.206 306.192 234.724 307.414C233.097 308.006 231.363 308.251 229.636 308.133C206.41 308.133 183.183 308.133 159.957 308.133C159.517 308.098 159.08 308.039 158.647 307.957C158.771 306.524 159.393 305.179 160.404 304.155Z" fill="#FCCE00"/>
<path d="M116.699 271.472C118.097 273.453 120.197 273.07 122.154 273.07C157.888 273.07 193.625 273.07 229.364 273.07C231.161 273.07 233.126 272.487 234.692 273.98C195.821 273.98 156.951 274.015 118.081 274.084C115.709 274.092 114.558 273.741 116.699 271.472Z" fill="#FCD100"/>
<path d="M164.326 204.317C165.923 205.188 167.624 205.196 169.358 205.196C193.75 205.121 218.137 205.06 242.519 205.012C242.905 205.079 243.275 205.214 243.613 205.411C243.262 206.138 242.591 206.13 241.928 206.138H161.706C161.986 205.664 162.365 205.256 162.817 204.941C163.269 204.627 163.784 204.414 164.326 204.317Z" fill="#FECE00"/>
<path d="M202.073 128.544H202.775C203.654 131.259 203.135 134.047 203.159 136.794C203.239 146.051 203.207 155.316 203.159 164.573C203.159 165.867 203.51 167.225 202.759 168.455H202.073C201.761 167.734 201.551 166.973 201.45 166.195C201.402 154.4 201.402 142.598 201.45 130.788C201.56 130.016 201.77 129.262 202.073 128.544Z" fill="#FED500"/>
<path d="M187.608 168.463C186.976 167.594 186.691 166.52 186.809 165.452C186.809 154.153 186.809 142.851 186.809 131.547C186.686 130.478 186.971 129.403 187.608 128.536C187.752 128.759 188.007 128.983 188.015 129.207C188.447 142.066 188.471 154.933 188.015 167.792C187.999 168.024 187.744 168.239 187.608 168.463Z" fill="#FED400"/>
<path d="M114.215 171.474C115.813 170.508 117.578 170.875 119.271 170.875C128.552 170.843 137.83 170.843 147.106 170.875C148.703 170.875 150.301 170.532 151.714 171.618C150.756 172.56 149.526 172.465 148.336 172.465C138.357 172.465 128.384 172.465 118.416 172.465C116.946 172.59 115.474 172.243 114.215 171.474Z" fill="#FED000"/>
<path d="M228.079 285.681C228.174 287.111 227.04 286.592 226.433 286.592C210.938 286.629 195.443 286.629 179.949 286.592C179.326 286.592 178.215 287.087 178.279 285.673C194.876 285.316 211.476 285.319 228.079 285.681Z" fill="#FED900"/>
<path d="M222.663 167.656C222.382 167.211 222.182 166.718 222.072 166.203C222.04 154.409 222.04 142.606 222.072 130.796C222.183 130.282 222.386 129.792 222.671 129.35C223.204 142.124 223.201 154.893 222.663 167.656Z" fill="#FED500"/>
<path d="M252.287 125.397C250.251 126.771 247.95 126.06 245.77 126.14C242.048 126.275 238.302 125.996 234.588 126.731C234.757 126.217 235.075 125.766 235.502 125.434C235.929 125.103 236.445 124.906 236.984 124.87C242.112 124.534 247.255 123.656 252.287 125.397Z" fill="#FDD100"/>
<path d="M219.556 125.397C214.54 126.827 209.493 126.379 204.437 125.62C209.453 123.752 214.5 124.031 219.556 125.397Z" fill="#FED100"/>
<path d="M185.204 125.541C180.148 126.403 175.1 126.731 170.029 125.397C174.978 123.859 180.285 123.91 185.204 125.541Z" fill="#FED100"/>
<path d="M170.068 171.57C175.092 170.308 180.132 170.604 185.18 171.442C180.274 173.025 175.001 173.07 170.068 171.57Z" fill="#FED000"/>
<path d="M205.172 171.722C209.872 170.423 214.832 170.393 219.548 171.634C214.857 172.995 209.879 173.025 205.172 171.722Z" fill="#FED100"/>
<path d="M129.478 129.071V149.598C129.031 142.577 127.569 135.532 129.311 128.536C129.362 128.554 129.408 128.584 129.446 128.623C129.483 128.662 129.511 128.71 129.528 128.762C129.544 128.813 129.548 128.868 129.539 128.922C129.531 128.976 129.51 129.027 129.478 129.071Z" fill="#FED900"/>
<path d="M256.289 171.61C260.185 170.362 264.373 170.362 268.269 171.61C264.383 172.917 260.175 172.917 256.289 171.61Z" fill="#FED100"/>
<path d="M151.69 151.754C144.965 153.352 138.2 152.082 131.443 151.547H151.163C151.211 151.52 151.263 151.505 151.317 151.501C151.371 151.498 151.425 151.506 151.476 151.526C151.526 151.546 151.571 151.577 151.608 151.616C151.646 151.656 151.674 151.703 151.69 151.754Z" fill="#FED200"/>
<path d="M199.676 99.8383C200.255 101.09 200.555 102.453 200.555 103.832C200.555 105.211 200.255 106.573 199.676 107.825C199.082 106.578 198.774 105.214 198.774 103.832C198.774 102.45 199.082 101.086 199.676 99.8383Z" fill="#FED200"/>
<path d="M284.204 242.711C283.61 241.463 283.302 240.099 283.302 238.717C283.302 237.336 283.61 235.971 284.204 234.724C285.05 237.319 285.05 240.116 284.204 242.711Z" fill="#FED900"/>
<path d="M208.39 116.483C209.509 115.92 210.747 115.636 211.998 115.656C213.25 115.675 214.479 115.998 215.579 116.595C214.443 117.095 213.213 117.343 211.972 117.324C210.732 117.304 209.51 117.018 208.39 116.483Z" fill="#FED800"/>
<path d="M174.038 116.611C175.141 116.018 176.371 115.702 177.623 115.689C178.876 115.676 180.112 115.968 181.226 116.539C180.103 117.066 178.88 117.345 177.64 117.357C176.4 117.37 175.171 117.115 174.038 116.611Z" fill="#FED800"/>
<path d="M180.46 90.9725C179.502 91.5632 178.401 91.8827 177.276 91.8967C176.151 91.9108 175.043 91.619 174.07 91.0524C175.066 90.5783 176.153 90.3257 177.256 90.3119C178.359 90.2981 179.452 90.5235 180.46 90.9725Z" fill="#FED300"/>
<path d="M154.821 167.656C153.634 163.751 153.634 159.581 154.821 155.676C155.383 159.65 155.383 163.683 154.821 167.656Z" fill="#FED200"/>
<path d="M215.563 91.0525C214.596 91.6333 213.489 91.9361 212.361 91.9276C211.234 91.9192 210.131 91.5998 209.173 91.0046C210.178 90.5485 211.27 90.3165 212.373 90.3248C213.477 90.3331 214.565 90.5814 215.563 91.0525Z" fill="#FED300"/>
<path d="M225.091 106.979C224.543 106.003 224.255 104.903 224.255 103.784C224.255 102.665 224.543 101.564 225.091 100.589C225.526 101.598 225.75 102.685 225.75 103.784C225.75 104.882 225.526 105.969 225.091 106.979Z" fill="#FED900"/>
<path d="M265.889 275.45C265.304 274.635 264.99 273.657 264.99 272.654C264.99 271.651 265.304 270.674 265.889 269.859C266.485 271.675 266.485 273.634 265.889 275.45Z" fill="#FED600"/>
<path d="M164.485 101.388C165.024 102.216 165.32 103.18 165.338 104.168C165.357 105.157 165.097 106.13 164.589 106.979C163.829 105.199 163.791 103.194 164.485 101.388Z" fill="#FCDA00"/>
<path d="M290.609 130.94C290.384 130.739 290.204 130.493 290.081 130.218C289.957 129.942 289.894 129.644 289.894 129.342C289.894 129.041 289.957 128.742 290.081 128.467C290.204 128.192 290.384 127.946 290.609 127.745C290.927 128.217 291.097 128.773 291.097 129.342C291.097 129.912 290.927 130.468 290.609 130.94Z" fill="#FED900"/>
<path d="M127.793 252.311H247.224C246.257 253.469 245.307 253.11 244.508 253.11C206.106 253.179 167.704 253.238 129.303 253.286C128.552 253.286 128.017 253.182 127.769 252.415L127.793 252.311Z" fill="#FECE00"/>
<path d="M253.19 238.613H145.213V238.222H253.333L253.19 238.613Z" fill="#FBC300"/>
<path d="M202.775 168.455V128.52C203.419 129.38 203.706 130.456 203.574 131.523C203.574 142.827 203.574 154.132 203.574 165.436C203.714 166.508 203.427 167.592 202.775 168.455Z" fill="#FAC400"/>
</svg>
