<svg width="400" height="378" viewBox="0 0 400 378" fill="none" xmlns="http://www.w3.org/2000/svg">
<path d="M50.0309 137.178C50.0309 105.963 50.0206 74.747 50 43.5296C50 41.9994 50.3431 41.471 51.9694 41.5053C60.2038 41.6529 68.4381 41.5774 76.6519 41.0764C87.5213 40.4108 98.3632 39.4056 109.147 37.7758C122.843 35.7172 136.372 32.9278 149.598 28.7798C162.437 24.7484 174.764 19.5882 185.867 11.8719C190.561 8.61242 195.172 5.21231 198.6 0.511858C199.416 -0.606644 199.855 0.388343 200.281 0.854957C205.204 6.38228 211.016 10.7877 217.264 14.651C228.95 21.856 241.624 26.7212 254.785 30.4781C267.617 34.1424 280.686 36.6265 293.899 38.4277C303.454 39.7281 313.037 40.6647 322.671 41.1725C331.008 41.598 339.346 41.8896 347.69 41.7112C348.812 41.6872 349.282 41.9788 349.134 43.1213C349.105 43.5783 349.105 44.0367 349.134 44.4937C349.134 103.154 349.149 161.814 349.179 220.473C349.221 227.594 348.639 234.705 347.439 241.724C345.009 255.941 340.621 269.753 334.402 282.766C327.197 297.797 317.885 311.442 306.954 323.975C284.388 349.814 257.204 369.762 227.324 386.268C218.575 391.099 209.352 394.949 200.562 399.67C199.855 400.047 199.114 400.157 198.452 399.701C195.337 397.546 191.841 396.132 188.444 394.527C162.06 382.114 137.511 366.129 115.487 347.021C98.72 332.464 84.3099 315.967 72.7818 297.025C62.8319 280.707 55.9699 263.171 52.4703 244.369C51.0714 236.849 50.3651 229.216 50.3603 221.567C50.3328 199.268 50.2916 176.966 50.2367 154.663C50.2367 148.832 50.2367 143 50.2367 137.165L50.0309 137.178Z" fill="#CD9240"/>
<path d="M345.315 163.587C345.878 170.209 345.641 176.841 345.659 183.469C345.681 193.076 345.681 202.683 345.659 212.29C345.659 219.375 345.659 226.484 344.893 233.524C343.427 247.01 340.06 260.221 334.892 272.764C327.948 289.768 318.231 305.081 306.367 319.042C281.616 348.174 251.19 369.94 217.381 387.28C212.059 390.025 206.631 392.513 201.156 394.925C200.714 395.154 200.224 395.275 199.726 395.279C199.228 395.283 198.737 395.17 198.291 394.949C167.268 381.225 138.935 363.318 113.775 340.478C94.6028 323.052 78.7448 303.101 67.6833 279.541C61.4592 266.341 57.2483 252.284 55.191 237.837C54.0863 230.073 53.9147 222.236 53.8392 214.42C53.6986 199.386 53.7535 184.351 53.7843 169.317C53.7843 167.502 53.28 165.7 53.6608 163.882C54.5906 163.254 55.6474 163.45 56.6629 163.45C88.3333 163.45 120.005 163.45 151.677 163.45C152.309 163.45 152.936 163.419 153.564 163.45C154.762 163.511 155.421 162.945 155.901 161.861C159.473 153.815 162.965 145.735 166.458 137.655C169.498 130.625 172.51 123.588 175.831 116.678C176.216 115.879 176.47 114.62 177.423 114.62C178.377 114.62 178.552 115.93 178.868 116.757C185.613 134.375 192.214 152.045 198.867 169.697C206.161 189.062 213.411 208.447 220.88 227.746C221.106 228.487 221.443 229.189 221.879 229.829C222.795 227.89 223.447 225.986 224.232 224.154C231.986 206.08 239.819 188.043 247.536 169.944C248.273 168.208 249.093 166.513 249.8 164.76C250.267 163.594 251.066 163.045 252.301 163.089C252.816 163.089 253.331 163.089 253.845 163.089C283.352 163.089 312.851 163.089 342.344 163.089C343.35 163.11 344.42 162.853 345.315 163.587Z" fill="black"/>
<path d="M53.4311 143.721V57.2775C53.4311 53.8465 53.5066 50.4156 53.4002 46.9846C53.3522 45.499 53.8771 45.1799 55.2564 45.2039C59.9431 45.2794 64.6298 45.2691 69.3234 45.2245C75.4237 45.1661 81.4829 44.4697 87.5557 43.9619C92.4895 43.5467 97.4198 43.0595 102.309 42.4419C110.376 41.4309 118.396 40.1134 126.367 38.4894C136.811 36.4028 147.102 33.6093 157.167 30.1281C169.519 25.8051 181.211 20.1988 191.686 12.2595C193.943 10.6072 196.09 8.81135 198.116 6.88317C199.303 5.7132 199.955 6.16952 200.916 6.95865C204.92 10.2627 208.924 13.577 213.288 16.4042C224.445 23.6092 236.618 28.6082 249.251 32.5298C258.174 35.2722 267.245 37.5037 276.421 39.2134C283.513 40.5583 290.657 41.5842 297.817 42.5277C305.324 43.5124 312.872 44.0751 320.4 44.8162C327.341 45.5024 334.326 45.2176 341.295 45.2245C345.323 45.2245 345.326 45.2245 345.326 49.2284L345.347 141.7C345.347 142.387 345.329 143.073 345.319 143.759C344.4 144.445 343.333 144.184 342.327 144.184C308.772 144.198 275.217 144.198 241.662 144.184C241.092 144.184 240.52 144.219 239.947 144.184C238.629 144.092 237.847 144.637 237.336 145.9C233.17 156.052 228.635 166.05 224.414 176.178C224.325 176.391 224.449 176.134 224.346 176.336C224.003 177.023 223.852 178.072 222.915 178.052C221.978 178.031 221.886 176.964 221.601 176.261C213.909 156.361 206.446 136.406 198.926 116.455C192.318 98.9137 185.705 81.3677 179.088 63.817C179.058 63.7151 179.005 63.6214 178.933 63.5434C178.861 63.4655 178.772 63.4052 178.672 63.3675C177.183 66.4314 175.821 69.5433 174.432 72.6724C164.516 94.8469 155.03 117.21 145.104 139.381C144.798 140.067 144.356 140.688 144.164 141.399C143.536 143.704 141.978 144.212 139.755 144.205C111.849 144.155 83.9543 144.141 56.0695 144.164C55.1706 144.174 54.2237 144.353 53.4311 143.721Z" fill="#DD2027"/>
<path d="M53.4309 143.721C82.7087 143.756 111.98 143.8 141.244 143.855C142.551 143.855 142.87 143.169 143.268 142.253C152.875 120.386 162.495 98.5216 172.129 76.6593C174.058 72.2848 176.037 67.9377 178.003 63.5804C178.23 63.0795 178.504 62.6026 178.875 61.8889C193.535 100.748 208.11 139.388 222.874 178.519C224.397 174.943 225.715 171.856 227.036 168.768C230.35 161.031 233.702 153.311 236.951 145.547C237.514 144.202 238.159 143.711 239.675 143.711C274.9 143.761 310.117 143.773 345.326 143.745C345.326 150.36 345.326 156.974 345.326 163.587C314.447 163.587 283.575 163.577 252.71 163.556C251.3 163.556 250.651 163.992 250.109 165.271C241.319 185.759 232.506 206.236 223.67 226.703C223.032 228.182 222.568 229.733 221.875 231.671C206.704 192.52 192.437 153.465 177.41 114.332C175.327 118.943 173.334 123.252 171.423 127.613C166.359 139.146 161.321 150.689 156.309 162.242C155.805 163.402 155.235 163.906 153.832 163.906C120.959 163.879 88.0862 163.893 55.2151 163.951C54.7004 163.951 54.1858 163.92 53.6711 163.906C52.9403 157.994 53.0364 152.066 53.2491 146.133C53.2697 145.313 53.3623 144.521 53.4309 143.721Z" fill="#FEFEFE"/>
<path d="M200.679 254.155C208.793 254.155 216.911 254.182 225.039 254.124C226.295 254.124 226.754 254.398 226.679 255.723C226.56 257.834 226.56 259.951 226.679 262.063C226.761 263.494 226.315 263.885 224.881 263.878C212.306 263.823 199.732 263.844 187.161 263.857C184.433 263.857 184.8 263.549 184.783 266.215C184.762 268.959 184.783 268.959 187.449 268.959C199.91 268.959 212.368 268.983 224.847 268.935C226.219 268.935 226.789 269.213 226.693 270.706C226.564 272.762 226.564 274.825 226.693 276.882C226.785 278.302 226.247 278.556 224.956 278.549C212.262 278.508 199.567 278.549 186.89 278.48C185.174 278.48 184.66 278.878 184.749 280.621C184.903 283.709 184.79 283.709 187.96 283.709C200.247 283.709 212.536 283.74 224.826 283.671C226.384 283.671 226.785 284.121 226.693 285.603C226.564 287.599 226.564 289.601 226.693 291.597C226.789 293.031 226.229 293.278 224.943 293.275C213.682 293.23 202.422 293.251 191.165 293.251C186.248 293.251 181.331 293.189 176.411 293.282C174.929 293.309 174.617 292.801 174.624 291.425C174.672 279.483 174.672 267.54 174.624 255.596C174.624 254.261 174.967 253.798 176.339 253.88C184.447 254.261 192.565 254.127 200.679 254.155Z" fill="#DD2027"/>
<path d="M149.049 278.865L169.604 292.781C169.464 293.309 169.138 293.206 168.88 293.21C163.734 293.21 158.587 293.258 153.441 293.23C151.321 293.23 149.259 292.911 147.426 291.662C141.813 287.837 136.241 283.963 130.745 279.969C129.373 278.981 128.927 277.712 128.92 276.154C128.92 273.927 128.975 271.694 128.865 269.471C128.803 268.194 129.177 267.834 130.474 267.844C138.931 267.906 147.389 267.875 155.846 267.875H157.778C157.805 266.798 157.229 265.961 157.071 265.038C156.872 263.844 156.069 263.864 155.17 263.864C147.11 263.864 139.051 263.864 130.995 263.864C129.167 263.864 127.335 263.936 125.506 263.84C124.267 263.775 123.986 264.249 123.993 265.408C124.034 274.037 123.976 282.666 124.048 291.295C124.048 292.836 123.705 293.388 122.082 293.299C119.519 293.155 116.935 293.223 114.369 293.278C113.388 293.299 113.103 292.956 113.106 291.995C113.134 279.767 113.134 267.538 113.106 255.307C113.106 254.384 113.449 254.151 114.304 254.155C128.371 254.182 142.421 254.155 156.477 254.209C161.644 254.209 168.273 259.301 167.995 265.954C167.841 269.663 167.913 273.382 167.995 277.094C168.019 278.319 167.607 278.631 166.438 278.618C160.893 278.559 155.349 278.58 149.808 278.573H149.187L149.049 278.865Z" fill="#DD2027"/>
<path d="M257.184 293.244C249.811 293.244 242.431 293.21 235.068 293.275C233.76 293.275 233.455 292.904 233.465 291.642C233.529 284.61 233.529 277.581 233.465 270.555C233.465 269.272 233.808 268.874 235.085 268.929C237.486 269.031 239.888 269.038 242.29 268.929C243.631 268.867 243.916 269.347 243.892 270.589C243.82 274.13 243.923 277.674 243.854 281.225C243.834 282.433 244.228 282.769 245.415 282.766C254.272 282.727 263.13 282.727 271.988 282.766C272.929 282.766 273.395 282.45 273.79 281.596C277.869 272.764 277.65 274.319 273.848 266.053C273.241 264.732 272.476 264.41 271.103 264.417C259.558 264.468 248.016 264.448 236.471 264.448C233.476 264.448 233.476 264.448 233.479 261.36C233.479 259.418 233.527 257.472 233.479 255.527C233.452 254.56 233.623 254.12 234.762 254.12C249.735 254.162 264.708 254.162 279.681 254.12C280.542 254.12 281.002 254.364 281.341 255.194C283.736 261.043 286.164 266.876 288.625 272.692C288.748 272.976 288.808 273.283 288.8 273.592C288.793 273.901 288.72 274.205 288.584 274.483C286.134 280.371 283.674 286.255 281.304 292.177C280.906 293.168 280.316 293.23 279.468 293.23C272.041 293.233 264.613 293.237 257.184 293.244Z" fill="#DD2027"/>
<path d="M279.128 315.888C276.274 315.888 273.416 315.854 270.551 315.912C269.556 315.912 269.141 315.724 269.161 314.609C269.227 310.553 269.206 306.494 269.161 302.439C269.161 301.537 269.323 301.121 270.362 301.128C276.188 301.176 282.015 301.176 287.843 301.128C289.003 301.128 289.14 301.591 289.106 302.549C289.006 305.51 289.377 304.978 286.653 305.005C282.655 305.046 278.655 305.005 274.644 305.043C274.092 305.043 273.251 304.751 273.272 305.805C273.292 306.858 274.15 306.491 274.689 306.508C278.974 306.542 283.266 306.638 287.545 306.508C289.545 306.446 288.972 307.695 289.078 308.728C289.202 309.939 288.975 310.563 287.479 310.526C283.198 310.426 278.902 310.498 274.624 310.526C274.068 310.526 273.213 310.251 273.285 311.301C273.351 312.217 274.133 311.888 274.627 311.895C278.967 311.956 283.311 312.063 287.665 311.984C289.761 311.943 288.914 313.356 289.078 314.31C289.27 315.391 288.996 315.967 287.675 315.923C284.844 315.82 281.986 315.888 279.128 315.888Z" fill="#DD2027"/>
<path d="M205.901 310.848L212.327 315.525L212.245 315.868C209.939 315.868 207.637 315.868 205.331 315.868C204.82 315.868 204.504 315.525 204.141 315.261C202.057 313.753 199.978 312.242 197.903 310.728C197.265 310.258 196.795 307.194 197.272 306.611C197.615 306.203 198.119 306.343 198.562 306.343C201.248 306.326 203.935 306.343 206.625 306.309C207.074 306.309 207.757 306.556 207.795 305.726C207.836 304.806 207.108 304.981 206.58 304.981C203.379 304.981 200.178 305.012 196.973 304.954C195.927 304.933 195.748 305.376 195.762 306.282C195.807 308.965 195.721 311.655 195.803 314.341C195.838 315.521 195.529 315.936 194.294 315.885C191.432 315.765 191.775 316.204 191.758 313.277C191.738 309.675 191.758 306.072 191.758 302.47C191.758 301.784 191.648 301.097 192.743 301.097C198.497 301.221 204.274 300.531 209.997 301.763C211.37 302.058 212.104 302.449 211.946 304.041C211.831 305.81 211.824 307.583 211.926 309.352C211.946 310.162 211.675 310.474 210.852 310.454C209.26 310.409 207.668 310.454 206.079 310.454L205.901 310.848Z" fill="#DD2027"/>
<path d="M161.998 301.152C164.334 301.152 166.674 301.19 169.011 301.132C169.985 301.111 170.428 301.293 170.411 302.422C170.342 306.47 170.349 310.519 170.411 314.567C170.411 315.635 170.085 315.923 169.038 315.912C164.194 315.864 159.348 315.864 154.501 315.912C153.578 315.912 153.187 315.717 153.201 314.694C153.251 310.591 153.251 306.486 153.201 302.381C153.201 301.396 153.506 301.115 154.467 301.135C156.978 301.19 159.486 301.152 161.998 301.152Z" fill="#DD2027"/>
<path d="M123.351 301.152C126.151 301.152 128.95 301.193 131.75 301.132C132.838 301.108 133.387 301.252 133.376 302.569C133.366 303.887 132.783 303.907 131.805 303.9C127.465 303.87 123.121 303.945 118.767 303.856C117.433 303.828 117.155 304.25 117.192 305.496C117.278 308.477 117.216 308.474 120.205 308.474C124.034 308.474 127.863 308.539 131.688 308.474C133.284 308.44 133.304 309.256 133.356 310.481C133.418 311.926 132.635 311.854 131.64 311.854C127.413 311.83 123.183 311.895 118.946 311.816C117.632 311.792 117.141 312.118 117.168 313.504C117.213 315.806 115.978 316.571 113.686 315.906C113.051 315.727 113.096 315.302 113.096 314.856C113.096 310.629 113.12 306.398 113.075 302.161C113.075 301.084 113.679 301.149 114.396 301.149C117.409 301.156 120.38 301.152 123.351 301.152Z" fill="#DD2027"/>
<path d="M239.583 315.888C236.728 315.888 233.87 315.857 231.005 315.888C230.045 315.888 229.715 315.617 229.726 314.633C229.774 310.515 229.767 306.398 229.726 302.281C229.726 301.389 229.99 301.101 230.892 301.108C236.663 301.142 242.434 301.152 248.201 301.108C249.347 301.108 249.323 301.694 249.32 302.497C249.317 303.3 249.344 303.904 248.198 303.89C243.738 303.832 239.277 303.928 234.817 303.832C233.407 303.801 233.078 304.268 233.15 305.571C233.258 307.453 233.258 309.34 233.15 311.222C233.067 312.626 233.469 313.102 234.937 313.072C239.219 312.979 243.515 313.072 247.79 313.02C248.997 313.02 249.32 313.363 249.341 314.557C249.361 315.837 248.757 315.899 247.783 315.885C245.069 315.864 242.328 315.892 239.583 315.888Z" fill="#DD2027"/>
<path d="M161.507 313.147C160.207 312.958 158.111 313.868 157.208 312.773C156.44 311.84 156.951 309.829 156.944 308.296C156.944 303.835 156.944 303.798 161.473 303.835C163.116 303.835 165.271 303.129 166.276 304.103C167.354 305.16 166.599 307.342 166.619 309.03C166.671 313.147 166.637 313.147 162.468 313.147H161.507Z" fill="black"/>
</svg>
