<svg width="400" height="378" viewBox="0 0 400 378" fill="none" xmlns="http://www.w3.org/2000/svg">
<path d="M123.848 214.89C135.731 231.125 150.626 231.962 150.626 231.962H176.567L188.283 214.89H123.848Z" fill="#E2012D"/>
<path d="M91.3796 189.284C103.262 205.518 118.158 206.355 118.158 206.355H194.141L205.856 189.284H91.3796Z" fill="#E2012D"/>
<path d="M59.0791 163.677C70.9618 179.912 85.8571 180.749 85.8571 180.749H211.714L223.43 163.677H59.0791Z" fill="#E2012D"/>
<path d="M0 121C23.933 153.468 53.5561 155.142 53.5561 155.142H239.659L177.903 245.015C165.518 262.923 195.811 279.156 195.811 279.156L281.166 155.142C281.166 155.142 310.789 153.468 334.722 121H0Z" fill="#E2012D"/>
<path d="M400 121H358.493C334.56 153.468 304.937 155.142 304.937 155.142H335.063L273.306 245.015C260.921 262.923 291.214 279.156 291.214 279.156L400 121Z" fill="#E2012D"/>
</svg>
