<svg width="25" height="22" viewBox="0 0 25 22" fill="none" xmlns="http://www.w3.org/2000/svg">
<path fill-rule="evenodd" clip-rule="evenodd" d="M1.41271 9.03363C2.12802 8.03219 11.5702 1.73741 13.0008 0.879028C14.4315 0.0206454 21.2985 1.7374 22.586 2.88191C23.7924 3.95427 24.4965 9.79915 24.6981 11.4733C24.7117 11.5859 24.723 11.6797 24.732 11.7518C24.8148 12.4143 23.3158 13.4603 21.983 14.3903C21.0132 15.0669 20.1314 15.6822 20.0109 16.0437C19.87 16.4664 20.0066 16.9932 20.1304 17.4703C20.2579 17.962 20.3718 18.401 20.154 18.6189C19.9363 18.8365 19.6451 18.7598 19.2989 18.6687C18.9625 18.5801 18.5742 18.4778 18.1511 18.6189C17.6883 18.7731 17.5166 19.4264 17.367 19.9958C17.239 20.4825 17.1272 20.9079 16.8635 20.9079C16.5933 20.9079 16.2594 20.589 15.9068 20.2523C15.5126 19.8759 15.0952 19.4772 14.7176 19.4772C14.3762 19.4772 14.3281 19.966 14.2778 20.4769C14.2226 21.0367 14.1649 21.6232 13.7161 21.6232C13.2869 21.6232 13.0366 21.0867 12.7862 20.5502C12.5359 20.0137 12.2855 19.4772 11.8563 19.4772C11.4437 19.4772 11.4278 19.9732 11.4113 20.4882C11.3934 21.0446 11.3749 21.6232 10.8549 21.6232C10.2386 21.6232 9.94742 20.7023 9.68124 19.8605C9.51484 19.3343 9.35823 18.839 9.13811 18.6189C8.89599 18.3767 7.47581 18.2627 5.8961 18.1358C3.74216 17.9628 1.29164 17.766 1.12658 17.1882C0.840451 16.1868 0.697391 10.0351 1.41271 9.03363ZM14.8607 13.0394C14.2884 12.6102 14.2884 4.8848 14.8607 4.16948C15.4329 3.45416 18.0081 3.02495 20.2971 4.16946C22.5861 5.31396 22.443 10.7504 21.7277 11.7518C21.0124 12.7532 19.7248 14.47 18.5803 14.47C17.5993 14.47 17.0387 13.8394 16.7184 13.479C16.665 13.4189 16.6183 13.3664 16.5774 13.3255C16.4495 13.1976 16.2072 13.2126 15.9272 13.23C15.5809 13.2516 15.1771 13.2767 14.8607 13.0394ZM3.55868 10.3212C4.47428 8.48998 6.9464 7.39126 8.26487 6.80527C8.5945 6.65877 8.85202 6.54432 8.99509 6.45848C9.7104 6.02929 11.141 5.31395 11.9994 6.31541C12.8578 7.31686 12.8578 14.47 11.9994 15.1853C11.4775 15.6202 10.6912 15.5792 10.0263 15.5445C9.59763 15.5221 9.21941 15.5024 8.99509 15.6145C8.99509 15.6145 8.42283 16.0437 7.99364 16.1868C7.99364 16.1868 4.41705 16.616 3.8448 16.0437C3.27255 15.4714 2.41418 12.6102 3.55868 10.3212ZM13.5366 16.6779C13.3805 17.1988 13.2072 17.7769 13.0008 18.1897C13.1321 18.1372 13.2988 18.0672 13.4897 17.9871C14.3392 17.6307 15.6683 17.073 16.4861 16.9562C16.7722 16.9562 14.2884 15.1854 14.0023 15.4715C13.8537 15.62 13.7052 16.1156 13.5366 16.6779Z" fill="#F3F3F3"/>
</svg>
