<svg width="41" height="40" viewBox="0 0 41 40" fill="none" xmlns="http://www.w3.org/2000/svg">
<g filter="url(#filter0_d_6_5372)">
<circle cx="20.5" cy="16" r="16" fill="#C13631"/>
<path fill-rule="evenodd" clip-rule="evenodd" d="M9.41271 14.0336C10.128 13.0322 19.5702 6.73741 21.0008 5.87903C22.4315 5.02065 29.2985 6.7374 30.586 7.88191C31.7924 8.95427 32.4965 14.7992 32.6981 16.4733C32.7117 16.5859 32.723 16.6797 32.732 16.7518C32.8148 17.4143 31.3158 18.4603 29.983 19.3903C29.0132 20.0669 28.1314 20.6822 28.0109 21.0437C27.87 21.4664 28.0066 21.9932 28.1304 22.4703C28.2579 22.962 28.3718 23.401 28.154 23.6189C27.9363 23.8365 27.6451 23.7598 27.2989 23.6687C26.9625 23.5801 26.5742 23.4778 26.1511 23.6189C25.6883 23.7731 25.5166 24.4264 25.367 24.9958C25.239 25.4825 25.1272 25.9079 24.8635 25.9079C24.5933 25.9079 24.2594 25.589 23.9068 25.2523C23.5126 24.8759 23.0952 24.4772 22.7176 24.4772C22.3762 24.4772 22.3281 24.966 22.2778 25.4769C22.2226 26.0367 22.1649 26.6232 21.7161 26.6232C21.2869 26.6232 21.0366 26.0867 20.7862 25.5502C20.5359 25.0137 20.2855 24.4772 19.8563 24.4772C19.4437 24.4772 19.4278 24.9732 19.4113 25.4882C19.3934 26.0446 19.3749 26.6232 18.8549 26.6232C18.2386 26.6232 17.9474 25.7023 17.6812 24.8605C17.5148 24.3343 17.3582 23.839 17.1381 23.6189C16.896 23.3767 15.4758 23.2627 13.8961 23.1358C11.7422 22.9628 9.29164 22.766 9.12658 22.1882C8.84045 21.1868 8.69739 15.0351 9.41271 14.0336ZM22.8607 18.0394C22.2884 17.6102 22.2884 9.8848 22.8607 9.16948C23.4329 8.45416 26.0081 8.02495 28.2971 9.16946C30.5861 10.314 30.443 15.7504 29.7277 16.7518C29.0124 17.7532 27.7248 19.47 26.5803 19.47C25.5993 19.47 25.0387 18.8394 24.7184 18.479C24.665 18.4189 24.6183 18.3664 24.5774 18.3255C24.4495 18.1976 24.2072 18.2126 23.9272 18.23C23.5809 18.2516 23.1771 18.2767 22.8607 18.0394ZM11.5587 15.3212C12.4743 13.49 14.9464 12.3913 16.2649 11.8053C16.5945 11.6588 16.852 11.5443 16.9951 11.4585C17.7104 11.0293 19.141 10.314 19.9994 11.3154C20.8578 12.3169 20.8578 19.47 19.9994 20.1853C19.4775 20.6202 18.6912 20.5792 18.0263 20.5445C17.5976 20.5221 17.2194 20.5024 16.9951 20.6145C16.9951 20.6145 16.4228 21.0437 15.9936 21.1868C15.9936 21.1868 12.4171 21.616 11.8448 21.0437C11.2725 20.4714 10.4142 17.6102 11.5587 15.3212ZM21.5366 21.6779C21.3805 22.1988 21.2072 22.7769 21.0008 23.1897C21.1321 23.1372 21.2988 23.0672 21.4897 22.9871C22.3392 22.6307 23.6683 22.073 24.4861 21.9562C24.7722 21.9562 22.2884 20.1854 22.0023 20.4715C21.8537 20.62 21.7052 21.1156 21.5366 21.6779Z" fill="#F3F3F3"/>
</g>
<defs>
<filter id="filter0_d_6_5372" x="0.5" y="0" width="40" height="40" filterUnits="userSpaceOnUse" color-interpolation-filters="sRGB">
<feFlood flood-opacity="0" result="BackgroundImageFix"/>
<feColorMatrix in="SourceAlpha" type="matrix" values="0 0 0 0 0 0 0 0 0 0 0 0 0 0 0 0 0 0 127 0" result="hardAlpha"/>
<feOffset dy="4"/>
<feGaussianBlur stdDeviation="2"/>
<feComposite in2="hardAlpha" operator="out"/>
<feColorMatrix type="matrix" values="0 0 0 0 0 0 0 0 0 0 0 0 0 0 0 0 0 0 0.25 0"/>
<feBlend mode="normal" in2="BackgroundImageFix" result="effect1_dropShadow_6_5372"/>
<feBlend mode="normal" in="SourceGraphic" in2="effect1_dropShadow_6_5372" result="shape"/>
</filter>
</defs>
</svg>
